<?xml version="1.0" encoding="utf-8" ?>
<svg baseProfile="full" height="200mm" version="1.1" viewBox="0,0,200,200" width="200mm" xmlns="http://www.w3.org/2000/svg" xmlns:ev="http://www.w3.org/2001/xml-events" xmlns:xlink="http://www.w3.org/1999/xlink"><defs /><rect fill="#1a1a1a" height="200" width="200" x="0" y="0" /><text alignment-baseline="middle" fill="#e1ed5e" style="dominant-baseline: central; font-size:9.0px; font-family:Arial;" text-anchor="middle" x="100.0" y="100.0">2015</text><line stroke="#e1ed5e" stroke-width="0.3" x1="100.0" x2="100.0" y1="15.0" y2="10.0" /><path d="M 100.0 14.0 a86.0,86.0 0 0,1 42.46469731375804,11.215312516191453" fill="none" id="id61" stroke="none" /><text fill="#e1ed5e" style="font-size:6.75px; font-family:Arial;" text-anchor="middle"><textPath startOffset="22.20632615414155" xlink:href="#id61">January</textPath></text><path d="M 100.36148047927253 79.00311137660856 l 0.3638538641923503 -21.134748623251536 a42.1378804283334,42.1378804283334 0 0,0 0.7251194112449127,0.01872769508181101 l -0.7275999106321308 21.125354136027365" fill="#fffd17" stroke="none" /><path d="M 103.59715602781102 79.31037775812273 l 6.987496864453633 -40.18971360267119 a61.79262423398969,61.79262423398969 0 0,0 1.046369459879136,0.1912173305676433 l -7.67826144543567 40.063480790752806" fill="#31ff3c" stroke="none" /><path d="M 105.71112130821622 79.79150937346287 l 14.971855175572129 -52.97709130116873 a76.05205400464794,76.05205400464794 0 0,0 1.2567050810399545,0.3668666742778974 l -15.881550474335512 52.71152629797213" fill="#43ffde" stroke="none" /><path d="M 106.0581310904928 79.89281104454417 l 7.753288595467605 -25.733487190447484 a47.87612038642357,47.87612038642357 0 0,0 0.7870255740598094,0.2445326769045714 l -8.195099542238133 25.59621437866039" fill="#bbff1f" stroke="none" /><path d="M 108.09893153111575 80.62456947434976 l 10.507347010698847 -25.137188928259462 a48.24486389061711,48.24486389061711 0 0,0 0.7634548511451233,0.3268715241775195 l -10.938485619634287 24.952597876119153" fill="#b7ff1f" stroke="none" /><path d="M 108.76106565485865 80.91482961587045 l 8.141432187837838 -17.73535624511065 a40.514757984923804,40.514757984923804 0 0,0 0.6313005512662221,0.2964040736357071 l -8.445510950403659 17.59258718883494" fill="#ffe915" stroke="none" /><path d="M 109.41281617654863 81.2277094730956 l 8.174848154175745 -16.30336996762475 a39.238092406967326,39.238092406967326 0 0,0 0.6011640342364295,0.3079395676736682 l -8.454272676000931 16.16023787463858" fill="#ffd814" stroke="none" /><path d="M 110.36928655335952 81.73862282372117 l 15.145659635251299 -26.673060075985358 a51.673166442413546,51.673166442413546 0 0,0 0.7696921574785669,0.44585537780273043 l -15.602548525195195 26.408400540792577" fill="#90ff24" stroke="none" /><line stroke="#e1ed5e" stroke-width="0.3" x1="143.23703022742887" x2="145.7803849466894" y1="26.81831364943548" y2="22.513508569990506" /><path d="M 143.74570117128098 25.957352633546492 a86.0,86.0 0 0,1 28.547481713284135,27.462654790039103" fill="none" id="id62" stroke="none" /><text fill="#e1ed5e" style="font-size:6.75px; font-family:Arial;" text-anchor="middle"><textPath startOffset="19.985693538727396" xlink:href="#id62">February</textPath></text><path d="M 110.68208982089419 81.91981866633111 l 13.121531231343251 -22.209105897428813 a46.795716051668805,46.795716051668805 0 0,0 0.6899870870526125,0.4157094996309881 l -13.501880384613502 21.97994978833921" fill="#c8ff1d" stroke="none" /><path d="M 110.99172775467656 82.1063720568725 l 9.546102214381833 -15.540268567745331 a39.238092406967326,39.238092406967326 0 0,0 0.5724666671877195,0.358478574474757 l -9.812188033941815 15.37364565194763" fill="#ffd814" stroke="none" /><path d="M 112.19680574252982 82.90503203632743 l 6.0529683422249 -8.483803225187422 a31.421772541927663,31.421772541927663 0 0,0 0.43759259754060303,0.31792963205358027 l -6.198106256119292 8.378354358317168" fill="#ff6f0a" stroke="none" /><path d="M 113.06298171725822 83.55741782278167 l 12.965651531791991 -16.32007112977974 a41.84353236198054,41.84353236198054 0 0,0 0.5600987970956887,0.4528942749909166 l -13.244653727452171 16.094470757524693" fill="#fffa17" stroke="none" /><path d="M 114.68862486808459 84.99185889309783 l 15.17496763768335 -15.505063111379215 a42.69531343153607,42.69531343153607 0 0,0 0.5208100381807049,0.5185735143638719 l -15.439613476031377 15.241553746365224" fill="#faff18" stroke="none" /><path d="M 115.19652480421416 85.50635884689758 l 11.427155572586402 -10.898616256251781 a36.79112791351929,36.79112791351929 0 0,0 0.43314138484698234,0.46204502944507225 l -11.613064279403847 10.700301809928655" fill="#ffb811" stroke="none" /><path d="M 115.68641384162765 86.03803664274999 l 10.876177041295012 -9.6805290776243 a35.56035268310223,35.56035268310223 0 0,0 0.4030311082199823,0.4607342276670897 l -11.041200013092842 9.491879293754263" fill="#ffa80f" stroke="none" /><path d="M 115.9244219780498 86.31012108654704 l 15.07969355862566 -12.963684280290815 a40.886031980792836,40.886031980792836 0 0,0 0.4542036817973936,0.5376338960320988 l -15.30060785391017 12.70219143462961" fill="#ffed16" stroke="none" /><path d="M 117.04232023915458 87.72973835380427 l 16.915340639431168 -12.178837891069024 a41.84353236198054,41.84353236198054 0 0,0 0.4158198641320554,0.5881477088459841 l -17.122473123367104 11.885863681891246" fill="#fffa17" stroke="none" /><path d="M 117.2510076193507 88.02491185347247 l 12.841857455205789 -8.914399575056194 a36.6326524519541,36.6326524519541 0 0,0 0.3551196093751496,0.5210942072998058 l -12.993401530249672 8.692027344485982" fill="#ffb610" stroke="none" /><path d="M 117.65298651832404 88.62581576622439 l 17.521456941918732 -11.289437007991943 a41.84353236198054,41.84353236198054 0 0,0 0.38490551085352026,0.6088280829118996 l -17.71319004901821 10.986161277365838" fill="#fffa17" stroke="none" /><line stroke="#e1ed5e" stroke-width="0.3" x1="172.23445277983987" x2="176.4835382374775" y1="55.19839476539836" y2="52.563006222186495" /><path d="M 173.08426987136738 54.67131705675599 a86.0,86.0 0 0,1 12.851231095245387,41.99856678651699" fill="none" id="id63" stroke="none" /><text fill="#e1ed5e" style="font-size:6.75px; font-family:Arial;" text-anchor="middle"><textPath startOffset="22.20632615414155" xlink:href="#id63">March</textPath></text><path d="M 118.03404312379186 89.2402003453031 l 12.238905795716986 -7.302199149168641 a35.251769275797095,35.251769275797095 0 0,0 0.30642235424290076,0.5237751316666241 l -12.362787824430214 7.090444605148121" fill="#ffa40f" stroke="none" /><path d="M 118.3937258080291 89.86733742301442 l 21.816726963726403 -12.018311850727203 a45.908018691801175,45.908018691801175 0 0,0 0.3753349995385519,0.6954387506376616 l -22.020370062483423 11.640992116757083" fill="#d3ff1c" stroke="none" /><path d="M 118.73160827565052 90.50648371742162 l 23.240049739596977 -11.778475577967075 a47.054412272006985,47.054412272006985 0 0,0 0.3599438179933427,0.725624773005086 l -23.439353570543727 11.376691216463039" fill="#c5ff1e" stroke="none" /><path d="M 119.04729006885535 91.15688171328212 l 19.968798272346298 -9.270948493334828 a43.015980341736494,43.015980341736494 0 0,0 0.3060232284097927,0.6742816188848637 l -20.125423817719437 8.925844865607901" fill="#f6ff19" stroke="none" /><path d="M 119.34039704204932 91.81776055985345 l 19.26828090168967 -8.151729646234923 a41.92169556063094,41.92169556063094 0 0,0 0.27544213506315446,0.6670049779296032 l -19.405744723639025 7.818850097852017" fill="#fffb17" stroke="none" /><path d="M 119.61058180528143 92.48833698450437 l 17.98030183504589 -6.887198434132548 a40.25421398942248,40.25421398942248 0 0,0 0.24228323532079465,0.6491986150136921 l -18.096189658868308 6.576676682089523" fill="#ffe515" stroke="none" /><path d="M 119.85752413597 93.16781622104841 l 26.398258287313 -9.08259009674088 a48.91704646750986,48.91704646750986 0 0,0 0.26709337755508367,0.7985752026029231 l -26.550688958639853 8.626841791215641" fill="#afff20" stroke="none" /><path d="M 120.37134235888165 94.90015583598534 l 20.24483318131075 -5.068173345294744 a41.869586761530684,41.869586761530684 0 0,0 0.16900798209579151,0.7006471967771286 l -20.32907396366736 4.718940916858209" fill="#fffa17" stroke="none" /><path d="M 120.53481517161879 95.60439243477599 l 12.337652910928004 -2.6409529386627586 a33.617143566384655,33.617143566384655 0 0,0 0.11625241119607074,0.5668880431955404 l -12.381284618039071 2.4281892393038067" fill="#ff8e0d" stroke="none" /><path d="M 120.73433829027371 96.67025291283417 l 18.444691915100645 -2.962050600225196 a39.68101719931957,39.68101719931957 0 0,0 0.10249815835223165,0.6753347984867557 l -18.492945966892176 2.644116689346358" fill="#ffde14" stroke="none" /><path d="M 120.91429891909075 98.10471618934814 l 62.74289675727228 -5.6858514319555935 a84.0,84.0 0 0,0 0.118102064722021,1.441144331168925 l -62.831473305813795 4.6049931835789" fill="#4dd2ff" stroke="none" /><line stroke="#e1ed5e" stroke-width="0.3" x1="184.98032266829074" x2="189.97916517819016" y1="98.17113171792111" y2="98.06355123074" /><path d="M 185.9800911702706 98.14961562048488 a86.0,86.0 0 0,1 -9.607161424134198,41.387399972396054" fill="none" id="id64" stroke="none" /><text fill="#e1ed5e" style="font-size:6.75px; font-family:Arial;" text-anchor="middle"><textPath startOffset="21.466115282336823" xlink:href="#id64">April</textPath></text><path d="M 120.99824983174949 100.27111621757518 l 11.784273536266038 0.15215114086284842 a32.78525573533328,32.78525573533328 0 0,0 -0.012142936379305812,0.5642345387940474 l -11.779908537201726 -0.3549754954470106" fill="#ff820c" stroke="none" /><path d="M 120.95626037817324 101.35467743843564 l 15.836684284300965 1.023732217123794 a36.86973839648916,36.86973839648916 0 0,0 -0.046391684265754664,0.6329776734414684 l -15.816716041370873 -1.2961830270620325" fill="#ffb911" stroke="none" /><path d="M 120.92983693683757 101.71520430193887 l 18.203124497660625 1.491749674941992 a39.26414680651746,39.26414680651746 0 0,0 -0.06100041149518168,0.6731344577670235 l -18.174749489888367 -1.8048655212575861" fill="#ffd914" stroke="none" /><path d="M 120.8583938346157 102.4346265915055 l 15.55311783092717 1.8153859090124624 a36.658706851504235,36.658706851504235 0 0,0 -0.07855173720380565,0.626134633257981 l -15.519564584476516 -2.0828382965578385" fill="#ffb710" stroke="none" /><path d="M 120.70491114924044 103.5080841355445 l 26.744280479104262 4.531349368709556 a48.12544313824756,48.12544313824756 0 0,0 -0.14541574195832793,0.8155687059789051 l -26.662318294806745 -4.99103682542168" fill="#b8ff1f" stroke="none" /><path d="M 120.64145759157962 103.86396538481128 l 11.561603786053373 2.1642675486462366 a32.762429006281266,32.762429006281266 0 0,0 -0.10853735151652541,0.5534296170423462 l -11.522636501561184 -2.3629608927565275" fill="#ff820c" stroke="none" /><path d="M 120.5718875245553 104.21870165774334 l 17.891808277887755 3.669094590948708 a39.26414680651746,39.26414680651746 0 0,0 -0.14147425770379676,0.6609206327866038 l -17.825999981459518 -3.976529043151481" fill="#ffd914" stroke="none" /><path d="M 120.41448212921028 104.9243191809786 l 20.957763781811416 5.055367925964864 a42.55886378270155,42.55886378270155 0 0,0 -0.17791365317042399,0.7106766054986604 l -20.86763881434593 -5.41537237086092" fill="#fbff18" stroke="none" /><path d="M 120.13307415673323 105.97154293290107 l 19.222365664433113 5.701423485727186 a41.050076595883084,41.050076595883084 0 0,0 -0.2067618614484295,0.6757097263747072 l -19.121377030478552 -6.03146018465395" fill="#fff016" stroke="none" /><path d="M 120.02730092923936 106.31721596034902 l 16.598199399968266 5.235573706761964 a38.40435162136309,38.40435162136309 0 0,0 -0.20428874622871507,0.628736111098294 l -16.505618402723304 -5.520508717838053" fill="#ffce13" stroke="none" /><path d="M 119.9155931802556 106.66101706037122 l 12.379216818276797 4.140382547195505 a34.05326689649102,34.05326689649102 0 0,0 -0.1907131630173664,0.5543017225812444 l -12.3061128243162 -4.35285697286605" fill="#ff940d" stroke="none" /><path d="M 119.79798401119884 107.00284435728193 l 12.355238975336663 4.370233630472907 a34.10537569559128,34.10537569559128 0 0,0 -0.20053268893845297,0.5517798345957471 l -12.278182025392983 -4.582261262074785" fill="#ff940d" stroke="none" /><path d="M 119.41010516605496 108.01547362559984 l 21.69774939733652 8.960164643176622 a44.475026716543894,44.475026716543894 0 0,0 -0.29829827973671685,0.7050890174102584 l -21.54030013640749 -9.332328186253044" fill="#e4ff1a" stroke="none" /><path d="M 119.12269723197855 108.67885076344098 l 14.258890960267784 6.47140856727029 a36.658706851504235,36.658706851504235 0 0,0 -0.26573265222031106,0.5723644921960134 l -14.145383691207641 -6.715893126745134" fill="#ffb710" stroke="none" /><path d="M 118.97047184881838 109.00673069616215 l 11.791744390237888 5.598440935324901 a34.05326689649102,34.05326689649102 0 0,0 -0.25596177529719344,0.5273570704857604 l -11.69362935832598 -5.800586961775937" fill="#ff940d" stroke="none" /><path d="M 118.81262510543309 109.33194174019688 l 11.69362935832598 5.800586961775937 a34.05326689649102,34.05326689649102 0 0,0 -0.2650014368737034,0.5228729756446472 l -11.592049251666007 -6.001014149123279" fill="#ff940d" stroke="none" /><line stroke="#e1ed5e" stroke-width="0.3" x1="174.80103733775053" x2="179.2010983576182" y1="140.37084112569926" y2="142.7455964860345" /><path d="M 175.68104954172406 140.8457921977663 a86.0,86.0 0 0,1 -30.038265399797805,32.042727171017184" fill="none" id="id65" stroke="none" /><text fill="#e1ed5e" style="font-size:6.75px; font-family:Arial;" text-anchor="middle"><textPath startOffset="22.206326154141568" xlink:href="#id65">May</textPath></text><path d="M 118.30583269289576 110.29060199501025 l 24.029079321411785 13.507918254881845 a48.56556744591465,48.56556744591465 0 0,0 -0.41592477908927283,0.72519991074611 l -23.793002546170136 -13.91953801148627" fill="#b3ff20" stroke="none" /><path d="M 117.75023020441432 111.22182372390056 l 15.437752871566845 9.7598588538181 a39.26414680651746,39.26414680651746 0 0,0 -0.3660823327793161,0.5681679100958913 l -15.267465675410477 -10.024148363835446" fill="#ffd914" stroke="none" /><path d="M 117.35343817320211 111.8261652097733 l 10.78662190697917 7.3509567069127355 a34.05326689649102,34.05326689649102 0 0,0 -0.33427188315277695,0.4815435788566915 l -10.658489116664255 -7.535541547956447" fill="#ff940d" stroke="none" /><path d="M 117.14729908036423 112.12312394758627 l 13.509259874458872 9.551033730190225 a37.54455643620874,37.54455643620874 0 0,0 -0.3776270955058051,0.5244910074584326 l -13.342852986577464 -9.78215834309979" fill="#ffc212" stroke="none" /><path d="M 116.93607887273984 112.41649034213515 l 22.076653753698338 16.18524336000048 a48.37408890873124,48.37408890873124 0 0,0 -0.49811198620966857,0.6673024058252731 l -21.79478050079358 -16.56285864533507" fill="#b5ff1f" stroke="none" /><path d="M 116.498646956653 112.99209946851258 l 10.255297245531947 8.075682948012082 a34.05326689649102,34.05326689649102 0 0,0 -0.36661112768152443,0.45740375082053686 l -10.114768205795569 -8.251014532410869" fill="#ff940d" stroke="none" /><path d="M 116.0416608686014 113.55231037782055 l 10.548419056699027 8.911511733271416 a34.80884448344485,34.80884448344485 0 0,0 -0.390617377890936,0.4543762583160546 l -10.393459169237312 -9.091765090748998" fill="#ff9e0e" stroke="none" /><path d="M 115.07121518719521 114.62390073753431 l 14.977620616708055 14.533084058761188 a41.869586761530684,41.869586761530684 0 0,0 -0.5063416230067311,0.5129213908335756 l -14.725238368645789 -14.788745943575428" fill="#fffa17" stroke="none" /><path d="M 114.81725581225074 114.88116024355365 l 9.210190030845954 9.249912092985582 a34.05329361242806,34.05329361242806 0 0,0 -0.4189366679300881,0.4100177040499938 l -9.049603410540072 -9.407079899958148" fill="#ff940d" stroke="none" /><path d="M 114.55890576462653 115.13401014063108 l 9.049584888882464 9.407060646659954 a34.05326689649102,34.05326689649102 0 0,0 -0.42593204455399736,0.4027453334635752 l -8.88631700993766 -9.56144061686945" fill="#ff940d" stroke="none" /><path d="M 114.0293411484842 115.62618273729858 l 12.184210489282096 13.571036415762334 a39.238092406967326,39.238092406967326 0 0,0 -0.5064659525841166,0.44689731736890737 l -11.948802183791392 -13.77875687490353" fill="#ffd814" stroke="none" /><path d="M 113.20401910651253 116.32954008644616 l 7.901381585663518 9.771716194939566 a33.566553559218484,33.566553559218484 0 0,0 -0.45241721334469154,0.3594275961523223 l -7.732006879601475 -9.906277705097015" fill="#ff8d0d" stroke="none" /><path d="M 112.92097659922987 116.55440617244103 l 8.141167125050577 10.43049542507832 a34.231547036177744,34.231547036177744 0 0,0 -0.46762130590014694,0.3585520769688071 l -7.960417090656936 -10.5690868438745" fill="#ff960d" stroke="none" /><path d="M 112.63410532772338 116.77436683061366 l 9.416305224883974 12.5020770314957 a36.651477060955926,36.651477060955926 0 0,0 -0.5072128614415723,0.37522394914752827 l -9.199707393023838 -12.662310929382999" fill="#ffb710" stroke="none" /><line stroke="#e1ed5e" stroke-width="0.3" x1="143.8653032363475" x2="146.44561519142675" y1="172.8068346515853" y2="177.08958963109032" /><path d="M 144.38136562736335 173.6633856474863 a86.0,86.0 0 0,1 -40.68145358897372,12.25698825130547" fill="none" id="id66" stroke="none" /><text fill="#e1ed5e" style="font-size:6.75px; font-family:Arial;" text-anchor="middle"><textPath startOffset="21.466115282336833" xlink:href="#id66">June</textPath></text><path d="M 110.5260780823613 118.17145234162733 l 9.150503334397506 15.796760573298489 a39.25566640478888,39.25566640478888 0 0,0 -0.5876222447464498,0.33366724656557023 l -8.877232322729856 -15.951930985658686" fill="#ffd914" stroke="none" /><path d="M 109.89434966115114 118.52300852407294 l 8.600818895593324 16.10141617923655 a39.254579936327644,39.254579936327644 0 0,0 -0.5987428129098401,0.31323394138149935 l -8.322385180156989 -16.24707953956277" fill="#ffd914" stroke="none" /><path d="M 109.2508944713604 118.85261126421891 l 6.721853361918899 13.698620041517394 a36.25894831438269,36.25894831438269 0 0,0 -0.5626824727281731,0.27012178106707896 l -6.485058221190493 -13.812296099084033" fill="#ffb110" stroke="none" /><path d="M 108.59647513512805 119.15986991738527 l 11.068844599459075 24.670300248385395 a48.039656712178484,48.039656712178484 0 0,0 -0.757377958759103,0.33201223983348 l -10.642545966042217 -24.85717704151333" fill="#b9ff1f" stroke="none" /><path d="M 107.59598834532513 119.57807347666477 l 4.72238087271095 12.171572086156747 a34.055575366695116,34.055575366695116 0 0,0 -0.5483430562201164,0.20733642401226124 l -4.512167595730559 -12.251056760275638" fill="#ff940d" stroke="none" /><path d="M 106.91757812671514 119.82793768551818 l 9.771734090258644 28.00883937585643 a50.664488371000914,50.664488371000914 0 0,0 -0.8259041826020715,0.2801915404639441 l -9.288160174719344 -28.172893903218498" fill="#9bff22" stroke="none" /><path d="M 106.2309692047433 120.05430185196036 l 4.646139056086947 14.953544467210747 a36.658706851504235,36.658706851504235 0 0,0 -0.6042140879030685,0.18204474824145372 l -4.388049993743633 -15.031304584557926" fill="#ffb710" stroke="none" /><path d="M 105.53697534728816 120.25689768951611 l 4.128660657485291 15.104610601954583 a36.658706851504235,36.658706851504235 0 0,0 -0.6101223047034462,0.1611388459875151 l -3.8680479099703473 -15.173440797245682" fill="#ffb710" stroke="none" /><path d="M 105.18746579009965 120.34920634021253 l 3.8616118953823517 15.148193828078252 a36.6326524519541,36.6326524519541 0 0,0 -0.612370110209621,0.150505674198765 l -3.6002885004295195 -15.212420760591048" fill="#ffb610" stroke="none" /><path d="M 104.48393922423573 120.51570834832081 l 5.715947004142262 26.152607296194667 a47.76996299106776,47.76996299106776 0 0,0 -0.8048295615924943,0.16865985984295914 l -5.26492598112039 -26.247123136764166" fill="#bcff1f" stroke="none" /><path d="M 103.7750983002368 120.6578951692458 l 3.9868249461909455 21.816494630452464 a43.17778643400039,43.17778643400039 0 0,0 -0.7322768118109242,0.12731571010998666 l -3.6106991629079714 -21.88188891908346" fill="#f4ff19" stroke="none" /><path d="M 103.06178313531738 120.77559828337769 l 1.903155830689181 12.913782348914744 a34.05326689649102,34.05326689649102 0 0,0 -0.5806429167770194,0.0804718174349876 l -1.680584322725331 -12.944628731842334" fill="#ff940d" stroke="none" /><line stroke="#e1ed5e" stroke-width="0.3" x1="102.19456741930631" x2="102.32365962044197" y1="184.97166512339345" y2="189.96999836594603" /><path d="M 102.22038585953345 185.97133177190398 a86.0,86.0 0 0,1 -42.740103519485714,-10.115201625700543" fill="none" id="id67" stroke="none" /><text fill="#e1ed5e" style="font-size:6.75px; font-family:Arial;" text-anchor="middle"><textPath startOffset="22.20632615414155" xlink:href="#id67">July</textPath></text><path d="M 100.18074693466247 120.99922214144158 l 0.09923165742505627 11.528757716547577 a32.52918476774011,32.52918476774011 0 0,0 -0.5599571841750155,0.0 l 0.09923165742504833 -11.528757716547577" fill="#ff7f0b" stroke="none" /><path d="M 99.45781275523022 120.99299961872073 l -0.37058143052676223 14.34857773730297 a35.353362452055535,35.353362452055535 0 0,0 -0.608211921609405,-0.020948048347918777 l 0.6175137038108102 -14.340072890528958" fill="#ffa50f" stroke="none" /><path d="M 98.73552117531835 120.96189622390904 l -1.077587627540583 17.863707623859163 a38.89617962487392,38.89617962487392 0 0,0 -0.6679719445791126,-0.046067256155359664 l 1.3849223328986255 -17.84251202318752" fill="#ffd413" stroke="none" /><path d="M 98.37488393609728 120.93702456842531 l -1.52237843232956 19.61341429582524 a40.67240850610072,40.67240850610072 0 0,0 -0.6975428111718776,-0.060186928854987165 l 1.8597655612429793 -19.58430311469159" fill="#ffeb16" stroke="none" /><path d="M 96.93821686468263 120.77559828337769 l -4.478732587372651 30.390248081460623 a51.71849970362997,51.71849970362997 0 0,0 -0.8796187277195315,-0.13737835499698517 l 5.001187178700699 -30.308651419116533" fill="#8fff24" stroke="none" /><path d="M 96.22490169976321 120.6578951692458 l -1.5258264959412997 8.349547824393314 a29.487820413247892,29.487820413247892 0 0,0 -0.49853005820937446,-0.09554447216736281 l 1.6693241687223692 -8.322046153877482" fill="#ff5407" stroke="none" /><path d="M 94.46302465271185 120.25689768951611 l -1.549784696807788 5.669851873078844 a26.877844236547553,26.877844236547553 0 0,0 -0.44523639421113964,-0.1258282523502028 l 1.6471522591235415 -5.64233482739012" fill="#ff2e04" stroke="none" /><path d="M 94.11515582081647 120.15858648285463 l -4.615494718778196 15.81041852879743 a37.47034078441641,37.47034078441641 0 0,0 -0.6175915553208966,-0.18607526943740677 l 4.886961248539339 -15.728627890254296" fill="#ffc112" stroke="none" /><path d="M 93.76903079525671 120.05430185196036 l -2.323061414857817 7.476746121411801 a28.82932608218917,28.82932608218917 0 0,0 -0.4726343621671789,-0.1513225974647041 l 2.451417122115936 -7.43565067728739" fill="#ff4b06" stroke="none" /><path d="M 92.7421414339146 119.70592522655815 l -2.9304985852253003 7.956642509793531 a29.479149838672566,29.479149838672566 0 0,0 -0.47465611557737597,-0.17947432820204995 l 3.0670249215629592 -7.905019931484849" fill="#ff5407" stroke="none" /><path d="M 91.7346041902142 119.30500536409082 l -4.747775638735906 11.089104052921542 a33.06273609975345,33.06273609975345 0 0,0 -0.5212565886607357,-0.22850357014977896 l 4.937952902054385 -11.00573592947731" fill="#ff860c" stroke="none" /><line stroke="#e1ed5e" stroke-width="0.3" x1="58.666819895761336" x2="56.23545636021788" y1="174.27360380694188" y2="178.64263932499728" /><path d="M 58.180547188652646 175.14741091055294 a86.0,86.0 0 0,1 -31.652253787137756,-30.449443065178592" fill="none" id="id68" stroke="none" /><text fill="#e1ed5e" style="font-size:6.75px; font-family:Arial;" text-anchor="middle"><textPath startOffset="22.20632615414155" xlink:href="#id68">August</textPath></text><path d="M 89.7882731507175 118.34994917583269 l -16.82892665750182 30.24071769709276 a55.60800166549399,55.60800166549399 0 0,0 -0.8324020901235998,-0.47265963113225934 l 17.346977514546627 -29.946554900165864" fill="#65ff29" stroke="none" /><path d="M 89.4739219176387 118.17145234162733 l -8.02408800629653 13.852199427987886 a37.00841707744834,37.00841707744834 0 0,0 -0.5484861160420871,-0.324055265207123 l 8.261341993367 -13.712025590487013" fill="#ffbb11" stroke="none" /><path d="M 88.24862548938628 117.40417183066458 l -7.316574409558804 10.836087142043985 a34.074901362556496,34.074901362556496 0 0,0 -0.4832845132376927,-0.33240749502835065 l 7.502015807419387 -10.708538857650533" fill="#ff940d" stroke="none" /><path d="M 87.65650970185807 116.9893568818739 l -1.6205471021452067 2.2304917326646154 a23.757039404824752,23.757039404824752 0 0,0 -0.32876917663811805,-0.243215577115936 l 1.6587012492018889 -2.2022662068089125" fill="#ff0000" stroke="none" /><path d="M 87.36589467227662 116.77436683061367 l -9.566642675759615 12.701680840705189 a36.90136309455269,36.90136309455269 0 0,0 -0.504092426250374,-0.38651657684500607 l 9.783863830503476 -12.535124922032816" fill="#ffba11" stroke="none" /><path d="M 87.07902340077011 116.55440617244103 l -9.467324274400445 12.129573194488778 a36.3869027031795,36.3869027031795 0 0,0 -0.4904304844455937,-0.3896276377304812 l 9.674712251563397 -11.964811642753167" fill="#ffb310" stroke="none" /><path d="M 86.79598089348748 116.32954008644616 l -13.596129690120044 16.814467095539985 a42.62362241294369,42.62362241294369 0 0,0 -0.5665488688135568,-0.46623114858293513 l 13.88354868747829 -16.57794082809987" fill="#fbff18" stroke="none" /><path d="M 85.18274418774928 114.88116024355367 l -8.850277982863968 8.88844780246715 a33.543202330790564,33.543202330790564 0 0,0 -0.4056481284553977,-0.41091941247265706 l 9.001966736374898 -8.734787896013827" fill="#ff8d0d" stroke="none" /><path d="M 84.67929136418377 114.36230785411682 l -9.098995531134655 8.529799638372069 a33.47193655958772,33.47193655958772 0 0,0 -0.39043195674333775,-0.42373677779692426 l 9.244473895873723 -8.371911605773802" fill="#ff8c0c" stroke="none" /><path d="M 83.95833913139862 113.55231037782056 l -14.097805806428475 11.910103417590653 a39.45531608977405,39.45531608977405 0 0,0 -0.4338281100282735,-0.5225739055899499 l 14.300729916350285 -11.665668254886942" fill="#ffdb14" stroke="none" /><path d="M 83.72743513129214 113.27417163493432 l -9.725532687632677 7.933499800333045 a33.55095235988473,33.55095235988473 0 0,0 -0.3612033029557443,-0.4506566579840614 l 9.860653902643282 -7.764915308770724" fill="#ff8d0d" stroke="none" /><path d="M 83.28015986056508 112.70617746262583 l -17.62936479779031 13.397367188085035 a43.142356485838306,43.142356485838306 0 0,0 -0.44424040563270273,-0.5951326200745443 l 17.857366470118098 -13.091921688501182" fill="#f4ff19" stroke="none" /><path d="M 82.44556493220864 111.52570212397912 l -17.59457586164506 11.55205733456784 a42.048019584092124,42.048019584092124 0 0,0 -0.39203798758057035,-0.6084516627469297 l 17.790818712602675 -11.247484071899462" fill="#fffc17" stroke="none" /><path d="M 82.24976979558568 111.22182372390057 l -5.215445826477171 3.2972425164223855 a27.17030658727924,27.17030658727924 0 0,0 -0.24651924552092197,-0.39746751721631957 l 5.271429711666049 -3.2069786678408017" fill="#ff3304" stroke="none" /><path d="M 82.05923443525364 110.91462005526583 l -11.127786009426584 6.769809009034391 a34.025280630005376,34.025280630005376 0 0,0 -0.30010155630530994,-0.5029874701769681 l 11.242668441430126 -6.577259444971312" fill="#ff930d" stroke="none" /><line stroke="#e1ed5e" stroke-width="0.3" x1="26.63291911575756" x2="22.317208475507996" y1="142.92168965132927" y2="145.44649492493687" /><path d="M 25.769776987707644 143.4266507060508 a86.0,86.0 0 0,1 -11.730757126820373,-40.83630448921669" fill="none" id="id69" stroke="none" /><text fill="#e1ed5e" style="font-size:6.75px; font-family:Arial;" text-anchor="middle"><textPath startOffset="21.46611528233685" xlink:href="#id69">September</textPath></text><path d="M 81.51974371655577 109.97397251340807 l -17.438727711757927 9.411849500252954 a40.816461218397336,40.816461218397336 0 0,0 -0.3283732736183067,-0.6211584829866299 l 17.598153493601117 -9.110276002180198" fill="#ffed16" stroke="none" /><path d="M 81.35079622478065 109.6543875284942 l -17.671779095709365 9.148390771225525 a40.89936758066936,40.89936758066936 0 0,0 -0.31827757404444884,-0.6279918485909801 l 17.826635339540083 -8.84284471093186" fill="#ffee16" stroke="none" /><path d="M 80.87730276802145 108.67885076344099 l -18.702379897201673 8.488089419601097 a41.53841950624238,41.53841950624238 0 0,0 -0.2898964621339013,-0.6536399916810498 l 18.845717444066857 -8.164901091427351" fill="#fff617" stroke="none" /><path d="M 80.58989483394504 108.01547362559985 l -14.361206458585146 5.930512514785079 a36.53754258671976,36.53754258671976 0 0,0 -0.23505364213929525,-0.583383863180836 l 14.461162714981828 -5.682429283761438" fill="#ffb510" stroke="none" /><path d="M 80.20201598880116 107.00284435728193 l -12.954876802760223 4.582334538010293 a34.74141997003719,34.74141997003719 0 0,0 -0.19456712069182872,-0.5655031275808254 l 13.03183475439528 -4.358658707340171" fill="#ff9d0e" stroke="none" /><path d="M 79.97269907076064 106.31721596034903 l -10.2883574259605 3.245258857730741 a31.788049108990762,31.788049108990762 0 0,0 -0.1601106928567419,-0.5232510081985245 l 10.342694891323372 -3.0676808769801682" fill="#ff740a" stroke="none" /><path d="M 79.76711848015287 105.62410040840567 l -12.297017170259155 3.418181400488359 a33.7632517554224,33.7632517554224 0 0,0 -0.1508283617206248,-0.5612884434902315 l 12.354033608321554 -3.2060020238225886" fill="#ff900d" stroke="none" /><path d="M 79.50377843672027 104.57218783832718 l -11.746375876337064 2.6203189090435512 a33.03509108454458,33.03509108454458 0 0,0 -0.11903009155893918,-0.5560689606054668 l 11.789740006620443 -2.4177361290219204" fill="#ff860c" stroke="none" /><path d="M 79.35854240842038 103.8639653848113 l -12.94945898171662 2.4240662770732966 a34.174391266195386,34.174391266195386 0 0,0 -0.10326127174917403,-0.5791440503212174 l 12.989266695804984 -2.2008034760188653" fill="#ff950d" stroke="none" /><path d="M 79.23777060512086 103.15116336523772 l -15.965859174511564 2.4231998196530036 a37.14870138885172,37.14870138885172 0 0,0 -0.09051183619340879,-0.6330395715261223 l 16.005205061721572 -2.1480147761464807" fill="#ffbd11" stroke="none" /><path d="M 79.10278846688536 102.07522291339032 l -23.91851434781647 2.3752570504532593 a45.03616389240243,45.03616389240243 0 0,0 -0.06996776329149673,-0.7720884376019963 l 23.955856707385042 -1.9631872243026967" fill="#ddff1b" stroke="none" /><line stroke="#e1ed5e" stroke-width="0.3" x1="15.007084014347285" x2="10.007500721073583" y1="101.09737516637583" y2="101.16192664675087" /><path d="M 14.007167355692545 101.11028546245083 a86.0,86.0 0 0,1 10.666146001902534,-42.60595125391555" fill="none" id="id70" stroke="none" /><text fill="#e1ed5e" style="font-size:6.75px; font-family:Arial;" text-anchor="middle"><textPath startOffset="22.20632615414155" xlink:href="#id70">October</textPath></text><path d="M 79.12142395522702 97.74499172005258 l -14.92326596614942 -1.61179997358821 a36.01005550460399,36.01005550460399 0 0,0 0.071865176881863,-0.6156969481998734 l 14.893310436263969 1.8684406601129453" fill="#ffae10" stroke="none" /><path d="M 79.26566170972629 96.67025291283419 l -18.801045255290582 -3.019277721722268 a40.041936368247136,40.041936368247136 0 0,0 0.11514561897162505,-0.6795959611903134 l 18.746287774798734 3.342459471228409" fill="#ffe315" stroke="none" /><path d="M 79.32604984820605 96.31383870115002 l -11.044251998473252 -1.9691879874241682 a32.21843142046142,32.21843142046142 0 0,0 0.1020469353662743,-0.5451388092123146 l 11.008719339197116 2.1590048740990557" fill="#ff7a0b" stroke="none" /><path d="M 79.71946130924805 94.55025226153421 l -16.664286458352123 -4.477995324698314 a38.25545957933424,38.25545957933424 0 0,0 0.17636355168301895,-0.63447353114265 l 16.58473613610274 4.764180159259907" fill="#ffcc13" stroke="none" /><path d="M 79.91906864156998 93.8553929516997 l -17.987211066459977 -5.503945107199266 a39.81045384068239,39.81045384068239 0 0,0 0.20615088304158372,-0.6535546350506745 l 17.88980469965019 5.812749908676356" fill="#ffe015" stroke="none" /><path d="M 80.14247586403 93.16781622104843 l -13.224514536394434 -4.550029151740964 a34.98536914082,34.98536914082 0 0,0 0.2008275460313053,-0.5677665163586976 l 13.14423390955332 4.776993294526273" fill="#ffa00e" stroke="none" /><path d="M 80.65960295795068 91.81776055985345 l -19.785957229213643 -8.370740230923928 a42.483793787175486,42.483793787175486 0 0,0 0.2907293261116628,-0.6710433685910775 l 19.6389371932593 8.710082744101607" fill="#fcff18" stroke="none" /><path d="M 80.803312248108 91.48605970444005 l -13.602313667044712 -6.0327744004318475 a35.88009758244808,35.88009758244808 0 0,0 0.25525730694983767,-0.5624256402257488 l 13.496454043131521 6.266022049499668" fill="#ffac0f" stroke="none" /><path d="M 81.10775173730289 90.83032412892265 l -16.481174272734073 -7.999419865454114 a39.31992968305428,39.31992968305428 0 0,0 0.3007787140456457,-0.6063515337501046 l 16.341035545735014 8.28193098770318" fill="#ffd914" stroke="none" /><path d="M 81.26839172434947 90.50648371742162 l -13.950866817943314 -7.070550448377221 a36.64031229275935,36.64031229275935 0 0,0 0.28996544138686275,-0.5601209386131285 l 13.827091943396338 7.3096441092506845" fill="#ffb610" stroke="none" /><line stroke="#e1ed5e" stroke-width="0.3" x1="26.266209847984243" x2="21.928928074336255" y1="57.711370442889674" y2="55.22380399835377" /><path d="M 25.398753493254645 57.213857153982495 a86.0,86.0 0 0,1 29.58750427330803,-30.492523968695096" fill="none" id="id71" stroke="none" /><text fill="#e1ed5e" style="font-size:6.75px; font-family:Arial;" text-anchor="middle"><textPath startOffset="21.46611528233685" xlink:href="#id71">November</textPath></text><path d="M 81.78341655067845 89.55222093294921 l -12.149194564021526 -6.967942205004351 a35.005539872733614,35.005539872733614 0 0,0 0.30428203065289583,-0.5201166248552197 l 12.027452858898306 7.176038242213463" fill="#ffa10e" stroke="none" /><path d="M 82.34701348167596 88.62581576622439 l -11.542564044894329 -7.43711268574891 a34.73103892030806,34.73103892030806 0 0,0 0.3281311894906735,-0.49976631338122324 l 11.412836220045735 7.634697063107801" fill="#ff9d0e" stroke="none" /><path d="M 82.7489923806493 88.02491185347247 l -18.71021785113472 -12.988024407150778 a43.776326087358,43.776326087358 0 0,0 0.43502699075151824,-0.6153148273248755 l 18.483878240579322 13.30816573480744" fill="#ecff1a" stroke="none" /><path d="M 82.95767976084542 87.72973835380427 l -14.09213029967041 -10.14616105687123 a38.36469753767278,38.36469753767278 0 0,0 0.390474772543182,-0.5326071509245294 l 13.915392914613594 10.387230651467261" fill="#ffcd13" stroke="none" /><path d="M 84.07557802195018 86.31012108654704 l -9.7205532845925 -8.356548050614746 a33.81877730053983,33.81877730053983 0 0,0 0.3832925791132101,-0.4381696767482815 l 9.575268841901446 8.522633283565971" fill="#ff900d" stroke="none" /><path d="M 84.31358615837235 86.03803664274999 l -13.642807870060716 -12.143016593525319 a39.26414680651746,39.26414680651746 0 0,0 0.4536997580184129,-0.5009866046212055 l 13.43176447142626 12.376055985416082" fill="#ffd914" stroke="none" /><path d="M 84.80347519578584 85.50635884689758 l -17.954779021733486 -17.124318058039936 a45.81161741346568,45.81161741346568 0 0,0 0.549162916215706,-0.5659606579434492 l 17.65735184181466 17.43084291153351" fill="#d4ff1c" stroke="none" /><path d="M 85.05521093208273 85.24692304244772 l -11.143622427241992 -11.000671773142537 a36.658706851504235,36.658706851504235 0 0,0 0.44717372892936263,-0.4452534228259969 l 10.952612898145317 11.190861046618643" fill="#ffb710" stroke="none" /><path d="M 85.31137513191541 84.99185889309783 l -14.597406242479455 -14.914938236180486 a41.869586761530684,41.869586761530684 0 0,0 0.5194156635429532,-0.49967745679582476 l 14.338507335324074 15.163998779738623" fill="#fffa17" stroke="none" /><path d="M 85.83668400450813 84.49514656593479 l -13.393030522955323 -14.661607166180612 a40.857894935874036,40.857894935874036 0 0,0 0.5233488003670628,-0.46986772031496404 l 13.13867073499229 14.889973895264855" fill="#ffed16" stroke="none" /><path d="M 86.37877921826538 84.01681056812374 l -11.829765872046652 -13.881089800791562 a39.238092406967326,39.238092406967326 0 0,0 0.5178353130806168,-0.43367218255865503 l 11.589073022006923 14.08266314074403" fill="#ffd814" stroke="none" /><path d="M 86.93701828274178 83.55741782278169 l -11.409774297609065 -14.361663789523146 a39.34231000516785,39.34231000516785 0 0,0 0.5338703598237355,-0.416694283953752 l 11.160871382625903 14.55593646270012" fill="#ffda14" stroke="none" /><path d="M 87.22198572758235 83.33499621200491 l -7.942610985954244 -10.358702013130177 a34.05326689649102,34.05326689649102 0 0,0 0.46823865683113697,-0.35266764871982176 l 7.763126175364717 10.493886251355853" fill="#ff940d" stroke="none" /><path d="M 87.51073957382395 83.11751280151077 l -13.961224865445573 -18.872230382202147 a44.475026716543894,44.475026716543894 0 0,0 0.6193776127878072,-0.4500041765847803 l 13.634301936303984 19.109753793603595" fill="#e4ff1a" stroke="none" /><path d="M 87.80319425747018 82.90503203632743 l -7.5813409829474345 -10.625960924608647 a34.05326689649102,34.05326689649102 0 0,0 0.4801005677855982,-0.3363411289398625 l 7.397309275578176 10.754886896312453" fill="#ff940d" stroke="none" /><path d="M 88.70189139769569 82.29822771554957 l -11.227945605570763 -17.591841548723686 a41.869586761530684,41.869586761530684 0 0,0 0.6108590229438912,-0.3825198641271519 l 10.92346743025463 17.782505754173766" fill="#fffa17" stroke="none" /><path d="M 89.00827224532344 82.1063720568725 l -6.832283620731477 -11.122395299435848 a34.05326689649102,34.05326689649102 0 0,0 0.502103961922305,-0.30251201897861724 l 6.639817592591523 11.238353927873083" fill="#ff940d" stroke="none" /><line stroke="#e1ed5e" stroke-width="0.3" x1="56.762969772571076" x2="54.21961505331055" y1="26.818313649435495" y2="22.513508569990535" /><path d="M 56.25429882871897 25.957352633546506 a86.0,86.0 0 0,1 42.265352541879196,-11.944610805530505" fill="none" id="id72" stroke="none" /><text fill="#e1ed5e" style="font-size:6.75px; font-family:Arial;" text-anchor="middle"><textPath startOffset="22.20632615414155" xlink:href="#id72">December</textPath></text><path d="M 89.3179101791058 81.91981866633112 l -10.602499279780538 -17.945468797085894 a41.84353236198054,41.84353236198054 0 0,0 0.6232758880009825,-0.3610416240050425 l 10.292026659314235 18.12531457848098" fill="#fffa17" stroke="none" /><path d="M 89.94658935756843 81.56283822128135 l -12.473128838937845 -22.874734005163102 a47.054412272006985,47.054412272006985 0 0,0 0.7144539255061298,-0.3816365438990447 l 12.07752986690341 23.086049275563898" fill="#c5ff1e" stroke="none" /><path d="M 90.91171255644093 81.06846463323043 l -12.003566730418436 -25.00426504944514 a48.73623775703028,48.73623775703028 0 0,0 0.7594075663515717,-0.3565520349458126 l 11.571380952767257 25.207182067030963" fill="#b1ff20" stroke="none" /><path d="M 91.56875222667455 80.76684994638697 l -6.981665214991099 -15.92639883373417 a38.38947466099496,38.38947466099496 0 0,0 0.6074974266545727,-0.2600986940965249 l 6.7064840305462186 16.04421705579348" fill="#ffcd13" stroke="none" /><path d="M 91.90106846888425 80.62456947434976 l -7.025706142191781 -16.807906169928746 a39.21719672764062,39.21719672764062 0 0,0 0.6250775397270045,-0.25498482321697025 l 6.735344732876396 16.926351879329292" fill="#ffd814" stroke="none" /><path d="M 92.57280143429618 80.3572730644239 l -7.76037500484495 -20.523879332071484 a42.942038261138215,42.942038261138215 0 0,0 0.6936523021680305,-0.25547799686107064 l 7.40594037690435 20.654420596738877" fill="#f7ff19" stroke="none" /><path d="M 93.25333710446033 80.11325718540243 l -8.041411447126453 -23.703197238606485 a46.03009902885441,46.03009902885441 0 0,0 0.7525201757375577,-0.2480940705264136 l 7.6322084491464866 23.838105033392132" fill="#d1ff1c" stroke="none" /><path d="M 93.94186890950719 79.89281104454417 l -3.2055200626582465 -10.639254357094284 a32.111664688382845,32.111664688382845 0 0,0 0.5306219891454396,-0.15490310924455203 l 3.0219078557893853 10.692855795257534" fill="#ff790b" stroke="none" /><path d="M 95.33964822691252 79.52364482259891 l -5.519952310908755 -24.25321297271991 a45.87344393152698,45.87344393152698 0 0,0 0.7714543091692506,-0.16861003177951855 l 5.101655277585984 24.344636502595296" fill="#d3ff1c" stroke="none" /><path d="M 95.692805502759 79.44645832069477 l -5.2486283011014265 -25.04597844721683 a46.59002023097232,46.59002023097232 0 0,0 0.7863365787362988,-0.15773172022404058 l 4.816725312897991 25.13261412351808" fill="#caff1d" stroke="none" /><path d="M 96.04723909329186 79.375362276772 l -2.5798946304729973 -13.46132320508086 a34.7063152866112,34.7063152866112 0 0,0 0.587701668783818,-0.107398723475715 l 2.347797840586286 13.503737409907313" fill="#ff9c0e" stroke="none" /><path d="M 97.83486435360386 79.11191278185805 l -2.3216560139148363 -22.398113203621413 a43.51811630064084,43.51811630064084 0 0,0 0.7457655510935922,-0.07081942515711649 l 1.9357653357310076 22.43475817329371" fill="#f0ff19" stroke="none" /><path d="M 98.55514903715128 79.0497635885617 l -1.1344609781773904 -16.449603663970745 a37.4886767938706,37.4886767938706 0 0,0 0.6441589202863733,-0.03885742519337808 l 0.8511400090513942 16.46669435854443" fill="#ffc212" stroke="none" /></svg>