<?xml version="1.0" encoding="utf-8" ?>
<svg baseProfile="full" height="200mm" version="1.1" viewBox="0,0,200,200" width="200mm" xmlns="http://www.w3.org/2000/svg" xmlns:ev="http://www.w3.org/2001/xml-events" xmlns:xlink="http://www.w3.org/1999/xlink"><defs /><rect fill="#1a1a1a" height="200" width="200" x="0" y="0" /><text alignment-baseline="middle" fill="#e1ed5e" style="dominant-baseline: central; font-size:9.0px; font-family:Arial;" text-anchor="middle" x="100.0" y="100.0">2024</text><line stroke="#e1ed5e" stroke-width="0.3" x1="100.0" x2="100.0" y1="15.0" y2="10.0" /><path d="M 100.0 14.0 a86.0,86.0 0 0,1 42.35913384403234,11.155469271406648" fill="none" id="id169" stroke="none" /><text fill="#e1ed5e" style="font-size:6.75px; font-family:Arial;" text-anchor="middle"><textPath startOffset="22.145653131862478" xlink:href="#id169">January</textPath></text><path d="M 100.0 79.0 l 0.0 -9.069403536464328 a30.06940353646433,30.06940353646433 0 0,0 0.5161812966343107,0.004430795619569997 l -0.15568837178545586 9.068067139039194" fill="#ff0000" stroke="none" /><path d="M 100.72087961077811 79.0123766808444 l 0.9262593447745704 -26.967030185516222 a47.982933002183536,47.982933002183536 0 0,0 0.8229626856286899,0.0353415587113911 l -1.3890477910040966 26.947156058379" fill="#edff1a" stroke="none" /><path d="M 101.80034050326958 79.07731436759882 l 2.219511348237647 -25.79408623667986 a46.889401603942744,46.889401603942744 0 0,0 0.8013631765843108,0.07588992599668751 l -2.6619740882069705 25.75218455517799" fill="#fcff18" stroke="none" /><path d="M 102.15924093988457 79.11130261209362 l 4.103286125112861 -39.695571059364774 a60.90708356612422,60.90708356612422 0 0,0 1.039086732378211,0.11643183569049669 l -4.784108759091868 39.61928346316731" fill="#4aff2c" stroke="none" /><path d="M 103.58742460773223 79.30868818359171 l 4.333349489736389 -24.993608313984666 a46.366481315962645,46.366481315962645 0 0,0 0.7830752595345706,0.14270239789656514 l -4.761759482822013 24.915537742156733" fill="#fffb17" stroke="none" /><path d="M 104.29559338865022 79.4440306129975 l 4.749676580264314 -22.72892183884172 a44.21989051596255,44.21989051596255 0 0,0 0.7417098748909104,0.16165221506652588 l -5.139148871774358 22.644038165641476" fill="#ffdd14" stroke="none" /><path d="M 104.64783097203109 79.52079915486377 l 6.845637479755651 -30.16314184068625 a51.93020979892624,51.93020979892624 0 0,0 0.867649565142151,0.2047629348862647 l -7.362419198637688 30.04118276215376" fill="#b8ff1f" stroke="none" /><path d="M 106.04205211174951 79.88797359093562 l 7.647685229309604 -25.456656853551998 a47.58060321975587,47.58060321975587 0 0,0 0.7802298291591052,0.24171719550960044 l -8.08355569134034 25.321623070235752" fill="#f2ff19" stroke="none" /><path d="M 106.72888874123014 80.10723608172694 l 20.186666223690402 -59.67829175481916 a84.0,84.0 0 0,0 1.3619769118199267,0.4737662697256382 l -21.208148907555344 59.32296705252493" fill="#4dd2ff" stroke="none" /><path d="M 107.06938296918511 80.22567764915836 l 8.399120311488115 -23.49383435963609 a45.95005961766163,45.95005961766163 0 0,0 0.7404761265122104,0.27191309031835353 l -8.80118558965445 23.346190420309014" fill="#fff517" stroke="none" /><path d="M 109.06512990194946 81.05736502329252 l 11.242118498049788 -23.49170385607514 a47.04314455640349,47.04314455640349 0 0,0 0.7254495336702025,0.35485371965781914 l -11.643728280982057 23.295256386320098" fill="#faff18" stroke="none" /><path d="M 109.3889696526874 81.21577127319529 l 8.217987069352446 -16.441479149999722 a39.380901721948234,39.380901721948234 0 0,0 0.6021016917757346,0.30743741396509594 l -8.49901598284176 16.29798378436179" fill="#ff950d" stroke="none" /><line stroke="#e1ed5e" stroke-width="0.3" x1="143.13028292997686" x2="145.6673583964461" y1="26.7553504044142" y2="22.446841604673864" /><path d="M 143.63769802327073 25.89364864446614 a86.0,86.0 0 0,1 29.32050498858742,28.57503671076993" fill="none" id="id170" stroke="none" /><text fill="#e1ed5e" style="font-size:6.75px; font-family:Arial;" text-anchor="middle"><textPath startOffset="20.669276256404974" xlink:href="#id170">February</textPath></text><path d="M 111.27062007382361 82.28071324371311 l 16.153930802290752 -25.39666231779017 a51.09883614442693,51.09883614442693 0 0,0 0.736101528982576,0.4771321177601356 l -16.587517963530335 25.11561635832614" fill="#c3ff1e" stroke="none" /><path d="M 111.5731344415666 82.4767994020092 l 22.848318654207933 -34.595266574152376 a62.459355212797156,62.459355212797156 0 0,0 0.8896107136769315,0.5985697902265534 l -23.438825655981866 34.1979471098687" fill="#38ff2e" stroke="none" /><path d="M 113.31354834802062 83.75963576809568 l 21.063374160744225 -25.693891619376313 a54.224114699774375,54.224114699774375 0 0,0 0.7147917455355688,0.5963046965751501 l -21.501340240441685 25.328524738889293" fill="#9aff22" stroke="none" /><path d="M 114.13192950727249 84.46653392183569 l 37.122231647163034 -40.803835438056694 a76.16351211554286,76.16351211554286 0 0,0 0.959552277044799,0.8881472623489669 l -37.817213695521794 40.16057042957535" fill="#42ffd5" stroke="none" /><line stroke="#e1ed5e" stroke-width="0.3" x1="172.87174338648825" x2="177.1583165268699" y1="56.24261187166439" y2="53.66864786411523" /><path d="M 173.72905801456457 55.72781907015455 a86.0,86.0 0 0,1 12.242430191666344,42.057860355516425" fill="none" id="id171" stroke="none" /><text fill="#e1ed5e" style="font-size:6.75px; font-family:Arial;" text-anchor="middle"><textPath startOffset="22.145653131862474" xlink:href="#id171">March</textPath></text><line stroke="#e1ed5e" stroke-width="0.3" x1="184.99686870605535" x2="189.99668451229388" y1="99.2704041080226" y2="99.22748670261217" /><path d="M 185.99683186730306 99.26182062694052 a86.0,86.0 0 0,1 -10.086455211305974,41.156179273409016" fill="none" id="id172" stroke="none" /><text fill="#e1ed5e" style="font-size:6.75px; font-family:Arial;" text-anchor="middle"><textPath startOffset="21.40746469413373" xlink:href="#id172">April</textPath></text><line stroke="#e1ed5e" stroke-width="0.3" x1="174.33088141563837" x2="178.70328620479359" y1="141.23008692659167" y2="143.65538615756765" /><path d="M 175.20536237346943 141.71514677278685 a86.0,86.0 0 0,1 -30.301960400862466,31.631185727798858" fill="none" id="id173" stroke="none" /><text fill="#e1ed5e" style="font-size:6.75px; font-family:Arial;" text-anchor="middle"><textPath startOffset="22.145653131862474" xlink:href="#id173">May</textPath></text><line stroke="#e1ed5e" stroke-width="0.3" x1="143.1302829299769" x2="145.66735839644613" y1="173.24464959558577" y2="177.55315839532614" /><path d="M 143.63769802327073 174.10635135553383 a86.0,86.0 0 0,1 -40.68552437913181,11.842963189579606" fill="none" id="id174" stroke="none" /><text fill="#e1ed5e" style="font-size:6.75px; font-family:Arial;" text-anchor="middle"><textPath startOffset="21.407464694133747" xlink:href="#id174">June</textPath></text><line stroke="#e1ed5e" stroke-width="0.3" x1="101.45913802915013" x2="101.54496967792366" y1="184.9874750549273" y2="189.98673829345242" /><path d="M 101.47630435890484 185.9873277026323 a86.0,86.0 0 0,1 -42.54439059252881,-10.42667462771756" fill="none" id="id175" stroke="none" /><text fill="#e1ed5e" style="font-size:6.75px; font-family:Arial;" text-anchor="middle"><textPath startOffset="22.145653131862474" xlink:href="#id175">July</textPath></text><line stroke="#e1ed5e" stroke-width="0.3" x1="58.13341422392154" x2="55.67067388415222" y1="173.97424548756322" y2="178.32567169271397" /><path d="M 57.64086615596768 174.84453072859336 a86.0,86.0 0 0,1 -31.369924170532247,-30.572349798747897" fill="none" id="id176" stroke="none" /><text fill="#e1ed5e" style="font-size:6.75px; font-family:Arial;" text-anchor="middle"><textPath startOffset="22.145653131862474" xlink:href="#id176">August</textPath></text><line stroke="#e1ed5e" stroke-width="0.3" x1="26.387840678322732" x2="22.057713659400548" y1="142.50000000000003" y2="145.00000000000006" /><path d="M 25.521815274538298 143.00000000000003 a86.0,86.0 0 0,1 -11.493303480769221,-40.785679425670985" fill="none" id="id177" stroke="none" /><text fill="#e1ed5e" style="font-size:6.75px; font-family:Arial;" text-anchor="middle"><textPath startOffset="21.40746469413373" xlink:href="#id177">September</textPath></text><line stroke="#e1ed5e" stroke-width="0.3" x1="15.003131293944662" x2="10.003315487706104" y1="100.72959589197737" y2="100.7725132973878" /><path d="M 14.003168132696942 100.73817937305945 a86.0,86.0 0 0,1 10.791469493833604,-42.45332614584628" fill="none" id="id178" stroke="none" /><text fill="#e1ed5e" style="font-size:6.75px; font-family:Arial;" text-anchor="middle"><textPath startOffset="22.145653131862435" xlink:href="#id178">October</textPath></text><line stroke="#e1ed5e" stroke-width="0.3" x1="26.387840678322718" x2="22.05771365940052" y1="57.49999999999999" y2="54.99999999999999" /><path d="M 25.521815274538284 56.99999999999999 a86.0,86.0 0 0,1 29.574782752854787,-30.34633250058573" fill="none" id="id179" stroke="none" /><text fill="#e1ed5e" style="font-size:6.75px; font-family:Arial;" text-anchor="middle"><textPath startOffset="21.40746469413373" xlink:href="#id179">November</textPath></text><line stroke="#e1ed5e" stroke-width="0.3" x1="56.869717070023135" x2="54.33264160355391" y1="26.7553504044142" y2="22.446841604673864" /><path d="M 56.362301976729285 25.89364864446614 a86.0,86.0 0 0,1 42.16139366436587,-11.88097634709845" fill="none" id="id180" stroke="none" /><text fill="#e1ed5e" style="font-size:6.75px; font-family:Arial;" text-anchor="middle"><textPath startOffset="22.145653131862474" xlink:href="#id180">December</textPath></text></svg>