<?xml version="1.0" encoding="utf-8" ?>
<svg baseProfile="full" height="200mm" version="1.1" viewBox="0,0,200,200" width="200mm" xmlns="http://www.w3.org/2000/svg" xmlns:ev="http://www.w3.org/2001/xml-events" xmlns:xlink="http://www.w3.org/1999/xlink"><defs /><rect fill="#1a1a1a" height="200" width="200" x="0" y="0" /><text alignment-baseline="middle" fill="#e1ed5e" style="dominant-baseline: central; font-size:9.0px; font-family:Arial;" text-anchor="middle" x="100.0" y="100.0">2017</text><line stroke="#e1ed5e" stroke-width="0.3" x1="100.0" x2="100.0" y1="15.0" y2="10.0" /><path d="M 100.0 14.0 a86.0,86.0 0 0,1 42.46469731375804,11.215312516191453" fill="none" id="id85" stroke="none" /><text fill="#e1ed5e" style="font-size:6.75px; font-family:Arial;" text-anchor="middle"><textPath startOffset="22.20632615414155" xlink:href="#id85">January</textPath></text><path d="M 100.0 79.0 l 0.0 -14.041919897996046 a35.041919897996046,35.041919897996046 0 0,0 0.6031890475884362,0.0051918385661723085 l -0.24170856831590778 14.039839436038433" fill="#ffaf10" stroke="none" /><path d="M 102.52436894288641 79.15227682838746 l 1.6487296574334158 -13.616179037481583 a34.715634912903354,34.715634912903354 0 0,0 0.5926211336559359,0.07693923148896006 l -1.8828655195971977 13.585781482828486" fill="#ffab0f" stroke="none" /><path d="M 102.88285421437855 79.19881850522331 l 1.174060262669164 -8.471410204435513 a29.552380274063644,29.552380274063644 0 0,0 0.5032784708654029,0.07417016412455857 l -1.3197077139632227 8.449945556149986" fill="#ff6509" stroke="none" /><path d="M 103.2404852339499 79.25152402106235 l 1.295035452132951 -8.291971735881262 a29.392491411430512,29.392491411430512 0 0,0 0.49921158310815306,0.08237418862274627 l -1.437576241379979 8.26845128431889" fill="#ff6309" stroke="none" /><path d="M 105.01212808612495 79.60689891045804 l 5.230866018179255 -21.283091266139685 a42.91647629394319,42.91647629394319 0 0,0 0.7158695321299113,0.1824910832399494 l -5.596444438994192 21.18989718673087" fill="#ecff1a" stroke="none" /><path d="M 105.71112130821622 79.79150937346287 l 2.7239592471247795 -9.638580926900916 a31.016096857779218,31.016096857779218 0 0,0 0.5125185246517648,0.14961821152916116 l -2.8894679894999715 9.59026438645305" fill="#ff790b" stroke="none" /><path d="M 106.40334571778207 80.00007090966166 l 3.122745325092669 -9.753445748775126 a31.241154346053364,31.241154346053364 0 0,0 0.5107440447607654,0.16838428144153128 l -3.2901721920958518 9.698247743074358" fill="#ff7c0b" stroke="none" /><path d="M 107.08798089147638 80.2323363322302 l 3.865902301424544 -10.781611524787818 a32.453748193303234,32.453748193303234 0 0,0 0.5242326181949891,0.1930792974622714 l -4.050917245392109 10.713468959519222" fill="#ff8d0c" stroke="none" /><path d="M 109.08828744355905 81.06846463323043 l 4.167981070653023 -8.682194696979497 a30.630813618878772,30.630813618878772 0 0,0 0.47336091115115897,0.2322761433180075 l -4.316813248814614 8.609163393526659" fill="#ff740a" stroke="none" /><path d="M 109.41281617654863 81.2277094730956 l 3.2802665345862265 -6.5419440088878105 a28.318277116463236,28.318277116463236 0 0,0 0.4338623177036849,0.2222411304316719 l -3.392389339878667 6.484510353143638" fill="#ff5407" stroke="none" /><path d="M 110.05341064243156 81.56283822128135 l 4.57854643595495 -8.39669285911712 a30.56386629123098,30.56386629123098 0 0,0 0.4597328145820527,0.25584081357275507 l -4.722403339609038 8.316636647984184" fill="#ff730a" stroke="none" /><line stroke="#e1ed5e" stroke-width="0.3" x1="143.23703022742887" x2="145.7803849466894" y1="26.81831364943548" y2="22.513508569990506" /><path d="M 143.74570117128098 25.957352633546492 a86.0,86.0 0 0,1 28.547481713284135,27.462654790039103" fill="none" id="id86" stroke="none" /><text fill="#e1ed5e" style="font-size:6.75px; font-family:Arial;" text-anchor="middle"><textPath startOffset="19.985693538727396" xlink:href="#id86">February</textPath></text><path d="M 110.99172775467656 82.1063720568725 l 7.532302665467686 -12.261968678542145 a35.39067264994101,35.39067264994101 0 0,0 0.5163344897430804,0.3233286101084998 l -7.7422563075830295 12.130495727110702" fill="#ffb310" stroke="none" /><path d="M 111.2981086023043 82.29822771554956 l 6.714712755593823 -10.52054997336228 a33.480758756267484,33.480758756267484 0 0,0 0.48313209071003527,0.31424255099122017 l -6.894811872088138 10.403408498211531" fill="#ff9a0e" stroke="none" /><path d="M 111.90073688211348 82.69761687909136 l 6.343607315137045 -9.222918313576512 a32.1939079854877,32.1939079854877 0 0,0 0.4538863642672449,0.3179764041358724 l -6.501424818987941 9.112357066676704" fill="#ff890c" stroke="none" /><path d="M 112.19680574252982 82.90503203632743 l 4.136185019778776 -5.797251501545566 a28.121527328460846,28.121527328460846 0 0,0 0.39163201802349057,0.2845373164226262 l -4.235362354156055 5.725194950306266" fill="#ff5107" stroke="none" /><path d="M 113.6212207817346 84.01681056812373 l 5.861695139999549 -6.878134149338001 a30.03704593828005,30.03704593828005 0 0,0 0.3906335007655383,0.33875352249743773 l -5.979222439411852 6.776215633420892" fill="#ff6c09" stroke="none" /><path d="M 114.16331599549186 84.49514656593476 l 8.119213473846772 -8.888258579555199 a33.03838726785825,33.03838726785825 0 0,0 0.4165859276505512,0.38717121857666204 l -8.27100728529217 8.747182774903896" fill="#ff940d" stroke="none" /><path d="M 114.42810811169701 84.74124197986012 l 5.807478359440593 -6.141824437956767 a29.452739929872074,29.452739929872074 0 0,0 0.36537772729796597,0.3514930841722493 l -5.912339330350978 6.040948267022215" fill="#ff6409" stroke="none" /><path d="M 115.4437574822437 85.77008943001954 l 11.350009212270015 -10.457922318758943 a36.43343281139393,36.43343281139393 0 0,0 0.42099067456538686,0.46486841771500764 l -11.528343527451439 10.261001113774388" fill="#ffc111" stroke="none" /><path d="M 115.68641384162765 86.03803664274999 l 7.740656585625262 -6.889704982967722 a31.362711958214124,31.362711958214124 0 0,0 0.35545622030091806,0.4063479066246594 l -7.858104669504028 6.755441520140115" fill="#ff7e0b" stroke="none" /><path d="M 116.60985879189232 87.15038557335679 l 6.549185847517606 -5.066539938925167 a29.280196991500187,29.280196991500187 0 0,0 0.3049658836675533,0.4012993552074339 l -6.635427671409273 4.9530558078367" fill="#ff6109" stroke="none" /><path d="M 117.04232023915458 87.72973835380427 l 8.348108123320653 -6.010535507280076 a31.286760730323557,31.286760730323557 0 0,0 0.3109120062682847,0.4397629837167346 l -8.450332749392821 5.865946023231548" fill="#ff7d0b" stroke="none" /><path d="M 117.2510076193507 88.02491185347247 l 9.590737833233439 -6.657578123980312 a32.67499887206489,32.67499887206489 0 0,0 0.3167538264121021,0.4647971548904983 l -9.703916125314274 6.491502945819407" fill="#ff8f0d" stroke="none" /><path d="M 117.65298651832404 88.62581576622439 l 9.430625033963445 -6.076346711340508 a32.21867540700045,32.21867540700045 0 0,0 0.29636947495912325,0.4687853361019734 l -9.533822105168523 5.913113727524328" fill="#ff890c" stroke="none" /><line stroke="#e1ed5e" stroke-width="0.3" x1="172.23445277983987" x2="176.4835382374775" y1="55.19839476539836" y2="52.563006222186495" /><path d="M 173.08426987136738 54.67131705675599 a86.0,86.0 0 0,1 12.851231095245387,41.99856678651699" fill="none" id="id87" stroke="none" /><text fill="#e1ed5e" style="font-size:6.75px; font-family:Arial;" text-anchor="middle"><textPath startOffset="22.20632615414155" xlink:href="#id87">March</textPath></text><path d="M 117.84615892207809 88.93136811851018 l 6.037529727192931 -3.744626186264431 a28.104504942752566,28.104504942752566 0 0,0 0.2514472607490447,0.4133131830658505 l -6.1010927862282 3.6401452299914987" fill="#ff5107" stroke="none" /><path d="M 118.21658344932153 89.55222093294921 l 11.016331238443138 -6.318209736139663 a33.699579844425884,33.699579844425884 0 0,0 0.28426776481407545,0.5056806341546499 l -11.123456644549647 6.12764559205022" fill="#ff9d0e" stroke="none" /><path d="M 118.3937258080291 89.86733742301442 l 10.404376620414382 -5.731521645958082 a32.878610745264425,32.878610745264425 0 0,0 0.26880910351955506,0.49806244379420833 l -10.501493823152401 5.5515782188314144" fill="#ff920d" stroke="none" /><path d="M 118.56541770881063 90.18545643968196 l 6.307197574833795 -3.334278081573221 a28.13429404869528,28.13429404869528 0 0,0 0.22265020359964924,0.4300893252180775 l -6.363657211593561 3.2252160340947986" fill="#ff5107" stroke="none" /><path d="M 118.73160827565052 90.50648371742162 l 5.8368115234780555 -2.9582011550236595 a27.543647517569198,27.543647517569198 0 0,0 0.21069577049705757,0.42474981649188037 l -5.886867306928521 2.8572917500328296" fill="#ff4906" stroke="none" /><path d="M 119.04729006885535 91.15688171328212 l 8.182329522551093 -3.7988242719701217 a30.021174106784578,30.021174106784578 0 0,0 0.21357589779017033,0.47058618022257276 l -8.246507737304611 3.657416082905486" fill="#ff6c09" stroke="none" /><path d="M 119.47837535516314 92.15188598940014 l 6.814604842258 -2.7457010538124877 a28.346952663045624,28.346952663045624 0 0,0 0.17845952301203524,0.4541600205549426 l -6.860857915151736 2.627992028361761" fill="#ff5407" stroke="none" /><path d="M 119.61058180528143 92.48833698450437 l 21.165527113669903 -8.107271309023902 a43.66511385538617,43.66511385538617 0 0,0 0.2628128587559485,0.7042077991332945 l -21.301944560927478 7.741740372861274" fill="#e3ff1b" stroke="none" /><path d="M 119.85752413597 93.16781622104841 l 9.38747754486842 -3.2298574267445703 a30.92757340202055,30.92757340202055 0 0,0 0.1688685363499,0.5048954296931941 l -9.44168337499009 3.067788894129062" fill="#ff780b" stroke="none" /><path d="M 119.97218684219823 93.5106431181261 l 7.986670567475434 -2.5950265746964116 a29.397682399136023,29.397682399136023 0 0,0 0.15223032146809365,0.4826117197405301 l -8.030156372711733 2.4571646885294625" fill="#ff6309" stroke="none" /><path d="M 120.83666639777658 97.38593545837742 l 60.8205857878656 -7.630248220787312 a82.29734369032599,82.29734369032599 0 0,0 0.1642406010858991,1.4071131700592008 l -60.94291674195509 6.582191312403259" fill="#4be2ff" stroke="none" /><line stroke="#e1ed5e" stroke-width="0.3" x1="184.98032266829074" x2="189.97916517819016" y1="98.17113171792111" y2="98.06355123074" /><path d="M 185.9800911702706 98.14961562048488 a86.0,86.0 0 0,1 -9.607161424134198,41.387399972396054" fill="none" id="id88" stroke="none" /><text fill="#e1ed5e" style="font-size:6.75px; font-family:Arial;" text-anchor="middle"><textPath startOffset="21.466115282336823" xlink:href="#id88">April</textPath></text><path d="M 120.99824983174949 100.27111621757518 l 9.930458336873036 0.12821584297040764 a30.931286023610426,30.931286023610426 0 0,0 -0.01145626684589271,0.5323277037924614 l -9.926780007342135 -0.2991333625529839" fill="#ff780b" stroke="none" /><path d="M 120.9904718944345 100.63252640178507 l 9.975569676890583 0.3006035893434519 a30.980097840022665,30.980097840022665 0 0,0 -0.020650252086731626,0.5328912490261156 l -9.968917291952648 -0.4722720853835737" fill="#ff790b" stroke="none" /><path d="M 120.8583938346157 102.4346265915055 l 21.065756830341584 2.458830346957218 a42.208770768486346,42.208770768486346 0 0,0 -0.09044433243464953,0.7209303184766306 l -21.02031098866009 -2.8210784197212435" fill="#f5ff19" stroke="none" /><path d="M 120.64145759157962 103.86396538481128 l 8.320423226156647 1.5575366802567339 a29.464949094513926,29.464949094513926 0 0,0 -0.0976132611130466,0.4977279154247905 l -8.292380032067936 -1.7005283227494692" fill="#ff6409" stroke="none" /><path d="M 120.49622156327973 104.57218783832717 l 12.523220235828278 2.7936132073010445 a33.831029570033174,33.831029570033174 0 0,0 -0.1316823433829164,0.567284088846485 l -12.473277326514808 -3.0087659534960944" fill="#ff9f0e" stroke="none" /><path d="M 120.41448212921028 104.9243191809786 l 11.653725964503508 2.8110762709361428 a32.98797224958264,32.98797224958264 0 0,0 -0.13790336799342212,0.5508554048885662 l -11.603611282215024 -3.011259515222105" fill="#ff940d" stroke="none" /><path d="M 119.9155931802556 106.66101706037122 l 9.23835256898218 3.0898815573679457 a30.741382151798696,30.741382151798696 0 0,0 -0.17216516240617336,0.5003925506784845 l -9.183796575632776 -3.2484468111357305" fill="#ff750a" stroke="none" /><path d="M 119.79798401119884 107.00284435728193 l 7.0671221541148626 2.4997472707913633 a28.496195832487967,28.496195832487967 0 0,0 -0.16755184947410617,0.46103072909678533 l -7.023046043635529 -2.62102579689428" fill="#ff5608" stroke="none" /><path d="M 119.67450827220406 107.3425965602758 l 10.870079957822602 4.056752555335388 a32.60240835278076,32.60240835278076 0 0,0 -0.20074656662109472,0.5240859392562404 l -10.798639111608 -4.2432620614247725" fill="#ff8f0d" stroke="none" /><path d="M 119.54520255179757 107.68017299344265 l 6.017190967199505 2.3644199869610705 a27.465065275036928,27.465065275036928 0 0,0 -0.17668850085274093,0.43852636899801295 l -5.975599852089371 -2.4676457238018967" fill="#ff4806" stroke="none" /><path d="M 119.12269723197855 108.67885076344098 l 8.297445410918398 3.7658019454878033 a30.112017594353652,30.112017594353652 0 0,0 -0.21827682933458212,0.4701488715683497 l -8.231393964743985 -3.908070884334984" fill="#ff6d0a" stroke="none" /><path d="M 118.81262510543309 109.33194174019688 l 5.580389848635885 2.768134306786172 a27.229230964024772,27.229230964024772 0 0,0 -0.21189700689704,0.41809289728211296 l -5.531914171952576 -2.863781415770979" fill="#ff4506" stroke="none" /><path d="M 118.64920377521936 109.65438752849418 l 13.890492086675291 7.190880381951733 a36.641436349566085,36.641436349566085 0 0,0 -0.2947847031569724,0.5576215658570689 l -13.764654875293425 -7.428916962894936" fill="#ffc412" stroke="none" /><line stroke="#e1ed5e" stroke-width="0.3" x1="174.80103733775053" x2="179.2010983576182" y1="140.37084112569926" y2="142.7455964860345" /><path d="M 175.68104954172406 140.8457921977663 a86.0,86.0 0 0,1 -30.038265399797805,32.042727171017184" fill="none" id="id89" stroke="none" /><text fill="#e1ed5e" style="font-size:6.75px; font-family:Arial;" text-anchor="middle"><textPath startOffset="22.206326154141568" xlink:href="#id89">May</textPath></text><path d="M 118.48025628344425 109.97397251340804 l 13.793054657408682 7.444244599149532 a36.673708381689075,36.673708381689075 0 0,0 -0.3046076140315465,0.5529512987297278 l -13.662870633925627 -7.680566416277065" fill="#ffc412" stroke="none" /><path d="M 117.55443506779139 111.5257021239791 l 12.667222888840612 8.316908928769976 a36.15353126650753,36.15353126650753 0 0,0 -0.34603559585735305,0.5172762650805569 l -12.52218418757254 -8.53372210805634" fill="#ffbd11" stroke="none" /><path d="M 117.35343817320211 111.8261652097733 l 5.683791449070053 3.8734374147481145 a27.878154014159062,27.878154014159062 0 0,0 -0.27365606564157147,0.3942219727905023 l -5.616274476266346 -3.9707006497256363" fill="#ff4e07" stroke="none" /><path d="M 116.93607887273984 112.41649034213515 l 7.008909216513903 5.138500726742788 a29.690742092828994,29.690742092828994 0 0,0 -0.30572802195409776,0.40957264676681937 l -6.919419927864713 -5.258386253018922" fill="#ff6709" stroke="none" /><path d="M 116.498646956653 112.99209946851258 l 2.084171219643538 1.6412109348215995 a23.652799088768017,23.652799088768017 0 0,0 -0.25464162874932006,0.3177045848051039 l -2.0556116788393637 -1.6768433532049536" fill="#ff1101" stroke="none" /><path d="M 116.27256486870786 113.27417163493432 l 7.381258587210008 6.0211831483845675 a30.52562989191013,30.52562989191013 0 0,0 -0.33564238322910817,0.4043028725688664 l -7.276520204087356 -6.147347278067205" fill="#ff720a" stroke="none" /><path d="M 115.80600337817218 113.82643327865902 l 8.870613407701608 7.759643060164125 a32.785577739340944,32.785577739340944 0 0,0 -0.3752249270865255,0.42156918331385257 l -8.735729630966745 -7.911186413218844" fill="#ff910d" stroke="none" /><path d="M 114.29624159901734 115.38237550388516 l 5.2753350528994964 5.676120127830354 a28.74903217349825,28.74903217349825 0 0,0 -0.36538712569039555,0.333772476073044 l -5.176848377742237 -5.766085370489981" fill="#ff5a08" stroke="none" /><path d="M 114.0293411484842 115.62618273729858 l 5.074413965668064 5.6519917131529995 a28.595701904400755,28.595701904400755 0 0,0 -0.3690992226281656,0.3256871495386071 l -4.97637239013331 -5.7385020044638955" fill="#ff5808" stroke="none" /><path d="M 112.92097659922987 116.55440617244103 l 1.5624477664925076 2.0018142398990113 a23.53939033511587,23.53939033511587 0 0,0 -0.32156070647250734,0.24655903767116658 l -1.5277583315265066 -2.0284126193975496" fill="#ff1001" stroke="none" /><path d="M 112.34349029814194 116.9893568818739 l 4.305298619637481 5.925735182298527 a28.32461150198309,28.32461150198309 0 0,0 -0.3969123387776563,0.2831864150416465 l -4.202658953010941 -5.998965859184393" fill="#ff5407" stroke="none" /><path d="M 112.04921762599082 117.19931262002967 l 12.516167413312969 17.86584679837219 a42.81382425300487,42.81382425300487 0 0,0 -0.6072287046058727,0.417657440034865 l -12.206781824084212 -18.07864502777215" fill="#eeff19" stroke="none" /><path d="M 111.7513745106137 117.40417183066458 l 3.974137945364465 5.885828897497649 a28.101883850036135,28.101883850036135 0 0,0 -0.40322898176603217,0.2672381817101969 l -3.8722342648584687 -5.953365100299163" fill="#ff5107" stroke="none" /><path d="M 111.45004920935366 117.60387380957326 l 4.007735567901769 6.161691527216036 a28.350400455675242,28.350400455675242 0 0,0 -0.411375378004821,0.26255922979503565 l -3.9010783878500184 -6.229765185834881" fill="#ff5407" stroke="none" /><path d="M 111.1453310114006 117.79835938074945 l 2.9246626016127313 4.67049350061426 a26.51064069528691,26.51064069528691 0 0,0 -0.38884898844139854,0.23886280815796324 l -2.843834413239024 -4.720144775600601" fill="#ff3a05" stroke="none" /><line stroke="#e1ed5e" stroke-width="0.3" x1="143.8653032363475" x2="146.44561519142675" y1="172.8068346515853" y2="177.08958963109032" /><path d="M 144.38136562736335 173.6633856474863 a86.0,86.0 0 0,1 -40.68145358897372,12.25698825130547" fill="none" id="id90" stroke="none" /><text fill="#e1ed5e" style="font-size:6.75px; font-family:Arial;" text-anchor="middle"><textPath startOffset="21.466115282336833" xlink:href="#id90">June</textPath></text><path d="M 110.8373102113329 117.98757091392108 l 1.0987551662249129 1.82369389489654 a23.12911304011526,23.12911304011526 0 0,0 -0.34278681393810867,0.20252449178074522 l -1.0672004812584222 -1.8423369589710348" fill="#ff0a01" stroke="none" /><path d="M 110.21172684928248 118.3499491758327 l 6.1789496791229155 11.103255526258025 a33.70675813960872,33.70675813960872 0 0,0 -0.5094169580653597,0.277774742615797 l -5.986909909188907 -11.207970920633592" fill="#ff9d0e" stroke="none" /><path d="M 109.89434966115114 118.52300852407294 l 3.361939552182944 6.293817897603745 a28.135459430248993,28.135459430248993 0 0,0 -0.4291449341478787,0.22450834690400817 l -3.2531037155085696 -6.35075566345247" fill="#ff5107" stroke="none" /><path d="M 108.2653958097858 119.30500536409082 l 5.376651381789569 12.557932633232701 a34.66052898324624,34.66052898324624 0 0,0 -0.5504893164203841,0.23010457890972605 l -5.159690605871724 -12.6486222551624" fill="#ffaa0f" stroke="none" /><path d="M 107.93186726928326 119.44442032107085 l 6.116978956044635 14.995347990388744 a37.194995921628035,37.194995921628035 0 0,0 -0.5949054860373142,0.23672517034423735 l -5.857952393965454 -15.098420005139051" fill="#ffcb12" stroke="none" /><path d="M 107.59598834532513 119.57807347666477 l 5.31217467455341 13.69172007264749 a35.68612945335512,35.68612945335512 0 0,0 -0.5745972892372964,0.2172635284539406 l -5.075707164555839 -13.78113185120806" fill="#ffb711" stroke="none" /><path d="M 107.2578585660854 119.70592522655815 l 2.488835717236942 6.757476754126278 a28.20123567937832,28.20123567937832 0 0,0 -0.45696804132205976,0.16385248147393142 l -2.372148115285148 -6.79931677664017" fill="#ff5207" stroke="none" /><path d="M 106.57524785965236 119.94407469862006 l 3.4772205949919757 10.547122902491862 a32.10553306178973,32.10553306178973 0 0,0 -0.5263452256024433,0.16851911980351222 l -3.295154024298592 -10.605414868955082" fill="#ff880c" stroke="none" /><path d="M 105.53697534728816 120.25689768951611 l 3.3721127459048916 12.3367973680367 a33.78935939252203,33.78935939252203 0 0,0 -0.562366858998264,0.14852619873428477 l -3.15925544409513 -12.393014916074568" fill="#ff9e0e" stroke="none" /><path d="M 105.18746579009965 120.34920634021253 l 4.419024265482794 17.33479125247166 a38.88918006018425,38.88918006018425 0 0,0 -0.6500913771027378,0.15977664384722925 l -4.119979603636846 -17.40828915463292" fill="#ffe015" stroke="none" /><path d="M 103.7750983002368 120.6578951692458 l 0.4744555218562084 2.5962906535070984 a23.639286494435222,23.639286494435222 0 0,0 -0.40091219993618965,0.0697037248802195 l -0.4296943504479688 -2.604072956908324" fill="#ff1101" stroke="none" /><path d="M 103.06178313531738 120.77559828337769 l 1.4871295034119996 10.09085352971743 a31.199847014447283,31.199847014447283 0 0,0 -0.5319891988199286,0.07372885545982251 l -1.3132117134052406 -10.114956950669855" fill="#ff7c0b" stroke="none" /><path d="M 102.70371172650421 120.8252237178851 l 1.1763633621004688 9.06088838877091 a30.13693215217536,30.13693215217536 0 0,0 -0.5150151667988991,0.06236116440536916 l -1.0202207722501895 -9.079795081901631" fill="#ff6d0a" stroke="none" /><path d="M 102.34483914955558 120.86867818915974 l 0.16753478366540703 1.4910316925007445 a22.50041441334701,22.50041441334701 0 0,0 -0.38525788504309794,0.039933555009171395 l -0.14184430201670645 -1.4936946159656743" fill="#ff0000" stroke="none" /><path d="M 101.62511606390274 120.93702456842531 l 1.0267579105273144 13.228135562766852 a34.267923811726064,34.267923811726064 0 0,0 -0.5884899732047068,0.04058571405654471 l -0.7989051765436772 -13.243849621339681" fill="#ffa50f" stroke="none" /><line stroke="#e1ed5e" stroke-width="0.3" x1="102.19456741930631" x2="102.32365962044197" y1="184.97166512339345" y2="189.96999836594603" /><path d="M 102.22038585953345 185.97133177190398 a86.0,86.0 0 0,1 -42.740103519485714,-10.115201625700543" fill="none" id="id91" stroke="none" /><text fill="#e1ed5e" style="font-size:6.75px; font-family:Arial;" text-anchor="middle"><textPath startOffset="22.20632615414155" xlink:href="#id91">July</textPath></text><path d="M 100.54218724476979 120.99299961872073 l 0.515395226942544 19.95563692629694 a40.96229138586403,40.96229138586403 0 0,0 -0.7050201572006471,0.012137561373629592 l -0.17181537984922887 -19.96155196494973" fill="#fffa17" stroke="none" /><path d="M 100.18074693466247 120.99922214144158 l 0.1539437012774032 17.885216069842855 a38.88587857859177,38.88587857859177 0 0,0 -0.669381271879705,0.0 l 0.15394370127739088 -17.885216069842855" fill="#ffe015" stroke="none" /><path d="M 99.09653310690486 120.98055641714683 l -0.49221255468271685 11.430295179240469 a32.44088812477227,32.44088812477227 0 0,0 -0.5576927468717118,-0.028826344819716212 l 0.6888933699679176 -11.42012902765855" fill="#ff8c0c" stroke="none" /><path d="M 98.37488393609728 120.93702456842531 l -1.147649512837099 14.785630749663218 a35.83010371068597,35.83010371068597 0 0,0 -0.6144959736815916,-0.05302129827345729 l 1.4019898042602321 -14.763685199111096" fill="#ffb911" stroke="none" /><path d="M 97.65516085044442 120.86867818915974 l -1.5309120809422112 13.624862737017587 a34.71060087677215,34.71060087677215 0 0,0 -0.5931753706705679,-0.07182527660598025 l 1.7652148746641685 -13.59649193168626" fill="#ffaa0f" stroke="none" /><path d="M 96.58105272829116 120.7198165907248 l -0.9519340452692586 5.768997664180832 a26.847008848622224,26.847008848622224 0 0,0 -0.45531380068265626,-0.07916214049361016 l 1.0510968174239648 -5.751756945166215" fill="#ff3f05" stroke="none" /><path d="M 96.22490169976321 120.6578951692458 l -0.44417369909659027 2.4305840492412982 a23.470835707892245,23.470835707892245 0 0,0 -0.39680508520803914,-0.07604863898418113 l 0.48594639887632446 -2.422578211908649" fill="#ff0f01" stroke="none" /><path d="M 95.51606077576429 120.51570834832081 l -2.1662528705178605 9.91142160447823 a31.145389579545217,31.145389579545217 0 0,0 -0.5227677269571043,-0.11898023266983786 l 2.336540746867828 -9.872664638230704" fill="#ff7b0b" stroke="none" /><path d="M 95.16358092515715 120.4354850818985 l -1.8021965137146414 7.614881878667992 a28.825237267975417,28.825237267975417 0 0,0 -0.4818573742581125,-0.11842881906097372 l 1.9330071727159643 -7.582731801292988" fill="#ff5b08" stroke="none" /><path d="M 94.11515582081647 120.15858648285463 l -10.414265354379237 35.67415931661546 a58.16318831611041,58.16318831611041 0 0,0 -0.9586540496452624,-0.28883460119903565 l 11.026794378464745 -35.489609346310694" fill="#44ff2d" stroke="none" /><path d="M 93.42475214034765 119.94407469862007 l -2.4751663072731502 7.507686824504489 a28.90517613361641,28.90517613361641 0 0,0 -0.47119603168178253,-0.15985527711151765 l 2.6040320718921586 -7.463968560494849" fill="#ff5c08" stroke="none" /><path d="M 93.08242187328487 119.8279376855182 l -4.989190713158459 14.30057756480267 a36.14590844615152,36.14590844615152 0 0,0 -0.585702171785434,-0.21001196051711932 l 5.23461244557362 -14.212578063245592" fill="#ffbd11" stroke="none" /><path d="M 92.7421414339146 119.70592522655815 l -2.6950226604163188 7.317298146068461 a28.7978201632645,28.7978201632645 0 0,0 -0.4636857416376047,-0.1753262714756118 l 2.8205786228142067 -7.269823624486217" fill="#ff5b08" stroke="none" /><path d="M 92.40401165467489 119.57807347666478 l -2.8576053972422755 7.3652572767512 a28.900185020560258,28.900185020560258 0 0,0 -0.4622363355665233,-0.18393337739268592 l 2.9839628088506567 -7.314977054952448" fill="#ff5c08" stroke="none" /><path d="M 91.40352486487194 119.15986991738527 l -4.804895795397304 10.70917753605908 a32.737695987861464,32.737695987861464 0 0,0 -0.5121609941356685,-0.23510799249722888 l 4.988524785300392 -10.624882473227776" fill="#ff900d" stroke="none" /><path d="M 91.07499286063937 119.00905698771935 l -3.4803648818801256 7.412706045460471 a29.18908728903476,29.18908728903476 0 0,0 -0.4529692276253136,-0.2174527561547843 l 3.607446777505681 -7.351699012806124" fill="#ff6008" stroke="none" /><path d="M 90.7491055286396 118.85261126421891 l -3.086055628711628 6.289143962021579 a28.005502916888638,28.005502916888638 0 0,0 -0.4309461348081722,-0.216085338287824 l 3.1938556712025608 -6.235090782824453" fill="#ff5007" stroke="none" /><path d="M 90.42595943632237 118.69057910512821 l -6.5200758977184154 12.72858554621946 a35.30133838909616,35.30133838909616 0 0,0 -0.5384447542389602,-0.28168884694714375 l 6.738211554483871 -12.614467280327599" fill="#ffb210" stroke="none" /><line stroke="#e1ed5e" stroke-width="0.3" x1="58.666819895761336" x2="56.23545636021788" y1="174.27360380694188" y2="178.64263932499728" /><path d="M 58.180547188652646 175.14741091055294 a86.0,86.0 0 0,1 -31.652253787137756,-30.449443065178592" fill="none" id="id92" stroke="none" /><text fill="#e1ed5e" style="font-size:6.75px; font-family:Arial;" text-anchor="middle"><textPath startOffset="22.20632615414155" xlink:href="#id92">August</textPath></text><path d="M 89.4739219176387 118.17145234162733 l -3.578333801063073 6.17737410075009 a28.13893714585361,28.13893714585361 0 0,0 -0.41703530070964573,-0.24639180650076226 l 3.6841369728011006 -6.114863721955579" fill="#ff5107" stroke="none" /><path d="M 89.1626897886671 117.98757091392108 l -3.5667828743744634 5.920081518039245 a27.911534218475722,27.911534218475722 0 0,0 -0.40939681433769687,-0.2514849610785704 l 3.668158888644469 -5.857808090132297" fill="#ff4e07" stroke="none" /><path d="M 88.8546689885994 117.79835938074946 l -5.893482957257006 9.411504025343485 a32.104483301195756,32.104483301195756 0 0,0 -0.46584858560738135,-0.2973266081976046 l 6.054613344911311 -9.308662988322077" fill="#ff880c" stroke="none" /><path d="M 88.54995079064634 117.60387380957326 l -5.8773670257768105 9.03615570226551 a31.77940411299595,31.77940411299595 0 0,0 -0.45599707229585723,-0.3022099947573327 l 6.032038796812629 -8.933647686416858" fill="#ff830c" stroke="none" /><path d="M 87.95078237400918 117.19931262002967 l -4.322926043130229 6.170637692582196 a28.53421921020949,28.53421921020949 0 0,0 -0.3998495683206652,-0.28528205033230436 l 4.428502939299781 -6.095311380405672" fill="#ff5708" stroke="none" /><path d="M 87.36589467227662 116.77436683061367 l -1.7283789982910878 2.2947777137843173 a23.87285549887475,23.87285549887475 0 0,0 -0.3261160195930217,-0.2500518575234598 l 1.7676237463775963 -2.2646865144334907" fill="#ff1502" stroke="none" /><path d="M 87.07902340077011 116.55440617244103 l -4.93339318968488 6.320682809321518 a29.01806707006631,29.01806707006631 0 0,0 -0.39111173619083023,-0.3107228173896389 l 5.041462418593068 -6.234826077926749" fill="#ff5e08" stroke="none" /><path d="M 86.79598089348748 116.32954008644616 l -6.625204789272712 8.193455819371222 a31.536890279574436,31.536890279574436 0 0,0 -0.4191851490398984,-0.34496083968017993 l 6.765260066857299 -8.078199860833863" fill="#ff800b" stroke="none" /><path d="M 86.51685102203217 116.09983520530335 l -17.97438240382943 21.462686134494803 a48.99509455077672,48.99509455077672 0 0,0 -0.641916285204286,-0.5470549843275009 l 18.341164165610774 -21.15010675994435" fill="#a6ff21" stroke="none" /><path d="M 85.97065885151581 115.62618273729859 l -5.74150771555798 6.395015118768592 a29.594249776280108,29.594249776280108 0 0,0 -0.37612945707045703,-0.34358534109050937 l 5.8507367220952915 -6.2952370110915075" fill="#ff6609" stroke="none" /><path d="M 84.67929136418377 114.36230785411682 l -23.54067361217922 22.06806548889046 a53.26705484758578,53.26705484758578 0 0,0 -0.6213312581145074,-0.67433236626946 l 23.917051278289456 -21.659581867819657" fill="#77ff27" stroke="none" /><path d="M 83.72743513129214 113.27417163493432 l -11.531503748849502 9.406701476143615 a35.88158631903913,35.88158631903913 0 0,0 -0.38629447399010014,-0.4819617517933356 l 11.691716134894463 -9.20681189077202" fill="#ffba11" stroke="none" /><path d="M 83.28015986056508 112.70617746262583 l -8.942798018343577 6.796044560587076 a32.232090547461546,32.232090547461546 0 0,0 -0.3318964967501146,-0.4446295951471137 l 9.058455781788778 -6.641102085930655" fill="#ff8a0c" stroke="none" /><path d="M 83.06392112726016 112.41649034213515 l -14.190198710315912 10.403380060021682 a38.59522821993247,38.59522821993247 0 0,0 -0.388194862758331,-0.5391687118891465 l 14.36717336544985 -10.157577742681397" fill="#ffdc14" stroke="none" /><path d="M 82.85270091963577 112.12312394758628 l -8.620690742365339 6.094820058465131 a31.55761054503207,31.55761054503207 0 0,0 -0.3097741528515995,-0.4462527712307879 l 8.724325802379072 -5.9455260250473305" fill="#ff800b" stroke="none" /><path d="M 82.6465618267979 111.8261652097733 l -25.549527091737172 17.411703974896433 a51.9183726919907,51.9183726919907 0 0,0 -0.4969253182484985,-0.7428359270689413 l 25.845455515396402 -16.969331133621672" fill="#86ff25" stroke="none" /><path d="M 82.44556493220864 111.52570212397912 l -8.392937851704946 5.5105448423861585 a31.040294330473102,31.040294330473102 0 0,0 -0.2894066032976998,-0.449165475195786 l 8.48654931837969 -5.365257767268924" fill="#ff790b" stroke="none" /><line stroke="#e1ed5e" stroke-width="0.3" x1="26.63291911575756" x2="22.317208475507996" y1="142.92168965132927" y2="145.44649492493687" /><path d="M 25.769776987707644 143.4266507060508 a86.0,86.0 0 0,1 -11.730757126820373,-40.83630448921669" fill="none" id="id93" stroke="none" /><text fill="#e1ed5e" style="font-size:6.75px; font-family:Arial;" text-anchor="middle"><textPath startOffset="21.46611528233685" xlink:href="#id93">September</textPath></text><path d="M 81.87401531095188 110.60418214915194 l -6.418088558927409 3.754752158064874 a28.435726226719737,28.435726226719737 0 0,0 -0.24352898094443046,-0.42461330539551234 l 6.481769536024217 -3.6437190068110543" fill="#ff5607" stroke="none" /><path d="M 81.69416730710424 110.29060199501025 l -26.81900745479356 15.076273024476993 a51.76610422476082,51.76610422476082 0 0,0 -0.42996332226618095,-0.7805083212023955 l 27.074547186511257 -14.612394184876775" fill="#87ff25" stroke="none" /><path d="M 81.02952815118164 109.00673069616217 l -30.435007422132603 14.449820635532555 a54.691052123439675,54.691052123439675 0 0,0 -0.396446017377315,-0.8539094519373124 l 30.679228056349743 -13.923791116316416" fill="#68ff28" stroke="none" /><path d="M 80.73074385275274 108.34839909993369 l -7.163614496598586 3.103633703277075 a28.80704264238353,28.80704264238353 0 0,0 -0.19321160433005255,-0.45669515885098694 l 7.215977082120945 -2.9798640187599292" fill="#ff5b08" stroke="none" /><path d="M 80.45479744820244 107.68017299344265 l -20.851731551464365 8.19356592000855 a43.40377716323433,43.40377716323433 0 0,0 -0.2672550797359435,-0.6977186800349088 l 20.98968091079382 -7.833423673140484" fill="#e7ff1a" stroke="none" /><path d="M 79.67330655649465 105.27499134158121 l -60.511042235866164 15.70325369206747 a83.51542536836976,83.51542536836976 0 0,0 -0.34912902043706234,-1.394596888455814 l 60.77238257059828 -14.659328964214264" fill="#4cd6ff" stroke="none" /><path d="M 79.4281124754447 104.21870165774334 l -11.201034144280303 2.2970095114758595 a32.434133924226344,32.434133924226344 0 0,0 -0.1074497557611732,-0.5478839897170886 l 11.238913833017143 -2.103861794690816" fill="#ff8c0c" stroke="none" /><path d="M 79.23777060512086 103.15116336523772 l -6.432807122533757 0.9763318646873403 a27.506476111208347,27.506476111208347 0 0,0 -0.06701880730567734,-0.46872938220280236 l 6.448659980856033 -0.8654570105041374" fill="#ff4906" stroke="none" /><path d="M 79.18660465613746 102.79330883721812 l -10.529178422925838 1.4130922250548572 a31.623578864879647,31.623578864879647 0 0,0 -0.06776253910156457,-0.540134108796394 l 10.55194247127425 -1.2316403619710545" fill="#ff810b" stroke="none" /><path d="M 79.07016306316243 101.71520430193888 l -5.867313163585527 0.48082748133082687 a26.886982149317845,26.886982149317845 0 0,0 -0.03383079026264585,-0.46159425444576896 l 5.874720512512508 -0.3797600903882973" fill="#ff4006" stroke="none" /><path d="M 79.0235259727143 100.99374915477108 l -7.351874113218087 0.3482910748722822 a28.360119540431523,28.360119540431523 0 0,0 -0.01890386598338204,-0.4878247835908009 l 7.35678011205267 -0.22168904426748454" fill="#ff5507" stroke="none" /><line stroke="#e1ed5e" stroke-width="0.3" x1="15.007084014347285" x2="10.007500721073583" y1="101.09737516637583" y2="101.16192664675087" /><path d="M 14.007167355692545 101.11028546245083 a86.0,86.0 0 0,1 10.666146001902534,-42.60595125391555" fill="none" id="id94" stroke="none" /><text fill="#e1ed5e" style="font-size:6.75px; font-family:Arial;" text-anchor="middle"><textPath startOffset="22.20632615414155" xlink:href="#id94">October</textPath></text><path d="M 79.00175016825051 100.2711162175752 l -42.94870717182213 0.5545267406316655 a63.95228687319222,63.95228687319222 0 0,0 -0.00473765457290981,-1.1008640738980238 l 42.95188912368454 0.18484681147003348" fill="#34ff5b" stroke="none" /><path d="M 79.00019446554 99.90962569577889 l -18.384570162676372 -0.07911943442189451 a39.38474041022265,39.38474041022265 0 0,0 0.008752776341196656,-0.67791217352362 l 18.38048437921746 0.3955678660059865" fill="#ffe615" stroke="none" /><path d="M 79.00486145842228 99.54816195383935 l -1.4668061581881733 -0.03156725197595896 a22.467145799535977,22.467145799535977 0 0,0 0.011649007055948492,-0.38657383235845194 l 1.4660454566765797 0.05681123175940531" fill="#ff0000" stroke="none" /><path d="M 79.01574976396665 99.18683210126434 l -9.569193245220303 -0.37081909890920717 a30.576375419149237,30.576375419149237 0 0,0 0.024907212224742094,-0.5257518839800012 l 9.561392424762063 0.5354820895122174" fill="#ff730a" stroke="none" /><path d="M 79.03285615573316 98.82574320788736 l -10.838971970447504 -0.6070324384833543 a31.85595697106053,31.85595697106053 0 0,0 0.03537438521685598,-0.547226082231246 l 10.826916994226234 0.7935175849676122" fill="#ff840c" stroke="none" /><path d="M 79.08570108090925 98.10471618934814 l -14.392409962972886 -1.3042608650002432 a35.451386125429366,35.451386125429366 0 0,0 0.06030597194997597,-0.6072729076077334 l 14.367826865340682 1.551809303312407" fill="#ffb410" stroke="none" /><path d="M 79.12142395522702 97.74499172005258 l -7.29836142215892 -0.7882657036439751 a28.34080664968087,28.34080664968087 0 0,0 0.05655967629912692,-0.48456876611868155 l 7.283711392856204 0.9137782080875184" fill="#ff5407" stroke="none" /><path d="M 79.46518482838121 95.60439243477599 l -13.563821630439751 -2.903422138150658 a34.87108926273235,34.87108926273235 0 0,0 0.13069287887285785,-0.5858705496887614 l 13.511834364564855 3.1364708573893783" fill="#ffad10" stroke="none" /><path d="M 79.54389044137918 95.25157060432595 l -7.215963582819873 -1.6750249355374225 a28.40782282207497,28.40782282207497 0 0,0 0.11466912339591492,-0.4753775464800179 l 7.186061659163143 1.7989877136768373" fill="#ff5507" stroke="none" /><path d="M 80.14247586403 93.16781622104843 l -23.16045336110292 -7.968590277589619 a45.492958802560366,45.492958802560366 0 0,0 0.2611445727854718,-0.7382908733709034 l 23.019855707507638 8.366078777387134" fill="#ceff1d" stroke="none" /><path d="M 80.2630227832202 92.82701384747504 l -8.028618842136142 -2.9178313956598614 a29.542391969805756,29.542391969805756 0 0,0 0.17781060903189577,-0.4764440303325423 l 7.9772036446026195 3.055598563021745" fill="#ff6509" stroke="none" /><path d="M 81.10775173730289 90.83032412892265 l -14.137119269507231 -6.861692671491298 a36.71435546111485,36.71435546111485 0 0,0 0.2808473136046328,-0.5661710466915635 l 14.016911942949186 7.104023306681823" fill="#ffc412" stroke="none" /><path d="M 81.26839172434947 90.50648371742162 l -25.37335397015062 -12.859672565989753 a49.44605895724446,49.44605895724446 0 0,0 0.3913080269572799,-0.7558825572380544 l 25.148236510033225 13.294527845488144" fill="#a1ff22" stroke="none" /><path d="M 81.43458229118936 90.18545643968196 l -10.389418029094282 -5.492329739745555 a32.75183785428317,32.75183785428317 0 0,0 0.2677726331090612,-0.49614202153613607 l 10.29333729676675 5.670352744614164" fill="#ff910d" stroke="none" /><path d="M 81.6062741919709 89.86733742301443 l -9.252635433371687 -5.0970550378266015 a31.563675142748323,31.563675142748323 0 0,0 0.2662506602031387,-0.473630215454359 l 9.163527131876117 5.255568763215745" fill="#ff810b" stroke="none" /><line stroke="#e1ed5e" stroke-width="0.3" x1="26.266209847984243" x2="21.928928074336255" y1="57.711370442889674" y2="55.22380399835377" /><path d="M 25.398753493254645 57.213857153982495 a86.0,86.0 0 0,1 29.58750427330803,-30.492523968695096" fill="none" id="id95" stroke="none" /><text fill="#e1ed5e" style="font-size:6.75px; font-family:Arial;" text-anchor="middle"><textPath startOffset="21.46611528233685" xlink:href="#id95">November</textPath></text><path d="M 82.34701348167596 88.62581576622439 l -15.824004241597098 -10.195733134058926 a39.82424193371489,39.82424193371489 0 0,0 0.37625064733186847,-0.5730555489596069 l 15.646156958907309 10.4666067469962" fill="#ffec16" stroke="none" /><path d="M 82.54541684631803 88.32363383020206 l -6.827201259682981 -4.567104302697043 a29.213958774667105,29.213958774667105 0 0,0 0.2832022508325832,-0.4155643577745305 l 6.747574543181658 4.683946683741989" fill="#ff6008" stroke="none" /><path d="M 83.17141714833178 87.43820079747576 l -5.75164493423222 -4.2933507464580485 a28.177344918672297,28.177344918672297 0 0,0 0.2934792035389325,-0.3861842306116802 l 5.676889790469179 4.391719752950755" fill="#ff5207" stroke="none" /><path d="M 83.39014120810768 87.1503855733568 l -8.150703027848142 -6.305495581036778 a31.30501015868724,31.30501015868724 0 0,0 0.33339227518831827,-0.4233743329735374 l 8.040956672065851 6.444862307963364" fill="#ff7d0b" stroke="none" /><path d="M 83.6137871275137 86.86637796730984 l -5.893292906194007 -4.723500308472571 a28.552639038265834,28.552639038265834 0 0,0 0.3106819559734383,-0.38085934257545345 l 5.8111124581441755 4.824243820656106" fill="#ff5708" stroke="none" /><path d="M 83.84228863543731 86.58626213691792 l -11.996739184368762 -9.959400251685521 a36.592030157456804,36.592030157456804 0 0,0 0.40650153650922605,-0.48116960204205667 l 11.823527034372411 10.164428803356694" fill="#ffc312" stroke="none" /><path d="M 84.07557802195018 86.31012108654704 l -21.045959110990687 -18.092752895149598 a48.75392048389625,48.75392048389625 0 0,0 0.5525633217926736,-0.631675397037469 l 20.731403925620167 18.452343848390008" fill="#a8ff21" stroke="none" /><path d="M 84.80347519578584 85.50635884689758 l -8.040378979347297 -7.668487970966318 a32.11095863966674,32.11095863966674 0 0,0 0.384927419826439,-0.3967015422066023 l 7.90718729581774 7.805753708723044" fill="#ff880c" stroke="none" /><path d="M 85.83668400450813 84.49514656593479 l -11.235849295315699 -12.300099537888252 a37.65943450507865,37.65943450507865 0 0,0 0.48237971881977637,-0.4330852743888057 l 11.022458588899951 12.491683821046337" fill="#ffd113" stroke="none" /><path d="M 87.80319425747018 82.90503203632743 l -18.245250009135127 -25.572430272277817 a52.41398315919769,52.41398315919769 0 0,0 0.7389594411345182,-0.517688312301574 l 17.80235942841695 25.882703427343333" fill="#80ff25" stroke="none" /><line stroke="#e1ed5e" stroke-width="0.3" x1="56.762969772571076" x2="54.21961505331055" y1="26.818313649435495" y2="22.513508569990535" /><path d="M 56.25429882871897 25.957352633546506 a86.0,86.0 0 0,1 42.265352541879196,-11.944610805530505" fill="none" id="id96" stroke="none" /><text fill="#e1ed5e" style="font-size:6.75px; font-family:Arial;" text-anchor="middle"><textPath startOffset="22.20632615414155" xlink:href="#id96">December</textPath></text><path d="M 89.3179101791058 81.91981866633112 l -5.226470332161745 -8.846165209703758 a31.27475698254416,31.27475698254416 0 0,0 0.4658498178806123,-0.26985028304159975 l 5.073423781815812 8.934819650135404" fill="#ff7d0b" stroke="none" /><path d="M 89.63071344664047 81.73862282372117 l -5.997129076150119 -10.56155941595848 a33.145455712027704,33.145455712027704 0 0,0 0.49856433410280576,-0.27745051214406186 l 5.814440652975268 10.663225325662726" fill="#ff960d" stroke="none" /><path d="M 90.58718382345135 81.22770947309562 l -5.118827082040161 -10.208646098969913 a32.42010708661882,32.42010708661882 0 0,0 0.5010122036288912,-0.24584451244858516 l 4.942343611400844 10.295245771553327" fill="#ff8c0c" stroke="none" /><path d="M 91.90106846888425 80.62456947434976 l -2.483977452315096 -5.942528637229064 a27.440791146116858,27.440791146116858 0 0,0 0.437375020374365,-0.1784162526434449 l 2.3813185623523503 5.984405776056086" fill="#ff4806" stroke="none" /><path d="M 92.23578459929587 80.48803036053334 l -23.29264620211241 -58.53590891839998 a84.0,84.0 0 0,0 1.3480673400012946,-0.5230291844377941 l 22.28159569711144 58.92818080672833" fill="#4dd2ff" stroke="none" /><path d="M 92.57280143429618 80.3572730644239 l -2.055246367655161 -5.435514188566654 a26.811097325451463,26.811097325451463 0 0,0 0.43308562277261564,-0.1595090898270741 l 1.9613784191099755 5.470086546200051" fill="#ff3f05" stroke="none" /><path d="M 94.28887869178378 79.79150937346287 l -2.7299462302870072 -9.659765539621526 a31.0381112118126,31.0381112118126 0 0,0 0.5153835663841856,-0.14087379741980885 l 2.563264774679099 9.705325877867631" fill="#ff790b" stroke="none" /><path d="M 94.63758080256005 79.69619591428918 l -3.1790511745012227 -12.036886682849552 a33.44961876467944,33.44961876467944 0 0,0 0.5579573395306028,-0.14223574928474506 l 2.9713849462856206 12.08982542830316" fill="#ff9a0e" stroke="none" /><path d="M 94.98787191387505 79.60689891045804 l -2.0364877902037177 -8.285961703215541 a29.532552013718018,29.532552013718018 0 0,0 0.49470725057013887,-0.11708122285973227 l 1.893556852671045 8.319788838216144" fill="#ff6509" stroke="none" /><path d="M 95.692805502759 79.44645832069477 l -2.661530614143548 -12.700582814077025 a33.97646134457511,33.97646134457511 0 0,0 0.5734475803789906,-0.11502818990927934 l 2.442516624297421 12.744514960063514" fill="#ffa10e" stroke="none" /><path d="M 96.75951476605007 79.25152402106235 l -2.299219484094967 -14.721653330263903 a35.90011701338322,35.90011701338322 0 0,0 0.6113807357250978,-0.09010162789866369 l 2.0454697679412206 14.759049442323535" fill="#ffba11" stroke="none" /><path d="M 97.11714578562143 79.19881850522333 l -1.2278455556772554 -8.859496995654732 a29.944176413992047,29.944176413992047 0 0,0 0.511168867208502,-0.06636438960838562 l 1.0751619599608957 8.879319708427255" fill="#ff6a09" stroke="none" /><path d="M 98.19473922651362 79.07773832637324 l -0.7509539998295645 -8.703261224109985 a29.735598883016348,29.735598883016348 0 0,0 0.5103334077440719,-0.0396116944010209 l 0.6010304027231584 8.714898180699468" fill="#ff6809" stroke="none" /><path d="M 99.27714615592234 79.0124445844662 l -0.4426289951173637 -12.85142306381599 a33.85904332337753,33.85904332337753 0 0,0 0.5826550673738715,-0.015048261390377734 l 0.22134729254861313 12.857138117348727" fill="#ff9f0e" stroke="none" /><path d="M 99.63851952072746 79.00311137660856 l -0.4039425486793742 -23.463332575906477 a44.466809436952175,44.466809436952175 0 0,0 0.7654230279519042,-0.0065882376542560845 l 5.7477106126328765e-15 23.466809436952175" fill="#daff1c" stroke="none" /></svg>