<?xml version="1.0" encoding="utf-8" ?>
<svg baseProfile="full" height="200mm" version="1.1" viewBox="0,0,200,200" width="200mm" xmlns="http://www.w3.org/2000/svg" xmlns:ev="http://www.w3.org/2001/xml-events" xmlns:xlink="http://www.w3.org/1999/xlink"><defs /><rect fill="#1a1a1a" height="200" width="200" x="0" y="0" /><text alignment-baseline="middle" fill="#e1ed5e" style="dominant-baseline: central; font-size:9.0px; font-family:Arial;" text-anchor="middle" x="100.0" y="100.0">2021</text><line stroke="#e1ed5e" stroke-width="0.3" x1="100.0" x2="100.0" y1="15.0" y2="10.0" /><path d="M 100.0 14.0 a86.0,86.0 0 0,1 42.46469731375804,11.215312516191453" fill="none" id="id133" stroke="none" /><text fill="#e1ed5e" style="font-size:6.75px; font-family:Arial;" text-anchor="middle"><textPath startOffset="22.20632615414155" xlink:href="#id133">January</textPath></text><path d="M 100.0 79.0 l 0.0 -11.136411171429529 a32.13641117142953,32.13641117142953 0 0,0 0.553175491064161,0.00476135609532456 l -0.19169501179163265 11.134761191942763" fill="#ff7d0b" stroke="none" /><path d="M 100.36148047927253 79.00311137660856 l 0.8081951550648246 -46.944675106693495 a67.95163149754946,67.95163149754946 0 0,0 1.169329034203231,0.030200319096781458 l -1.6161508244629235 46.923807995454354" fill="#39ff86" stroke="none" /><path d="M 101.44485096284872 79.0497635885617 l 0.6558996590050334 -9.510498502381516 a30.53308901282706,30.53308901282706 0 0,0 0.5240202299664658,0.040674055224291024 l -0.8195100783338404 9.49779918496876" fill="#ff6709" stroke="none" /><path d="M 105.36241919743992 79.69619591428918 l 7.109851073781274 -26.920130255678863 a48.8431929791478,48.8431929791478 0 0,0 0.8110344994705936,0.22168636571102218 l -7.572183462475579 26.793757349141547" fill="#aeff20" stroke="none" /><path d="M 105.71112130821622 79.79150937346287 l 3.100819047175479 -10.972078733345144 a32.401823998556154,32.401823998556154 0 0,0 0.5354166614810859,0.156302805577895 l -3.2892259263799923 10.917077598848545" fill="#ff810b" stroke="none" /><path d="M 108.09893153111575 80.62456947434976 l 7.185132510483343 -17.189308890883037 a39.63057887826879,39.63057887826879 0 0,0 0.6271373833057519,0.26850749856704453 l -7.47995365157941 17.0630818643532" fill="#ffe015" stroke="none" /><path d="M 108.76106565485865 80.91482961587045 l 7.111431731098277 -15.491595612897589 a38.04587914716103,38.04587914716103 0 0,0 0.592830506057779,0.27834187158335405 l -7.377040448455654 15.366888758674232" fill="#ffcc13" stroke="none" /><path d="M 110.36928655335952 81.73862282372117 l 6.898442688930151 -12.148865133897013 a34.970806547013396,34.970806547013396 0 0,0 0.5209039312489847,0.30174117900169833 l -7.106543352644464 12.028319797505267" fill="#ffa40f" stroke="none" /><line stroke="#e1ed5e" stroke-width="0.3" x1="143.23703022742887" x2="145.7803849466894" y1="26.81831364943548" y2="22.513508569990506" /><path d="M 143.74570117128098 25.957352633546492 a86.0,86.0 0 0,1 28.547481713284135,27.462654790039103" fill="none" id="id134" stroke="none" /><text fill="#e1ed5e" style="font-size:6.75px; font-family:Arial;" text-anchor="middle"><textPath startOffset="19.985693538727396" xlink:href="#id134">February</textPath></text><path d="M 110.99172775467656 82.1063720568725 l 8.389009373592867 -13.65661667508221 a37.02743451960926,37.02743451960926 0 0,0 0.5402141320761145,0.3382820399467232 l -8.622842658041243 13.510190293812544" fill="#ffbf11" stroke="none" /><path d="M 112.19680574252982 82.90503203632743 l 10.577936171771865 -14.825970323333713 a39.21269144532053,39.21269144532053 0 0,0 0.5460921557884625,0.3967591753904445 l -10.831573643914115 14.641691913126595" fill="#ffdb14" stroke="none" /><path d="M 112.77801427241765 83.33499621200491 l 6.823865680165513 -8.899641601919404 a32.214667336285785,32.214667336285785 0 0,0 0.43714911605763435,0.3412018190273654 l -6.976047351382578 8.780861393668815" fill="#ff7e0b" stroke="none" /><path d="M 113.6212207817346 84.01681056812373 l 10.383433127158296 -12.183957758553857 a37.0082638086831,37.0082638086831 0 0,0 0.48129458797466074,0.41737392393600015 l -10.591621513779721 12.003418841198187" fill="#ffbf11" stroke="none" /><path d="M 113.89432698308785 84.25364557470407 l 7.36823515399782 -8.350375111007358 a32.13641117142953,32.13641117142953 0 0,0 0.41163530967676293,0.3695702453570312 l -7.510881451270573 8.222305856881029" fill="#ff7d0b" stroke="none" /><path d="M 114.42810811169701 84.74124197986012 l 7.6513021122712175 -8.091800156077412 a32.13641117142953,32.13641117142953 0 0,0 0.39867017144373657,0.3835203890629117 l -7.789455527327372 7.958896680252199" fill="#ff7d0b" stroke="none" /><path d="M 114.68862486808459 84.99185889309783 l 12.281144885922316 -12.548292100693244 a38.558079460844695,38.558079460844695 0 0,0 0.4703428367700989,0.46832303515454676 l -12.495323522859739 12.335033214888579" fill="#ffd313" stroke="none" /><path d="M 114.94478906791727 85.2469230424477 l 14.217844868776627 -14.035458015924593 a40.97851832417459,40.97851832417459 0 0,0 0.4912265467948442,0.5062521365046008 l -14.45733567927458 13.788641683869878" fill="#fff216" stroke="none" /><path d="M 115.19652480421416 85.50635884689758 l 10.675110542767213 -10.181355505283845 a35.75188072841132,35.75188072841132 0 0,0 0.420906343670368,0.44899354058143587 l -10.848784208408045 9.996092547824354" fill="#ffae10" stroke="none" /><path d="M 115.68641384162765 86.03803664274999 l 8.299477065835577 -7.3870927955518955 a32.11082623104265,32.11082623104265 0 0,0 0.36393513858219095,0.4160407759493826 l -8.425404067995617 7.243136463399565" fill="#ff7d0b" stroke="none" /><path d="M 116.15771136456269 86.58626213691792 l 11.786875752214419 -9.785176749207368 a36.31927295962079,36.31927295962079 0 0,0 0.39519088752199333,0.4844573002054393 l -11.953565131812821 9.580835279393828" fill="#ffb510" stroke="none" /><path d="M 116.82858285166822 87.43820079747576 l 7.558562764259897 -5.6421356772116535 a30.432155960400614,30.432155960400614 0 0,0 0.3097375957406619,0.4224817325001516 l -7.654562972514186 5.511191501040008" fill="#ff6509" stroke="none" /><path d="M 117.65298651832404 88.62581576622439 l 15.432273459003016 -9.943332890811641 a39.35823883412964,39.35823883412964 0 0,0 0.3620440763387903,0.5726667836949709 l -15.601145131587762 9.676218459402465" fill="#ffdd14" stroke="none" /><line stroke="#e1ed5e" stroke-width="0.3" x1="172.23445277983987" x2="176.4835382374775" y1="55.19839476539836" y2="52.563006222186495" /><path d="M 173.08426987136738 54.67131705675599 a86.0,86.0 0 0,1 12.851231095245387,41.99856678651699" fill="none" id="id135" stroke="none" /><text fill="#e1ed5e" style="font-size:6.75px; font-family:Arial;" text-anchor="middle"><textPath startOffset="22.20632615414155" xlink:href="#id135">March</textPath></text><path d="M 118.21658344932153 89.55222093294921 l 11.247636402689217 -6.450870465844219 a33.96622745497706,33.96622745497706 0 0,0 0.2865170308463027,0.5096818274461338 l -11.357011074827952 6.256305128463292" fill="#ff960d" stroke="none" /><path d="M 118.89224826269711 90.83032412892265 l 12.077245107594912 -5.8618975101478865 a34.42466728855517,34.42466728855517 0 0,0 0.2541553615625813,0.535316009148985 l -12.176358662999249 5.653139085358362" fill="#ff9c0e" stroke="none" /><path d="M 119.04729006885535 91.15688171328212 l 7.127023709426177 -3.3088756178366965 a28.857679352648404,28.857679352648404 0 0,0 0.20529859205239678,0.4523482342278421 l -7.182924618441921 3.185705374766792" fill="#ff4f07" stroke="none" /><path d="M 119.85752413597 93.16781622104841 l 14.734362616761535 -5.0695077882886 a36.58208429375668,36.58208429375668 0 0,0 0.1997428945043508,0.5972058308125217 l -14.819442805037655 4.815128854553765" fill="#ffb911" stroke="none" /><path d="M 120.08093135843002 93.85539295169968 l 14.68790393265734 -4.494383075089616 a36.36014326627922,36.36014326627922 0 0,0 0.1779813479974834,0.6000646261799248 l -14.763091177766526 4.240889062163162" fill="#ffb610" stroke="none" /><path d="M 120.67395015179393 96.31383870115 l 11.401667397310412 -2.0329150836555754 a32.58148363450234,32.58148363450234 0 0,0 0.09369214979032926,0.5529763716710276 l -11.434971408620966 1.8363529236687097" fill="#ff830c" stroke="none" /><path d="M 120.91429891909075 98.10471618934814 l 12.448038552785881 -1.1280591347926963 a33.499047212617164,33.499047212617164 0 0,0 0.04709888859560178,0.5747257379764691 l -12.465611925200978 0.9136194796084585" fill="#ff900d" stroke="none" /><path d="M 120.98425023603335 99.18683210126433 l 11.492581202194069 -0.44535296720726436 a32.50120697815776,32.50120697815776 0 0,0 0.016851574863738214,0.5592217298060635 l -11.498544471513451 0.2474610899762017" fill="#ff820c" stroke="none" /><line stroke="#e1ed5e" stroke-width="0.3" x1="184.98032266829074" x2="189.97916517819016" y1="98.17113171792111" y2="98.06355123074" /><path d="M 185.9800911702706 98.14961562048488 a86.0,86.0 0 0,1 -9.607161424134198,41.387399972396054" fill="none" id="id136" stroke="none" /><text fill="#e1ed5e" style="font-size:6.75px; font-family:Arial;" text-anchor="middle"><textPath startOffset="21.466115282336823" xlink:href="#id136">April</textPath></text><path d="M 120.9904718944345 100.63252640178507 l 22.764645064441318 0.6859892956643437 a43.77497851203725,43.77497851203725 0 0,0 -0.029178873031092015,0.7529770595248009 l -22.74946405855902 -1.0777436022031508" fill="#eaff1a" stroke="none" /><path d="M 120.9764740272857 100.99374915477107 l 18.94207416157258 0.8973705572818471 a39.96331847171248,39.96331847171248 0 0,0 -0.03846688080748167,0.6868519974064791 l -18.923820929877568 -1.2232942710237495" fill="#ffe515" stroke="none" /><path d="M 120.32669344350535 105.2749913415812 l 45.88362511228994 11.907284667837658 a68.40348596470608,68.40348596470608 0 0,0 -0.30557440967987237,1.1371560548894297 l -45.67186262626829 -12.695331655902635" fill="#39ff8b" stroke="none" /><path d="M 120.23288151984713 105.62410040840565 l 31.398689900155606 8.72784158389131 a53.5891538116539,53.5891538116539 0 0,0 -0.25469486349744813,0.8866262326616325 l -31.243802399772058 -9.267025292057525" fill="#79ff26" stroke="none" /><path d="M 119.79798401119884 107.00284435728193 l 10.478019689863029 3.706232968929599 a32.11418280581789,32.11418280581789 0 0,0 -0.18882487876960025,0.5195649693154502 l -10.412670550088201 -3.8860457352511806" fill="#ff7d0b" stroke="none" /><path d="M 119.54520255179757 107.68017299344265 l 18.21731645675863 7.158387921200043 a40.57327608031092,40.57327608031092 0 0,0 -0.26101635854586075,0.6478211961150621 l -18.09139748395538 -7.470908485157918" fill="#ffec16" stroke="none" /><path d="M 119.41010516605496 108.01547362559984 l 3.4284679512741776 1.4157983279612416 a24.70929607855345,24.70929607855345 0 0,0 -0.16572762419490392,0.3917311484479816 l -3.4035893458869646 -1.4746040020753866" fill="#ff1302" stroke="none" /><path d="M 119.26925614724726 108.34839909993367 l 14.201610226532162 6.152843115831798 a36.47718357565037,36.47718357565037 0 0,0 -0.25457411699550225,0.5739974282207274 l -14.093595024805387 -6.396388880545214" fill="#ffb811" stroke="none" /><line stroke="#e1ed5e" stroke-width="0.3" x1="174.80103733775053" x2="179.2010983576182" y1="140.37084112569926" y2="142.7455964860345" /><path d="M 175.68104954172406 140.8457921977663 a86.0,86.0 0 0,1 -30.038265399797805,32.042727171017184" fill="none" id="id137" stroke="none" /><text fill="#e1ed5e" style="font-size:6.75px; font-family:Arial;" text-anchor="middle"><textPath startOffset="22.206326154141568" xlink:href="#id137">May</textPath></text><path d="M 118.12598468904814 110.60418214915192 l 13.132045919945693 7.682595418403407 a36.21423354646679,36.21423354646679 0 0,0 -0.31940802974935534,0.5353462301754646 l -12.997857014498111 -7.907503742464975" fill="#ffb410" stroke="none" /><path d="M 117.35343817320211 111.8261652097733 l 8.400359515341354 5.724746788410445 a31.16556765647653,31.16556765647653 0 0,0 -0.30592580211824477,0.4407089349758246 l -8.300572806060973 -5.868496985573289" fill="#ff700a" stroke="none" /><path d="M 116.93607887273984 112.41649034213515 l 8.878851834919889 6.509427529590672 a32.00938947759835,32.00938947759835 0 0,0 -0.3296033254523484,0.4415575174490618 l -8.76548724277245 -6.661297926549049" fill="#ff7b0b" stroke="none" /><path d="M 116.498646956653 112.99209946851258 l 7.550037631451573 5.94538692515493 a30.60992684291291,30.60992684291291 0 0,0 -0.32954077011875826,0.41115277993293875 l -7.446578949277962 -6.074467538666118" fill="#ff6809" stroke="none" /><path d="M 115.32070863581623 114.36230785411682 l 11.358431293979633 10.647894354090285 a36.56893110126458,36.56893110126458 0 0,0 -0.43446232061140677,0.45553200620359213 l -11.17346242198926 -10.841833476876383" fill="#ffb911" stroke="none" /><path d="M 115.07121518719521 114.62390073753431 l 7.727213415143322 7.497869319576048 a31.766980611880506,31.766980611880506 0 0,0 -0.3841677400031473,0.3891598923780087 l -7.597005050084639 -7.629769705934721" fill="#ff780b" stroke="none" /><path d="M 114.55890576462653 115.13401014063108 l 7.15035848403412 7.432811198589125 a31.313792162152126,31.313792162152126 0 0,0 -0.39166719477768364,0.3703457792959824 l -7.0213554548656285 -7.5547916146310286" fill="#ff720a" stroke="none" /><path d="M 114.29624159901734 115.38237550388516 l 6.638465747863547 7.142812479493621 a30.751358756746022,30.751358756746022 0 0,0 -0.3908357860324577,0.3570192239136049 l -6.514530412364225 -7.256024469993808" fill="#ff6a09" stroke="none" /><path d="M 112.04921762599082 117.19931262002967 l 4.980580081978574 7.109387224799036 a29.680412701314232,29.680412701314232 0 0,0 -0.42095745641133214,0.28953837701473656 l -4.857465740944359 -7.1940663911788665" fill="#ff5b08" stroke="none" /><path d="M 111.45004920935366 117.60387380957326 l 7.9763311404383215 12.263207283418467 a35.629016075526536,35.629016075526536 0 0,0 -0.5169909320654948,0.3299680734235464 l -7.764058406325896 -12.398689785665823" fill="#ffac10" stroke="none" /><line stroke="#e1ed5e" stroke-width="0.3" x1="143.8653032363475" x2="146.44561519142675" y1="172.8068346515853" y2="177.08958963109032" /><path d="M 144.38136562736335 173.6633856474863 a86.0,86.0 0 0,1 -40.68145358897372,12.25698825130547" fill="none" id="id138" stroke="none" /><text fill="#e1ed5e" style="font-size:6.75px; font-family:Arial;" text-anchor="middle"><textPath startOffset="21.466115282336833" xlink:href="#id138">June</textPath></text><path d="M 109.57404056367764 118.69057910512821 l 8.17696939244053 15.963196756178675 a38.93562039967903,38.93562039967903 0 0,0 -0.5991377897192226,0.3004201256617055 l -7.900977695038547 -16.10158472274968" fill="#ffd814" stroke="none" /><path d="M 109.2508944713604 118.85261126421891 l 4.966805295044712 10.121967096525768 a32.274900121155596,32.274900121155596 0 0,0 -0.5008562424305887,0.24044143335041068 l -4.791836384613891 -10.205962806375739" fill="#ff7f0b" stroke="none" /><path d="M 107.93186726928326 119.44442032107085 l 4.170586819800531 10.223903194114786 a32.04182914847556,32.04182914847556 0 0,0 -0.5124845283828731,0.20392817031882668 l -3.9939812153757916 -10.294178208839682" fill="#ff7c0b" stroke="none" /><path d="M 106.91757812671514 119.82793768551818 l 4.317344390982072 12.374856341805232 a34.10635464462417,34.10635464462417 0 0,0 -0.55598273781104,0.18861953124857045 l -4.103691920233805 -12.447338859951925" fill="#ff980e" stroke="none" /><path d="M 106.57524785965236 119.94407469862006 l 5.364336867389057 16.27113341966478 a38.132597374226755,38.132597374226755 0 0,0 -0.6251542539136917,0.200154650382503 l -5.083461268384426 -16.36106091670699" fill="#ffcd13" stroke="none" /><path d="M 105.53697534728816 120.25689768951611 l 4.043814461749825 14.794202735103637 a36.336912008889044,36.336912008889044 0 0,0 -0.6047665726583044,0.1597243484769021 l -3.788557446280023 -14.861618432884123" fill="#ffb610" stroke="none" /><path d="M 104.83641907484287 120.43548508189849 l 2.9163793449547426 12.32267627654162 a33.66308094817846,33.66308094817846 0 0,0 -0.5650265592185684,0.1285982053096046 l -2.703832636343312 -12.37105121542891" fill="#ff920d" stroke="none" /><path d="M 104.48393922423573 120.51570834832081 l 2.4048918723302948 11.0032847892547 a32.263027171726264,32.263027171726264 0 0,0 -0.5435683092139398,0.11391002421145703 l -2.2151321016869767 -11.043050794192697" fill="#ff7f0b" stroke="none" /><path d="M 103.06178313531738 120.77559828337769 l 1.6114201473111918 10.934222368694426 a32.05232526209838,32.05232526209838 0 0,0 -0.5465248220160719,0.07574336038590776 l -1.4229667341082894 -10.960340294572937" fill="#ff7c0b" stroke="none" /><path d="M 102.34483914955558 120.86867818915974 l 1.984600771737337 17.66261657956113 a38.77376337919936,38.77376337919936 0 0,0 -0.6638943532422613,0.06881536421379748 l -1.6802738218894733 -17.694161312230687" fill="#ffd614" stroke="none" /><path d="M 101.98527174616119 120.90594882070398 l 1.4065888844817298 14.812115916930281 a35.87875230745263,35.87875230745263 0 0,0 -0.6153303102796589,0.053093288345843856 l -1.1514142564605292 -14.834133457554788" fill="#ffb010" stroke="none" /><path d="M 101.62511606390274 120.93702456842531 l 0.857147284277217 11.042973574806318 a32.076189184047664,32.076189184047664 0 0,0 -0.550850872003223,0.037989901267433034 l -0.6669336514950636 -11.056091820590037" fill="#ff7c0b" stroke="none" /><path d="M 100.90346689309514 120.98055641714683 l 0.39955934784842995 9.278676953854449 a30.287275902353862,30.287275902353862 0 0,0 -0.521056018415961,0.017946222817976254 l -0.23978297775781665 -9.28417997509852" fill="#ff6309" stroke="none" /><line stroke="#e1ed5e" stroke-width="0.3" x1="102.19456741930631" x2="102.32365962044197" y1="184.97166512339345" y2="189.96999836594603" /><path d="M 102.22038585953345 185.97133177190398 a86.0,86.0 0 0,1 -42.740103519485714,-10.115201625700543" fill="none" id="id139" stroke="none" /><text fill="#e1ed5e" style="font-size:6.75px; font-family:Arial;" text-anchor="middle"><textPath startOffset="22.20632615414155" xlink:href="#id139">July</textPath></text><path d="M 100.54218724476979 120.99299961872073 l 0.24040307390127033 9.308189536792693 a30.311293470340097,30.311293470340097 0 0,0 -0.5217011100797178,0.00898155772939289 l -0.0801422739288846 -9.310948571801244" fill="#ff6409" stroke="none" /><path d="M 99.81925306533755 120.99922214144158 l -0.08750697971195712 10.166581852852756 a31.166958445978487,31.166958445978487 0 0,0 -0.5364283393246093,-0.009235100336647041 l 0.2624950089292344 -10.16356927523695" fill="#ff700a" stroke="none" /><path d="M 97.2962882734958 120.8252237178851 l -1.420635116177532 10.942381107372427 a32.034215351908706,32.034215351908706 0 0,0 -0.5462160295848759,-0.07570056456866361 l 1.608779736949239 -10.916305977311158" fill="#ff7c0b" stroke="none" /><path d="M 96.93821686468263 120.77559828337769 l -2.348904437538355 15.938390422704396 a37.11054441424133,37.11054441424133 0 0,0 -0.6311693117490607,-0.09857566584270433 l 2.6229096128959326 -15.895596449514587" fill="#ffc011" stroke="none" /><path d="M 94.81253420990036 120.34920634021253 l -2.7460572112204127 10.772135581077137 a32.116642262140296,32.116642262140296 0 0,0 -0.5345273054963078,-0.1411735196246541 l 2.93107495952821 -10.723270712148903" fill="#ff7d0b" stroke="none" /><path d="M 92.40401165467489 119.57807347666478 l -4.87926434690577 12.575927127979726 a34.489298117220265,34.489298117220265 0 0,0 -0.5516299209373101,-0.21950492988506645 l 5.0950153438849375 -12.490075353688594" fill="#ff9d0e" stroke="none" /><path d="M 90.10565033884886 118.52300852407294 l -5.347686038091681 10.011293057144057 a32.35005438920984,32.35005438920984 0 0,0 -0.4889128237116172,-0.26659425372060863 l 5.519221673671939 -9.917758151663682" fill="#ff800b" stroke="none" /><line stroke="#e1ed5e" stroke-width="0.3" x1="58.666819895761336" x2="56.23545636021788" y1="174.27360380694188" y2="178.64263932499728" /><path d="M 58.180547188652646 175.14741091055294 a86.0,86.0 0 0,1 -31.652253787137756,-30.449443065178592" fill="none" id="id140" stroke="none" /><text fill="#e1ed5e" style="font-size:6.75px; font-family:Arial;" text-anchor="middle"><textPath startOffset="22.20632615414155" xlink:href="#id140">August</textPath></text><path d="M 87.95078237400918 117.19931262002967 l -1.3973470466492866 1.994603254750325 a23.435368742642492,23.435368742642492 0 0,0 -0.32839945632114653,-0.23430429253878168 l 1.43147383081932 -1.970254700367324" fill="#ff0000" stroke="none" /><path d="M 87.36589467227662 116.77436683061367 l -6.15055190045161 8.166119492649075 a31.223247832678815,31.223247832678815 0 0,0 -0.4265263241106455,-0.3270421973125369 l 6.290206953055742 -8.05903795350917" fill="#ff700a" stroke="none" /><path d="M 85.97065885151581 115.62618273729859 l -11.884777926729628 13.237521969829304 a38.78988291893438,38.78988291893438 0 0,0 -0.49300177272340695,-0.45034543042362024 l 12.11087924891989 -13.030983772819107" fill="#ffd614" stroke="none" /><path d="M 85.70375840098266 115.38237550388516 l -15.40281493395964 16.573018963760585 a43.62546497782925,43.62546497782925 0 0,0 -0.5456593503673408,-0.5159549741117255 l 15.685810118717798 -16.30542935290293" fill="#ecff1a" stroke="none" /><path d="M 85.44109423537348 115.13401014063109 l -7.101852082029221 7.3823887017548415 a31.243825747191345,31.243825747191345 0 0,0 -0.3843735176071081,-0.376190386880119 l 7.227875552012123 -7.259048211952153" fill="#ff710a" stroke="none" /><path d="M 85.18274418774928 114.88116024355367 l -7.000103708142162 7.030294024905172 a30.92101234760662,30.92101234760662 0 0,0 -0.3739371889737293,-0.37879639819824035 l 7.120081522171425 -6.908757132726267" fill="#ff6c0a" stroke="none" /><path d="M 83.95833913139862 113.55231037782056 l -11.313432004934251 9.55780970718186 a35.810316341286246,35.810316341286246 0 0,0 -0.39374977563242164,-0.47429696997732823 l 11.476277780460208 -9.36165148009077" fill="#ffaf10" stroke="none" /><path d="M 83.72743513129214 113.27417163493432 l -8.242919181057111 6.724073608866361 a31.637616392918684,31.637616392918684 0 0,0 -0.3406046843675436,-0.4249567141128829 l 8.357441777479515 -6.581189061175219" fill="#ff760a" stroke="none" /><path d="M 83.50135304334701 112.99209946851258 l -7.4927103361651515 5.900243712830993 a30.53695884716285,30.53695884716285 0 0,0 -0.3216460533278483,-0.41577088225056463 l 7.593163206711068 -5.770394836467176" fill="#ff6709" stroke="none" /><path d="M 83.28015986056508 112.70617746262583 l -7.697734122163121 5.849863096814307 a30.6682991713633,30.6682991713633 0 0,0 -0.31579400787770345,-0.42305767987139575 l 7.797289396735909 -5.716492537433603" fill="#ff6909" stroke="none" /><path d="M 82.6465618267979 111.8261652097733 l -14.448162098872409 9.846253535089604 a38.48422422392706,38.48422422392706 0 0,0 -0.368343312366023,-0.5506232745102962 l 14.615508516649163 -9.596093346373486" fill="#ffd213" stroke="none" /><path d="M 82.44556493220864 111.52570212397912 l -20.30050645594668 13.328688133431038 a45.28506721683509,45.28506721683509 0 0,0 -0.42221885346189986,-0.6552930368238818 l 20.52693017278563 -12.977273496685708" fill="#d8ff1c" stroke="none" /><path d="M 82.05923443525364 110.91462005526583 l -7.439861704335265 4.52618721723372 a29.708496592700968,29.708496592700968 0 0,0 -0.26202770110581597,-0.4391734988585567 l 7.516670281139313 -4.397451624489053" fill="#ff5b08" stroke="none" /><line stroke="#e1ed5e" stroke-width="0.3" x1="26.63291911575756" x2="22.317208475507996" y1="142.92168965132927" y2="145.44649492493687" /><path d="M 25.769776987707644 143.4266507060508 a86.0,86.0 0 0,1 -11.730757126820373,-40.83630448921669" fill="none" id="id141" stroke="none" /><text fill="#e1ed5e" style="font-size:6.75px; font-family:Arial;" text-anchor="middle"><textPath startOffset="21.46611528233685" xlink:href="#id141">September</textPath></text><path d="M 81.35079622478065 109.6543875284942 l -13.786028364628136 7.136801222998467 a36.523804616360124,36.523804616360124 0 0,0 -0.28422708261295543,-0.5608069986256835 l 13.906834117027358 -6.898440012670099" fill="#ffb811" stroke="none" /><path d="M 81.18737489456691 109.33194174019688 l -22.63569999156607 11.22836565264169 a46.26759009754606,46.26759009754606 0 0,0 -0.3477708771991773,-0.7165110133615813 l 22.825624125379967 -10.837065683314824" fill="#ccff1d" stroke="none" /><path d="M 81.02952815118164 109.00673069616217 l -14.076166259077425 6.683030329464983 a36.58208429375668,36.58208429375668 0 0,0 -0.2651772284959461,-0.571168158906534 l 14.189118104413197 -6.439742103279622" fill="#ffb911" stroke="none" /><path d="M 80.32549172779594 107.34259656027581 l -11.527821757207432 4.302224137491066 a33.30446288934043,33.30446288934043 0 0,0 -0.19582348414692327,-0.5388221255324489 l 11.60016950235958 -4.1031542149525" fill="#ff8d0d" stroke="none" /><path d="M 80.20201598880116 107.00284435728193 l -12.777978829809967 4.519763067552059 a34.55378180294634,34.55378180294634 0 0,0 -0.19351626502921487,-0.5624488491306375 l 12.85388592578241 -4.299141515332125" fill="#ff9e0e" stroke="none" /><path d="M 79.50377843672027 104.57218783832718 l -11.469594800824638 2.5585760622739673 a32.75150698257653,32.75150698257653 0 0,0 -0.11800829805046875,-0.5512954815064676 l 11.511937137599547 -2.3607667613513357" fill="#ff860c" stroke="none" /><path d="M 79.35854240842038 103.8639653848113 l -19.734246666151858 3.6941405748615614 a41.077030808049386,41.077030808049386 0 0,0 -0.12411827347207063,-0.696121192387566 l 19.794911381963118 -3.353900631740782" fill="#fff316" stroke="none" /><path d="M 79.23777060512086 103.15116336523772 l -10.147262386312947 1.54008901843126 a31.26346959470208,31.26346959470208 0 0,0 -0.07617262334888736,-0.5327511502889147 l 10.172269060678433 -1.3651923961619445" fill="#ff710a" stroke="none" /><path d="M 79.18660465613746 102.79330883721812 l -13.218507466368411 1.774019717139933 a34.337019366981465,34.337019366981465 0 0,0 -0.07357685945123392,-0.5864799627440788 l 13.247085835066493 -1.5462220001084455" fill="#ff9b0e" stroke="none" /><line stroke="#e1ed5e" stroke-width="0.3" x1="15.007084014347285" x2="10.007500721073583" y1="101.09737516637583" y2="101.16192664675087" /><path d="M 14.007167355692545 101.11028546245083 a86.0,86.0 0 0,1 10.666146001902534,-42.60595125391555" fill="none" id="id142" stroke="none" /><text fill="#e1ed5e" style="font-size:6.75px; font-family:Arial;" text-anchor="middle"><textPath startOffset="22.20632615414155" xlink:href="#id142">October</textPath></text><path d="M 79.00019446554 99.90962569577889 l -13.517218673456313 -0.0581724069117558 a34.51734384762635,34.51734384762635 0 0,0 0.007671057050106528,-0.594131822332208 l 13.51421460928849 0.2908404873044357" fill="#ff9d0e" stroke="none" /><path d="M 79.00486145842228 99.54816195383935 l -12.416135715272668 -0.2672086441032205 a33.4190106916595,33.4190106916595 0 0,0 0.017327447590516812,-0.5750136288771364 l 12.409696573226507 0.48089242040535124" fill="#ff8f0d" stroke="none" /><path d="M 79.05617556472873 98.46500227214037 l -13.931454772550218 -1.0210528400739456 a34.96882174636914,34.96882174636914 0 0,0 0.049165357727883066,-0.5999418955647043 l 13.911814931002837 1.2607086528464282" fill="#ffa40f" stroke="none" /><path d="M 79.54389044137918 95.25157060432595 l -14.188791341838115 -3.2936113146830435 a35.56604528464842,35.56604528464842 0 0,0 0.14356352688460472,-0.5951635030712441 l 14.129995014692694 3.5373600494136843" fill="#ffac0f" stroke="none" /><path d="M 79.71946130924805 94.55025226153421 l -14.383564163807439 -3.8651239726946693 a35.89382762686156,35.89382762686156 0 0,0 0.16547606520432603,-0.595305449498322 l 14.31490132803675 4.112140725611933" fill="#ffb010" stroke="none" /><path d="M 79.91906864156998 93.8553929516997 l -10.925329315053435 -3.3430648367859286 a32.42536227632719,32.42536227632719 0 0,0 0.1679085873514254,-0.5323161070631913 l 10.866165243933805 3.530631110275534" fill="#ff810b" stroke="none" /><path d="M 80.38941819471856 92.48833698450439 l -58.83174541584431 -22.534989046486853 a84.0,84.0 0 0,0 0.5288258004732356,-1.3458039804169464 l 58.435126065489385 23.544342031799562" fill="#4dd2ff" stroke="none" /><path d="M 80.65960295795068 91.81776055985345 l -8.408084733057821 -3.557163918059354 a30.129584000283003,30.129584000283003 0 0,0 0.20618576806742828,-0.4759051802925611 l 8.345608255147713 3.701368242938514" fill="#ff6109" stroke="none" /><line stroke="#e1ed5e" stroke-width="0.3" x1="26.266209847984243" x2="21.928928074336255" y1="57.711370442889674" y2="55.22380399835377" /><path d="M 25.398753493254645 57.213857153982495 a86.0,86.0 0 0,1 29.58750427330803,-30.492523968695096" fill="none" id="id143" stroke="none" /><text fill="#e1ed5e" style="font-size:6.75px; font-family:Arial;" text-anchor="middle"><textPath startOffset="21.46611528233685" xlink:href="#id143">November</textPath></text><path d="M 81.78341655067845 89.55222093294921 l -7.890352993790138 -4.525363664899105 a30.09596540594796,30.09596540594796 0 0,0 0.26160606296817046,-0.4471695624638488 l 7.811287256351643 4.6605126397168455" fill="#ff6108" stroke="none" /><path d="M 87.22198572758235 83.33499621200491 l -7.029882517961053 -9.168327432836367 a32.55324526408205,32.55324526408205 0 0,0 0.44761308465000804,-0.3371328953659505 l 6.871023279552656 9.287976917708173" fill="#ff830c" stroke="none" /><path d="M 88.09926311788651 82.69761687909137 l -7.847678913267783 -11.40967559507297 a34.847987633968756,34.847987633968756 0 0,0 0.497156833548381,-0.33568251327215687 l 7.650117385312863 11.543070020643793" fill="#ffa20f" stroke="none" /><line stroke="#e1ed5e" stroke-width="0.3" x1="56.762969772571076" x2="54.21961505331055" y1="26.818313649435495" y2="22.513508569990535" /><path d="M 56.25429882871897 25.957352633546506 a86.0,86.0 0 0,1 42.265352541879196,-11.944610805530505" fill="none" id="id144" stroke="none" /><text fill="#e1ed5e" style="font-size:6.75px; font-family:Arial;" text-anchor="middle"><textPath startOffset="22.20632615414155" xlink:href="#id144">December</textPath></text><path d="M 90.91171255644093 81.06846463323043 l -4.950107834215039 -10.31141918813101 a32.438047615030875,32.438047615030875 0 0,0 0.5054493315494701,-0.23731523849807282 l 4.77188029136596 10.395099409269092" fill="#ff810b" stroke="none" /><path d="M 91.56875222667455 80.76684994638697 l -4.637843721329266 -10.57973227874318 a32.5516375234576,32.5516375234576 0 0,0 0.5151160885508298,-0.2205458263058014 l 4.455043874988128 10.657997633011767" fill="#ff830c" stroke="none" /><path d="M 92.57280143429618 80.3572730644239 l -4.398600098666377 -11.632986498552611 a33.43680255143963,33.43680255143963 0 0,0 0.5401121140524364,-0.1989278497991471 l 4.197705658841372 11.70697761615808" fill="#ff8f0d" stroke="none" /><path d="M 92.91201910852362 80.23233633223022 l -15.969966550452732 -44.5386256521252 a68.31520904109718,68.31520904109718 0 0,0 1.11034334485262,-0.3873769908559996 l 15.200941201536827 44.80692349615341" fill="#39ff8a" stroke="none" /><path d="M 94.98787191387505 79.60689891045804 l -3.2091259101900427 -13.057134209467291 a34.44571466570275,34.44571466570275 0 0,0 0.5770088811924516,-0.13655935976899553 l 2.9838933420350573 13.110439481377156" fill="#ff9d0e" stroke="none" /><path d="M 95.33964822691252 79.52364482259891 l -3.357007501322295 -14.749804580681964 a36.127003488207464,36.127003488207464 0 0,0 0.6075482922091235,-0.13278652493014767 l 3.102616484959651 14.805404603707979" fill="#ffb310" stroke="none" /><path d="M 97.47563105711357 79.15227682838746 l -1.6011362140938368 -13.22312439532095 a34.31970930426842,34.31970930426842 0 0,0 0.5870848718076451,-0.06596582586823926 l 1.3732846387764737 13.248726174659787" fill="#ff9b0e" stroke="none" /></svg>