<?xml version="1.0" encoding="utf-8" ?>
<svg baseProfile="full" height="200mm" version="1.1" viewBox="0,0,200,200" width="200mm" xmlns="http://www.w3.org/2000/svg" xmlns:ev="http://www.w3.org/2001/xml-events" xmlns:xlink="http://www.w3.org/1999/xlink"><defs /><rect fill="#1a1a1a" height="200" width="200" x="0" y="0" /><text alignment-baseline="middle" fill="#e1ed5e" style="dominant-baseline: central; font-size:9.0px; font-family:Arial;" text-anchor="middle" x="100.0" y="100.0">2019</text><line stroke="#e1ed5e" stroke-width="0.3" x1="100.0" x2="100.0" y1="15.0" y2="10.0" /><path d="M 100.0 14.0 a86.0,86.0 0 0,1 42.46469731375804,11.215312516191453" fill="none" id="id109" stroke="none" /><text fill="#e1ed5e" style="font-size:6.75px; font-family:Arial;" text-anchor="middle"><textPath startOffset="22.20632615414155" xlink:href="#id109">January</textPath></text><path d="M 100.0 79.0 l 0.0 -11.48417339148682 a32.48417339148682,32.48417339148682 0 0,0 0.559161646015551,0.004812880820887739 l -0.19768116674302255 11.48247188727449" fill="#ff910d" stroke="none" /><path d="M 100.72285384407766 79.0124445844662 l 0.29582238430324836 -8.588995873213804 a29.59408872383446,29.59408872383446 0 0,0 0.5089607833188725,0.021916921957157973 l -0.44362400001145247 8.582631224732452" fill="#ff6a09" stroke="none" /><path d="M 101.44485096284872 79.0497635885617 l 0.7795786802159845 -11.303835531687298 a32.33068579769484,32.33068579769484 0 0,0 0.5548712545777544,0.04306868849798318 l -0.9740401241560801 11.288741581000851" fill="#ff8f0d" stroke="none" /><path d="M 102.16513564639614 79.11191278185805 l 0.323419021988283 -3.120176211842489 a24.136893281055574,24.136893281055574 0 0,0 0.412894082875598,0.04639346111769855 l -0.3770798083736062 3.11414679725419" fill="#ff1e03" stroke="none" /><path d="M 102.52436894288641 79.15227682838746 l 0.692427896583656 -5.718476748399611 a26.760245890060098,26.760245890060098 0 0,0 0.45681685776642805,0.05930793886968648 l -0.7907594828579302 5.7057104863657875" fill="#ff4306" stroke="none" /><path d="M 102.88285421437855 79.19881850522331 l 1.17704461702867 -8.492943758358285 a29.574119646535912,29.574119646535912 0 0,0 0.5036486934340743,0.0742247253074237 l -1.3230622908914 8.471424548889892" fill="#ff6a09" stroke="none" /><path d="M 104.66035177308747 79.52364482259891 l 1.5779947894565447 -6.933292453070361 a28.110598553944275,28.110598553944275 0 0,0 0.4708877484087207,0.11144391627537369 l -1.6971062248277888 6.905102624654118" fill="#ff5608" stroke="none" /><path d="M 105.01212808612495 79.60689891045804 l 1.7020665909870956 -6.92528511935291 a28.131381679905044,28.131381679905044 0 0,0 0.4692463310228412,0.11962133798312007 l -1.8210218106949618 6.894960785200922" fill="#ff5608" stroke="none" /><path d="M 106.0581310904928 79.89281104454417 l 1.963558290271494 -6.51713160012342 a27.80650905035916,27.80650905035916 0 0,0 0.45710541228741797,0.14202487667283306 l -2.0754490752696304 6.482366588568067" fill="#ff5207" stroke="none" /><path d="M 106.74666289553966 80.11325718540242 l 2.2849312248003346 -6.735157858070669 a28.112191088208938,28.112191088208938 0 0,0 0.4569141296960844,0.15940836810684728 l -2.400527358559693 6.694828636791614" fill="#ff5608" stroke="none" /><path d="M 107.08798089147638 80.2323363322302 l 2.8885233799667445 -8.055800311247564 a29.55800712615448,29.55800712615448 0 0,0 0.4774570681967492,0.17585146764281467 l -3.02676277393607 8.004885575798424" fill="#ff6a09" stroke="none" /><path d="M 107.4271985657038 80.35727306442388 l 1.8970885174061702 -5.017233804963607 a26.36391460563495,26.36391460563495 0 0,0 0.4230991932671496,0.16415591374730223 l -1.983170875672987 4.9838351873257585" fill="#ff3e05" stroke="none" /><path d="M 107.76421540070413 80.48803036053334 l 2.429479527516884 -6.10543736026646 a27.571052893925078,27.571052893925078 0 0,0 0.4394512445727854,0.17926319662486626 l -2.5342146416780573 6.062713277458014" fill="#ff4e07" stroke="none" /><path d="M 108.76106565485865 80.91482961587045 l 4.671130322883349 -10.175624930885323 a32.19655309581548,32.19655309581548 0 0,0 0.5016863663809623,0.23554847589560376 l -4.84559490056391 10.093711472349716" fill="#ff8d0d" stroke="none" /><path d="M 109.08828744355905 81.06846463323043 l 0.9310099815756375 -1.9393585978077712 a23.151253438506117,23.151253438506117 0 0,0 0.3577736640723226,0.1755579831663251 l -0.9642549126583919 1.923045454506614" fill="#ff1001" stroke="none" /><path d="M 109.41281617654863 81.2277094730956 l 3.00568226028706 -5.9943315117793015 a27.705679393090207,27.705679393090207 0 0,0 0.4244767513788146,0.2174334788226995 l -3.10841949925463 5.941705507644101" fill="#ff5007" stroke="none" /><path d="M 109.73455568895987 81.39251694778311 l 2.482847308932796 -4.745931986870756 a26.35615544803153,26.35615544803153 0 0,0 0.4001805104321282,0.2137625695441172 l -2.564172865893235 4.702490690824885" fill="#ff3d05" stroke="none" /><line stroke="#e1ed5e" stroke-width="0.3" x1="143.23703022742887" x2="145.7803849466894" y1="26.81831364943548" y2="22.513508569990506" /><path d="M 143.74570117128098 25.957352633546492 a86.0,86.0 0 0,1 28.547481713284135,27.462654790039103" fill="none" id="id110" stroke="none" /><text fill="#e1ed5e" style="font-size:6.75px; font-family:Arial;" text-anchor="middle"><textPath startOffset="19.985693538727396" xlink:href="#id110">February</textPath></text><path d="M 110.68208982089419 81.91981866633111 l 3.1942203873579995 -5.406440574031823 a27.279541668270944,27.279541668270944 0 0,0 0.40222766269967986,0.24233766622052125 l -3.286810116275317 5.350656298352686" fill="#ff4a06" stroke="none" /><path d="M 110.99172775467656 82.1063720568725 l 5.399894793897143 -8.790584203917984 a31.316648410764508,31.316648410764508 0 0,0 0.45689625166427833,0.2861083908764284 l -5.550410197933685 8.696331471718612" fill="#ff820b" stroke="none" /><path d="M 111.2981086023043 82.29822771554956 l 4.149571329019896 -6.501510060667427 a28.712883720346348,28.712883720346348 0 0,0 0.4143309786707941,0.26949239389345897 l -4.26086933347497 6.42911874261444" fill="#ff5e08" stroke="none" /><path d="M 111.60114157652 82.49532879139004 l 11.895700447861831 -17.94912369291147 a42.53320065593353,42.53320065593353 0 0,0 0.6067974880182038,0.4097123725955116 l -12.202902630286577 17.74169940801729" fill="#eeff19" stroke="none" /><path d="M 111.90073688211348 82.69761687909136 l 3.035801109354037 -4.413726174542121 a26.356964356740992,26.356964356740992 0 0,0 0.3715941143397446,0.260325424110418 l -3.111326363277433 4.360815907667767" fill="#ff3d05" stroke="none" /><path d="M 112.19680574252982 82.90503203632743 l 2.848404911068485 -3.992306816242165 a25.90427611910389,25.90427611910389 0 0,0 0.36075366083317306,0.2621028767289205 l -2.916703888255447 3.94268470469657" fill="#ff3705" stroke="none" /><path d="M 112.48926042617603 83.11751280151076 l 5.671787717876163 -7.6668978203788525 a30.53679705691491,30.53679705691491 0 0,0 0.41988655248018436,0.3162498461669361 l -5.80292042411473 7.568131384706069" fill="#ff770b" stroke="none" /><path d="M 112.77801427241765 83.33499621200491 l 5.727458505053843 -7.469714436642891 a30.412779328769204,30.412779328769204 0 0,0 0.4126977150390217,0.3221171126906419 l -5.855188775252294 7.370018934729026" fill="#ff750a" stroke="none" /><path d="M 113.6212207817346 84.01681056812373 l 6.150259071855885 -7.2167361043295495 a30.481928424665483,30.481928424665483 0 0,0 0.39641922295150545,0.3437708437636552 l -6.273572093454154 7.109800267146223" fill="#ff760a" stroke="none" /><path d="M 114.16331599549186 84.49514656593476 l 4.79821497029168 -5.252697876908917 a28.114330740639954,28.114330740639954 0 0,0 0.35449776821455453,0.3294670409929642 l -4.887920622301081 5.169326249841313" fill="#ff5608" stroke="none" /><path d="M 114.42810811169701 84.74124197986012 l 5.151189452055441 -5.447751899023303 a28.49751649043063,28.49751649043063 0 0,0 0.3535276457708862,0.34009331513200586 l -5.244200341438745 5.358275497128996" fill="#ff5b08" stroke="none" /><path d="M 114.68862486808459 84.99185889309783 l 3.738152482452338 -3.8194671345757647 a26.34435339158714,26.34435339158714 0 0,0 0.3213562003173906,0.3199761946665636 l -3.8033444829370513 3.754555089259082" fill="#ff3d05" stroke="none" /><path d="M 115.4437574822437 85.77008943001954 l 6.976678372503178 -6.428326100716125 a30.486696873543593,30.486696873543593 0 0,0 0.35227575585602744,0.3889916882201981 l -7.086297768975241 6.307281625226378" fill="#ff760a" stroke="none" /><path d="M 115.9244219780498 86.31012108654704 l 5.395671308016748 -4.638541164342324 a28.11542922088706,28.11542922088706 0 0,0 0.31233482068986285,0.3697059122230601 l -5.474716742193729 4.5449763024901575" fill="#ff5608" stroke="none" /><path d="M 116.15771136456269 86.58626213691792 l 5.473982936173589 -4.54436711463091 a28.114475501262092,28.114475501262092 0 0,0 0.30591428792948805,0.37501474528898743 l -5.551395716179486 4.449468199733822" fill="#ff5608" stroke="none" /><path d="M 116.38621287248628 86.86637796730983 l 4.169228680742373 -3.341655212636909 a26.34313834300294,26.34313834300294 0 0,0 0.2805493045124424,0.35626912650286613 l -4.2261320658487795 3.2693936921810045" fill="#ff3d05" stroke="none" /><path d="M 116.60985879189232 87.15038557335679 l 8.529258214921018 -6.598351062473303 a31.783621026373297,31.783621026373297 0 0,0 0.33104012501269503,0.43561000042942494 l -8.641574280157828 6.450556286162845" fill="#ff880c" stroke="none" /><path d="M 117.04232023915458 87.72973835380427 l 7.694273867499043 -5.539782858603477 a30.481088780754856,30.481088780754856 0 0,0 0.30290564586576135,0.42843855471965364 l -7.788492133168687 5.40651780355203" fill="#ff760a" stroke="none" /><path d="M 117.45458315368197 88.32363383020206 l 7.881838180434879 -5.272611088763696 a30.482816079409897,30.482816079409897 0 0,0 0.2879949178057367,0.4386360180137415 l -7.97142973359854 5.136157006772281" fill="#ff760a" stroke="none" /><line stroke="#e1ed5e" stroke-width="0.3" x1="172.23445277983987" x2="176.4835382374775" y1="55.19839476539836" y2="52.563006222186495" /><path d="M 173.08426987136738 54.67131705675599 a86.0,86.0 0 0,1 12.851231095245387,41.99856678651699" fill="none" id="id111" stroke="none" /><text fill="#e1ed5e" style="font-size:6.75px; font-family:Arial;" text-anchor="middle"><textPath startOffset="22.20632615414155" xlink:href="#id111">March</textPath></text><path d="M 117.84615892207809 88.93136811851018 l 4.702177906314213 -2.9164077555018206 a26.533164669425688,26.533164669425688 0 0,0 0.23738868870739108,0.39020458708199657 l -4.751682393307828 2.8350353952127425" fill="#ff4006" stroke="none" /><path d="M 118.03404312379186 89.2402003453031 l 8.926419830649023 -5.325843370352441 a31.394497515442062,31.394497515442062 0 0,0 0.2728934188718712,0.46646331255344786 l -9.016772923991223 5.1714006454450985" fill="#ff830c" stroke="none" /><path d="M 118.3937258080291 89.86733742301442 l 4.682840000033885 -2.5796642897461344 a26.34636870349481,26.34636870349481 0 0,0 0.2154027676854369,0.3991086145102978 l -4.726550866937787 2.498674691903378" fill="#ff3d05" stroke="none" /><path d="M 118.56541770881063 90.18545643968196 l 6.288275827286571 -3.324275165482007 a28.112890991423743,28.112890991423743 0 0,0 0.22248082330345573,0.42976213639849714 l -6.344566083750143 3.215540306823165" fill="#ff5608" stroke="none" /><path d="M 118.73160827565052 90.50648371742162 l 6.361525359817268 -3.224135573236742 a28.131904030356047,28.131904030356047 0 0,0 0.21519565233487434,0.4338213036904073 l -6.41608102510555 3.1141546810473852" fill="#ff5608" stroke="none" /><path d="M 119.04729006885535 91.15688171328212 l 4.849161700784838 -2.2513286854164742 a26.346293113002464,26.346293113002464 0 0,0 0.18743214988986173,0.41298189720934986 l -4.887196167638047 2.1675247793650616" fill="#ff3d05" stroke="none" /><path d="M 119.47837535516314 92.15188598940014 l 24.291034707268153 -9.78720280013219 a47.18861786732208,47.18861786732208 0 0,0 0.2970780787727436,0.7560313066215754 l -24.455906335922595 9.36762248861483" fill="#b8ff1f" stroke="none" /><path d="M 120.08093135843002 93.85539295169968 l 7.193938265948355 -2.201288525167271 a28.523192071541782,28.523192071541782 0 0,0 0.13961980669070206,0.47072857943717866 l -7.230763969750759 2.0771305589835625" fill="#ff5c08" stroke="none" /><path d="M 120.18372546131832 94.20196356495316 l 5.288075928747355 -1.5190682693802722 a26.501937425601565,26.501937425601565 0 0,0 0.12217800706765014,0.43953929727786983 l -5.313440706381368 1.4278176686834503" fill="#ff3f06" stroke="none" /><path d="M 120.73433829027371 96.67025291283417 l 62.20301487082114 -9.98924126149749 a84.0,84.0 0 0,0 0.21697642624280045,1.4296035504316715 l -62.36574719050324 8.917038598673738" fill="#4dd2ff" stroke="none" /><path d="M 120.94382443527127 98.46500227214037 l 6.9090179728710295 -0.5063701198830757 a27.92754935368672,27.92754935368672 0 0,0 0.0310120926487139,0.47974334699849946 l -6.916710656524159 0.38736770863154096" fill="#ff5307" stroke="none" /><line stroke="#e1ed5e" stroke-width="0.3" x1="184.98032266829074" x2="189.97916517819016" y1="98.17113171792111" y2="98.06355123074" /><path d="M 185.9800911702706 98.14961562048488 a86.0,86.0 0 0,1 -9.607161424134198,41.387399972396054" fill="none" id="id112" stroke="none" /><text fill="#e1ed5e" style="font-size:6.75px; font-family:Arial;" text-anchor="middle"><textPath startOffset="21.466115282336823" xlink:href="#id112">April</textPath></text><path d="M 120.92983693683757 101.71520430193887 l 3.1724497850432414 0.25998289119080875 a24.183084784031497,24.183084784031497 0 0,0 -0.03757061449260685,0.4145886002171053 l -3.167504574273559 -0.3145528799564846" fill="#ff1f03" stroke="none" /><path d="M 120.8583938346157 102.4346265915055 l 9.151318990732657 1.0681572482926307 a30.21344665026201,30.21344665026201 0 0,0 -0.06474092855774584,0.5160488997730459 l -9.131576552928063 -1.2255239023530715" fill="#ff730a" stroke="none" /><path d="M 120.81339534386255 102.79330883721812 l 6.42820498685701 0.8627118017307103 a27.48583772583764,27.48583772583764 0 0,0 -0.0669685224212468,0.46837768983822325 l -6.412402413419162 -0.9732349635493428" fill="#ff4d07" stroke="none" /><path d="M 120.70491114924044 103.5080841355445 l 5.770527685095452 0.9777147305723316 a26.8527699304544,26.8527699304544 0 0,0 -0.08113827548259941,0.45506653852969436 l -5.752842967273664 -1.0769000198352443" fill="#ff4406" stroke="none" /><path d="M 120.64145759157962 103.86396538481128 l 8.452207193408983 1.5822059016756636 a29.59902215112927,29.59902215112927 0 0,0 -0.0980574264242317,0.4999927047773779 l -8.423719834009086 -1.7274623335209864" fill="#ff6a09" stroke="none" /><path d="M 120.5718875245553 104.21870165774334 l 8.279828771626933 1.6979544207112618 a29.452136635329204,29.452136635329204 0 0,0 -0.10612020143482051,0.4957582518693163 l -8.24937453146767 -1.840226491996747" fill="#ff6809" stroke="none" /><path d="M 120.49622156327973 104.57218783832717 l 10.01866800627112 2.2349110480234478 a31.26491773042813,31.26491773042813 0 0,0 -0.1216941276910962,0.5242551170620151 l -9.978713312649472 -2.407034822434028" fill="#ff810b" stroke="none" /><path d="M 120.41448212921028 104.9243191809786 l 9.788971107503073 2.3612657858094517 a31.069733435139398,31.069733435139398 0 0,0 -0.12988433635589008,0.518823359668919 l -9.746875456852123 -2.5294169848757666" fill="#ff7e0b" stroke="none" /><path d="M 120.32669344350535 105.2749913415812 l 5.112357764592742 1.3267107617992189 a26.281700801698783,26.281700801698783 0 0,0 -0.11740651948653422,0.43691333530669085 l -5.088763168764431 -1.414515030281458" fill="#ff3c05" stroke="none" /><path d="M 120.23288151984713 105.62410040840565 l 7.664975065925719 2.130620364499507 a28.95558834398079,28.95558834398079 0 0,0 -0.13761813904877707,0.4790667958325136 l -7.6271642899908425 -2.262244635836603" fill="#ff6209" stroke="none" /><path d="M 120.02730092923936 106.31721596034902 l 11.363194650761164 3.5842950012070043 a32.91508973221623,32.91508973221623 0 0,0 -0.17508907531352938,0.5388687646316913 l -11.299813324431387 -3.7793626658164907" fill="#ff970d" stroke="none" /><path d="M 119.9155931802556 106.66101706037122 l 11.86349421089428 3.9678927270278694 a33.50946312137826,33.50946312137826 0 0,0 -0.18766762444017854,0.5454499618909289 l -11.79343575551087 -4.171515392008098" fill="#ff9f0e" stroke="none" /><path d="M 119.54520255179757 107.68017299344265 l 8.586209523193531 3.37390079848552 a30.225302194193993,30.225302194193993 0 0,0 -0.19444568141504326,0.4825982348978686 l -8.526861227521096 -3.521198401226202" fill="#ff730a" stroke="none" /><path d="M 119.41010516605496 108.01547362559984 l 4.9059406433496475 2.025926057541281 a26.307789557498932,26.307789557498932 0 0,0 -0.17644887362728315,0.41707301510024203 l -4.870340788530055 -2.110073598307687" fill="#ff3d05" stroke="none" /><path d="M 118.97047184881838 109.00673069616215 l 7.311426358554951 3.4712920554175737 a29.093628600978505,29.093628600978505 0 0,0 -0.21868259656787917,0.4505509205753687 l -7.250590505372357 -3.5966319319582176" fill="#ff6309" stroke="none" /><path d="M 118.64920377521936 109.65438752849418 l 11.566515435679305 5.987795710546054 a34.024514455250966,34.024514455250966 0 0,0 -0.27373125600383424,0.5177963780420468 l -11.461731671450577 -6.1860071036742355" fill="#ffa60f" stroke="none" /><line stroke="#e1ed5e" stroke-width="0.3" x1="174.80103733775053" x2="179.2010983576182" y1="140.37084112569926" y2="142.7455964860345" /><path d="M 175.68104954172406 140.8457921977663 a86.0,86.0 0 0,1 -30.038265399797805,32.042727171017184" fill="none" id="id113" stroke="none" /><text fill="#e1ed5e" style="font-size:6.75px; font-family:Arial;" text-anchor="middle"><textPath startOffset="22.206326154141568" xlink:href="#id113">May</textPath></text><path d="M 118.30583269289576 110.29060199501025 l 6.720294127516091 3.777805321170183 a28.709355758102554,28.709355758102554 0 0,0 -0.24587239642123487,0.4286992478063937 l -6.654269734942476 -3.892924414834892" fill="#ff5e08" stroke="none" /><path d="M 118.12598468904814 110.60418214915192 l 5.4814759927445085 3.206808946958158 a27.350606481378396,27.350606481378396 0 0,0 -0.24123120864777609,0.40431738128686945 l -5.4254639083985055 -3.300688422131132" fill="#ff4b07" stroke="none" /><path d="M 117.94076556474637 110.91462005526583 l 6.872509791493458 4.1810274444275475 a29.04440061938923,29.04440061938923 0 0,0 -0.26352311131635087,0.4248831630272902 l -6.799522040509145 -4.298706938820112" fill="#ff6309" stroke="none" /><path d="M 117.75023020441432 111.22182372390056 l 0.9110057297883203 0.5759444014762974 a22.077795617591313,22.077795617591313 0 0,0 -0.20584404806094528,0.31947453378737173 l -0.9009568183503246 -0.5915405351851221" fill="#ff0000" stroke="none" /><path d="M 117.55443506779139 111.5257021239791 l 7.711780495406177 5.063317873364437 a30.225440168146932,30.225440168146932 0 0,0 -0.2892961719710279,0.4324585248766277 l -7.623481218024428 -5.195313312446872" fill="#ff730a" stroke="none" /><path d="M 117.35343817320211 111.8261652097733 l 3.8393762917697574 2.616490050892182 a25.646162986403024,25.646162986403024 0 0,0 -0.25174651298995804,0.3626596281042009 l -3.793768871617663 -2.682190941183402" fill="#ff3304" stroke="none" /><path d="M 117.14729908036423 112.12312394758627 l 4.308033033392762 3.0457752086404466 a26.275973392500383,26.275973392500383 0 0,0 -0.26428650264271747,0.36707083701999266 l -4.254966738374442 -3.1194796511115706" fill="#ff3c05" stroke="none" /><path d="M 116.498646956653 112.99209946851258 l 6.153026946764311 4.845290546238667 a28.831767430476823,28.831767430476823 0 0,0 -0.3103974371348123,0.3872685286134591 l -6.068711597574644 -4.950486908430377" fill="#ff6008" stroke="none" /><path d="M 116.27256486870786 113.27417163493432 l 8.322853563435308 6.789279230707884 a31.7407729661747,31.7407729661747 0 0,0 -0.3490034021124104,0.4203970805261452 l -8.204754161429355 -6.9315375683478" fill="#ff870c" stroke="none" /><path d="M 116.0416608686014 113.55231037782055 l 3.521600068590524 2.9751169499853622 a25.610096301509003,25.610096301509003 0 0,0 -0.2873910011459187,0.334300661377251 l -3.469866557873827 -3.0352947105241412" fill="#ff3304" stroke="none" /><path d="M 115.80600337817218 113.82643327865902 l 4.115531099868976 3.6000951535393715 a26.467932090701787,26.467932090701787 0 0,0 -0.3029206307670919,0.34033453990638635 l -4.0529516194535455 -3.6704038631866243" fill="#ff3f05" stroke="none" /><path d="M 115.32070863581623 114.36230785411682 l 3.5473366467308414 3.325429795292524 a25.862312269760025,25.862312269760025 0 0,0 -0.30726083226174045,0.3221617542138157 l -3.4895692630901363 -3.385998666088847" fill="#ff3605" stroke="none" /><path d="M 114.81725581225074 114.88116024355365 l 3.519849658989375 3.5350302021061033 a25.98856493910723,25.98856493910723 0 0,0 -0.319721285223958,0.31291457000206274 l -3.4584784213896222 -3.595094875030738" fill="#ff3805" stroke="none" /><path d="M 114.55890576462653 115.13401014063108 l 3.7262091280880307 3.8734014521621534 a26.37474401956581,26.37474401956581 0 0,0 -0.3298904824312043,0.311932041864419 l -3.6589828112660188 -3.9369681307724935" fill="#ff3e05" stroke="none" /><path d="M 114.29624159901734 115.38237550388516 l 3.7962571383573267 4.0846716535296075 a26.57638868602945,26.57638868602945 0 0,0 -0.337773814945,0.3085483714124037 l -3.7253837739454627 -4.149412791528594" fill="#ff4106" stroke="none" /><path d="M 114.0293411484842 115.62618273729858 l 5.258156955420004 5.856648617862428 a28.870739965272747,28.870739965272747 0 0,0 -0.3726492783253607,0.3288196609334836 l -5.156565324188056 -5.9462914205682" fill="#ff6008" stroke="none" /><path d="M 113.75828350139079 115.86535959552629 l 3.6214053940734003 4.176022307749735 a26.52754369888175,26.52754369888175 0 0,0 -0.34755443300825634,0.29619342784203445 l -3.548985484488097 -4.2377401258147165" fill="#ff4006" stroke="none" /><path d="M 112.92097659922987 116.55440617244103 l 5.208277497654513 6.672865668690749 a29.464826680149216,29.464826680149216 0 0,0 -0.40250534735491594,0.30862393664324034 l -5.092643421806103 -6.76152894716136" fill="#ff6909" stroke="none" /><path d="M 112.04921762599082 117.19931262002967 l 3.355591926116259 4.789844150381105 a26.848299253591314,26.848299253591314 0 0,0 -0.3807895758222264,0.26191054247525947 l -3.272645465671149 -4.846895482221459" fill="#ff4406" stroke="none" /><path d="M 111.45004920935366 117.60387380957326 l 3.204278338540064 4.926416514990021 a26.876817110477702,26.876817110477702 0 0,0 -0.3899931084104281,0.248912053672823 l -3.119003428082705 -4.980842997486653" fill="#ff4506" stroke="none" /><line stroke="#e1ed5e" stroke-width="0.3" x1="143.8653032363475" x2="146.44561519142675" y1="172.8068346515853" y2="177.08958963109032" /><path d="M 144.38136562736335 173.6633856474863 a86.0,86.0 0 0,1 -40.68145358897372,12.25698825130547" fill="none" id="id114" stroke="none" /><text fill="#e1ed5e" style="font-size:6.75px; font-family:Arial;" text-anchor="middle"><textPath startOffset="21.466115282336833" xlink:href="#id114">June</textPath></text><path d="M 110.8373102113329 117.98757091392108 l 4.3670418727063165 7.248336887802918 a29.46223625036874,29.46223625036874 0 0,0 -0.4366473577365257,0.2579789554826977 l -4.241626643941409 -7.322434415579366" fill="#ff6909" stroke="none" /><path d="M 110.5260780823613 118.17145234162733 l 5.4313637760424935 9.37630969808054 a31.83581542949241,31.83581542949241 0 0,0 -0.47655370649190737,0.27059963183385316 l -5.269161302629387 -9.468412495709023" fill="#ff890c" stroke="none" /><path d="M 110.21172684928248 118.3499491758327 l 2.3765802453657905 4.270592756583031 a25.887340396907337,25.887340396907337 0 0,0 -0.39124053825569477,0.2133355360362737 l -2.302716895241447 -4.310868944379075" fill="#ff3705" stroke="none" /><path d="M 109.89434966115114 118.52300852407294 l 2.148852371451514 4.022822333604481 a25.56077471950104,25.56077471950104 0 0,0 -0.38987374672033076,0.20396351771285634 l -2.079287722204688 -4.059215270262054" fill="#ff3204" stroke="none" /><path d="M 108.92500713936063 119.00905698771935 l 4.58590653903885 9.76736011296785 a31.79035969563548,31.79035969563548 0 0,0 -0.4973405040991321,0.22830463242058813 l -4.417098039172298 -9.844851815722512" fill="#ff880c" stroke="none" /><path d="M 108.2653958097858 119.30500536409082 l 4.6686806559312855 10.904366491350912 a32.86177843515733,32.86177843515733 0 0,0 -0.5219209999902777,0.2181630203249825 l -4.4802881964435475 -10.983114554695867" fill="#ff960d" stroke="none" /><path d="M 106.91757812671514 119.82793768551818 l 1.2485569263898246 3.5787537892304617 a24.790299867077458,24.790299867077458 0 0,0 -0.4041176178125168,0.13709863716486825 l -1.186769575640081 -3.599715413293453" fill="#ff2703" stroke="none" /><path d="M 106.2309692047433 120.05430185196036 l 2.2486487504685146 7.237249827298229 a28.57853589195907,28.57853589195907 0 0,0 -0.47103554600308023,0.14191914604722503 l -2.1237382300251886 -7.27488434245118" fill="#ff5c08" stroke="none" /><path d="M 105.88484417918355 120.15858648285463 l 1.8077894689944813 6.19259902962716 a27.45107630600868,27.45107630600868 0 0,0 -0.45473208804012255,0.12851183027619537 l -1.700926212849753 -6.222799653241875" fill="#ff4d07" stroke="none" /><path d="M 105.18746579009965 120.34920634021253 l 2.112734349613612 8.287759179905105 a29.55281232438422,29.55281232438422 0 0,0 -0.494019890146449,0.12141806955378563 l -1.969761174723952 -8.322898507772921" fill="#ff6a09" stroke="none" /><path d="M 104.48393922423573 120.51570834832081 l 0.24715852435618688 1.1308432045836099 a22.157537770232512,22.157537770232512 0 0,0 -0.37331076460996776,0.07823090035659576 l -0.2276562983168411 -1.1349300856667468" fill="#ff0100" stroke="none" /><path d="M 103.7750983002368 120.6578951692458 l 1.405479330991502 7.690990372447485 a28.818356928340137,28.818356928340137 0 0,0 -0.488747021929234,0.08497493455675387 l -1.272883337590218 -7.7140438855252444" fill="#ff6008" stroke="none" /><path d="M 101.62511606390274 120.93702456842531 l 0.4135426801932349 5.327836852775359 a26.343862187419568,26.343862187419568 0 0,0 -0.4524084633186344,0.03120073640171247 l -0.3217714560956702 -5.334165933693357" fill="#ff3d05" stroke="none" /><path d="M 101.26447882468166 120.96189622390904 l 0.8374481159909518 13.88279515454114 a34.9080307969866,34.9080307969866 0 0,0 -0.6001055059953273,0.03101860001060845 l -0.5983545415821448 -13.89515356131395" fill="#ffb110" stroke="none" /><line stroke="#e1ed5e" stroke-width="0.3" x1="102.19456741930631" x2="102.32365962044197" y1="184.97166512339345" y2="189.96999836594603" /><path d="M 102.22038585953345 185.97133177190398 a86.0,86.0 0 0,1 -42.740103519485714,-10.115201625700543" fill="none" id="id115" stroke="none" /><text fill="#e1ed5e" style="font-size:6.75px; font-family:Arial;" text-anchor="middle"><textPath startOffset="22.20632615414155" xlink:href="#id115">July</textPath></text><path d="M 98.73552117531835 120.96189622390904 l -0.3217434973696479 5.333702447945779 a26.343397859164376,26.343397859164376 0 0,0 -0.4524004893157755,-0.031200186467788923 l 0.41350674746435345 -5.3273739169617045" fill="#ff3d05" stroke="none" /><path d="M 98.37488393609728 120.93702456842531 l -0.6744637846605726 8.689388495760294 a29.71552487387134,29.71552487387134 0 0,0 -0.5096292921246343,-0.043972959732739424 l 0.8239373945267485 -8.676491283748891" fill="#ff6c09" stroke="none" /><path d="M 94.46302465271185 120.25689768951611 l -1.6669651872358096 6.098554017647779 a27.3222728540948,27.3222728540948 0 0,0 -0.45259843535623684,-0.12790883871524864 l 1.7716947906966602 -6.068956385594009" fill="#ff4b07" stroke="none" /><path d="M 92.7421414339146 119.70592522655815 l -2.2283019569187683 6.050097469578849 a27.447403275940818,27.447403275940818 0 0,0 -0.44194211478082646,-0.1671046923265696 l 2.3321142924598774 -6.010844527145646" fill="#ff4d07" stroke="none" /><path d="M 91.40352486487194 119.15986991738527 l -2.1556150626603943 4.804446420575174 a26.265869510968344,26.265869510968344 0 0,0 -0.410913273969041,-0.18863013005581186 l 2.237996332396855 -4.766629220185289" fill="#ff3c05" stroke="none" /><line stroke="#e1ed5e" stroke-width="0.3" x1="58.666819895761336" x2="56.23545636021788" y1="174.27360380694188" y2="178.64263932499728" /><path d="M 58.180547188652646 175.14741091055294 a86.0,86.0 0 0,1 -31.652253787137756,-30.449443065178592" fill="none" id="id116" stroke="none" /><text fill="#e1ed5e" style="font-size:6.75px; font-family:Arial;" text-anchor="middle"><textPath startOffset="22.20632615414155" xlink:href="#id116">August</textPath></text><path d="M 89.4739219176387 118.17145234162733 l -3.9576806059375205 6.832250715932702 a28.895751112084074,28.895751112084074 0 0,0 -0.42825172080228197,-0.2530186651968807 l 4.074700197768185 -6.7631134784420714" fill="#ff6108" stroke="none" /><path d="M 89.1626897886671 117.98757091392108 l -1.610076952715705 2.67237652139531 a24.119926932761597,24.119926932761597 0 0,0 -0.35378281863826105,-0.21732230261596747 l 1.6558389712862749 -2.6442657519509645" fill="#ff1e03" stroke="none" /><path d="M 88.8546689885994 117.79835938074946 l -4.265645894060865 6.811955475871756 a29.0373174815219,29.0373174815219 0 0,0 -0.42134281220765335,-0.26892091789611056 l 4.382270508315441 -6.737520129151842" fill="#ff6309" stroke="none" /><path d="M 87.07902340077011 116.55440617244103 l -4.948606700735241 6.3401744196732945 a29.04279304411355,29.04279304411355 0 0,0 -0.39144499817603673,-0.3109875808661348 l 5.057009191628636 -6.2540529248020285" fill="#ff6309" stroke="none" /><path d="M 85.44109423537348 115.13401014063109 l -4.048791307363671 4.208726239015717 a26.840041746902415,26.840041746902415 0 0,0 -0.33019647921656714,-0.3231667520599147 l 4.120637738956033 -4.138409384033233" fill="#ff4406" stroke="none" /><path d="M 85.18274418774928 114.88116024355367 l -4.492279078672743 4.51165355282735 a27.366756560558954,27.366756560558954 0 0,0 -0.3309544947798541,-0.33525515591051436 l 4.569274198508131 -4.433657902936171" fill="#ff4c07" stroke="none" /><path d="M 84.9287848128048 114.62390073753433 l -6.390920451437189 6.201237600449177 a29.90501049936623,29.90501049936623 0 0,0 -0.35529067621596977,-0.372520853579039 l 6.496717679032117 -6.0903096302876385" fill="#ff6f0a" stroke="none" /><path d="M 84.43433777217949 114.09645910891817 l -4.460129523147369 4.0391492840667205 a27.017265350824033,27.017265350824033 0 0,0 -0.3092076492272923,-0.34739807179464965 l 4.528996022023 -3.961777042531206" fill="#ff4706" stroke="none" /><path d="M 83.28015986056508 112.70617746262583 l -6.785198243659376 5.156385006319021 a29.522160614489138,29.522160614489138 0 0,0 -0.3039921245572086,-0.4072471285273846 l 6.872951634911669 -5.038824998282329" fill="#ff6909" stroke="none" /><path d="M 82.85270091963577 112.12312394758628 l -6.108086672124088 4.3184113988864565 a28.48046788671754,28.48046788671754 0 0,0 -0.27956846732218726,-0.4027392283791887 l 6.181516046608409 -4.212630908320255" fill="#ff5b08" stroke="none" /><path d="M 82.24976979558568 111.22182372390057 l -6.47233601080247 4.091857567966433 a28.65731230871868,28.65731230871868 0 0,0 -0.2600110155661732,-0.419220546402369 l 6.541811666036599 -3.9798406901987997" fill="#ff5d08" stroke="none" /><line stroke="#e1ed5e" stroke-width="0.3" x1="26.63291911575756" x2="22.317208475507996" y1="142.92168965132927" y2="145.44649492493687" /><path d="M 25.769776987707644 143.4266507060508 a86.0,86.0 0 0,1 -11.730757126820373,-40.83630448921669" fill="none" id="id117" stroke="none" /><text fill="#e1ed5e" style="font-size:6.75px; font-family:Arial;" text-anchor="middle"><textPath startOffset="21.46611528233685" xlink:href="#id117">September</textPath></text><path d="M 81.87401531095188 110.60418214915194 l -6.422365975755719 3.7572545604420893 a28.440681861127217,28.440681861127217 0 0,0 -0.24357142194233444,-0.42468730485272027 l 6.486089393850431 -3.646147409731062" fill="#ff5b08" stroke="none" /><path d="M 81.18737489456691 109.33194174019688 l -6.597224454136381 3.2725318188168715 a28.36429460324775,28.36429460324775 0 0,0 -0.21320054912111236,-0.4392562791062114 l 6.652578259872213 -3.1584865837453755" fill="#ff5908" stroke="none" /><path d="M 80.87730276802145 108.67885076344099 l -8.536120644945186 3.874124882985549 a30.374123920347287,30.374123920347287 0 0,0 -0.21198088828589443,-0.47796094176456 l 8.60154261796236 -3.726615604728293" fill="#ff750a" stroke="none" /><path d="M 80.73074385275274 108.34839909993369 l -5.185958653659447 2.2468149380373847 a26.651755879658396,26.651755879658396 0 0,0 -0.17875588881676469,-0.42252611752690533 l 5.223865523668518 -2.1572142948443207" fill="#ff4206" stroke="none" /><path d="M 80.45479744820244 107.68017299344265 l -7.744586673803812 3.0431900237357 a29.321035288269368,29.321035288269368 0 0,0 -0.18054179004827678,-0.4713376433034802 l 7.795822743445598 -2.909428813599062" fill="#ff6709" stroke="none" /><path d="M 79.97269907076064 106.31721596034903 l -6.323303150358259 1.9945609108638704 a27.630417479953792,27.630417479953792 0 0,0 -0.13916944923132119,-0.4548138123784022 l 6.356699372095711 -1.8854201259334205" fill="#ff4f07" stroke="none" /><path d="M 79.86692584326677 105.97154293290107 l -6.6930946431664875 1.9851961853660642 a27.981297859049985,27.981297859049985 0 0,0 -0.13298759789601336,-0.46294727460981766 l 6.726274877948605 -1.8696914352516505" fill="#ff5407" stroke="none" /><path d="M 79.76711848015287 105.62410040840567 l -3.0571875329019824 0.8498013313378353 a24.173099102466683,24.173099102466683 0 0,0 -0.10798690131349116,-0.40185943190082674 l 3.0713625105572486 -0.7970509662614697" fill="#ff1e03" stroke="none" /><path d="M 79.35854240842038 103.8639653848113 l -11.26924853615772 2.1095402814146187 a32.46499554158674,32.46499554158674 0 0,0 -0.09809616507409788,-0.5501753890847875 l 11.303891143571008 -1.9152461415966175" fill="#ff910d" stroke="none" /><path d="M 79.29508885075956 103.50808413554451 l -15.803325370727462 2.6775963742269364 a37.028556239298396,37.028556239298396 0 0,0 -0.10106723248432692,-0.6293457531561211 l 15.84707435757308 -2.4051713913776016" fill="#ffcc13" stroke="none" /><path d="M 79.23777060512086 103.15116336523772 l -6.904745495066504 1.0479597656169921 a27.983819157308787,27.983819157308787 0 0,0 -0.06818184111255146,-0.4768636379392648 l 6.921761387195655 -0.9289506556973268" fill="#ff5407" stroke="none" /><path d="M 79.1416061653843 102.43462659150553 l -4.810719798083613 0.5615152555638895 a25.843379435673466,25.843379435673466 0 0,0 -0.04777050052989945,-0.4422955059099156 l 4.819672600114565 -0.47862342776919176" fill="#ff3605" stroke="none" /><path d="M 79.10278846688536 102.07522291339032 l -13.732687755739102 1.36374119810122 a34.800235615815595,34.800235615815595 0 0,0 -0.0540653207913755,-0.5966063097423173 l 13.754127672807554 -1.1271534998103363" fill="#ffb010" stroke="none" /><path d="M 79.04373962182676 101.35467743843564 l -15.706344631758753 1.0153066591546644 a36.73912670079572,36.73912670079572 0 0,0 -0.03536341980135249,-0.6314376163549094 l 15.721494402447638 -0.7447973264643175" fill="#ffc912" stroke="none" /><line stroke="#e1ed5e" stroke-width="0.3" x1="15.007084014347285" x2="10.007500721073583" y1="101.09737516637583" y2="101.16192664675087" /><path d="M 14.007167355692545 101.11028546245083 a86.0,86.0 0 0,1 10.666146001902534,-42.60595125391555" fill="none" id="id118" stroke="none" /><text fill="#e1ed5e" style="font-size:6.75px; font-family:Arial;" text-anchor="middle"><textPath startOffset="22.20632615414155" xlink:href="#id118">October</textPath></text><path d="M 79.00486145842228 99.54816195383935 l -12.498114069646217 -0.26897290678690106 a33.50100802825413,33.50100802825413 0 0,0 0.017369962450262795,-0.576424490093483 l 12.49163241274031 0.48406754430537846" fill="#ff9f0e" stroke="none" /><path d="M 79.03285615573316 98.82574320788736 l -10.490189914636511 -0.5874990341701551 a31.506628363099765,31.506628363099765 0 0,0 0.03498647394624188,-0.5412252665684385 l 10.478522849685856 0.7679833649916054" fill="#ff840c" stroke="none" /><path d="M 79.05617556472873 98.46500227214037 l -5.69594221180908 -0.4174623589005208 a26.71121987856949,26.71121987856949 0 0,0 0.03755535974884165,-0.45827051317388207 l 5.687912368240742 0.5154467892821812" fill="#ff4206" stroke="none" /><path d="M 79.08570108090925 98.10471618934814 l -14.390963130696058 -1.3041297509809968 a35.4499333644293,35.4499333644293 0 0,0 0.06030350067385125,-0.6072480221944114 l 14.36638250433998 1.5516533038798386" fill="#ffb811" stroke="none" /><path d="M 79.16333360222342 97.38593545837743 l -7.527847571999698 -0.9444063189879415 a28.58685655344861,28.58685655344861 0 0,0 0.06545573511664719,-0.4877212552918726 l 7.510475837825217 1.0738459163444736" fill="#ff5d08" stroke="none" /><path d="M 79.26566170972629 96.67025291283419 l -7.911629603490884 -1.2705361154118031 a29.0129985026455,29.0129985026455 0 0,0 0.08343052244244374,-0.49241166618640286 l 7.888587219528218 1.406533569914034" fill="#ff6209" stroke="none" /><path d="M 79.32604984820605 96.31383870115002 l -4.926179519821944 -0.8783368521172216 a26.0038705306293,26.0038705306293 0 0,0 0.0823632678041186,-0.43998787001702633 l 4.910330528107964 0.9630027995968206" fill="#ff3805" stroke="none" /><path d="M 79.3925641242962 95.95851677861259 l -7.946184606265886 -1.5583875623329442 a29.097556519796015,29.097556519796015 0 0,0 0.10062309722003937,-0.49067395761052734 l 7.918182213130852 1.6949371761068739" fill="#ff6409" stroke="none" /><path d="M 79.54389044137918 95.25157060432595 l -7.158257369763224 -1.6616297257784025 a28.348582306633023,28.348582306633023 0 0,0 0.11442999708138542,-0.4743862135271413 l 7.128594572421024 1.7846011709649405" fill="#ff5908" stroke="none" /><path d="M 79.62865764111835 94.90015583598534 l -7.531816847607591 -1.8855454647028724 a28.76424798195982,28.76424798195982 0 0,0 0.12437615370257434,-0.47927205644222004 l 7.4982443620347095 2.0149139466939565" fill="#ff5f08" stroke="none" /><path d="M 79.71946130924805 94.55025226153421 l -6.376059556094544 -1.713362582523248 a27.60225316100915,27.60225316100915 0 0,0 0.1272506318172463,-0.4577882274356309 l 6.345622153710937 1.8228621133778213" fill="#ff4f07" stroke="none" /><path d="M 79.91906864156998 93.8553929516997 l -9.40963806937309 -2.879275237338651 a30.840300528385647,30.840300528385647 0 0,0 0.15970064578107163,-0.506294689262872 l 9.358681939823814 3.040820093027938" fill="#ff7b0b" stroke="none" /><path d="M 80.02781315780177 93.51064311812611 l -8.087829600778937 -2.6278951370685983 a29.504047301295117,29.504047301295117 0 0,0 0.16109590039295874,-0.48165623750171616 l 8.041396406614206 2.7667244774926365" fill="#ff6909" stroke="none" /><path d="M 80.803312248108 91.48605970444005 l -3.92106593414589 -1.739035488295725 a25.289405843409007,25.289405843409007 0 0,0 0.1799132684942277,-0.39641503871956996 l 3.890550348688311 1.8062725358573661" fill="#ff2e04" stroke="none" /><path d="M 80.95270993114464 91.15688171328213 l -19.61987095145982 -9.10895140288718 a42.6312813261743,42.6312813261743 0 0,0 0.3147443264595464,-0.6629318213344938 l 19.46016843115852 9.445325639862208" fill="#edff1a" stroke="none" /><path d="M 81.26839172434947 90.50648371742162 l -9.127551798584882 -4.62600756671727 a31.23289537927441,31.23289537927441 0 0,0 0.24717202795868903,-0.47745768473981953 l 9.04657033746608 4.782437973717425" fill="#ff810b" stroke="none" /><path d="M 81.43458229118936 90.18545643968196 l -7.529410835341273 -3.980396874772053 a29.516782655912365,29.516782655912365 0 0,0 0.2413234532928018,-0.4471357082708555 l 7.459779282829999 4.109413566375381" fill="#ff6909" stroke="none" /><path d="M 81.6062741919709 89.86733742301443 l -2.8134030161188517 -1.549836273136246 a24.21204436529689,24.21204436529689 0 0,0 0.20423707847623832,-0.36331497322360157 l 2.786308296350183 1.5980347562946322" fill="#ff1f03" stroke="none" /><line stroke="#e1ed5e" stroke-width="0.3" x1="26.266209847984243" x2="21.928928074336255" y1="57.711370442889674" y2="55.22380399835377" /><path d="M 25.398753493254645 57.213857153982495 a86.0,86.0 0 0,1 29.58750427330803,-30.492523968695096" fill="none" id="id119" stroke="none" /><text fill="#e1ed5e" style="font-size:6.75px; font-family:Arial;" text-anchor="middle"><textPath startOffset="21.46611528233685" xlink:href="#id119">November</textPath></text><path d="M 81.96595687620814 89.24020034530311 l -7.037789367205133 -4.199014224557381 a29.19525470227624,29.19525470227624 0 0,0 0.26120605350322584,-0.4293540724519334 l 6.9644675154156905 4.3195360702163885" fill="#ff6509" stroke="none" /><path d="M 82.15384107792192 88.93136811851018 l -6.449806895160021 -4.00033074573271 a28.589641299831513,28.589641299831513 0 0,0 0.26298713011210256,-0.4159824833414444 l 6.379992168801956 4.11076087678837" fill="#ff5d08" stroke="none" /><path d="M 82.7489923806493 88.02491185347247 l -5.574644054530208 -3.8697365053408634 a27.78612680072195,27.78612680072195 0 0,0 0.27612447656380523,-0.390558489999707 l 5.5072069581625245 3.965121495672357" fill="#ff5107" stroke="none" /><path d="M 82.95767976084542 87.72973835380427 l -5.167187611518903 -3.7203117344697523 a27.367145923745408,27.367145923745408 0 0,0 0.278542012985691,-0.3799309926806756 l 5.102382986019579 3.8087051708219284" fill="#ff4c07" stroke="none" /><path d="M 83.39014120810768 87.1503855733568 l -6.98236035540738 -5.401649675592611 a29.82786357793291,29.82786357793291 0 0,0 0.3176609511335433,-0.40339714896494316 l 6.888345323679865 5.5210392185106025" fill="#ff6e0a" stroke="none" /><path d="M 83.6137871275137 86.86637796730984 l -8.270478992230435 -6.628825461900492 a31.599157974351794,31.599157974351794 0 0,0 0.34383120220265095,-0.4214963988414735 l 8.155149297951391 6.770206030350048" fill="#ff850c" stroke="none" /><path d="M 85.31137513191541 84.99185889309783 l -31.530750113396678 -32.21662689041342 a66.07881155165444,66.07881155165444 0 0,0 0.8197446500658413,-0.7885937038804958 l 30.97152221971841 32.75460368105623" fill="#37ff75" stroke="none" /><line stroke="#e1ed5e" stroke-width="0.3" x1="56.762969772571076" x2="54.21961505331055" y1="26.818313649435495" y2="22.513508569990535" /><path d="M 56.25429882871897 25.957352633546506 a86.0,86.0 0 0,1 42.265352541879196,-11.944610805530505" fill="none" id="id120" stroke="none" /><text fill="#e1ed5e" style="font-size:6.75px; font-family:Arial;" text-anchor="middle"><textPath startOffset="22.20632615414155" xlink:href="#id120">December</textPath></text><path d="M 91.90106846888425 80.62456947434976 l -3.8140801420887325 -9.124591870962712 a30.889660466462658,30.889660466462658 0 0,0 0.49234607719348394,-0.20084032696100038 l 3.656450195306868 9.188893084107288" fill="#ff7c0b" stroke="none" /><path d="M 92.57280143429618 80.3572730644239 l -1.4694751725934974 -3.886323934726713 a25.154861129869253,25.154861129869253 0 0,0 0.406332070856583,-0.14965553087388694 l 1.4023607759643448 3.9110427334069224" fill="#ff2c04" stroke="none" /><path d="M 93.25333710446033 80.11325718540243 l -1.756370301637958 -5.177149802306418 a26.466965951238144,26.466965951238144 0 0,0 0.4326935263897774,-0.14265225267515758 l 1.6669939530057711 5.206615779240809" fill="#ff3f05" stroke="none" /><path d="M 93.59665428221793 80.00007090966166 l -3.2972837973946714 -10.298591555893134 a31.813559472979968,31.813559472979968 0 0,0 0.5229764798195164,-0.1624913379989806 l 3.119521944864426 10.35382302877464" fill="#ff880c" stroke="none" /><path d="M 93.94186890950719 79.89281104454417 l -3.085544180086352 -10.241049414854512 a31.69577841976715,31.69577841976715 0 0,0 0.5237497699300039,-0.1528969200069074 l 2.908804192432927 10.292644663780118" fill="#ff870c" stroke="none" /><path d="M 96.40284397218896 79.31037775812273 l -1.9122337736820212 -10.998520528373033 a32.16351610462641,32.16351610462641 0 0,0 0.546275562971516,-0.09014014855994072 l 1.7226290045716195 11.029806939872602" fill="#ff8d0d" stroke="none" /></svg>