<?xml version="1.0" encoding="utf-8" ?>
<svg baseProfile="full" height="200mm" version="1.1" viewBox="0,0,200,200" width="200mm" xmlns="http://www.w3.org/2000/svg" xmlns:ev="http://www.w3.org/2001/xml-events" xmlns:xlink="http://www.w3.org/1999/xlink"><defs /><rect fill="#1a1a1a" height="200" width="200" x="0" y="0" /><text alignment-baseline="middle" fill="#e1ed5e" style="dominant-baseline: central; font-size:9.0px; font-family:Arial;" text-anchor="middle" x="100.0" y="100.0">2022</text><line stroke="#e1ed5e" stroke-width="0.3" x1="100.0" x2="100.0" y1="15.0" y2="10.0" /><path d="M 100.0 14.0 a86.0,86.0 0 0,1 42.46469731375804,11.215312516191453" fill="none" id="id145" stroke="none" /><text fill="#e1ed5e" style="font-size:6.75px; font-family:Arial;" text-anchor="middle"><textPath startOffset="22.20632615414155" xlink:href="#id145">January</textPath></text><path d="M 100.0 79.0 l 0.0 -46.67887627647639 a67.67887627647639,67.67887627647639 0 0,0 1.1649806015736588,0.01002735583524659 l -0.8035001223011304 46.6719602972497" fill="#38ff7d" stroke="none" /><path d="M 100.36148047927253 79.00311137660856 l 0.4218606219411365 -24.504118483296075 a45.507749570855275,45.507749570855275 0 0,0 0.7831089803394896,0.02022539456563029 l -0.8435962374754938 24.493226296588087" fill="#e3ff1b" stroke="none" /><path d="M 100.72285384407766 79.0124445844662 l 1.1789528386800368 -34.23007048633724 a55.25036722862176,55.25036722862176 0 0,0 0.9501988875463234,0.04091756289419966 l -1.7679925586156917 34.204705196918844" fill="#70ff27" stroke="none" /><path d="M 101.44485096284872 79.0497635885617 l 1.3951273394767456 -20.229247401732948 a41.27729840816756,41.27729840816756 0 0,0 0.7084163477581813,0.0549867428827142 l -1.7431338765972682 20.20223539666177" fill="#ffe515" stroke="none" /><path d="M 103.2404852339499 79.25152402106235 l 3.700044699500552 -23.690985462385715 a44.9781801427313,44.9781801427313 0 0,0 0.7639239627588882,0.12605399940830966 l -4.107297868398315 23.623785200037783" fill="#eaff1a" stroke="none" /><path d="M 105.36241919743992 79.69619591428918 l 10.035943343481668 -37.99923503903356 a60.302188518520055,60.302188518520055 0 0,0 1.001309543849412,0.27369572302119555 l -10.68855077655479 37.82085277518607" fill="#3aff2e" stroke="none" /><path d="M 105.71112130821622 79.79150937346287 l 6.624609981933997 -23.440820374762936 a45.358930954675344,45.358930954675344 0 0,0 0.7495234645180949,0.2188064525795124 l -7.027123664175519 23.323315593264716" fill="#e5ff1a" stroke="none" /><path d="M 107.4271985657038 80.35727306442388 l 7.463036040768202 -19.737506377720166 a42.101328511644695,42.101328511644695 0 0,0 0.675659832585894,0.26214551803802333 l -7.801679038353763 19.606118155791595" fill="#ffef16" stroke="none" /><path d="M 107.76421540070413 80.48803036053334 l 8.934894576195962 -22.453961244655872 a45.16635505541214,45.16635505541214 0 0,0 0.7199003613783107,0.29366543302779935 l -9.320078807162659 22.296834925444493" fill="#e7ff1a" stroke="none" /><path d="M 108.76106565485865 80.91482961587045 l 10.153989483402967 -22.1195259804878 a45.338794794125135,45.338794794125135 0 0,0 0.7064686442882906,0.33169650120365524 l -10.533236338990855 21.94146449664414" fill="#e5ff1a" stroke="none" /><path d="M 109.73455568895987 81.39251694778311 l 12.009863725054174 -22.956706280577873 a46.90843858566347,46.90843858566347 0 0,0 0.7122375239362524,0.3804526189392599 l -12.403246295518738 22.746574935136856" fill="#d2ff1c" stroke="none" /><path d="M 110.36928655335952 81.73862282372117 l 13.003981324484318 -22.90134490330548 a47.335814562448846,47.335814562448846 0 0,0 0.7050855936452045,0.4084310859652992 l -13.39626365059485 22.67410965995013" fill="#cdff1d" stroke="none" /><line stroke="#e1ed5e" stroke-width="0.3" x1="143.23703022742887" x2="145.7803849466894" y1="26.81831364943548" y2="22.513508569990506" /><path d="M 143.74570117128098 25.957352633546492 a86.0,86.0 0 0,1 28.547481713284135,27.462654790039103" fill="none" id="id146" stroke="none" /><text fill="#e1ed5e" style="font-size:6.75px; font-family:Arial;" text-anchor="middle"><textPath startOffset="19.985693538727396" xlink:href="#id146">February</textPath></text><path d="M 110.68208982089419 81.91981866633111 l 13.34061841897276 -22.57992622815446 a47.22642118684006,47.22642118684006 0 0,0 0.6963376893442258,0.41953566645431106 l -13.727318174534624 22.346943952241535" fill="#ceff1d" stroke="none" /><path d="M 110.99172775467656 82.1063720568725 l 13.731878355669389 -22.3543675517338 a47.23513353907143,47.23513353907143 0 0,0 0.6891400119766686,0.4315394122779637 l -14.11463752001832 22.114683798132894" fill="#ceff1d" stroke="none" /><path d="M 111.60114157652 82.49532879139004 l 14.621796651019949 -22.062461798870284 a47.46788918539574,47.46788918539574 0 0,0 0.6771979412559544,0.4572470728824925 l -14.999399286682445 21.80750281368912" fill="#cbff1d" stroke="none" /><path d="M 112.48926042617603 83.11751280151076 l 14.514676940051636 -19.620364959084814 a45.40562574083586,45.40562574083586 0 0,0 0.6243356701749394,0.47023668293990806 l -14.850258763984959 19.36761168663906" fill="#e4ff1a" stroke="none" /><path d="M 113.06298171725822 83.55741782278167 l 16.33128679230603 -20.55644958818586 a47.254114876799335,47.254114876799335 0 0,0 0.6325224331291148,0.5114558186036606 l -16.682712623999638 20.272287672318072" fill="#ceff1d" stroke="none" /><path d="M 113.89432698308785 84.25364557470407 l 16.098094596289418 -18.243870566286347 a45.33079248340448,45.33079248340448 0 0,0 0.5806421476953376,0.5213062532388316 l -16.409747731580744 17.96406530427822" fill="#e5ff1a" stroke="none" /><path d="M 114.42810811169701 84.74124197986012 l 18.034631471246406 -19.07291485978346 a47.24926691456773,47.24926691456773 0 0,0 0.5861536075368698,0.5638793060415742 l -18.360268322395694 18.759652466979585" fill="#ceff1d" stroke="none" /><path d="M 114.94478906791727 85.2469230424477 l 31.46681380302959 -31.063156765568234 a65.21628748726877,65.21628748726877 0 0,0 0.7817747690074914,0.8056876194045042 l -31.996852835740192 30.51690495061362" fill="#34ff60" stroke="none" /><path d="M 115.68641384162765 86.03803664274999 l 14.795730085020391 -13.169194908183131 a40.807607712151764,40.807607712151764 0 0,0 0.4625020315912129,0.5287197736690052 l -15.020223980189453 12.912559578311178" fill="#ffdf14" stroke="none" /><path d="M 116.15771136456269 86.58626213691792 l 20.855894413339115 -17.314054834164953 a48.106176908240315,48.106176908240315 0 0,0 0.5234444744748549,0.6416810329348257 l -21.150837379890376 16.952489631622026" fill="#c3ff1e" stroke="none" /><path d="M 116.60985879189232 87.15038557335679 l 21.451999674293404 -16.595560982715728 a48.12196405787975,48.12196405787975 0 0,0 0.5012110163394644,0.6595349462077861 l -21.734486630856985 16.22384126062691" fill="#c3ff1e" stroke="none" /><path d="M 117.2510076193507 88.02491185347247 l 21.429103415262727 -14.87538629401428 a47.08608039890571,47.08608039890571 0 0,0 0.4564559036558195,0.6697927149147468 l -21.68198378458728 14.504315555829127" fill="#d0ff1d" stroke="none" /><path d="M 117.45458315368197 88.32363383020206 l 21.88597372333568 -14.640776060145356 a47.33150526388238,47.33150526388238 0 0,0 0.44717761418706437,0.6810821854995662 l -22.13474797288067 14.261875810668116" fill="#cdff1d" stroke="none" /><line stroke="#e1ed5e" stroke-width="0.3" x1="172.23445277983987" x2="176.4835382374775" y1="55.19839476539836" y2="52.563006222186495" /><path d="M 173.08426987136738 54.67131705675599 a86.0,86.0 0 0,1 12.851231095245387,41.99856678651699" fill="none" id="id147" stroke="none" /><text fill="#e1ed5e" style="font-size:6.75px; font-family:Arial;" text-anchor="middle"><textPath startOffset="22.20632615414155" xlink:href="#id147">March</textPath></text><path d="M 118.03404312379186 89.2402003453031 l 30.36932211614054 -18.11949873778062 a56.36399242594558,56.36399242594558 0 0,0 0.48993816788495775,0.8374631447059112 l -30.676719958495827 17.594056180720813" fill="#64ff29" stroke="none" /><path d="M 118.56541770881063 90.18545643968196 l 25.00890296853859 -13.220869652935685 a49.288453864955116,49.288453864955116 0 0,0 0.39006076602277834,0.7534732461077679 l -25.232773167721483 12.788423684567572" fill="#b5ff20" stroke="none" /><path d="M 118.73160827565052 90.50648371742162 l 25.065900561471025 -12.703849643660773 a49.10137303987642,49.10137303987642 0 0,0 0.3756020918616964,0.7571908976428643 l -25.28086266628613 12.270499157518959" fill="#b7ff1f" stroke="none" /><path d="M 118.89224826269711 90.83032412892265 l 21.21320886958631 -10.296193804717632 a44.57990325274896,44.57990325274896 0 0,0 0.3291308913650461,0.693233596056958 l -21.387297954793112 9.929517793020134" fill="#efff19" stroke="none" /><path d="M 119.196687751892 91.48605970444005 l 22.87826386045196 -10.146759435348788 a46.027418650498134,46.027418650498134 0 0,0 0.314979412477945,0.7270159113733707 l -23.049533982772584 9.751444379388815" fill="#ddff1b" stroke="none" /><path d="M 119.61058180528143 92.48833698450437 l 25.524789824889748 -9.777049024332712 a48.33323221335158,48.33323221335158 0 0,0 0.2909094654596702,0.7794927363452708 l -25.689303878851042 9.336233150958106" fill="#c0ff1e" stroke="none" /><path d="M 120.18372546131832 94.20196356495316 l 12.662783672183112 -3.6375485408350645 a34.17489467568673,34.17489467568673 0 0,0 0.15755151995750646,0.5667966439233111 l -12.723521962706982 3.4190405934928014" fill="#ff840c" stroke="none" /><path d="M 120.37134235888165 94.90015583598534 l 19.727573887958794 -4.938680563620825 a41.33636489676461,41.33636489676461 0 0,0 0.1668556142712237,0.6917242425827995 l -19.80966230249084 4.598371089378619" fill="#ffe515" stroke="none" /><path d="M 120.83666639777658 97.38593545837742 l 21.086777525231877 -2.6454422398236628 a42.25207168825824,42.25207168825824 0 0,0 0.08432235282485513,0.7224224242103016 l -21.12919023106032 2.2820760772885085" fill="#fff116" stroke="none" /><path d="M 120.96714384426684 98.82574320788733 l 25.102688281949487 -1.4058663609267086 a46.142024962311794,46.142024962311794 0 0,0 0.03758683599548051,0.7933987015150041 l -25.123168726178463 0.9735565527887048" fill="#dbff1b" stroke="none" /><line stroke="#e1ed5e" stroke-width="0.3" x1="184.98032266829074" x2="189.97916517819016" y1="98.17113171792111" y2="98.06355123074" /><path d="M 185.9800911702706 98.14961562048488 a86.0,86.0 0 0,1 -9.607161424134198,41.387399972396054" fill="none" id="id148" stroke="none" /><text fill="#e1ed5e" style="font-size:6.75px; font-family:Arial;" text-anchor="middle"><textPath startOffset="21.466115282336823" xlink:href="#id148">April</textPath></text><path d="M 120.99980553446 99.90962569577887 l 23.266919668426365 -0.10013100706825331 a44.26713512823575,44.26713512823575 0 0,0 -0.003279357243092035,0.7620071321873305 l -23.265196013893767 -0.3003856033227619" fill="#f3ff19" stroke="none" /><path d="M 120.99824983174949 100.27111621757518 l 27.47566810999863 0.35474857538226245 a48.47795815999674,48.47795815999674 0 0,0 -0.017955167606061237,0.8343060851773108 l -27.46549087970756 -0.8276444763496881" fill="#bfff1e" stroke="none" /><path d="M 120.95626037817324 101.35467743843564 l 27.27738973886866 1.7632947764453362 a48.33432273598116,48.33432273598116 0 0,0 -0.06081710196729371,0.8298010369312444 l -27.242996078237027 -2.2325689498733507" fill="#c0ff1e" stroke="none" /><path d="M 120.8583938346157 102.4346265915055 l 27.872607608544307 3.2533373468931335 a49.06183277679082,49.06183277679082 0 0,0 -0.10512897278757645,0.8379813504359823 l -27.812477126509883 -3.7326364516165107" fill="#b8ff1f" stroke="none" /><path d="M 120.81339534386255 102.79330883721812 l 29.840113869072436 4.004760030595097 a51.107648507013316,51.107648507013316 0 0,0 -0.12452244457958637,0.8709096873651613 l -29.76675737347625 -4.517815189940668" fill="#a0ff22" stroke="none" /><path d="M 120.70491114924044 103.5080841355445 l 23.194616992920363 3.929921133995294 a44.5251894268185,44.5251894268185 0 0,0 -0.13453722260253204,0.7545561922407745 l -23.12353332797864 -4.328596076969287" fill="#f0ff19" stroke="none" /><path d="M 120.64145759157962 103.86396538481128 l 25.28136189201428 4.732529512425512 a46.720499503333336,46.720499503333336 0 0,0 -0.15477848961225482,0.7892121839683999 l -25.196153469426363 -5.167005423461857" fill="#d4ff1c" stroke="none" /><path d="M 120.5718875245553 104.21870165774334 l 27.29074362757215 5.596545540376994 a48.8586792531768,48.8586792531768 0 0,0 -0.17604471106408248,0.8224222817893301 l -27.190364877783626 -6.065481641582493" fill="#baff1f" stroke="none" /><path d="M 120.41448212921028 104.9243191809786 l 39.77120887564937 9.593489831262387 a61.9119066113163,61.9119066113163 0 0,0 -0.2588173767092567,1.0338467646865206 l -39.600180184645055 -10.276664435346303" fill="#30ff36" stroke="none" /><path d="M 119.67450827220406 107.3425965602758 l 29.51634483609632 11.015605018785859 a52.50489115063326,52.50489115063326 0 0,0 -0.3232944178617689,0.8440197084973717 l -29.32235613864104 -11.522048294116376" fill="#8fff24" stroke="none" /><path d="M 118.64920377521936 109.65438752849418 l 34.490446132656245 17.85513939408924 a59.83808539580729,59.83808539580729 0 0,0 -0.4814044971545856,0.9106358865949371 l -34.17798912727677 -18.446190295770307" fill="#3fff2d" stroke="none" /><line stroke="#e1ed5e" stroke-width="0.3" x1="174.80103733775053" x2="179.2010983576182" y1="140.37084112569926" y2="142.7455964860345" /><path d="M 175.68104954172406 140.8457921977663 a86.0,86.0 0 0,1 -30.038265399797805,32.042727171017184" fill="none" id="id149" stroke="none" /><text fill="#e1ed5e" style="font-size:6.75px; font-family:Arial;" text-anchor="middle"><textPath startOffset="22.206326154141568" xlink:href="#id149">May</textPath></text><path d="M 118.30583269289576 110.29060199501025 l 31.66737427357587 17.80177664372864 a57.32803112000342,57.32803112000342 0 0,0 -0.49096818864032765,0.8560444207261896 l -31.35625408878316 -18.344240910313147" fill="#5aff2a" stroke="none" /><path d="M 117.94076556474637 110.91462005526583 l 18.122486552944363 11.025173617492065 a42.21270779880523,42.21270779880523 0 0,0 -0.3830006424303023,0.6175189856570809 l -17.930021270846098 -11.33548893451442" fill="#fff116" stroke="none" /><path d="M 116.93607887273984 112.41649034213515 l 16.384364167790856 12.012007087357716 a41.315897800725445,41.315897800725445 0 0,0 -0.42543320979923344,0.569937307827599 l -16.17516969129653 -12.292257274694629" fill="#ffe515" stroke="none" /><path d="M 116.498646956653 112.99209946851258 l 15.943509145624754 12.554948126432187 a41.29340302497398,41.29340302497398 0 0,0 -0.4445570844879299,0.5546533166752783 l -15.725034149081969 -12.827529276685716" fill="#ffe515" stroke="none" /><path d="M 115.80600337817218 113.82643327865902 l 23.377504437675736 20.44966697751378 a52.05956524526327,52.05956524526327 0 0,0 -0.5958121808501887,0.6694013013467498 l -23.022033407177208 -20.849042448601395" fill="#94ff23" stroke="none" /><path d="M 115.56566222782051 114.09645910891815 l 3.350908045776229 3.034624390127434 a25.520788639209332,25.520788639209332 0 0,0 -0.2976861356169665,0.32307950648638817 l -3.2981755021635406 -3.091855151415157" fill="#ff0400" stroke="none" /><path d="M 115.32070863581623 114.36230785411682 l 19.388568268059974 18.17569884890656 a47.57578988725199,47.57578988725199 0 0,0 -0.5652308518971565,0.5926422884510022 l -19.072830864783853 -18.506748253940067" fill="#caff1d" stroke="none" /><path d="M 114.81725581225074 114.88116024355365 l 13.727722640636461 13.786928091331907 a40.45584115616181,40.45584115616181 0 0,0 -0.49770326139865273,0.4871073939293471 l -13.488369426862015 -14.021185588183826" fill="#ffda14" stroke="none" /><path d="M 114.0293411484842 115.62618273729858 l 15.387857745608486 17.139327821849513 a44.0335130664844,44.0335130664844 0 0,0 -0.568362878336109,0.5015141577128861 l -15.090552514365788 -17.401665121334688" fill="#f6ff19" stroke="none" /><path d="M 113.75828350139079 115.86535959552629 l 15.635943694325697 18.030582761345347 a44.865972637331325,44.865972637331325 0 0,0 -0.5878179999752091,0.5009512520180402 l -15.32326021777344 -18.297058403586334" fill="#ebff1a" stroke="none" /><path d="M 113.48314897796784 116.09983520530334 l 10.46265295964904 12.493148947317861 a37.295578466992886,37.295578466992886 0 0,0 -0.4957290487306243,0.4079512580434942 l -10.246053782373725 -12.671395324218533" fill="#ffaf10" stroke="none" /><path d="M 112.04921762599082 117.19931262002967 l 11.379869557258795 16.243870777822217 a40.83342554847276,40.83342554847276 0 0,0 -0.5791406988988894,0.3983382535894918 l -11.098571973737021 -16.437349820776802" fill="#ffdf14" stroke="none" /><path d="M 111.45004920935366 117.60387380957326 l 11.08648216166199 17.0449077901386 a41.33319867347922,41.33319867347922 0 0,0 -0.5997608483532758,0.3827957501214567 l -10.791439511261784 -17.233217969083864" fill="#ffe515" stroke="none" /><line stroke="#e1ed5e" stroke-width="0.3" x1="143.8653032363475" x2="146.44561519142675" y1="172.8068346515853" y2="177.08958963109032" /><path d="M 144.38136562736335 173.6633856474863 a86.0,86.0 0 0,1 -40.68145358897372,12.25698825130547" fill="none" id="id150" stroke="none" /><text fill="#e1ed5e" style="font-size:6.75px; font-family:Arial;" text-anchor="middle"><textPath startOffset="21.466115282336833" xlink:href="#id150">June</textPath></text><path d="M 110.5260780823613 118.17145234162733 l 13.82984524869281 23.874834659437283 a48.59116433966241,48.59116433966241 0 0,0 -0.7273663060432162,0.4130175716658421 l -13.416830175728393 -24.10935539689775" fill="#bdff1f" stroke="none" /><path d="M 109.89434966115114 118.52300852407294 l 9.618206662505568 18.006046895168872 a41.413907616957786,41.413907616957786 0 0,0 -0.6316786367447066,0.33046440776873504 l -9.306837123234367 -18.168940721882326" fill="#ffe615" stroke="none" /><path d="M 109.57404056367764 118.69057910512821 l 12.285072698097405 23.983094864582373 a47.94646267102782,47.94646267102782 0 0,0 -0.7377958120274778,0.3699461365403899 l -11.870422978387166 -24.191008842032065" fill="#c5ff1e" stroke="none" /><path d="M 108.59647513512805 119.15986991738527 l 11.090326416113115 24.71817903663416 a48.0921338196724,48.0921338196724 0 0,0 -0.7582052961564838,0.33237492023528686 l -10.663200445298878 -24.9054185101639" fill="#c3ff1e" stroke="none" /><path d="M 107.59598834532513 119.57807347666477 l 10.371041070796842 26.73055761578816 a49.67195848460871,49.67195848460871 0 0,0 -0.7997889693716923,0.302411752994667 l -9.909381880664876 -26.90511761888946" fill="#b0ff20" stroke="none" /><path d="M 105.88484417918355 120.15858648285463 l 6.591325791843183 22.578645579359314 a44.52107165697471,44.52107165697471 0 0,0 -0.7374996758115685,0.20842477506949733 l -6.201694947927009 -22.688759147767332" fill="#f0ff19" stroke="none" /><path d="M 105.18746579009965 120.34920634021253 l 6.788579557405278 26.62999849256545 a48.4816599229606,48.4816599229606 0 0,0 -0.8104441650548583,0.1991874577619126 l -6.329182107607209 -26.74290720864139" fill="#bfff1e" stroke="none" /><path d="M 102.70371172650421 120.8252237178851 l 3.0852123363315886 23.763715817572493 a44.96315347817556,44.96315347817556 0 0,0 -0.7683829884023408,0.09304047910642942 l -2.6757019248778677 -23.81330182540427" fill="#eaff1a" stroke="none" /><path d="M 101.98527174616119 120.90594882070398 l 2.237115962993368 23.5580000162466 a44.66398217961961,44.66398217961961 0 0,0 -0.765999379727644,0.06609364964019676 l -1.831272265524182 -23.593017918165458" fill="#eeff19" stroke="none" /><path d="M 101.26447882468166 120.96189622390904 l 0.9416794935933065 15.61069069373745 a36.6390672421406,36.6390672421406 0 0,0 -0.6298638303149325,0.032556765466239146 l -0.6728275948648944 -15.624587265965891" fill="#ffa60f" stroke="none" /><line stroke="#e1ed5e" stroke-width="0.3" x1="102.19456741930631" x2="102.32365962044197" y1="184.97166512339345" y2="189.96999836594603" /><path d="M 102.22038585953345 185.97133177190398 a86.0,86.0 0 0,1 -42.740103519485714,-10.115201625700543" fill="none" id="id151" stroke="none" /><text fill="#e1ed5e" style="font-size:6.75px; font-family:Arial;" text-anchor="middle"><textPath startOffset="22.20632615414155" xlink:href="#id151">July</textPath></text><path d="M 100.18074693466247 120.99922214144158 l 0.036533380251476004 4.244456864019089 a25.24461408827603,25.24461408827603 0 0,0 -0.43456062982786,0.0 l 0.03653338025147308 -4.244456864019089" fill="#ff0000" stroke="none" /><path d="M 97.65516085044442 120.86867818915974 l -2.8295200203290185 25.1822572756099 a46.3407234514023,46.3407234514023 0 0,0 -0.7919245163175075,-0.09589103028883457 l 3.2625719596979152 -25.129820716595717" fill="#d9ff1c" stroke="none" /><path d="M 97.2962882734958 120.8252237178851 l -7.80958997206154 60.15303211463925 a81.65786814681626,81.65786814681626 0 0,0 -1.392349899429071,-0.19296700893968258 l 8.843868462677442 -60.00969054020697" fill="#4ae9ff" stroke="none" /><path d="M 96.93821686468263 120.77559828337769 l -3.184441729759133 21.607892920686105 a42.841284431142505,42.841284431142505 0 0,0 -0.7286366836071854,-0.11379806480920067 l 3.555914276974836 -21.5498765485298" fill="#fff917" stroke="none" /><path d="M 95.16358092515715 120.4354850818985 l -4.872723872657453 20.58888497191232 a42.15763744669529,42.15763744669529 0 0,0 -0.7047285785070956,-0.17320513863591433 l 5.2264057359077585 -20.501958574962377" fill="#fff016" stroke="none" /><path d="M 92.7421414339146 119.70592522655815 l -8.336695866125169 22.635093241149555 a45.12152449576524,45.12152449576524 0 0,0 -0.7265205293672661,-0.2747078983161905 l 8.725086616252717 -22.48823709272673" fill="#e8ff1a" stroke="none" /><path d="M 92.40401165467489 119.57807347666478 l -10.25753239476498 26.43799776727838 a49.35815044695739,49.35815044695739 0 0,0 -0.7894458314613394,-0.31413678864361766 l 10.711099302268176 -26.257514134228696" fill="#b4ff20" stroke="none" /><path d="M 92.06813273071674 119.44442032107085 l -7.514762172104124 18.421916218030677 a40.895694198681,40.895694198681 0 0,0 -0.6495181523297225,-0.27149864035130683 l 7.830751783931309 -18.289832534659396" fill="#ffe015" stroke="none" /><path d="M 90.10565033884886 118.52300852407294 l -11.362339102891402 21.27120136886072 a45.11569525358365,45.11569525358365 0 0,0 -0.6818425000082714,-0.37179489599953397 l 11.726804414768313 -21.072465821101417" fill="#e8ff1a" stroke="none" /><line stroke="#e1ed5e" stroke-width="0.3" x1="58.666819895761336" x2="56.23545636021788" y1="174.27360380694188" y2="178.64263932499728" /><path d="M 58.180547188652646 175.14741091055294 a86.0,86.0 0 0,1 -31.652253787137756,-30.449443065178592" fill="none" id="id152" stroke="none" /><text fill="#e1ed5e" style="font-size:6.75px; font-family:Arial;" text-anchor="middle"><textPath startOffset="22.20632615414155" xlink:href="#id152">August</textPath></text><path d="M 89.7882731507175 118.34994917583269 l -12.98832172874032 23.33934770479044 a47.70995418592804,47.70995418592804 0 0,0 -0.7141753775466281,-0.4055274182033927 l 13.388145873208154 -23.112317120792415" fill="#c8ff1d" stroke="none" /><path d="M 89.4739219176387 118.17145234162733 l -9.98652780574241 17.240012154619677 a40.92357289007924,40.92357289007924 0 0,0 -0.6065109864621213,-0.35833738142231325 l 10.281806663232915 -17.065556200903615" fill="#ffe015" stroke="none" /><path d="M 88.24862548938628 117.40417183066458 l -14.832278463004956 21.967091830598317 a47.505652376390586,47.505652376390586 0 0,0 -0.6737729286574365,-0.46342716412015633 l 15.208208276285282 -21.70852387711306" fill="#cbff1d" stroke="none" /><path d="M 87.95078237400918 117.19931262002967 l -11.215779944193969 16.00964573181476 a40.54744167953439,40.54744167953439 0 0,0 -0.5681906672346667,-0.40538895467405295 l 11.489697939277523 -15.814212515296486" fill="#ffdb14" stroke="none" /><path d="M 87.36589467227662 116.77436683061367 l -9.467290201216219 12.569770047634378 a36.7362226345604,36.7362226345604 0 0,0 -0.5018365189296521,-0.3847868433082996 l 9.682255448639358 -12.404943862498712" fill="#ffa80f" stroke="none" /><path d="M 86.24171649860922 115.8653595955263 l -19.654291487259357 22.664339051389653 a50.99939063551961,50.99939063551961 0 0,0 -0.6582749918505595,-0.5808511439872064 l 20.041508832016504 -22.322664765630158" fill="#a1ff22" stroke="none" /><path d="M 85.70375840098266 115.38237550388516 l -10.844711996252862 11.668621504641884 a36.92998763653826,36.92998763653826 0 0,0 -0.4619135423099413,-0.43676808544367185 l 11.04396137295362 -11.48021878245228" fill="#ffaa0f" stroke="none" /><path d="M 84.43433777217949 114.09645910891817 l -29.109160791808627 26.36162141969525 a60.27185157181545,60.27185157181545 0 0,0 -0.6898002924092731,-0.7749979410445176 l 29.55861993386624 -25.85664930890987" fill="#3bff2e" stroke="none" /><path d="M 83.95833913139862 113.55231037782056 l -19.75134936360268 16.686328127048228 a46.85632123962357,46.85632123962357 0 0,0 -0.5152053335477397,-0.6205980136125082 l 20.03565069704396 -16.343868856321958" fill="#d2ff1c" stroke="none" /><path d="M 82.85270091963577 112.12312394758628 l -51.44189724109269 36.36937184275885 a84.0,84.0 0 0,0 -0.8245563713514645,-1.1878349512519497 l 52.06031451960629 -35.47849562931989" fill="#4dd2ff" stroke="none" /><path d="M 82.6465618267979 111.8261652097733 l -23.200087157577165 15.810588130618283 a49.07523359039466,49.07523359039466 0 0,0 -0.4697128358529685,-0.7021569581257205 l 23.468803098840862 -15.408894258286741" fill="#b8ff1f" stroke="none" /><path d="M 82.05923443525364 110.91462005526583 l -16.984384865575887 10.332786915427752 a40.880538591839965,40.880538591839965 0 0,0 -0.36056464566501123,-0.6043270857742298 l 17.15973038693913 -10.03889773576741" fill="#ffdf14" stroke="none" /><line stroke="#e1ed5e" stroke-width="0.3" x1="26.63291911575756" x2="22.317208475507996" y1="142.92168965132927" y2="145.44649492493687" /><path d="M 25.769776987707644 143.4266507060508 a86.0,86.0 0 0,1 -11.730757126820373,-40.83630448921669" fill="none" id="id153" stroke="none" /><text fill="#e1ed5e" style="font-size:6.75px; font-family:Arial;" text-anchor="middle"><textPath startOffset="21.46611528233685" xlink:href="#id153">September</textPath></text><path d="M 81.51974371655577 109.97397251340807 l -24.770938195693557 13.36911419981299 a49.14840303787253,49.14840303787253 0 0,0 -0.3954047341905216,-0.7479567449237848 l 24.997395438108963 -12.94074243980308" fill="#b7ff1f" stroke="none" /><path d="M 81.35079622478065 109.6543875284942 l -36.138930519341656 18.708532777289932 a61.694366904532814,61.694366904532814 0 0,0 -0.48010359553489884,-0.9472899414302793 l 36.455612784662826 -18.083688624156967" fill="#30ff33" stroke="none" /><path d="M 80.87730276802145 108.67885076344099 l -20.136937473414225 9.139164472689943 a43.113809668781,43.113809668781 0 0,0 -0.30089110372183814,-0.6784300059612369 l 20.291269661867343 -8.79118613023601" fill="#fffd17" stroke="none" /><path d="M 80.45479744820244 107.68017299344265 l -28.9647443140789 11.381526819864108 a52.120661399322024,52.120661399322024 0 0,0 -0.32092855572867224,-0.8378431890228496 l 29.156367149401078 -10.8812600640081" fill="#94ff23" stroke="none" /><path d="M 80.32549172779594 107.34259656027581 l -37.05020615554373 13.82726889594222 a60.54631640606975,60.54631640606975 0 0,0 -0.35600005531671275,-0.9795592562917558 l 37.28273047186567 -13.187461842644346" fill="#38ff2e" stroke="none" /><path d="M 79.97269907076064 106.31721596034903 l -15.392536281724892 4.85527112279014 a37.14013106700243,37.14013106700243 0 0,0 -0.18706816821438968,-0.6113495974164035 l 15.473831222445412 -4.589594552821689" fill="#ffad10" stroke="none" /><path d="M 79.67330655649465 105.27499134158121 l -53.68844896377101 13.932718777598577 a76.46683878382734,76.46683878382734 0 0,0 -0.31966301318304036,-1.2768948367036212 l 53.92032329124911 -13.006496101497564" fill="#43ffe0" stroke="none" /><path d="M 79.18660465613746 102.79330883721812 l -16.763153416126414 2.2497369508102265 a37.91344520789397,37.91344520789397 0 0,0 -0.08124037207654987,-0.647565698565176 l 16.799395297449813 -1.9608534979576417" fill="#ffb811" stroke="none" /><path d="M 79.1416061653843 102.43462659150553 l -27.72884587131097 3.2365572366370987 a48.917095051257526,48.917095051257526 0 0,0 -0.09042138319733817,-0.8371897087682704 l 27.780449556009362 -2.758771205984046" fill="#b9ff1f" stroke="none" /><path d="M 79.04373962182676 101.35467743843564 l -20.11469977295919 1.3002763599804836 a41.15668290092913,41.15668290092913 0 0,0 -0.039615559371071814,-0.7073624247980472 l 20.134101683217796 -0.9538422188469988" fill="#ffe315" stroke="none" /><line stroke="#e1ed5e" stroke-width="0.3" x1="15.007084014347285" x2="10.007500721073583" y1="101.09737516637583" y2="101.16192664675087" /><path d="M 14.007167355692545 101.11028546245083 a86.0,86.0 0 0,1 10.666146001902534,-42.60595125391555" fill="none" id="id154" stroke="none" /><text fill="#e1ed5e" style="font-size:6.75px; font-family:Arial;" text-anchor="middle"><textPath startOffset="22.20632615414155" xlink:href="#id154">October</textPath></text><path d="M 79.00175016825051 100.2711162175752 l -38.686304724756624 0.49949327648626757 a59.689529162164554,59.689529162164554 0 0,0 -0.004421864871708016,-1.0274856686956095 l 38.689170886917836 0.16650187041301728" fill="#41ff2d" stroke="none" /><path d="M 79.00019446554 99.90962569577889 l -26.334590785771194 -0.1133329694556715 a47.33483465328747,47.33483465328747 0 0,0 0.010519587448143042,-0.8147536408507682 l 26.328738191205336 0.5666228683669117" fill="#cdff1d" stroke="none" /><path d="M 79.00486145842228 99.54816195383935 l -31.896384624476248 -0.6864446300161866 a52.90377028413104,52.90377028413104 0 0,0 0.02743011501438019,-0.9102719770203348 l 31.879842815006224 1.2353867544615158" fill="#8bff24" stroke="none" /><path d="M 79.01574976396665 99.18683210126434 l -30.772065689480915 -1.1924589020341747 a51.79516171463902,51.79516171463902 0 0,0 0.04219182513809042,-0.8906027440867281 l 30.746980256109325 1.721972752743912" fill="#98ff23" stroke="none" /><path d="M 79.03285615573316 98.82574320788736 l -24.054960745572533 -1.3471887849529505 a45.092655604838136,45.092655604838136 0 0,0 0.05007305136887433,-0.7746079418193325 l 24.028207103199247 1.7610557910252946" fill="#e8ff1a" stroke="none" /><path d="M 79.26566170972629 96.67025291283419 l -19.47634850503728 -3.1277253122514757 a40.725892038601614,40.725892038601614 0 0,0 0.11711241943521529,-0.6912041288606139 l 19.419624224081844 3.4625152294279173" fill="#ffdd14" stroke="none" /><path d="M 79.32604984820605 96.31383870115002 l -20.052875524251366 -3.575423813321779 a41.36913037505499,41.36913037505499 0 0,0 0.13103036949406371,-0.6999694732650487 l 19.988359430847442 3.9200713640494005" fill="#ffe615" stroke="none" /><path d="M 79.91906864156998 93.8553929516997 l -19.795070523804814 -6.05713588135497 a41.7010558215663,41.7010558215663 0 0,0 0.21594100674625494,-0.6845920025870372 l 19.687874033290356 6.396978050368422" fill="#ffea16" stroke="none" /><path d="M 80.2630227832202 92.82701384747504 l -21.761892152875227 -7.908898579089698 a44.15449474308821,44.15449474308821 0 0,0 0.26575835869311215,-0.7121002745544547 l 21.62252920568049 8.282321990673495" fill="#f4ff19" stroke="none" /><path d="M 80.38941819471856 92.48833698450439 l -19.24831490557183 -7.372899826350763 a41.61206633390893,41.61206633390893 0 0,0 0.2619706462901758,-0.6666867203041505 l 19.118550709399965 7.703135551550677" fill="#ffe915" stroke="none" /><path d="M 81.10775173730289 90.83032412892265 l -22.887086312144937 -11.108638855340695 a46.44053020434042,46.44053020434042 0 0,0 0.3552479128791375,-0.7161581148428575 l 22.692478386312384 11.500956558682516" fill="#d8ff1c" stroke="none" /><path d="M 81.26839172434947 90.50648371742162 l -17.684254130199967 -8.962698347079163 a40.8258116051331,40.8258116051331 0 0,0 0.3230887986835936,-0.6241047219575372 l 17.52735589835626 9.265775791297036" fill="#ffdf14" stroke="none" /><path d="M 81.43458229118936 90.18545643968196 l -24.35036942118467 -12.87273818141115 a48.543563299531996,48.543563299531996 0 0,0 0.3968826977907181,-0.7353633629707136 l 24.12517862417548 13.289982527714336" fill="#beff1f" stroke="none" /><line stroke="#e1ed5e" stroke-width="0.3" x1="26.266209847984243" x2="21.928928074336255" y1="57.711370442889674" y2="55.22380399835377" /><path d="M 25.398753493254645 57.213857153982495 a86.0,86.0 0 0,1 29.58750427330803,-30.492523968695096" fill="none" id="id155" stroke="none" /><text fill="#e1ed5e" style="font-size:6.75px; font-family:Arial;" text-anchor="middle"><textPath startOffset="21.46611528233685" xlink:href="#id155">November</textPath></text><path d="M 89.00827224532344 82.1063720568725 l -15.877178686136627 -25.846739888131683 a51.33378917768515,51.33378917768515 0 0,0 0.7568994482951062,-0.45602344859207633 l 15.429917171623872 26.11620994618238" fill="#9dff22" stroke="none" /><line stroke="#e1ed5e" stroke-width="0.3" x1="56.762969772571076" x2="54.21961505331055" y1="26.818313649435495" y2="22.513508569990535" /><path d="M 56.25429882871897 25.957352633546506 a86.0,86.0 0 0,1 42.265352541879196,-11.944610805530505" fill="none" id="id156" stroke="none" /><text fill="#e1ed5e" style="font-size:6.75px; font-family:Arial;" text-anchor="middle"><textPath startOffset="22.20632615414155" xlink:href="#id156">December</textPath></text><path d="M 89.94658935756843 81.56283822128135 l -8.690183229694908 -15.937110279406681 a39.152431479656954,39.152431479656954 0 0,0 0.5944736532261777,-0.31754723762705556 l 8.414564529940426 16.084336243535486" fill="#ffc912" stroke="none" /><path d="M 90.26544431104013 81.39251694778311 l -13.117401990954503 -25.073752006228638 a49.2976902708004,49.2976902708004 0 0,0 0.7552864205108318,-0.38688704006937596 l 12.683855082854908 25.29583157161052" fill="#b5ff20" stroke="none" /><path d="M 91.23893434514133 80.91482961587045 l -9.16358385675253 -19.962019019728736 a42.964823524074745,42.964823524074745 0 0,0 0.6747889083409156,-0.30275811354801163 l 8.81861282994484 20.116797463793276" fill="#fffb17" stroke="none" /><path d="M 92.23578459929587 80.48803036053334 l -14.530272881797387 -36.515504618417005 a60.30026599855439,60.30026599855439 0 0,0 0.9677240379290681,-0.3754618922214994 l 13.899565678868642 36.760209214529056" fill="#3aff2e" stroke="none" /><path d="M 94.63758080256005 79.69619591428918 l -9.964835893730822 -37.72999989056439 a60.02372158227576,60.02372158227576 0 0,0 1.001227435157979,-0.25523516648055083 l 9.313899569887843 37.895938053213804" fill="#3dff2e" stroke="none" /><path d="M 94.98787191387505 79.60689891045804 l -6.699736232403557 -27.259558397739372 a49.07080315244906,49.07080315244906 0 0,0 0.8219974386074187,-0.19454023604628665 l 6.229515106833604 27.370844545926527" fill="#b8ff1f" stroke="none" /><path d="M 95.33964822691252 79.52364482259891 l -4.859643942821107 -21.351992350351463 a42.898029970307036,42.898029970307036 0 0,0 0.721416733499726,-0.157673755808886 l 4.49138448516786 21.432479604256216" fill="#fffa17" stroke="none" /><path d="M 96.04723909329186 79.375362276772 l -5.038607586115798 -26.29034706267899 a47.7688235655394,47.7688235655394 0 0,0 0.8088965104324236,-0.14782066694515178 l 4.585315954580482 26.37318321097488" fill="#c7ff1e" stroke="none" /><path d="M 97.11714578562143 79.19881850522333 l -4.184387046493302 -30.192367676581313 a51.480947506151004,51.480947506151004 0 0,0 0.8788172115912031,-0.11409569628739631 l 3.6640551063942413 30.259921696032848" fill="#9bff22" stroke="none" /><path d="M 99.63851952072746 79.00311137660856 l -0.6997956266937325 -40.64820004221146 a61.654223404103774,61.654223404103774 0 0,0 1.061276105966258,-0.009134738500875773 l 9.95741291273142e-15 40.654223404103774" fill="#30ff33" stroke="none" /></svg>