<?xml version="1.0" encoding="utf-8" ?>
<svg baseProfile="full" height="200mm" version="1.1" viewBox="0,0,200,200" width="200mm" xmlns="http://www.w3.org/2000/svg" xmlns:ev="http://www.w3.org/2001/xml-events" xmlns:xlink="http://www.w3.org/1999/xlink"><defs /><rect fill="#1a1a1a" height="200" width="200" x="0" y="0" /><text alignment-baseline="middle" fill="#e1ed5e" style="dominant-baseline: central; font-size:9.0px; font-family:Arial;" text-anchor="middle" x="100.0" y="100.0">2024</text><line stroke="#e1ed5e" stroke-width="0.3" x1="100.0" x2="100.0" y1="15.0" y2="10.0" /><path d="M 100.0 14.0 a86.0,86.0 0 0,1 42.35913384403234,11.155469271406648" fill="none" id="id169" stroke="none" /><text fill="#e1ed5e" style="font-size:6.75px; font-family:Arial;" text-anchor="middle"><textPath startOffset="22.145653131862478" xlink:href="#id169">January</textPath></text><path d="M 100.0 79.0 l 0.0 -7.925922700325252 a28.925922700325252,28.925922700325252 0 0,0 0.49655192753295874,0.004262301094107155 l -0.13605900268410395 7.92475479742558" fill="#ff0000" stroke="none" /><path d="M 100.72087961077811 79.0123766808444 l 0.8094755005243929 -23.56699598252351 a44.58089375376235,44.58089375376235 0 0,0 0.7646137856902993,0.03283580588817242 l -1.2139150468155284 23.549627608209505" fill="#ffed16" stroke="none" /><path d="M 101.80034050326958 79.07731436759882 l 1.9396728029464563 -22.541938156734496 a43.62523605279142,43.62523605279142 0 0,0 0.7455769650847007,0.07060691376696902 l -2.32634933141617 22.505319487462344" fill="#ffe015" stroke="none" /><path d="M 102.15924093988457 79.11130261209362 l 3.5859390878576303 -34.690707773319374 a55.8755525397902,55.8755525397902 0 0,0 0.9532478311059643,0.10681340776012717 l -4.180922820564391 34.62403860505228" fill="#7eff26" stroke="none" /><path d="M 103.58742460773223 79.30868818359171 l 3.786995798682265 -21.842385411827916 a43.16824615656525,43.16824615656525 0 0,0 0.7290608345358056,0.1328591703466241 l -4.1613913667691245 21.774158067549926" fill="#ffda14" stroke="none" /><path d="M 104.29559338865022 79.4440306129975 l 4.150831890472493 -19.863233213969863 a41.29229999520801,41.29229999520801 0 0,0 0.6926047601214196,0.15094998385415098 l -4.4911990672130475 19.789051771981995" fill="#ffbf11" stroke="none" /><path d="M 104.64783097203109 79.52079915486377 l 5.982531627448671 -26.360138201704316 a48.03049334892678,48.03049334892678 0 0,0 0.8024931312451771,0.18938619389835046 l -6.434156912433733 26.25355586415974" fill="#e2ff1b" stroke="none" /><path d="M 106.04205211174951 79.88797359093562 l 6.6834562736368905 -22.24705225858948 a44.229290173357164,44.229290173357164 0 0,0 0.7252747796492524,0.22469198069446158 l -7.064371686157773 22.129043690088373" fill="#ffe915" stroke="none" /><path d="M 106.72888874123014 80.10723608172694 l 17.641508112738727 -52.153984044749414 a76.0568874913194,76.0568874913194 0 0,0 1.2331871993817,0.42896652230601123 l -18.534201084165446 51.843459089874806" fill="#42ffd6" stroke="none" /><path d="M 107.06938296918511 80.22567764915836 l 7.340149555804076 -20.53170468378061 a42.80432738525886,42.80432738525886 0 0,0 0.6897832734914302,0.25329797251994446 l -7.691521980949631 20.402675862251943" fill="#ffd513" stroke="none" /><path d="M 109.06512990194946 81.05736502329252 l 9.824699258908058 -20.529842796560683 a43.75959491685832,43.75959491685832 0 0,0 0.6748141100127769,0.33008539657353475 l -10.175673618182904 20.358163649889924" fill="#ffe215" stroke="none" /><path d="M 109.3889696526874 81.21577127319529 l 7.181853801308814 -14.368518535752512 a37.06341647768735,37.06341647768735 0 0,0 0.5666692429179904,0.2893453531121382 l -7.427450265940383 14.24311523096754" fill="#ff800b" stroke="none" /><line stroke="#e1ed5e" stroke-width="0.3" x1="143.13028292997686" x2="145.6673583964461" y1="26.7553504044142" y2="22.446841604673864" /><path d="M 143.63769802327073 25.89364864446614 a86.0,86.0 0 0,1 29.32050498858742,28.57503671076993" fill="none" id="id170" stroke="none" /><text fill="#e1ed5e" style="font-size:6.75px; font-family:Arial;" text-anchor="middle"><textPath startOffset="20.669276256404974" xlink:href="#id170">February</textPath></text><path d="M 111.27062007382361 82.28071324371311 l 14.117224614671125 -22.1946219029461 a47.30394024164082,47.30394024164082 0 0,0 0.6814343606643942,0.44169751972628035 l -14.496144607592525 21.949010541515925" fill="#ebff1a" stroke="none" /><path d="M 111.5731344415666 82.4767994020092 l 19.967576341437148 -30.233455547703333 a57.232111990692374,57.232111990692374 0 0,0 0.8151589112602012,0.5484752948822056 l -20.483631540794352 29.88623057876401" fill="#6eff28" stroke="none" /><path d="M 113.31354834802062 83.75963576809568 l 18.40767970405808 -22.454376192097715 a50.03518007974871,50.03518007974871 0 0,0 0.6595724781383828,0.5502388197711173 l -18.790426516358355 22.135075188414728" fill="#c7ff1e" stroke="none" /><path d="M 114.13192950727249 84.46653392183569 l 32.44181795594526 -35.65924090360951 a69.20843301859489,69.20843301859489 0 0,0 0.8719281405110376,0.8070436697257181 l -33.049175867770266 35.097079487751415" fill="#38ff84" stroke="none" /><path d="M 114.39649973595853 84.71141617570332 l 19.621010769420973 -20.836833491995186 a49.620931039832826,49.620931039832826 0 0,0 0.6151282679356407,0.589278965917982 l -19.975811523221928 20.496942395771622" fill="#cdff1d" stroke="none" /><path d="M 114.65682725009322 84.96080404539774 l 32.70336538657031 -33.556533895864796 a67.8567078945144,67.8567078945144 0 0,0 0.8272316902084117,0.8201613763667852 l -33.27458899690868 32.99019250926935" fill="#36ff72" stroke="none" /><path d="M 115.16444852881244 85.47280134310134 l 20.876859514538012 -19.99955916125948 a49.910649073213044,49.910649073213044 0 0,0 0.5873869406133975,0.6237845756656261 l -21.21710228888767 19.638233125649357" fill="#c9ff1d" stroke="none" /><path d="M 116.1254893667686 86.54754324733833 l 15.36160427223356 -12.815196638285704 a41.005203090562055,41.005203090562055 0 0,0 0.44627950448161985,0.5443884314351674 l -15.579330595953808 12.549605925152042" fill="#ffbb11" stroke="none" /><path d="M 116.7966241395341 87.39550010848427 l 16.84699038055774 -12.64229565775094 a42.062970454819364,42.062970454819364 0 0,0 0.4284373538376699,0.5812575542570618 l -17.06152975397924 12.351231794225004" fill="#ffca12" stroke="none" /><line stroke="#e1ed5e" stroke-width="0.3" x1="172.87174338648825" x2="177.1583165268699" y1="56.24261187166439" y2="53.66864786411523" /><path d="M 173.72905801456457 55.72781907015455 a86.0,86.0 0 0,1 12.242430191666344,42.057860355516425" fill="none" id="id171" stroke="none" /><text fill="#e1ed5e" style="font-size:6.75px; font-family:Arial;" text-anchor="middle"><textPath startOffset="22.145653131862474" xlink:href="#id171">March</textPath></text><path d="M 118.18653347947321 89.5 l 54.55960043841963 -31.500000000000007 a84.0,84.0 0 0,0 0.7102665399144961,1.2549729196035277 l -55.092300343355504 30.558770310297362" fill="#4dd2ff" stroke="none" /><line stroke="#e1ed5e" stroke-width="0.3" x1="184.99686870605535" x2="189.99668451229388" y1="99.2704041080226" y2="99.22748670261217" /><path d="M 185.99683186730306 99.26182062694052 a86.0,86.0 0 0,1 -10.086455211305974,41.156179273409016" fill="none" id="id172" stroke="none" /><text fill="#e1ed5e" style="font-size:6.75px; font-family:Arial;" text-anchor="middle"><textPath startOffset="21.40746469413373" xlink:href="#id172">April</textPath></text><line stroke="#e1ed5e" stroke-width="0.3" x1="174.33088141563837" x2="178.70328620479359" y1="141.23008692659167" y2="143.65538615756765" /><path d="M 175.20536237346943 141.71514677278685 a86.0,86.0 0 0,1 -30.301960400862466,31.631185727798858" fill="none" id="id173" stroke="none" /><text fill="#e1ed5e" style="font-size:6.75px; font-family:Arial;" text-anchor="middle"><textPath startOffset="22.145653131862474" xlink:href="#id173">May</textPath></text><line stroke="#e1ed5e" stroke-width="0.3" x1="143.1302829299769" x2="145.66735839644613" y1="173.24464959558577" y2="177.55315839532614" /><path d="M 143.63769802327073 174.10635135553383 a86.0,86.0 0 0,1 -40.68552437913181,11.842963189579606" fill="none" id="id174" stroke="none" /><text fill="#e1ed5e" style="font-size:6.75px; font-family:Arial;" text-anchor="middle"><textPath startOffset="21.407464694133747" xlink:href="#id174">June</textPath></text><line stroke="#e1ed5e" stroke-width="0.3" x1="101.45913802915013" x2="101.54496967792366" y1="184.9874750549273" y2="189.98673829345242" /><path d="M 101.47630435890484 185.9873277026323 a86.0,86.0 0 0,1 -42.54439059252881,-10.42667462771756" fill="none" id="id175" stroke="none" /><text fill="#e1ed5e" style="font-size:6.75px; font-family:Arial;" text-anchor="middle"><textPath startOffset="22.145653131862474" xlink:href="#id175">July</textPath></text><line stroke="#e1ed5e" stroke-width="0.3" x1="58.13341422392154" x2="55.67067388415222" y1="173.97424548756322" y2="178.32567169271397" /><path d="M 57.64086615596768 174.84453072859336 a86.0,86.0 0 0,1 -31.369924170532247,-30.572349798747897" fill="none" id="id176" stroke="none" /><text fill="#e1ed5e" style="font-size:6.75px; font-family:Arial;" text-anchor="middle"><textPath startOffset="22.145653131862474" xlink:href="#id176">August</textPath></text><line stroke="#e1ed5e" stroke-width="0.3" x1="26.387840678322732" x2="22.057713659400548" y1="142.50000000000003" y2="145.00000000000006" /><path d="M 25.521815274538298 143.00000000000003 a86.0,86.0 0 0,1 -11.493303480769221,-40.785679425670985" fill="none" id="id177" stroke="none" /><text fill="#e1ed5e" style="font-size:6.75px; font-family:Arial;" text-anchor="middle"><textPath startOffset="21.40746469413373" xlink:href="#id177">September</textPath></text><line stroke="#e1ed5e" stroke-width="0.3" x1="15.003131293944662" x2="10.003315487706104" y1="100.72959589197737" y2="100.7725132973878" /><path d="M 14.003168132696942 100.73817937305945 a86.0,86.0 0 0,1 10.791469493833604,-42.45332614584628" fill="none" id="id178" stroke="none" /><text fill="#e1ed5e" style="font-size:6.75px; font-family:Arial;" text-anchor="middle"><textPath startOffset="22.145653131862435" xlink:href="#id178">October</textPath></text><line stroke="#e1ed5e" stroke-width="0.3" x1="26.387840678322718" x2="22.05771365940052" y1="57.49999999999999" y2="54.99999999999999" /><path d="M 25.521815274538284 56.99999999999999 a86.0,86.0 0 0,1 29.574782752854787,-30.34633250058573" fill="none" id="id179" stroke="none" /><text fill="#e1ed5e" style="font-size:6.75px; font-family:Arial;" text-anchor="middle"><textPath startOffset="21.40746469413373" xlink:href="#id179">November</textPath></text><line stroke="#e1ed5e" stroke-width="0.3" x1="56.869717070023135" x2="54.33264160355391" y1="26.7553504044142" y2="22.446841604673864" /><path d="M 56.362301976729285 25.89364864446614 a86.0,86.0 0 0,1 42.16139366436587,-11.88097634709845" fill="none" id="id180" stroke="none" /><text fill="#e1ed5e" style="font-size:6.75px; font-family:Arial;" text-anchor="middle"><textPath startOffset="22.145653131862474" xlink:href="#id180">December</textPath></text></svg>