<?xml version="1.0" encoding="utf-8" ?>
<svg baseProfile="full" height="200mm" version="1.1" viewBox="0,0,200,200" width="200mm" xmlns="http://www.w3.org/2000/svg" xmlns:ev="http://www.w3.org/2001/xml-events" xmlns:xlink="http://www.w3.org/1999/xlink"><defs /><rect fill="#1a1a1a" height="200" width="200" x="0" y="0" /><text alignment-baseline="middle" fill="#e1ed5e" style="dominant-baseline: central; font-size:9.0px; font-family:Arial;" text-anchor="middle" x="100.0" y="100.0">2018</text><line stroke="#e1ed5e" stroke-width="0.3" x1="100.0" x2="100.0" y1="15.0" y2="10.0" /><path d="M 100.0 14.0 a86.0,86.0 0 0,1 42.46469731375804,11.215312516191453" fill="none" id="id97" stroke="none" /><text fill="#e1ed5e" style="font-size:6.75px; font-family:Arial;" text-anchor="middle"><textPath startOffset="22.20632615414155" xlink:href="#id97">January</textPath></text><path d="M 100.0 79.0 l 0.0 -32.15249458825686 a53.15249458825686,53.15249458825686 0 0,0 0.914932819918741,0.00787511563564068 l -0.5534523406462125 32.147730849229774" fill="#79ff26" stroke="none" /><path d="M 101.44485096284872 79.0497635885617 l 0.5332129607178442 -7.731550085039083 a28.749915017530537,28.749915017530537 0 0,0 0.49341673463414115,0.03829863498663539 l -0.6662198847143266 7.721226187863983" fill="#ff5808" stroke="none" /><path d="M 101.80526077348638 79.07773832637324 l 0.687676421313044 -7.969899000081106 a28.999511793348624,28.999511793348624 0 0,0 0.4969616962417286,0.04719250118396938 l -0.8247632446450168 7.956880954381958" fill="#ff5c08" stroke="none" /><path d="M 102.16513564639614 79.11191278185805 l 0.6633729356901841 -6.399872341446933 a27.434161144906433,27.434161144906433 0 0,0 0.4692982925966737,0.05273113128323992 l -0.773437931796583 6.3875052566930925" fill="#ff4606" stroke="none" /><path d="M 104.307194497241 79.44645832069477 l 12.921583491723009 -61.66062503791566 a84.0,84.0 0 0,0 1.4126291033858882,0.3087460076165178 l -13.981055319262426 61.429065532203275" fill="#4dd2ff" stroke="none" /><path d="M 104.66035177308747 79.52364482259891 l 1.398963683040439 -6.146677042630943 a27.30386691268719,27.30386691268719 0 0,0 0.4573739825814784,0.10824564451632804 l -1.5045613525844408 6.121685485973746" fill="#ff4406" stroke="none" /><path d="M 106.40334571778207 80.00007090966166 l 2.751879362299872 -8.595099271045804 a30.024886232179554,30.024886232179554 0 0,0 0.49085996208211335,0.16182881200764462 l -2.899422146624403 8.546456734778923" fill="#ff6a09" stroke="none" /><path d="M 107.08798089147638 80.2323363322302 l 2.117691270406433 -5.906027319558273 a27.274215091636904,27.274215091636904 0 0,0 0.4405664671315984,0.16226434793793032 l -2.219040063310608 5.868699703814018" fill="#ff4306" stroke="none" /><path d="M 107.4271985657038 80.35727306442388 l 2.239989233101071 -5.9241040151543976 a27.333447729852768,27.333447729852768 0 0,0 0.43865866874104836,0.17019274850021998 l -2.3416310668417863 5.884668562763631" fill="#ff4406" stroke="none" /><path d="M 108.76106565485865 80.91482961587045 l 2.6842908678317037 -5.847479129975496 a27.434161144906433,27.434161144906433 0 0,0 0.42747882292054057,0.20070703922641223 l -2.7845479020518424 5.800407108109081" fill="#ff4606" stroke="none" /><path d="M 109.41281617654863 81.2277094730956 l 5.706465753710934 -11.380593331609163 a33.73112940699853,33.73112940699853 0 0,0 0.5167922442137283,0.2647210598059371 l -5.901518485513417 11.280679746490726" fill="#ff9c0e" stroke="none" /><line stroke="#e1ed5e" stroke-width="0.3" x1="143.23703022742887" x2="145.7803849466894" y1="26.81831364943548" y2="22.513508569990506" /><path d="M 143.74570117128098 25.957352633546492 a86.0,86.0 0 0,1 28.547481713284135,27.462654790039103" fill="none" id="id98" stroke="none" /><text fill="#e1ed5e" style="font-size:6.75px; font-family:Arial;" text-anchor="middle"><textPath startOffset="19.985693538727396" xlink:href="#id98">February</textPath></text><path d="M 110.99172775467656 82.1063720568725 l 5.317130993148263 -8.655851549433386 a31.158525879483015,31.158525879483015 0 0,0 0.45458931284698945,0.2846637860006811 l -5.465339458367516 8.56304342210976" fill="#ff790b" stroke="none" /><path d="M 112.19680574252982 82.90503203632743 l 5.2696766972682045 -7.385946469950643 a30.07313053751063,30.07313053751063 0 0,0 0.41881085131423273,0.3042838946699181 l -5.396032864936227 7.294143340464051" fill="#ff6b09" stroke="none" /><path d="M 112.48926042617603 83.11751280151076 l 4.4495722110613585 -6.014755344083822 a28.481709344169577,28.481709344169577 0 0,0 0.39162872003165566,0.2949666326130084 l -4.552447084851397 5.937272121964966" fill="#ff5407" stroke="none" /><path d="M 113.6212207817346 84.01681056812373 l 5.94120768050127 -6.971434450200381 a30.159631378843144,30.159631378843144 0 0,0 0.3922277314328431,0.34013602362231454 l -6.0603292105808775 6.868133433158395" fill="#ff6c09" stroke="none" /><path d="M 114.16331599549186 84.49514656593476 l 6.758919779174973 -7.399119004480931 a31.021474872681843,31.021474872681843 0 0,0 0.3911543799686862,0.36353536663656083 l -6.885282042938506 7.28167905176973" fill="#ff780b" stroke="none" /><path d="M 114.42810811169701 84.74124197986012 l 7.089737932663811 -7.497905803257793 a31.31905884218028,31.31905884218028 0 0,0 0.3885304582226961,0.37376599297795504 l -7.217751634498925 7.374756723517536" fill="#ff7c0b" stroke="none" /><path d="M 114.94478906791727 85.2469230424477 l 10.128709201859161 -9.99877787880489 a35.23257914664466,35.23257914664466 0 0,0 0.4223475834818609,0.43526631017876305 l -10.299321049044131 9.822947373076012" fill="#ffb010" stroke="none" /><path d="M 115.19652480421416 85.50635884689758 l 10.83770424147551 -10.336428770599095 a35.97656813009459,35.97656813009459 0 0,0 0.42355158500549434,0.45181529960363026 l -11.014023148451468 10.14834405411741" fill="#ffba11" stroke="none" /><path d="M 115.4437574822437 85.77008943001954 l 5.42641842971498 -4.999913334492463 a28.378695706341734,28.378695706341734 0 0,0 0.3279176659126774,0.36209487692570874 l -5.511679736243693 4.905765670297206" fill="#ff5307" stroke="none" /><path d="M 115.68641384162765 86.03803664274999 l 13.51725264356529 -12.031263997339924 a39.096061240050574,39.096061240050574 0 0,0 0.4431038417709885,0.5065442893883167 l -13.722348348914128 11.79680415174866" fill="#ffe115" stroke="none" /><path d="M 116.60985879189232 87.15038557335679 l 4.562236164025628 -3.5294084293860704 a26.768077901499314,26.768077901499314 0 0,0 0.27880107957205347,0.366869540021618 l -4.622313183821795 3.450354113483419" fill="#ff3c05" stroke="none" /><path d="M 117.2510076193507 88.02491185347247 l 8.440246141871615 -5.858944228505635 a31.27448209926506,31.27448209926506 0 0,0 0.3031771144900723,0.4448750054231785 l -8.539847722030421 5.71279119981205" fill="#ff7b0b" stroke="none" /><path d="M 117.65298651832404 88.62581576622439 l 8.620753523833558 -5.554529751227747 a31.25525192649907,31.25525192649907 0 0,0 0.2875072449800024,0.4547674165441371 l -8.715088365059517 5.405314686969404" fill="#ff7b0b" stroke="none" /><line stroke="#e1ed5e" stroke-width="0.3" x1="172.23445277983987" x2="176.4835382374775" y1="55.19839476539836" y2="52.563006222186495" /><path d="M 173.08426987136738 54.67131705675599 a86.0,86.0 0 0,1 12.851231095245387,41.99856678651699" fill="none" id="id99" stroke="none" /><text fill="#e1ed5e" style="font-size:6.75px; font-family:Arial;" text-anchor="middle"><textPath startOffset="22.20632615414155" xlink:href="#id99">March</textPath></text><path d="M 118.03404312379186 89.2402003453031 l 3.897001940524542 -2.3251003585929464 a25.537919765925913,25.537919765925913 0 0,0 0.22198572321060853,0.37944555869634644 l -3.936447338205478 2.2576753875427045" fill="#ff2b04" stroke="none" /><path d="M 118.21658344932153 89.55222093294921 l 1.3925533863531285 -0.7986728224953064 a22.60532962697266,22.60532962697266 0 0,0 0.19068387664209444,0.33920533946755427 l -1.4060949042876558 0.7745839730929581" fill="#ff0000" stroke="none" /><path d="M 118.3937258080291 89.86733742301442 l 13.571535768940935 -7.47623369149831 a36.49453624144775,36.49453624144775 0 0,0 0.29837220454451363,0.5528383801365383 l -13.698216072703914 7.2415143280293135" fill="#ffc011" stroke="none" /><path d="M 118.56541770881063 90.18545643968196 l 3.7395986239110157 -1.9769258181065388 a25.229992146358356,25.229992146358356 0 0,0 0.1996660331509099,0.38569122362563346 l -3.773074090222042 1.9122618722205604" fill="#ff2603" stroke="none" /><path d="M 118.89224826269711 90.83032412892265 l 7.23426085991064 -3.5112722599132056 a29.04136574671685,29.04136574671685 0 0,0 0.21441075231776835,0.4516037259403528 l -7.2936298060701645 3.3862261183323126" fill="#ff5c08" stroke="none" /><path d="M 119.97218684219823 93.5106431181261 l 8.453462321520606 -2.7466964096247946 a29.888496295100442,29.888496295100442 0 0,0 0.1547719081193552,0.49066924397621264 l -8.499489713408167 2.6007769992221625" fill="#ff6809" stroke="none" /><path d="M 120.18372546131832 94.20196356495316 l 10.433052486418415 -2.9970293918702073 a31.854988224779213,31.854988224779213 0 0,0 0.14685639445768342,0.5283205870672851 l -10.483095651442461 2.81699750138397" fill="#ff830c" stroke="none" /><path d="M 120.28053869075195 94.5502522615342 l 8.730527502492857 -2.3460507256654024 a30.040246925785784,30.040246925785784 0 0,0 0.12989355297062916,0.5005328465108383 l -8.769617387333788 2.195421453605714" fill="#ff6a09" stroke="none" /><path d="M 120.6074358757038 95.95851677861258 l 3.6662464464485307 -0.7190158731131795 a24.736087101753007,24.736087101753007 0 0,0 0.07834775842265562,0.41853685833563725 l -3.6780799287810453 0.6558009373149795" fill="#ff1f03" stroke="none" /><path d="M 120.73433829027371 96.67025291283417 l 11.73167248825726 -1.8840004319637462 a32.88198623965589,32.88198623965589 0 0,0 0.08493590311958898,0.5596214794459217 l -11.762364284816147 1.6817798401257422" fill="#ff910d" stroke="none" /><path d="M 120.78858239683441 97.02765380044208 l 12.879464825866567 -1.8415025900627904 a34.01044757070033,34.01044757070033 0 0,0 0.07787420919204606,0.5802533115596821 l -12.90925503411645 1.619530936438444" fill="#ffa00e" stroke="none" /><path d="M 120.98425023603335 99.18683210126433 l 54.81205144218326 -2.1240406588411345 a75.85319071868977,75.85319071868977 0 0,0 0.03932917700282487,1.305143915225124 l -54.840492313641725 1.1802265961910114" fill="#43ffdd" stroke="none" /><line stroke="#e1ed5e" stroke-width="0.3" x1="184.98032266829074" x2="189.97916517819016" y1="98.17113171792111" y2="98.06355123074" /><path d="M 185.9800911702706 98.14961562048488 a86.0,86.0 0 0,1 -9.607161424134198,41.387399972396054" fill="none" id="id100" stroke="none" /><text fill="#e1ed5e" style="font-size:6.75px; font-family:Arial;" text-anchor="middle"><textPath startOffset="21.466115282336823" xlink:href="#id100">April</textPath></text><path d="M 120.92983693683757 101.71520430193887 l 6.476662622910682 0.5307637907809517 a27.498374329985342,27.498374329985342 0 0,0 -0.04272121734475618,0.47142507349775975 l -6.466566809288851 -0.6421702528272819" fill="#ff4706" stroke="none" /><path d="M 120.89721153311464 102.0752229133903 l 55.28590152495948 5.490233443358148 a76.55783986702583,76.55783986702583 0 0,0 -0.14151424503280757,1.3102461541316304 l -55.18320497842562 -6.44107591937457" fill="#44ffe4" stroke="none" /><path d="M 120.81339534386255 102.79330883721812 l 8.603400869172958 1.1546388890881931 a29.680535552595867,29.680535552595867 0 0,0 -0.07231584608971763,0.5057768591210893 l -8.582250972066639 -1.302561220189692" fill="#ff6509" stroke="none" /><path d="M 120.49622156327973 104.57218783832717 l 54.10860077369403 12.070258200643522 a76.43854084224444,76.43854084224444 0 0,0 -0.2975258604542564,1.2817336198617186 l -53.89281434730922 -12.999860477853804" fill="#44ffe3" stroke="none" /><path d="M 119.9155931802556 106.66101706037122 l 28.110488083469 9.401901264230675 a50.64110807094085,50.64110807094085 0 0,0 -0.283612316206543,0.8243101468786822 l -27.944484936319224 -9.884384114198658" fill="#94ff23" stroke="none" /><path d="M 119.79798401119884 107.00284435728193 l 6.655770606458766 2.35424604891275 a28.05986946229332,28.05986946229332 0 0,0 -0.1649863389501685,0.45397154597783534 l -6.614260006503371 -2.4684653918967165" fill="#ff4f07" stroke="none" /><path d="M 118.81262510543309 109.33194174019688 l 12.602484500643817 6.2514216108935114 a35.0677961225671,35.0677961225671 0 0,0 -0.27289647095303965,0.5384506268852547 l -12.493009359904507 -6.467426449481461" fill="#ffae10" stroke="none" /><line stroke="#e1ed5e" stroke-width="0.3" x1="174.80103733775053" x2="179.2010983576182" y1="140.37084112569926" y2="142.7455964860345" /><path d="M 175.68104954172406 140.8457921977663 a86.0,86.0 0 0,1 -30.038265399797805,32.042727171017184" fill="none" id="id101" stroke="none" /><text fill="#e1ed5e" style="font-size:6.75px; font-family:Arial;" text-anchor="middle"><textPath startOffset="22.206326154141568" xlink:href="#id101">May</textPath></text><path d="M 117.55443506779139 111.5257021239791 l 10.936409938215187 7.180510381952834 a34.08299628074641,34.08299628074641 0 0,0 -0.3262179243203796,0.4876515350297654 l -10.811188908484086 -7.367698831188406" fill="#ffa10e" stroke="none" /><path d="M 115.32070863581623 114.36230785411682 l 7.400067917860059 6.9371499781163415 a31.14322705098438,31.14322705098438 0 0,0 -0.37000148181609593,0.38794507443774606 l -7.279559884664999 -7.063502169136594" fill="#ff790b" stroke="none" /><path d="M 114.55890576462653 115.13401014063108 l 8.933457367938866 9.286345868504243 a33.885762691213394,33.885762691213394 0 0,0 -0.42383693253898413,0.40076427428308176 l -8.772284601009073 -9.438744779533247" fill="#ff9e0e" stroke="none" /><path d="M 114.0293411484842 115.62618273729858 l 6.32027712815579 7.0396609726467245 a30.460588226241253,30.460588226241253 0 0,0 -0.39317025588982146,0.34692703770097105 l -6.198164519359381 -7.147411152119984" fill="#ff700a" stroke="none" /><path d="M 113.75828350139079 115.86535959552629 l 6.401683918074744 7.382099472429572 a30.771230711009835,30.771230711009835 0 0,0 -0.4031537093719723,0.34357633735973414 l -6.273664732125725 -7.491200200012253" fill="#ff740a" stroke="none" /><path d="M 113.20401910651253 116.32954008644616 l 12.205647417031294 15.094844014511835 a40.412164863593304,40.412164863593304 0 0,0 -0.5446838317957722,0.4327297780693237 l -11.94400609251817 -15.302707706586284" fill="#fff216" stroke="none" /><path d="M 112.63410532772338 116.77436683061366 l 20.869078262453606 27.707982885264034 a55.68790485305358,55.68790485305358 0 0,0 -0.7706543864856354,0.570111691377755 l -20.389038905549405 -28.063104525381558" fill="#5eff29" stroke="none" /><line stroke="#e1ed5e" stroke-width="0.3" x1="143.8653032363475" x2="146.44561519142675" y1="172.8068346515853" y2="177.08958963109032" /><path d="M 144.38136562736335 173.6633856474863 a86.0,86.0 0 0,1 -40.68145358897372,12.25698825130547" fill="none" id="id102" stroke="none" /><text fill="#e1ed5e" style="font-size:6.75px; font-family:Arial;" text-anchor="middle"><textPath startOffset="21.466115282336833" xlink:href="#id102">June</textPath></text><path d="M 110.8373102113329 117.98757091392108 l 10.786878016215475 17.903864471240222 a41.902275003961904,41.902275003961904 0 0,0 -0.6210159170589177,0.3669071500889737 l -10.477094228128175 -18.086890193622946" fill="#faff18" stroke="none" /><path d="M 110.5260780823613 118.17145234162733 l 6.073586614962748 10.484996297099773 a33.117078926855704,33.117078926855704 0 0,0 -0.49573307602976496,0.28149017840824603 l -5.892204772011784 -10.587989641302647" fill="#ff940d" stroke="none" /><path d="M 110.21172684928248 118.3499491758327 l 7.086118981793386 12.73339221553388 a35.57231483117049,35.57231483117049 0 0,0 -0.5376114884019073,0.2931486485751721 l -6.8658846815228305 -12.853481515868822" fill="#ffb410" stroke="none" /><path d="M 109.89434966115114 118.52300852407294 l 4.197808036344221 7.858630097228589 a29.909526323832438,29.909526323832438 0 0,0 -0.4562044467927043,0.2386646050082329 l -4.061912687025021 -7.929724121181539" fill="#ff6809" stroke="none" /><path d="M 109.57404056367764 118.69057910512821 l 1.8187936010662404 3.550674916252024 a24.98939876725564,24.98939876725564 0 0,0 -0.384534598142662,0.19281363031604076 l -1.757405095240818 -3.581456387477367" fill="#ff2303" stroke="none" /><path d="M 109.2508944713604 118.85261126421891 l 2.3127271400576785 4.713159994063191 a26.250007995612684,26.250007995612684 0 0,0 -0.40735928907917984,0.19555721394123618 l -2.231255182978266 -4.7522714845039875" fill="#ff3505" stroke="none" /><path d="M 108.92500713936063 119.00905698771935 l 1.8284833909134464 3.8944220924692727 a25.30231041943269,25.30231041943269 0 0,0 -0.39583898827672037,0.18171026484149141 l -1.7611764068693065 -3.9253194276448387" fill="#ff2703" stroke="none" /><path d="M 108.2653958097858 119.30500536409082 l 3.8556856764033633 9.005501294576725 a30.796191382463142,30.796191382463142 0 0,0 -0.4891147030871332,0.20444998555879865 l -3.700099513818769 -9.070536323155496" fill="#ff740a" stroke="none" /><path d="M 107.93186726928326 119.44442032107085 l 4.9362991129920495 12.100993564938944 a34.06908926404667,34.06908926404667 0 0,0 -0.5449090020115048,0.21683053754053128 l -4.727269034938678 -12.184170946885544" fill="#ffa10e" stroke="none" /><path d="M 106.91757812671514 119.82793768551818 l 2.460721255799146 7.053195038446829 a28.470121106723283,28.470121106723283 0 0,0 -0.4641040077035273,0.15744927752302598 l -2.3389475151583916 -7.094507302867978" fill="#ff5407" stroke="none" /><path d="M 105.88484417918355 120.15858648285463 l 8.427457871214184 28.868332474871853 a51.07328824805879,51.07328824805879 0 0,0 -0.8460383392337608,0.23909888551601402 l -7.929288363875817 -29.009120153726386" fill="#90ff24" stroke="none" /><path d="M 105.53697534728816 120.25689768951611 l 1.6872298616766803 6.172691865680837 a27.399130368634154,27.399130368634154 0 0,0 -0.4560122820233989,0.12043698831351499 l -1.5807271368417841 -6.200820203297936" fill="#ff4506" stroke="none" /><path d="M 105.18746579009965 120.34920634021253 l 0.9078342438572311 3.561219890108754 a24.675112259513448,24.675112259513448 0 0,0 -0.41248176701403416,0.10137798270051779 l -0.8463991920999858 -3.576319131123302" fill="#ff1e03" stroke="none" /><path d="M 104.13013068566511 120.58985236759428 l 1.0956282142871279 5.462011955273054 a26.570814642714993,26.570814642714993 0 0,0 -0.4492142716845805,0.08609298430732738 l -1.001446328030843 -5.480062137928849" fill="#ff3a05" stroke="none" /><path d="M 103.41894727170886 120.7198165907248 l 2.1764234171263572 13.189760017584945 a34.36811834971917,34.36811834971917 0 0,0 -0.5845266337989391,0.09129103880201568 l -1.9490609197189008 -13.225269363734066" fill="#ffa40f" stroke="none" /><path d="M 100.90346689309514 120.98055641714683 l 0.3060933516542184 7.108183910640103 a28.114771370002675,28.114771370002675 0 0,0 -0.4836807006334343,0.016658941302915748 l -0.1836922993461318 -7.112399650369112" fill="#ff4f07" stroke="none" /><line stroke="#e1ed5e" stroke-width="0.3" x1="102.19456741930631" x2="102.32365962044197" y1="184.97166512339345" y2="189.96999836594603" /><path d="M 102.22038585953345 185.97133177190398 a86.0,86.0 0 0,1 -42.740103519485714,-10.115201625700543" fill="none" id="id103" stroke="none" /><text fill="#e1ed5e" style="font-size:6.75px; font-family:Arial;" text-anchor="middle"><textPath startOffset="22.20632615414155" xlink:href="#id103">July</textPath></text><path d="M 100.54218724476979 120.99299961872073 l 0.22713181430789361 8.79433837140426 a29.797270954780473,29.797270954780473 0 0,0 -0.5128540406784787,0.008829247406436067 l -0.07571808373674697 -8.796945096089855" fill="#ff6709" stroke="none" /><path d="M 98.37488393609728 120.93702456842531 l -0.9959705858209567 12.831490062737203 a33.87008526148697,33.87008526148697 0 0,0 -0.580881126928714,-0.050120867851720464 l 1.2166960304912124 -12.812444942606819" fill="#ff9e0e" stroke="none" /><path d="M 98.01472825383883 120.90594882070398 l -0.8874717747184423 9.345541504813621 a30.38758500196488,30.38758500196488 0 0,0 -0.5203040492658727,-0.05393164210130877 l 1.0482084205899083 -9.328880494256552" fill="#ff6f0a" stroke="none" /><path d="M 95.86986931433489 120.58985236759428 l -2.2648639355025972 11.290977844004324 a32.51589290155726,32.51589290155726 0 0,0 -0.5478285975151691,-0.11480280904698972 l 2.458883994447153 -11.250319054230793" fill="#ff8c0c" stroke="none" /><path d="M 95.51606077576429 120.51570834832081 l -1.40650235412871 6.435277251878821 a27.58718772927557,27.58718772927557 0 0,0 -0.46304418140410025,-0.105387348145145 l 1.517066684925673 -6.41011317015599" fill="#ff4806" stroke="none" /><path d="M 94.46302465271185 120.25689768951611 l -1.6926500593853482 6.192521535049917 a27.41968746790638,27.41968746790638 0 0,0 -0.454212126209388,-0.1283648838690714 l 1.79899335369935 -6.162467857842325" fill="#ff4606" stroke="none" /><path d="M 93.42475214034765 119.94407469862007 l -3.968340249613061 12.036789495568623 a33.67406902684888,33.67406902684888 0 0,0 -0.5489358591929272,-0.18622884741736467 l 4.174945841743214 -11.966697661253136" fill="#ff9b0e" stroke="none" /><path d="M 93.08242187328487 119.8279376855182 l -5.779235070753644 16.565091243469453 a38.54428128785837,38.54428128785837 0 0,0 -0.624564998659231,-0.22394678756091152 l 6.0635196300426015 -16.463156914868584" fill="#ffda14" stroke="none" /><path d="M 92.7421414339146 119.70592522655815 l -3.6787491820305034 9.988229399660922 a31.644149664700365,31.644149664700365 0 0,0 -0.5095156828739857,-0.1926552337390256 l 3.850135085664772 -9.923425915815264" fill="#ff800b" stroke="none" /><path d="M 91.07499286063937 119.00905698771935 l -8.723608077992438 18.580104251319018 a41.52612023467411,41.52612023467411 0 0,0 -0.6444207872180527,-0.30936113925141684 l 9.042141533210732 -18.42718883556804" fill="#feff18" stroke="none" /><path d="M 90.7491055286396 118.85261126421891 l -2.766543294945154 5.638002405789245 a27.280193701669663,27.280193701669663 0 0,0 -0.4197851424929486,-0.21048898504257113 l 2.863182345120863 -5.589545579837372" fill="#ff4406" stroke="none" /><path d="M 90.10565033884886 118.52300852407294 l -2.2126755413468993 4.1423043774468695 a25.696234513596004,25.696234513596004 0 0,0 -0.38835231692805194,-0.21176064748338738 l 2.2836506701435915 -4.103603078203716" fill="#ff2d04" stroke="none" /><line stroke="#e1ed5e" stroke-width="0.3" x1="58.666819895761336" x2="56.23545636021788" y1="174.27360380694188" y2="178.64263932499728" /><path d="M 58.180547188652646 175.14741091055294 a86.0,86.0 0 0,1 -31.652253787137756,-30.449443065178592" fill="none" id="id104" stroke="none" /><text fill="#e1ed5e" style="font-size:6.75px; font-family:Arial;" text-anchor="middle"><textPath startOffset="22.20632615414155" xlink:href="#id104">August</textPath></text><path d="M 89.4739219176387 118.17145234162733 l -3.912143716726344 6.753639156564406 a28.804902966558995,28.804902966558995 0 0,0 -0.4269052988144299,-0.25222317535385136 l 4.027816886569156 -6.685297408916806" fill="#ff5908" stroke="none" /><path d="M 88.8546689885994 117.79835938074946 l -5.0818193393074225 8.115330699152556 a30.575149093041155,30.575149093041155 0 0,0 -0.44365734922753064,-0.283163111197974 l 5.2207584905818765 -8.026653159130777" fill="#ff710a" stroke="none" /><path d="M 87.36589467227662 116.77436683061367 l -10.47515746390505 13.907920612503494 a38.41146690136432,38.41146690136432 0 0,0 -0.52472125478213,-0.40233388290478156 l 10.713007447180667 -13.725547387771345" fill="#ffd914" stroke="none" /><path d="M 86.79598089348748 116.32954008644616 l -17.79534764541802 22.007681175254685 a49.30216296562763,49.30216296562763 0 0,0 -0.6553193529078307,-0.5392832135287334 l 18.17153712687054 -21.69810284286877" fill="#a3ff21" stroke="none" /><path d="M 86.51685102203217 116.09983520530335 l -4.963228779033746 5.926446823307722 a28.730227154652248,28.730227154652248 0 0,0 -0.3764132074299121,-0.3207875014819144 l 5.064507463040714 -5.840134931602855" fill="#ff5808" stroke="none" /><path d="M 85.97065885151581 115.62618273729859 l -5.127060607944612 5.710630678733185 a28.67450670899609,28.67450670899609 0 0,0 -0.36443994092603604,-0.3329072452483335 l 5.224600098337503 -5.621530666898276" fill="#ff5708" stroke="none" /><path d="M 85.44109423537348 115.13401014063109 l -4.5319639892816985 4.710985157786246 a27.536977799949177,27.536977799949177 0 0,0 -0.33877045362112224,-0.331558190597173 l 4.612384395278615 -4.632276864266504" fill="#ff4706" stroke="none" /><path d="M 84.9287848128048 114.62390073753433 l -6.216280099000077 6.031780582744447 a29.66166931183576,29.66166931183576 0 0,0 -0.3523996270698499,-0.3694896001075945 l 6.3191862774488845 -5.923883866054352" fill="#ff6509" stroke="none" /><path d="M 84.67929136418377 114.36230785411682 l -9.375514687412943 8.789020888800726 a33.85095964656614,33.85095964656614 0 0,0 -0.3948530551532383,-0.42853500694333063 l 9.52541415056191 -8.626334627056051" fill="#ff9e0e" stroke="none" /><path d="M 83.28015986056508 112.70617746262583 l -6.969668065386274 5.296572129629648 a29.753853395278835,29.753853395278835 0 0,0 -0.30637788424453516,-0.41044324350383454 l 7.059807216325894 -5.175816006616505" fill="#ff6609" stroke="none" /><path d="M 83.06392112726016 112.41649034213515 l -15.449944658517126 11.326948231669776 a40.15725831621448,40.15725831621448 0 0,0 -0.4039059256751041,-0.5609900041521495 l 15.642630376567837 -11.05932462206649" fill="#ffef16" stroke="none" /><path d="M 82.6465618267979 111.8261652097733 l -7.269608409164418 4.954153130870432 a29.797206355810196,29.797206355810196 0 0,0 -0.2851974259501665,-0.4263314557006028 l 7.353808940525314 -4.828284760964008" fill="#ff6709" stroke="none" /><path d="M 82.05923443525364 110.91462005526583 l -16.77115247568701 10.2030627678871 a40.63094611087776,40.63094611087776 0 0,0 -0.35836325039091,-0.6006374206708166 l 16.944296601776156 -9.912863253330173" fill="#fff517" stroke="none" /><line stroke="#e1ed5e" stroke-width="0.3" x1="26.63291911575756" x2="22.317208475507996" y1="142.92168965132927" y2="145.44649492493687" /><path d="M 25.769776987707644 143.4266507060508 a86.0,86.0 0 0,1 -11.730757126820373,-40.83630448921669" fill="none" id="id105" stroke="none" /><text fill="#e1ed5e" style="font-size:6.75px; font-family:Arial;" text-anchor="middle"><textPath startOffset="21.46611528233685" xlink:href="#id105">September</textPath></text><path d="M 81.69416730710424 110.29060199501025 l -5.005460644795449 2.813813726008069 a26.742141059854546,26.742141059854546 0 0,0 -0.2221171553625646,-0.4032071552720976 l 5.053154209609531 -2.727236052338149" fill="#ff3c05" stroke="none" /><path d="M 81.35079622478065 109.6543875284942 l -5.566907044646213 2.88189665317155 a27.268634808576188,27.268634808576188 0 0,0 -0.2122036463585729,-0.4186979260306168 l 5.615689360791054 -2.785644515438248" fill="#ff4306" stroke="none" /><path d="M 80.87730276802145 108.67885076344099 l -5.192517579961349 2.35662807481294 a26.702274519979216,26.702274519979216 0 0,0 -0.1863550661359875,-0.4201814778359921 l 5.232313730828616 -2.2668982604842522" fill="#ff3b05" stroke="none" /><path d="M 80.73074385275274 108.34839909993369 l -6.355343121119629 2.7534503868071942 a27.9261732016873,27.9261732016873 0 0,0 -0.18730352831006467,-0.44273021235717847 l 6.401797630622 -2.6436456487838567" fill="#ff4d07" stroke="none" /><path d="M 80.58989483394504 108.01547362559985 l -8.36264765561599 3.45338580859416 a30.047637777617933,30.047637777617933 0 0,0 -0.19330272911891128,-0.4797615210316998 l 8.42085299899229 -3.308924919719655" fill="#ff6a09" stroke="none" /><path d="M 80.45479744820244 107.68017299344265 l -12.782740236163514 5.02290299032725 a34.734190998943916,34.734190998943916 0 0,0 -0.2138728376121474,-0.5583544907790153 l 12.86730735336917 -4.802124932715076" fill="#ffa90f" stroke="none" /><path d="M 80.20201598880116 107.00284435728193 l -7.121053969854323 2.518823764201776 a28.553402067723233,28.553402067723233 0 0,0 -0.15991151861565867,-0.4647777260197293 l 7.16335631941321 -2.39587333509275" fill="#ff5507" stroke="none" /><path d="M 80.0844068197444 106.66101706037122 l -9.33152034502913 3.121042675197007 a30.83962292621488,30.83962292621488 0 0,0 -0.1640488026950064,-0.5048902993477348 l 9.383861398740386 -2.959953475871469" fill="#ff750a" stroke="none" /><path d="M 79.97269907076064 106.31721596034903 l -5.07918703465308 1.6021290894003128 a26.325876317761296,26.325876317761296 0 0,0 -0.13259870974924004,-0.4333402555705188 l 5.10601251690845 -1.5144618612777463" fill="#ff3605" stroke="none" /><path d="M 79.76711848015287 105.62410040840567 l -5.5126261554402785 1.5323355193765658 a26.721634318408274,26.721634318408274 0 0,0 -0.11937180565245357,-0.4442268962344765 l 5.538186037434507 -1.4372176899665503" fill="#ff3c05" stroke="none" /><path d="M 79.4281124754447 104.21870165774334 l -28.10993829924651 5.764538774604147 a49.69492182375412,49.69492182375412 0 0,0 -0.16463233533559954,-0.8394567310194233 l 28.20500056755778 -5.279818316516769" fill="#9fff22" stroke="none" /><path d="M 79.35854240842038 103.8639653848113 l -8.209723580206585 1.5368143258317115 a29.352326594158157,29.352326594158157 0 0,0 -0.08869093085816092,-0.4974258408197962 l 8.234960953403935 -1.3952697342787017" fill="#ff6108" stroke="none" /><path d="M 79.23777060512086 103.15116336523772 l -40.2150198037474 6.103588142087185 a61.67556522070742,61.67556522070742 0 0,0 -0.15027089636214935,-1.0509942991618226 l 40.31412475112615 -5.410448370944962" fill="#31ff3f" stroke="none" /><line stroke="#e1ed5e" stroke-width="0.3" x1="15.007084014347285" x2="10.007500721073583" y1="101.09737516637583" y2="101.16192664675087" /><path d="M 14.007167355692545 101.11028546245083 a86.0,86.0 0 0,1 10.666146001902534,-42.60595125391555" fill="none" id="id106" stroke="none" /><text fill="#e1ed5e" style="font-size:6.75px; font-family:Arial;" text-anchor="middle"><textPath startOffset="22.20632615414155" xlink:href="#id106">October</textPath></text><path d="M 79.00486145842228 99.54816195383935 l -4.9986951719904225 -0.10757731631024964 a25.999852627974636,25.999852627974636 0 0,0 0.01348068283436131,-0.44735823414466414 l 4.996102794700416 0.1936056978799082" fill="#ff3104" stroke="none" /><path d="M 79.03285615573316 98.82574320788736 l -10.395817231752096 -0.5822137285181305 a31.41210779533466,31.41210779533466 0 0,0 0.034881513766327144,-0.5396015790416328 l 10.384255126981355 0.7610743718127749" fill="#ff7d0b" stroke="none" /><path d="M 79.3925641242962 95.95851677861259 l -17.367737169030192 -3.4061209160358374 a38.69858621662108,38.69858621662108 0 0,0 0.13382469419739568,-0.6525767357792828 l 17.306533178917803 3.7045733079785226" fill="#ffdc14" stroke="none" /><path d="M 79.71946130924805 94.55025226153421 l -5.389266468170658 -1.4481934230028863 a26.580453140684675,26.580453140684675 0 0,0 0.12253997658853343,-0.44084149423347335 l 5.363539721015764 1.5407462206553022" fill="#ff3a05" stroke="none" /><path d="M 80.02781315780177 93.51064311812611 l -12.283297392775493 -3.9910852575990607 a33.91542319758783,33.91542319758783 0 0,0 0.18518258127195375,-0.5536723475193014 l 12.212777517731768 4.201930708040684" fill="#ff9e0e" stroke="none" /><path d="M 80.14247586403 93.16781622104843 l -10.71709648182599 -3.6873263876818028 a32.33369017090469,32.33369017090469 0 0,0 0.1856060350548906,-0.5247332550776607 l 10.65203736596129 3.8712572691860743" fill="#ff890c" stroke="none" /><path d="M 80.2630227832202 92.82701384747504 l -10.280381806175978 -3.7361869311820106 a31.938251362328867,31.938251362328867 0 0,0 0.1922308773085719,-0.5150831800077097 l 10.214546340365779 3.912593248219062" fill="#ff840c" stroke="none" /><path d="M 80.95270993114464 91.15688171328213 l -8.514595382846164 -3.9530859173068356 a30.387503544776685,30.387503544776685 0 0,0 0.22434921115344547,-0.4725366548712876 l 8.445287977850967 4.099064987818656" fill="#ff6f0a" stroke="none" /><path d="M 81.10775173730289 90.83032412892265 l -4.41318267649556 -2.1420137053365504 a25.905548292491893,25.905548292491893 0 0,0 0.1981650924828875,-0.3994887342476476 l 4.375657571059259 2.2176620280831596" fill="#ff3004" stroke="none" /><path d="M 81.26839172434947 90.50648371742162 l -7.432549177759573 -3.7669497248588257 a29.33262848742391,29.33262848742391 0 0,0 0.23213362643946509,-0.44840827963174434 l 7.366606118159994 3.8943307267509057" fill="#ff6008" stroke="none" /><path d="M 81.43458229118936 90.18545643968196 l -6.454874301130713 -3.4123468697803614 a28.301336412130148,28.301336412130148 0 0,0 0.2313862020598143,-0.42872349094303464 l 6.395179999852426 3.5229513440558686" fill="#ff5207" stroke="none" /><line stroke="#e1ed5e" stroke-width="0.3" x1="26.266209847984243" x2="21.928928074336255" y1="57.711370442889674" y2="55.22380399835377" /><path d="M 25.398753493254645 57.213857153982495 a86.0,86.0 0 0,1 29.58750427330803,-30.492523968695096" fill="none" id="id107" stroke="none" /><text fill="#e1ed5e" style="font-size:6.75px; font-family:Arial;" text-anchor="middle"><textPath startOffset="21.46611528233685" xlink:href="#id107">November</textPath></text><path d="M 82.34701348167596 88.62581576622439 l -10.668976265484442 -6.8742420158444775 a33.691818539747246,33.691818539747246 0 0,0 0.31831286472363124,-0.4848123311644741 l 10.549066765402891 7.056872410986618" fill="#ff9c0e" stroke="none" /><path d="M 83.6137871275137 86.86637796730984 l -4.9889844865313275 -3.99869311371367 a27.393708847336683,27.393708847336683 0 0,0 0.2980716085350809,-0.3654005476802924 l 4.919414385919854 4.083977831002044" fill="#ff4506" stroke="none" /><path d="M 84.31358615837235 86.03803664274999 l -4.056429726859953 -3.610495284612593 a26.430497060966232,26.430497060966232 0 0,0 0.30540610445344707,-0.3372370485031473 l 3.9936799817904607 3.6797851203852963" fill="#ff3805" stroke="none" /><path d="M 85.57189188830299 84.74124197986013 l -8.151070229351276 -8.620340745437359 a32.863819808614096,32.863819808614096 0 0,0 0.4143847806527358,-0.38512549233186116 l 8.001477564903684 8.759370823843868" fill="#ff900d" stroke="none" /><path d="M 85.83668400450813 84.49514656593479 l -8.732464914015559 -9.559596682939507 a33.9476574025953,33.9476574025953 0 0,0 0.43483556372163906,-0.3903996625089379 l 8.566618362697948 9.708495354217723" fill="#ff9f0e" stroke="none" /><path d="M 86.10567301691215 84.25364557470407 l -6.861159845628996 -7.7757098151919815 a31.370013382698435,31.370013382698435 0 0,0 0.40796881863564993,-0.35378653932933773 l 6.7262972283465725 7.892661347941" fill="#ff7c0b" stroke="none" /><path d="M 86.37877921826538 84.01681056812374 l -4.993257192529657 -5.859105939850776 a28.698164703690342,28.698164703690342 0 0,0 0.37873714527304114,-0.3171814672689654 l 4.891662510297506 5.944188564513555" fill="#ff5708" stroke="none" /><path d="M 87.22198572758235 83.33499621200491 l -8.238220974389604 -10.744234653180389 a34.53908649449715,34.53908649449715 0 0,0 0.4749187652837,-0.3576989679131203 l 8.052056055347514 10.884450210599363" fill="#ffa70f" stroke="none" /><line stroke="#e1ed5e" stroke-width="0.3" x1="56.762969772571076" x2="54.21961505331055" y1="26.818313649435495" y2="22.513508569990535" /><path d="M 56.25429882871897 25.957352633546506 a86.0,86.0 0 0,1 42.265352541879196,-11.944610805530505" fill="none" id="id108" stroke="none" /><text fill="#e1ed5e" style="font-size:6.75px; font-family:Arial;" text-anchor="middle"><textPath startOffset="22.20632615414155" xlink:href="#id108">December</textPath></text><path d="M 89.3179101791058 81.91981866633112 l -7.0352992045306095 -11.907734112638446 a34.83074714520377,34.83074714520377 0 0,0 0.5188176913187601,-0.30053269417663836 l 6.829284780746529 12.027070964205132" fill="#ffab0f" stroke="none" /><path d="M 89.63071344664047 81.73862282372117 l -5.011568288819431 -8.825885782581553 a31.14948651709414,31.14948651709414 0 0,0 0.4685415442154831,-0.2607428620767516 l 4.858902655531903 8.91084404221849" fill="#ff790b" stroke="none" /><path d="M 91.56875222667455 80.76684994638697 l -2.358038236272724 -5.379097430142584 a26.873247269329866,26.873247269329866 0 0,0 0.4252579308816934,-0.1820732526977629 l 2.2650965476007223 5.4188902108031325" fill="#ff3e05" stroke="none" /><path d="M 93.94186890950719 79.89281104454417 l -3.9945783271486457 -13.258171541945408 a34.846868550231015,34.846868550231015 0 0,0 0.5758192508874391,-0.16809742933756383 l 3.7657688585377853 13.32496730020167" fill="#ffab0f" stroke="none" /><path d="M 94.28887869178378 79.79150937346287 l -2.588284573346515 -9.158503508590393 a30.51721616595347,30.51721616595347 0 0,0 0.5067341758135196,-0.13850959224422416 l 2.4302525083092728 9.201699641660912" fill="#ff710a" stroke="none" /><path d="M 94.63758080256005 79.69619591428918 l -1.5488033243932544 -5.8642560583087295 a27.06533518076802,27.06533518076802 0 0,0 0.451464111361153,-0.11508825425371637 l 1.447630324347102 5.890047308731309" fill="#ff4106" stroke="none" /><path d="M 94.98787191387505 79.60689891045804 l -2.4321817600896827 -9.895941933119325 a31.190445272792665,31.190445272792665 0 0,0 0.5224790400028506,-0.12365390814792553 l 2.261479033124298 9.93634175340812" fill="#ff7a0b" stroke="none" /><path d="M 95.33964822691252 79.52364482259891 l -1.3873032547754394 -6.095444199639648 a27.251323884716832,27.251323884716832 0 0,0 0.4582858717303184,-0.10016354109132418 l 1.2821746588915999 6.11842123882684" fill="#ff4306" stroke="none" /><path d="M 96.75951476605007 79.25152402106235 l -2.9446871832703927 -18.85451309805769 a40.08307749740974,40.08307749740974 0 0,0 0.6826167558550538,-0.10059996551984943 l 2.6197014469866904 18.90240754773851" fill="#ffee16" stroke="none" /><path d="M 97.11714578562143 79.19881850522333 l -1.355311740772189 -9.779226906859437 a30.87269713961279,30.87269713961279 0 0,0 0.5270193912280369,-0.06842224253920665 l 1.1867776210362944 9.801107472562782" fill="#ff760a" stroke="none" /><path d="M 98.19473922651362 79.07773832637324 l -0.5120647264172553 -5.934628590663685 a26.95667917493998,26.95667917493998 0 0,0 0.4626405541362108,-0.03590981105660415 l 0.40983398291871026 5.942563663908752" fill="#ff3f05" stroke="none" /></svg>