<?xml version="1.0" encoding="utf-8" ?>
<svg baseProfile="full" height="200mm" version="1.1" viewBox="0,0,200,200" width="200mm" xmlns="http://www.w3.org/2000/svg" xmlns:ev="http://www.w3.org/2001/xml-events" xmlns:xlink="http://www.w3.org/1999/xlink"><defs /><rect fill="#1a1a1a" height="200" width="200" x="0" y="0" /><text alignment-baseline="middle" fill="#e1ed5e" style="dominant-baseline: central; font-size:9.0px; font-family:Arial;" text-anchor="middle" x="100.0" y="100.0">2010</text><line stroke="#e1ed5e" stroke-width="0.3" x1="100.0" x2="100.0" y1="15.0" y2="10.0" /><path d="M 100.0 14.0 a86.0,86.0 0 0,1 42.46469731375804,11.215312516191453" fill="none" id="id1" stroke="none" /><text fill="#e1ed5e" style="font-size:6.75px; font-family:Arial;" text-anchor="middle"><textPath startOffset="22.20632615414155" xlink:href="#id1">January</textPath></text><line stroke="#e1ed5e" stroke-width="0.3" x1="143.23703022742887" x2="145.7803849466894" y1="26.81831364943548" y2="22.513508569990506" /><path d="M 143.74570117128098 25.957352633546492 a86.0,86.0 0 0,1 28.547481713284135,27.462654790039103" fill="none" id="id2" stroke="none" /><text fill="#e1ed5e" style="font-size:6.75px; font-family:Arial;" text-anchor="middle"><textPath startOffset="19.985693538727396" xlink:href="#id2">February</textPath></text><line stroke="#e1ed5e" stroke-width="0.3" x1="172.23445277983987" x2="176.4835382374775" y1="55.19839476539836" y2="52.563006222186495" /><path d="M 173.08426987136738 54.67131705675599 a86.0,86.0 0 0,1 12.851231095245387,41.99856678651699" fill="none" id="id3" stroke="none" /><text fill="#e1ed5e" style="font-size:6.75px; font-family:Arial;" text-anchor="middle"><textPath startOffset="22.20632615414155" xlink:href="#id3">March</textPath></text><line stroke="#e1ed5e" stroke-width="0.3" x1="184.98032266829074" x2="189.97916517819016" y1="98.17113171792111" y2="98.06355123074" /><path d="M 185.9800911702706 98.14961562048488 a86.0,86.0 0 0,1 -9.607161424134198,41.387399972396054" fill="none" id="id4" stroke="none" /><text fill="#e1ed5e" style="font-size:6.75px; font-family:Arial;" text-anchor="middle"><textPath startOffset="21.466115282336823" xlink:href="#id4">April</textPath></text><line stroke="#e1ed5e" stroke-width="0.3" x1="174.80103733775053" x2="179.2010983576182" y1="140.37084112569926" y2="142.7455964860345" /><path d="M 175.68104954172406 140.8457921977663 a86.0,86.0 0 0,1 -30.038265399797805,32.042727171017184" fill="none" id="id5" stroke="none" /><text fill="#e1ed5e" style="font-size:6.75px; font-family:Arial;" text-anchor="middle"><textPath startOffset="22.206326154141568" xlink:href="#id5">May</textPath></text><line stroke="#e1ed5e" stroke-width="0.3" x1="143.8653032363475" x2="146.44561519142675" y1="172.8068346515853" y2="177.08958963109032" /><path d="M 144.38136562736335 173.6633856474863 a86.0,86.0 0 0,1 -40.68145358897372,12.25698825130547" fill="none" id="id6" stroke="none" /><text fill="#e1ed5e" style="font-size:6.75px; font-family:Arial;" text-anchor="middle"><textPath startOffset="21.466115282336833" xlink:href="#id6">June</textPath></text><line stroke="#e1ed5e" stroke-width="0.3" x1="102.19456741930631" x2="102.32365962044197" y1="184.97166512339345" y2="189.96999836594603" /><path d="M 102.22038585953345 185.97133177190398 a86.0,86.0 0 0,1 -42.740103519485714,-10.115201625700543" fill="none" id="id7" stroke="none" /><text fill="#e1ed5e" style="font-size:6.75px; font-family:Arial;" text-anchor="middle"><textPath startOffset="22.20632615414155" xlink:href="#id7">July</textPath></text><line stroke="#e1ed5e" stroke-width="0.3" x1="58.666819895761336" x2="56.23545636021788" y1="174.27360380694188" y2="178.64263932499728" /><path d="M 58.180547188652646 175.14741091055294 a86.0,86.0 0 0,1 -31.652253787137756,-30.449443065178592" fill="none" id="id8" stroke="none" /><text fill="#e1ed5e" style="font-size:6.75px; font-family:Arial;" text-anchor="middle"><textPath startOffset="22.20632615414155" xlink:href="#id8">August</textPath></text><line stroke="#e1ed5e" stroke-width="0.3" x1="26.63291911575756" x2="22.317208475507996" y1="142.92168965132927" y2="145.44649492493687" /><path d="M 25.769776987707644 143.4266507060508 a86.0,86.0 0 0,1 -11.730757126820373,-40.83630448921669" fill="none" id="id9" stroke="none" /><text fill="#e1ed5e" style="font-size:6.75px; font-family:Arial;" text-anchor="middle"><textPath startOffset="21.46611528233685" xlink:href="#id9">September</textPath></text><path d="M 79.1416061653843 102.43462659150553 l -29.192313409245106 3.4073756137331617 a50.39049796714331,50.39049796714331 0 0,0 -0.09314491225240129,-0.8624062053070818 l 29.24664062299856 -2.9043730865412978" fill="#d0ff1d" stroke="none" /><path d="M 79.10278846688536 102.07522291339032 l -29.961885792485738 2.975401374792075 a51.10926125933802,51.10926125933802 0 0,0 -0.07940287059839694,-0.8762040605188302 l 30.00866325936121 -2.4592159257246786" fill="#c7ff1e" stroke="none" /><path d="M 79.04373962182676 101.35467743843564 l -27.060378037829796 1.749266469392038 a48.11685809106948,48.11685809106948 0 0,0 -0.04631510884987205,-0.8269873812448105 l 27.086479497567197 -1.2832073718117898" fill="#efff19" stroke="none" /><line stroke="#e1ed5e" stroke-width="0.3" x1="15.007084014347285" x2="10.007500721073583" y1="101.09737516637583" y2="101.16192664675087" /><path d="M 14.007167355692545 101.11028546245083 a86.0,86.0 0 0,1 10.666146001902534,-42.60595125391555" fill="none" id="id10" stroke="none" /><text fill="#e1ed5e" style="font-size:6.75px; font-family:Arial;" text-anchor="middle"><textPath startOffset="22.20632615414155" xlink:href="#id10">October</textPath></text><path d="M 79.16333360222342 97.38593545837743 l -22.864714859894402 -2.8684934158152244 a44.04394584486023,44.04394584486023 0 0,0 0.10084805397623685,-0.7514351399671847 l 22.81195080686033 3.261646897847069" fill="#ffd513" stroke="none" /><path d="M 79.81627453868168 94.20196356495316 l -20.252089074984088 -5.817674768100139 a42.07112838954001,42.07112838954001 0 0,0 0.20593637620480773,-0.6943150841060935 l 20.148946801667574 6.165419238952772" fill="#ffb711" stroke="none" /><path d="M 80.65960295795068 91.81776055985345 l -47.05868580855144 -19.908869201963093 a72.09680012416467,72.09680012416467 0 0,0 0.493379998497992,-1.1387890606549713 l 46.70901510021076 20.715957407204662" fill="#3cffa3" stroke="none" /><path d="M 80.95270993114464 91.15688171328213 l -18.514339438514963 -8.595684376274768 a41.412411781587316,41.412411781587316 0 0,0 0.30574548190411555,-0.6439779597092723 l 18.363635762769096 8.913104751624573" fill="#ffae10" stroke="none" /><line stroke="#e1ed5e" stroke-width="0.3" x1="26.266209847984243" x2="21.928928074336255" y1="57.711370442889674" y2="55.22380399835377" /><path d="M 25.398753493254645 57.213857153982495 a86.0,86.0 0 0,1 29.58750427330803,-30.492523968695096" fill="none" id="id11" stroke="none" /><text fill="#e1ed5e" style="font-size:6.75px; font-family:Arial;" text-anchor="middle"><textPath startOffset="21.46611528233685" xlink:href="#id11">November</textPath></text><line stroke="#e1ed5e" stroke-width="0.3" x1="56.762969772571076" x2="54.21961505331055" y1="26.818313649435495" y2="22.513508569990535" /><path d="M 56.25429882871897 25.957352633546506 a86.0,86.0 0 0,1 42.265352541879196,-11.944610805530505" fill="none" id="id12" stroke="none" /><text fill="#e1ed5e" style="font-size:6.75px; font-family:Arial;" text-anchor="middle"><textPath startOffset="22.20632615414155" xlink:href="#id12">December</textPath></text><path d="M 90.26544431104013 81.39251694778311 l -4.437395450123824 -8.4820266350529 a30.572630475398412,30.572630475398412 0 0,0 0.46840110582302796,-0.23993323920020743 l 4.2907338567120314 8.557152399565613" fill="#ff0000" stroke="none" /><path d="M 90.91171255644093 81.06846463323043 l -7.349989411158753 -15.310539565003294 a37.98337322547194,37.98337322547194 0 0,0 0.591856539414928,-0.27788458118506915 l 7.085354660444217 15.43478912882837" fill="#ff790b" stroke="none" /><path d="M 91.56875222667455 80.76684994638697 l -8.446900174751285 -19.268855917491788 a42.038985976782996,42.038985976782996 0 0,0 0.665249421243355,-0.2848250842258332 l 8.113966995717622 19.411400529680407" fill="#ffb711" stroke="none" /><path d="M 97.47563105711357 79.15227682838746 l -4.854816952036174 -40.09393323829033 a61.386789054767156,61.386789054767156 0 0,0 1.0501037425284556,-0.1179913909379608 l 4.163946505998001 40.171560582698895" fill="#47ff2c" stroke="none" /><path d="M 97.83486435360386 79.11191278185805 l -5.432349506448153 -52.40844400626438 a73.68923442524057,73.68923442524057 0 0,0 1.2628049463619635,-0.11991854578932425 l 4.529419432995954 52.494188096568884" fill="#3effb7" stroke="none" /><path d="M 99.27714615592234 79.0124445844662 l -2.1685615322329856 -62.9626662466014 a84.0,84.0 0 0,0 1.445493459220484,-0.03733283143056143 l 1.0844414378176228 62.990665870174325" fill="#4dd2ff" stroke="none" /><path d="M 99.63851952072746 79.00311137660856 l -0.7473278266560769 -43.409146665505176 a64.41557915204902,64.41557915204902 0 0,0 1.108808305928602,-0.009543863152402746 l 1.0633750008337078e-14 43.41557915204902" fill="#31ff3d" stroke="none" /></svg>