<?xml version="1.0" encoding="utf-8" ?>
<svg baseProfile="full" height="200mm" version="1.1" viewBox="0,0,200,200" width="200mm" xmlns="http://www.w3.org/2000/svg" xmlns:ev="http://www.w3.org/2001/xml-events" xmlns:xlink="http://www.w3.org/1999/xlink"><defs /><rect fill="#1a1a1a" height="200" width="200" x="0" y="0" /><text alignment-baseline="middle" fill="#e1ed5e" style="dominant-baseline: central; font-size:9.0px; font-family:Arial;" text-anchor="middle" x="100.0" y="100.0">2011</text><line stroke="#e1ed5e" stroke-width="0.3" x1="100.0" x2="100.0" y1="15.0" y2="10.0" /><path d="M 100.0 14.0 a86.0,86.0 0 0,1 42.46469731375804,11.215312516191453" fill="none" id="id13" stroke="none" /><text fill="#e1ed5e" style="font-size:6.75px; font-family:Arial;" text-anchor="middle"><textPath startOffset="22.20632615414155" xlink:href="#id13">January</textPath></text><path d="M 100.0 79.0 l 0.0 -14.04287215917158 a35.04287215917158,35.04287215917158 0 0,0 0.603205439199204,0.0051919796539412035 l -0.24172495992667561 14.040791556126198" fill="#ff820c" stroke="none" /><path d="M 100.36148047927253 79.00311137660856 l 0.20003867877029466 -11.619409897217812 a32.621131693280454,32.621131693280454 0 0,0 0.5613527677977189,0.014498085840230764 l -0.40001808176288134 11.614245019235222" fill="#ff5f08" stroke="none" /><path d="M 100.72285384407766 79.0124445844662 l 0.6586642078796908 -19.12385425679291 a40.13519375845978,40.13519375845978 0 0,0 0.6902472937951538,0.029723500444571324 l -0.9877523340641762 19.109683029824144" fill="#ffca12" stroke="none" /><path d="M 101.08401301168833 79.027996857942 l 0.4383882336813471 -8.481336769092078 a29.492659043796795,29.492659043796795 0 0,0 0.5067652696969298,0.030569464984041117 l -0.5843155522178888 8.472534034727733" fill="#ff2f04" stroke="none" /><path d="M 101.44485096284872 79.0497635885617 l 0.8575150188057394 -12.433906909622372 a33.463441460713504,33.463441460713504 0 0,0 0.5743120285781017,0.04457766672072029 l -1.0714172367461823 12.417303980713188" fill="#ff6b09" stroke="none" /><path d="M 101.80526077348638 79.07773832637324 l 1.1527049782395715 -13.359396903442754 a34.40903480458508,34.40903480458508 0 0,0 0.5896641441546391,0.0559957156288084 l -1.3824942494844548 13.337575643298766" fill="#ff790b" stroke="none" /><path d="M 102.52436894288641 79.15227682838746 l 2.0144677779938167 -16.63665950735726 a37.758177704998715,37.758177704998715 0 0,0 0.6445595516964503,0.08368232879319756 l -2.300542058198113 16.599518855399925" fill="#ffa90f" stroke="none" /><path d="M 103.2404852339499 79.25152402106235 l 1.5000595293279229 -9.604718696187113 a30.721152186053555,30.721152186053555 0 0,0 0.5217779875489597,0.08609783871189385 l -1.6651667230157576 9.577474594535596" fill="#ff4206" stroke="none" /><line stroke="#e1ed5e" stroke-width="0.3" x1="143.23703022742887" x2="145.7803849466894" y1="26.81831364943548" y2="22.513508569990506" /><path d="M 143.74570117128098 25.957352633546492 a86.0,86.0 0 0,1 28.547481713284135,27.462654790039103" fill="none" id="id14" stroke="none" /><text fill="#e1ed5e" style="font-size:6.75px; font-family:Arial;" text-anchor="middle"><textPath startOffset="19.985693538727396" xlink:href="#id14">February</textPath></text><path d="M 115.9244219780498 86.31012108654704 l 12.346497669687626 -10.614015273912763 a37.28168679659621,37.28168679659621 0 0,0 0.41416294480682725,0.4902382929338451 l -12.52737122798157 10.399918031349811" fill="#ffa20f" stroke="none" /><line stroke="#e1ed5e" stroke-width="0.3" x1="172.23445277983987" x2="176.4835382374775" y1="55.19839476539836" y2="52.563006222186495" /><path d="M 173.08426987136738 54.67131705675599 a86.0,86.0 0 0,1 12.851231095245387,41.99856678651699" fill="none" id="id15" stroke="none" /><text fill="#e1ed5e" style="font-size:6.75px; font-family:Arial;" text-anchor="middle"><textPath startOffset="22.20632615414155" xlink:href="#id15">March</textPath></text><path d="M 118.89224826269711 90.83032412892265 l 16.48580998360622 -8.00166988702585 a39.32508258634888,39.32508258634888 0 0,0 0.2903348491195063,0.61151923686354 l -16.621103026567482 7.71670823452177" fill="#ffbe11" stroke="none" /><line stroke="#e1ed5e" stroke-width="0.3" x1="184.98032266829074" x2="189.97916517819016" y1="98.17113171792111" y2="98.06355123074" /><path d="M 185.9800911702706 98.14961562048488 a86.0,86.0 0 0,1 -9.607161424134198,41.387399972396054" fill="none" id="id16" stroke="none" /><text fill="#e1ed5e" style="font-size:6.75px; font-family:Arial;" text-anchor="middle"><textPath startOffset="21.466115282336823" xlink:href="#id16">April</textPath></text><line stroke="#e1ed5e" stroke-width="0.3" x1="174.80103733775053" x2="179.2010983576182" y1="140.37084112569926" y2="142.7455964860345" /><path d="M 175.68104954172406 140.8457921977663 a86.0,86.0 0 0,1 -30.038265399797805,32.042727171017184" fill="none" id="id17" stroke="none" /><text fill="#e1ed5e" style="font-size:6.75px; font-family:Arial;" text-anchor="middle"><textPath startOffset="22.206326154141568" xlink:href="#id17">May</textPath></text><path d="M 118.12598468904814 110.60418214915192 l 15.47924126230056 9.055766993739164 a38.93359489621096,38.93359489621096 0 0,0 -0.3433926834569602,0.575545889384114 l -15.321067703145372 -9.320874977009382" fill="#ffb911" stroke="none" /><path d="M 117.94076556474637 110.91462005526583 l 13.29285963040026 8.086974426492443 a36.55953959885278,36.55953959885278 0 0,0 -0.3317088119543235,0.5348202232554348 l -13.151686178777974 -8.314590981113152" fill="#ff980e" stroke="none" /><path d="M 117.75023020441432 111.22182372390056 l 15.382300737331171 9.724801614089905 a39.198542315446716,39.198542315446716 0 0,0 -0.3654706641939697,0.5672185868680558 l -15.212625209760152 -9.988141800879415" fill="#ffbd11" stroke="none" /><path d="M 117.35343817320211 111.8261652097733 l 14.285972778924178 9.735723409945258 a38.28795327837042,38.28795327837042 0 0,0 -0.3758401883534187,0.5414258228089165 l -14.116271683408621 -9.980190494941194" fill="#ffb010" stroke="none" /><path d="M 117.14729908036423 112.12312394758627 l 21.07848866951341 14.902471203813391 a46.8144597574943,46.8144597574943 0 0,0 -0.4708647576096158,0.6539899653242482 l -20.81884411952819 -15.26309477458877" fill="#dcff1b" stroke="none" /><path d="M 116.93607887273984 112.41649034213515 l 10.092899158295388 7.399492283000047 a33.51475526990828,33.51475526990828 0 0,0 -0.34510420126614066,0.46232347371855903 l -9.964033690334157 -7.572128636227921" fill="#ff6c09" stroke="none" /><path d="M 116.71984013943494 112.70617746262583 l 12.625554903287782 9.594741326918086 a36.85760693630675,36.85760693630675 0 0,0 -0.3882214946650994,0.5018286146387675 l -12.458526591404615 -9.810647935670106" fill="#ff9c0e" stroke="none" /><path d="M 116.498646956653 112.99209946851258 l 15.330305002444959 12.072071606701378 a40.51289738468674,40.51289738468674 0 0,0 -0.4361543061636869,0.5441695587295536 l -15.120232784226419 -12.334168999009183" fill="#ffcf13" stroke="none" /><path d="M 116.27256486870786 113.27417163493432 l 6.359557463299076 5.187741328497945 a29.207108578568253,29.207108578568253 0 0,0 -0.3211446763016673,0.38683945063736114 l -6.2693167871038655 -5.2964420362490765" fill="#ff2b04" stroke="none" /><path d="M 115.07121518719521 114.62390073753431 l 9.548866701869205 9.265455842122421 a34.30524435147235,34.30524435147235 0 0,0 -0.41486373394366843,0.420254772177732 l -9.38796234287 -9.428451108280818" fill="#ff770b" stroke="none" /><path d="M 114.81725581225074 114.88116024355365 l 10.563409424574601 10.608967703411844 a35.9711661003152,35.9711661003152 0 0,0 -0.4425310702435547,0.4331097926771317 l -10.379228401955253 -10.789227599011548" fill="#ff8f0d" stroke="none" /><path d="M 114.55890576462653 115.13401014063108 l 12.44499321801041 12.936594041227107 a38.950858519408975,38.950858519408975 0 0,0 -0.4871902263220124,0.4606687678681538 l -12.22046715729759 -13.14889744584118" fill="#ffb911" stroke="none" /><path d="M 114.29624159901734 115.38237550388516 l 13.259954547181747 14.26735821414903 a40.477779776046646,40.477779776046646 0 0,0 -0.5144541742289482,0.4699416905674046 l -13.012400823485935 -14.493492671303018" fill="#ffce13" stroke="none" /><path d="M 113.75828350139079 115.86535959552629 l 12.766642523974413 14.721849164535413 a40.486405624390656,40.486405624390656 0 0,0 -0.5304384722178608,0.4520511736409578 l -12.511338575179504 -14.939424728399318" fill="#ffce13" stroke="none" /><path d="M 113.20401910651253 116.32954008644616 l 20.54613713367752 25.409609546878514 a53.67708690260963,53.67708690260963 0 0,0 -0.7234712981211078,0.5747693542569782 l -20.10570834283906 -25.759512815140617" fill="#89ff24" stroke="none" /><path d="M 112.92097659922987 116.55440617244103 l 7.012213156509296 8.984075148585017 a32.396698628451354,32.396698628451354 0 0,0 -0.44255629181699657,0.3393332929968787 l -6.856528136198806 -9.103447783409267" fill="#ff5b08" stroke="none" /><path d="M 112.63410532772338 116.77436683061366 l 10.251421792254563 13.610865606865401 a38.039580726381246,38.039580726381246 0 0,0 -0.5264225656220332,0.3894348290610666 l -10.015614256213965 -13.785310384666237" fill="#ffad10" stroke="none" /><path d="M 112.04921762599082 117.19931262002967 l 10.720555495342305 15.302751692942975 a39.684338883262186,39.684338883262186 0 0,0 -0.5628431964129551,0.3871286827711044 l -10.455555414306467 -15.485021165079173" fill="#ffc312" stroke="none" /><path d="M 111.45004920935366 117.60387380957326 l 10.831500854001703 16.652886875487432 a40.86554937669787,40.86554937669787 0 0,0 -0.5929750744966457,0.3784647481883775 l -10.543243977458125 -16.83686605249962" fill="#ffd313" stroke="none" /><path d="M 111.1453310114006 117.79835938074945 l 11.199446743245925 17.884778639410335 a42.101964703209745,42.101964703209745 0 0,0 -0.617537183443065,0.3793417757634202 l -10.889930359870553 -18.074908882002134" fill="#ffe415" stroke="none" /><line stroke="#e1ed5e" stroke-width="0.3" x1="143.8653032363475" x2="146.44561519142675" y1="172.8068346515853" y2="177.08958963109032" /><path d="M 144.38136562736335 173.6633856474863 a86.0,86.0 0 0,1 -40.68145358897372,12.25698825130547" fill="none" id="id18" stroke="none" /><text fill="#e1ed5e" style="font-size:6.75px; font-family:Arial;" text-anchor="middle"><textPath startOffset="21.466115282336833" xlink:href="#id18">June</textPath></text><path d="M 110.5260780823613 118.17145234162733 l 11.07204533839606 19.11397033318105 a43.08922927295616,43.08922927295616 0 0,0 -0.6450072549699493,0.3662519530272428 l -10.741389316504913 -19.301725452002923" fill="#fff116" stroke="none" /><path d="M 110.21172684928248 118.3499491758327 l 11.31764864138414 20.337233890458315 a44.274283084233346,44.274283084233346 0 0,0 -0.6691260700859729,0.3648608844933734 l -10.965899759429519 -20.529035426711456" fill="#fdff18" stroke="none" /><path d="M 109.89434966115114 118.52300852407294 l 11.528376497173369 21.58203656014926 a45.46809691709183,45.46809691709183 0 0,0 -0.6935164327310244,0.362815019994048 l -11.15516916191585 -21.777280999088024" fill="#eeff19" stroke="none" /><path d="M 109.57404056367764 118.69057910512821 l 11.697915773258357 22.836838706815215 a46.658574308783024,46.658574308783024 0 0,0 -0.7179779029036562,0.360009025492661 l -11.303083962671941 -23.034815573217177" fill="#deff1b" stroke="none" /><path d="M 109.2508944713604 118.85261126421891 l 13.146975747768712 26.79252518122702 a50.84430225183867,50.84430225183867 0 0,0 -0.7890244765829268,0.3787796976982833 l -12.683838603185553 -27.014859155424865" fill="#abff21" stroke="none" /><path d="M 108.92500713936063 119.00905698771935 l 7.615421353223325 16.219816547876448 a38.91862414455687,38.91862414455687 0 0,0 -0.6088577901040843,0.27949674884798337 l -7.3350955673518206 -16.348500367058506" fill="#ffb911" stroke="none" /><path d="M 108.59647513512805 119.15986991738527 l 4.318733399337871 9.625616178548766 a31.55006848277755,31.55006848277755 0 0,0 -0.4974083517990313,0.21804920394468907 l -4.152404372881087 -9.69852993578791" fill="#ff4f07" stroke="none" /><path d="M 108.2653958097858 119.30500536409082 l 9.408652993782244 21.975244827209604 a44.90468858557271,44.90468858557271 0 0,0 -0.7131902497936706,0.2981135822551962 l -9.028991284491113 -22.133943452484772" fill="#f5ff19" stroke="none" /><path d="M 107.59598834532513 119.57807347666477 l 9.06425945192275 23.362428889258783 a46.05920754967013,46.05920754967013 0 0,0 -0.7416185562250783,0.2804166801870097 l -8.660770674937398 -23.514993819552423" fill="#e6ff1a" stroke="none" /><path d="M 107.2578585660854 119.70592522655815 l 9.073965117170959 24.636864507517018 a47.254750726475905,47.254750726475905 0 0,0 -0.7657079685494086,0.27455563493719315 l -8.648537587991814 -24.78940768349417" fill="#d7ff1c" stroke="none" /><path d="M 106.91757812671514 119.82793768551818 l 8.845028249434579 25.352611238193077 a47.85124617831079,47.85124617831079 0 0,0 -0.78004428016703,0.2646333716357914 l -8.407314236330322 -25.501107596726992" fill="#cfff1d" stroke="none" /><path d="M 106.57524785965236 119.94407469862006 l 9.351341567171337 28.364536018850007 a50.86627684647931,50.86627684647931 0 0,0 -0.83391301775894,0.26699261418127107 l -8.861707204321457 -28.521301479690987" fill="#aaff21" stroke="none" /><path d="M 105.88484417918355 120.15858648285463 l 9.0347902044456 30.948754825999924 a53.24054682101716,53.24054682101716 0 0,0 -0.8819393729571089,0.2492448762519653 l -8.500719663383885 -31.099688495590406" fill="#8eff24" stroke="none" /><path d="M 104.83641907484287 120.43548508189849 l 5.496994713557703 23.226637668455776 a44.86825607920717,44.86825607920717 0 0,0 -0.7531026761810358,0.1714037172069961 l -5.096371887983805 -23.317818119240457" fill="#f5ff19" stroke="none" /><path d="M 104.13013068566511 120.58985236759428 l 4.928103193447239 24.567967681392684 a46.05735894062302,46.05735894062302 0 0,0 -0.7786597148198395,0.14923198757096287 l -4.504475864055695 -24.649156867312115" fill="#e6ff1a" stroke="none" /><path d="M 103.7750983002368 120.6578951692458 l 3.754412389553052 20.544698812383082 a41.88492905619658,41.88492905619658 0 0,0 -0.7103505030087921,0.12350354027173827 l -3.40021291507221 -20.606280931175828" fill="#ffe115" stroke="none" /><path d="M 103.06178313531738 120.77559828337769 l 3.0445203031170545 20.658462075104048 a41.88159857828428,41.88159857828428 0 0,0 -0.7141239526797091,0.09897107272913123 l -2.6884677592505146 -20.70780771332578" fill="#ffe115" stroke="none" /><path d="M 102.34483914955558 120.86867818915974 l 2.3324192503506107 20.758143153227916 a41.88876939241058,41.88876939241058 0 0,0 -0.7172302877055133,0.07434385189839236 l -1.9747563660394947 -20.795216373582065" fill="#ffe115" stroke="none" /><path d="M 101.98527174616119 120.90594882070398 l 1.9745646921461435 20.793197947332654 a41.88674188571375,41.88674188571375 0 0,0 -0.7183689572111037,0.06198389636710394 l -1.616351417193498 -20.824106095978422" fill="#ffe115" stroke="none" /><path d="M 101.62511606390274 120.93702456842531 l 1.6164054098045928 20.824801704526088 a41.88743958654766,41.88743958654766 0 0,0 -0.7193414557396138,0.04960999840435867 l -1.2577011932860485 -20.84954004744673" fill="#ffe115" stroke="none" /><path d="M 100.90346689309514 120.98055641714683 l 0.8985151296523247 20.865565205990784 a41.88490222154912,41.88490222154912 0 0,0 -0.7205791783210876,0.02481820386886133 l -0.5392155996565848 -20.87794020828574" fill="#ffe115" stroke="none" /><line stroke="#e1ed5e" stroke-width="0.3" x1="102.19456741930631" x2="102.32365962044197" y1="184.97166512339345" y2="189.96999836594603" /><path d="M 102.22038585953345 185.97133177190398 a86.0,86.0 0 0,1 -42.740103519485714,-10.115201625700543" fill="none" id="id19" stroke="none" /><text fill="#e1ed5e" style="font-size:6.75px; font-family:Arial;" text-anchor="middle"><textPath startOffset="22.20632615414155" xlink:href="#id19">July</textPath></text><path d="M 100.54218724476979 120.99299961872073 l 0.5392854983784962 20.8806466235631 a41.88760953931489,41.88760953931489 0 0,0 -0.7209462181688007,0.012411742956194068 l -0.1797795903170276 -20.88683584379845" fill="#ffe115" stroke="none" /><path d="M 100.18074693466247 120.99922214144158 l 0.5422408039873879 62.99766642432473 a84.0,84.0 0 0,0 -1.4459754772996436,0.0 l 0.5422408039873445 -62.99766642432473" fill="#4dd2ff" stroke="none" /><path d="M 99.45781275523022 120.99299961872073 l -0.5392340750896747 20.878655560341425 a41.885617812148,41.885617812148 0 0,0 -0.7205914891934827,-0.024818627880197817 l 0.8985459159578004 -20.866280134035133" fill="#ffe115" stroke="none" /><path d="M 99.09653310690486 120.98055641714683 l -0.8988494176193332 20.873328133005714 a41.89267234280197,41.89267234280197 0 0,0 -0.7201787886569405,-0.03722501719830691 l 1.2580162746897627 -20.854763309045207" fill="#ffe115" stroke="none" /><path d="M 98.37488393609728 120.93702456842531 l -1.6165463905113246 20.82661801573387 a41.8892613609473,41.8892613609473 0 0,0 -0.7184121668930882,-0.061987624680282426 l 1.9748028751459545 -20.79570613877493" fill="#ffe115" stroke="none" /><path d="M 97.65516085044442 120.86867818915974 l -2.6647162526187085 23.715531170597824 a44.864767575037625,44.864767575037625 0 0,0 -0.7667016549454392,-0.09283689303968497 l 3.072545330615537 -23.66614874883279" fill="#f5ff19" stroke="none" /><path d="M 97.2962882734958 120.8252237178851 l -3.836238262619008 29.548460832933305 a50.796447130538496,50.796447130538496 0 0,0 -0.8661312088921701,-0.1200378933468998 l 4.34429806269801 -29.4780483740938" fill="#abff21" stroke="none" /><path d="M 96.58105272829116 120.7198165907248 l -5.10768819797738 30.9540786254376 a52.3726546896741,52.3726546896741 0 0,0 -0.8882178492603142,-0.15442805833395773 l 5.639755018709744 -30.861571988582636" fill="#98ff23" stroke="none" /><path d="M 95.86986931433489 120.58985236759428 l -4.109136007796575 20.48518804805628 a41.89325077853607,41.89325077853607 0 0,0 -0.7058185635202882,-0.14791114253102963 l 4.46114603274625 -20.41142092479871" fill="#ffe115" stroke="none" /><path d="M 95.16358092515715 120.4354850818985 l -5.084199773937521 21.48244124958669 a43.07587754503204,43.07587754503204 0 0,0 -0.7200783485231997,-0.17697773864782368 l 5.453231407203932 -21.391742252624834" fill="#fff116" stroke="none" /><path d="M 94.81253420990036 120.34920634021253 l -5.895640283159837 23.127208059599397 a44.86684576940188,44.86684576940188 0 0,0 -0.7467329236813741,-0.19721895209418064 l 6.2928636496527 -23.022297758201635" fill="#f5ff19" stroke="none" /><path d="M 94.11515582081647 120.15858648285463 l -4.668849892250859 15.993187153761362 a37.660738118451064,37.660738118451064 0 0,0 -0.6207297116118135,-0.18702077018517144 l 4.943454578302918 -15.910451014470464" fill="#ffa70f" stroke="none" /><path d="M 93.76903079525671 120.05430185196036 l -7.0821767960812085 22.793903575938707 a44.86879277215633,44.86879277215633 0 0,0 -0.735588934428158,-0.23551234767096788 l 7.473487075600307 -22.66861838160803" fill="#f5ff19" stroke="none" /><path d="M 93.08242187328487 119.8279376855182 l -6.388843417297149 18.31241900564627 a40.39489649493123,40.39489649493123 0 0,0 -0.6545520536958055,-0.2346990786087119 l 6.703115031622682 -18.1997323859976" fill="#ffcd13" stroke="none" /><path d="M 92.7421414339146 119.70592522655815 l -6.188582480679621 16.80271701525265 a38.90614007023389,38.90614007023389 0 0,0 -0.626444026334176,-0.23686752807503994 l 6.476896727774079 -16.69370123707098" fill="#ffb911" stroke="none" /><path d="M 92.40401165467489 119.57807347666478 l -7.556220617383959 19.475575228347807 a41.89005745548856,41.89005745548856 0 0,0 -0.6699994010806779,-0.2666065889017725 l 7.890341094506495 -19.342621795039967" fill="#ffe115" stroke="none" /><path d="M 91.07499286063937 119.00905698771935 l -11.422406562014713 24.32817967356738 a47.87622923509423,47.87622923509423 0 0,0 -0.7429646005539843,-0.35666815815033903 l 11.839483830568938 -24.127957238917478" fill="#cfff1d" stroke="none" /><path d="M 90.10565033884886 118.52300852407294 l -12.652489889019686 23.686466123716095 a47.85394156956657,47.85394156956657 0 0,0 -0.7232261626834006,-0.3943605685121638 l 13.058338863571725 -23.465164903444165" fill="#cfff1d" stroke="none" /><line stroke="#e1ed5e" stroke-width="0.3" x1="58.666819895761336" x2="56.23545636021788" y1="174.27360380694188" y2="178.64263932499728" /><path d="M 58.180547188652646 175.14741091055294 a86.0,86.0 0 0,1 -31.652253787137756,-30.449443065178592" fill="none" id="id20" stroke="none" /><text fill="#e1ed5e" style="font-size:6.75px; font-family:Arial;" text-anchor="middle"><textPath startOffset="22.20632615414155" xlink:href="#id20">August</textPath></text><path d="M 89.7882731507175 118.34994917583269 l -11.6067700245302 20.85677018090945 a44.86884942307874,44.86884942307874 0 0,0 -0.6716465782367372,-0.38137845602175513 l 11.964065369688143 -20.653888559093062" fill="#f5ff19" stroke="none" /><path d="M 87.07902340077011 116.55440617244103 l -12.22127147757311 15.657941211306914 a40.86279435289218,40.86279435289218 0 0,0 -0.5507575127722659,-0.43755507756895784 l 12.488986483062735 -15.445252219732826" fill="#ffd313" stroke="none" /><path d="M 85.44109423537348 115.13401014063109 l -14.481299701213935 15.053338490601309 a41.888059765066686,41.888059765066686 0 0,0 -0.5153229635805027,-0.5043519809700172 l 14.738272617170232 -14.801836406708723" fill="#ffe115" stroke="none" /><path d="M 85.18274418774928 114.88116024355367 l -4.285982965024622 4.304467717358283 a27.07437999356814,27.07437999356814 0 0,0 -0.32741869619883524,-0.33167341061548167 l 4.35944228627899 -4.2300538127621365" fill="#ff0a01" stroke="none" /><path d="M 84.9287848128048 114.62390073753433 l -14.988139262992302 14.543290511077325 a41.884243281872656,41.884243281872656 0 0,0 -0.49761163329891145,-0.521743808088815 l 15.236257447670171 -14.283139586406008" fill="#ffe115" stroke="none" /><path d="M 84.67929136418377 114.36230785411682 l -6.542749757259516 6.133462130239314 a29.968106382575936,29.968106382575936 0 0,0 -0.34956168114181413,-0.37938016560893534 l 6.6473578463970595 -6.019930709829034" fill="#ff3705" stroke="none" /><path d="M 83.72743513129214 113.27417163493432 l -18.520644650106536 15.10801879474481 a44.901182191638185,44.901182191638185 0 0,0 -0.4833977629090789,-0.6031130350329834 l 18.777960325070477 -14.786977926133567" fill="#f5ff19" stroke="none" /><path d="M 83.50135304334701 112.99209946851258 l -18.749130990385797 14.764275847301377 a44.864487302053064,44.864487302053064 0 0,0 -0.4725580352486034,-0.6108449620230246 l 19.00049584285247 -14.4393528911651" fill="#f5ff19" stroke="none" /><path d="M 83.06392112726016 112.41649034213515 l -19.26092989740536 14.120927981542089 a44.88271399093206,44.88271399093206 0 0,0 -0.4514350556148046,-0.627003808623214 l 19.501144745395774 -13.787290567467736" fill="#f5ff19" stroke="none" /><path d="M 82.6465618267979 111.8261652097733 l -22.190953604111854 15.122875413236686 a47.854045926528904,47.854045926528904 0 0,0 -0.4580245059411713,-0.6846844908010116 l 22.447981215463756 -14.738654008229854" fill="#cfff1d" stroke="none" /><path d="M 82.44556493220864 111.52570212397912 l -16.20654683187867 10.640720166795571 a40.38754976478272,40.38754976478272 0 0,0 -0.37655646781247615,-0.5844240002673838 l 16.387308163068187 -10.360174566606739" fill="#ffcd13" stroke="none" /><path d="M 82.24976979558568 111.22182372390057 l -20.1740992665206 12.754211249669577 a44.86763888231563,44.86763888231563 0 0,0 -0.4070891305566686,-0.6563572984583752 l 20.390653036745224 -12.405057619845937" fill="#f5ff19" stroke="none" /><line stroke="#e1ed5e" stroke-width="0.3" x1="26.63291911575756" x2="22.317208475507996" y1="142.92168965132927" y2="145.44649492493687" /><path d="M 25.769776987707644 143.4266507060508 a86.0,86.0 0 0,1 -11.730757126820373,-40.83630448921669" fill="none" id="id21" stroke="none" /><text fill="#e1ed5e" style="font-size:6.75px; font-family:Arial;" text-anchor="middle"><textPath startOffset="21.46611528233685" xlink:href="#id21">September</textPath></text><path d="M 81.87401531095188 110.60418214915194 l -15.497307711776232 9.066336346208299 a38.95452592122824,38.95452592122824 0 0,0 -0.3336139870363513,-0.5816841068045394 l 15.65107369496496 -8.798232393545453" fill="#ffb911" stroke="none" /><path d="M 81.69416730710424 110.29060199501025 l -19.285584694131625 10.841368412887862 a43.12394734351189,43.12394734351189 0 0,0 -0.35818255877519417,-0.6502053853340841 l 19.469343662358334 -10.507792509155955" fill="#fff216" stroke="none" /><path d="M 81.35079622478065 109.6543875284942 l -22.929398779149924 11.870174420177964 a46.81972829327856,46.81972829327856 0 0,0 -0.36434963228253076,-0.7188963903520147 l 23.130327081218724 -11.473723818123265" fill="#dcff1b" stroke="none" /><path d="M 80.87730276802145 108.67885076344099 l -21.73037141419607 9.862345685344454 a44.86367331774683,44.86367331774683 0 0,0 -0.31310339506758084,-0.7059654989951283 l 21.89691589399493 -9.48683184985663" fill="#f5ff19" stroke="none" /><path d="M 79.67330655649465 105.27499134158121 l -17.331648566152744 4.497745606086042 a38.90574649540451,38.90574649540451 0 0,0 -0.16264211196196163,-0.6496743896857546 l 17.406501992409765 -4.198743377002896" fill="#ffb911" stroke="none" /><path d="M 79.58551787078972 104.9243191809786 l -14.605570968233813 3.523111329143486 a36.02448058155934,36.02448058155934 0 0,0 -0.14022003120868407,-0.604064224547843 l 14.664051565373054 -3.2711784472470686" fill="#ff900d" stroke="none" /><path d="M 79.35854240842038 103.8639653848113 l -17.596927099272325 3.29404630893766 a38.90258597025945,38.90258597025945 0 0,0 -0.11754797533421554,-0.6592714711811661 l 17.65102151694573 -2.9906560870232806" fill="#ffb911" stroke="none" /><path d="M 79.29508885075956 103.50808413554451 l -17.639680038170123 2.9887344723165308 a38.891082851382436,38.891082851382436 0 0,0 -0.10615088762052052,-0.6610016785419269 l 17.688512680151934 -2.68465356408139" fill="#ffb811" stroke="none" /><line stroke="#e1ed5e" stroke-width="0.3" x1="15.007084014347285" x2="10.007500721073583" y1="101.09737516637583" y2="101.16192664675087" /><path d="M 14.007167355692545 101.11028546245083 a86.0,86.0 0 0,1 10.666146001902534,-42.60595125391555" fill="none" id="id22" stroke="none" /><text fill="#e1ed5e" style="font-size:6.75px; font-family:Arial;" text-anchor="middle"><textPath startOffset="22.20632615414155" xlink:href="#id22">October</textPath></text><path d="M 79.81627453868168 94.20196356495316 l -5.225027134048341 -1.5009566868802398 a26.43633879807283,26.43633879807283 0 0,0 0.12940474906661295,-0.43628848330592185 l 5.198416487870021 1.5906745569327008" fill="#ff0000" stroke="none" /><path d="M 79.91906864156998 93.8553929516997 l -19.980017298663427 -6.113728139755354 a41.89446728255416,41.89446728255416 0 0,0 0.21694255130619827,-0.687767172538789 l 19.871819263589025 6.456745478720558" fill="#ffe115" stroke="none" /><line stroke="#e1ed5e" stroke-width="0.3" x1="26.266209847984243" x2="21.928928074336255" y1="57.711370442889674" y2="55.22380399835377" /><path d="M 25.398753493254645 57.213857153982495 a86.0,86.0 0 0,1 29.58750427330803,-30.492523968695096" fill="none" id="id23" stroke="none" /><text fill="#e1ed5e" style="font-size:6.75px; font-family:Arial;" text-anchor="middle"><textPath startOffset="21.46611528233685" xlink:href="#id23">November</textPath></text><path d="M 81.78341655067845 89.55222093294921 l -23.29593099850726 -13.360943390442872 a47.855450273079214,47.855450273079214 0 0,0 0.4159785462484312,-0.7110421769654898 l 23.062492777788503 13.759964979762254" fill="#cfff1d" stroke="none" /><path d="M 82.15384107792192 88.93136811851018 l -17.742491163121567 -11.004334557517817 a41.8780116804074,41.8780116804074 0 0,0 0.3852226752735214,-0.6093297608571446 l 17.550440891602083 11.308111966089177" fill="#ffe115" stroke="none" /><path d="M 82.7489923806493 88.02491185347247 l -14.713113942744055 -10.213364938557405 a38.91057076869197,38.91057076869197 0 0,0 0.3866735750311487,-0.5469223498991671 l 14.535127747909028 10.465113788788358" fill="#ffb911" stroke="none" /><path d="M 82.95767976084542 87.72973835380427 l -15.260998764450287 -10.987732022066737 a39.80500832962602,39.80500832962602 0 0,0 0.40513421377368225,-0.5526026122883205 l 15.069601938162972 11.248797078026557" fill="#ffc512" stroke="none" /><path d="M 83.17141714833178 87.43820079747576 l -15.783977645682937 -11.782047219890845 a40.69646128143724,40.69646128143724 0 0,0 0.42387120142801515,-0.557764815455523 l 15.578830504030813 12.051996811227395" fill="#ffd113" stroke="none" /><path d="M 84.5562425177563 85.77008943001954 l -17.56825611794367 -16.187428073529343 a44.888835272179996,44.888835272179996 0 0,0 0.5284755694270532,-0.5637408905712943 l 17.28701322654616 16.487438380978688" fill="#f5ff19" stroke="none" /><path d="M 84.80347519578584 85.50635884689758 l -19.441920777210658 -18.542675164376757 a47.86669100873664,47.86669100873664 0 0,0 0.5737979383418876,-0.5913492137240597 l 19.11985857516565 18.87458857365094" fill="#cfff1d" stroke="none" /><path d="M 86.37877921826538 84.01681056812374 l -19.351495222567646 -22.707114060371243 a50.8344330648291,50.8344330648291 0 0,0 0.6708752374701894,-0.5618387180423119 l 18.957762448138347 23.03685393580737" fill="#abff21" stroke="none" /><path d="M 86.65592168130627 83.78471172551755 l -15.168991264222884 -18.43286290053477 a44.871923481026435,44.871923481026435 0 0,0 0.600635485256682,-0.48567212434607765 l 14.849452380401702 18.69124112214498" fill="#f5ff19" stroke="none" /><path d="M 86.93701828274178 83.55741782278169 l -11.39008308788786 -14.336878151678917 a39.31065449089893,39.31065449089893 0 0,0 0.5334407983467675,-0.41635900440738727 l 11.141609734381667 14.530815545309526" fill="#ffbe11" stroke="none" /><path d="M 87.51073957382395 83.11751280151077 l -12.41659900204997 -16.784266365487678 a41.877823837875184,41.877823837875184 0 0,0 0.5832078915379927,-0.4237253358706908 l 12.125845794158197 16.995510936175034" fill="#ffe115" stroke="none" /><path d="M 88.09926311788651 82.69761687909137 l -13.881506604150363 -20.182207869953178 a45.49525954357435,45.49525954357435 0 0,0 0.6490555326671884,-0.43824519297835934 l 13.532046377076636 20.418164975230205" fill="#edff19" stroke="none" /><path d="M 88.39885842347998 82.49532879139004 l -11.535261363327743 -17.405266209241788 a41.88074583282062,41.88074583282062 0 0,0 0.6043450939091407,-0.3930828600309531 l 11.233949243634315 17.601247993432278" fill="#ffe115" stroke="none" /><path d="M 89.00827224532344 82.1063720568725 l -11.073045440338607 -18.02600644129525 a42.15535968839626,42.15535968839626 0 0,0 0.6215665938936582,-0.374486918064846 l 10.7611167802273 18.213939968818718" fill="#ffe515" stroke="none" /><line stroke="#e1ed5e" stroke-width="0.3" x1="56.762969772571076" x2="54.21961505331055" y1="26.818313649435495" y2="22.513508569990535" /><path d="M 56.25429882871897 25.957352633546506 a86.0,86.0 0 0,1 42.265352541879196,-11.944610805530505" fill="none" id="id24" stroke="none" /><text fill="#e1ed5e" style="font-size:6.75px; font-family:Arial;" text-anchor="middle"><textPath startOffset="22.20632615414155" xlink:href="#id24">December</textPath></text><path d="M 90.26544431104013 81.39251694778311 l -9.682378278811106 -18.50774657670904 a41.88743958654766,41.88743958654766 0 0,0 0.6417544947014743,-0.328731578065901 l 9.362363296520867 18.671670680087445" fill="#ffe115" stroke="none" /><path d="M 90.58718382345135 81.22770947309562 l -14.708880661869966 -29.334407039427848 a53.81552386721818,53.81552386721818 0 0,0 0.831651608371357,-0.40808783240454344 l 14.201757786488182 29.58325003196722" fill="#88ff25" stroke="none" /><path d="M 90.91171255644093 81.06846463323043 l -12.908646584143668 -26.88960938598384 a50.82757532158982,50.82757532158982 0 0,0 0.791994767239738,-0.3718521627094654 l 12.44387360560432 27.10782653133331" fill="#abff21" stroke="none" /><path d="M 91.23893434514133 80.91482961587045 l -12.44478166422331 -27.109804652961998 a50.82975190966141,50.82975190966141 0 0,0 0.7983124330335217,-0.35817951845326323 l 11.976287112723014 27.320004501931788" fill="#abff21" stroke="none" /><path d="M 91.90106846888425 80.62456947434976 l -11.507957920791462 -27.53099446880784 a50.83938256647136,50.83938256647136 0 0,0 0.8103219716745353,-0.33055067821905265 l 11.032352079528545 27.72500603321047" fill="#abff21" stroke="none" /><path d="M 92.23578459929587 80.48803036053334 l -11.028273270336243 -27.71475572496707 a50.828350544738605,50.828350544738605 0 0,0 0.8157147537559419,-0.3164846515682493 l 10.549575351580625 27.90048308042587" fill="#abff21" stroke="none" /><path d="M 92.57280143429618 80.3572730644239 l -10.744937662807962 -28.41715817655991 a51.38072685452497,51.38072685452497 0 0,0 0.8299643173193736,-0.30568286242572795 l 10.25419101971602 28.59790430679196" fill="#a4ff21" stroke="none" /><path d="M 93.25333710446033 80.11325718540243 l -9.586105179656624 -28.256400423911188 a50.83818991547322,50.83818991547322 0 0,0 0.831124946861175,-0.27400882771115176 l 9.09829741055304 28.417222975881575" fill="#abff21" stroke="none" /><path d="M 93.94186890950719 79.89281104454417 l -9.46712363357218 -31.421776934413028 a53.8169848646909,53.8169848646909 0 0,0 0.8892866762227771,-0.2596071666357277 l 8.924846739625982 31.580082429967455" fill="#87ff25" stroke="none" /><path d="M 94.63758080256005 79.69619591428918 l -6.3424287531031265 -24.014428206594367 a45.8378574876712,45.8378574876712 0 0,0 0.764599716174046,-0.19491349217560375 l 5.928120148244081 24.120044694938834" fill="#e9ff1a" stroke="none" /></svg>