<?xml version="1.0" encoding="utf-8" ?>
<svg baseProfile="full" height="200mm" version="1.1" viewBox="0,0,200,200" width="200mm" xmlns="http://www.w3.org/2000/svg" xmlns:ev="http://www.w3.org/2001/xml-events" xmlns:xlink="http://www.w3.org/1999/xlink"><defs /><rect fill="#1a1a1a" height="200" width="200" x="0" y="0" /><text alignment-baseline="middle" fill="#e1ed5e" style="dominant-baseline: central; font-size:9.0px; font-family:Arial;" text-anchor="middle" x="100.0" y="100.0">2016</text><line stroke="#e1ed5e" stroke-width="0.3" x1="100.0" x2="100.0" y1="15.0" y2="10.0" /><path d="M 100.0 14.0 a86.0,86.0 0 0,1 42.35913384403234,11.155469271406648" fill="none" id="id73" stroke="none" /><text fill="#e1ed5e" style="font-size:6.75px; font-family:Arial;" text-anchor="middle"><textPath startOffset="22.145653131862478" xlink:href="#id73">January</textPath></text><path d="M 101.80034050326958 79.07731436759882 l 1.0620354837031245 -12.342462170695445 a33.388070544023094,33.388070544023094 0 0,0 0.5706187188562799,0.05403818594573482 l -1.2737537659444171 12.322412229244526" fill="#ff900d" stroke="none" /><path d="M 102.87502721639298 79.19773525538626 l 2.127619031244936 -15.394391437853464 a36.54072232825655,36.54072232825655 0 0,0 0.6206265846404725,0.09121073549194146 l -2.391570721493091 15.35559962906264" fill="#ffba11" stroke="none" /><path d="M 103.58742460773223 79.30868818359171 l 1.5454277121908933 -8.913616362484147 a30.04659623677064,30.04659623677064 0 0,0 0.5074516219141985,0.09247458961568734 l -1.6982140676561452 8.885773598937094" fill="#ff6209" stroke="none" /><path d="M 105.3480935250658 79.69241777938227 l 3.184616534952297 -12.092507698598402 a33.50482006729218,33.50482006729218 0 0,0 0.5549333132257503,0.15124954219851103 l -3.39173124911274 12.036057662255748" fill="#ff910d" stroke="none" /><path d="M 106.38641147887787 79.99465700312896 l 2.435125844938238 -7.6279970261318635 a29.007257739785995,29.007257739785995 0 0,0 0.473063153288964,0.15550525471424695 l -2.5657117358749444 7.585070850015595" fill="#ff5307" stroke="none" /><path d="M 106.72888874123014 80.10723608172694 l 2.5657117358749444 -7.585070850015595 a29.007257739785995,29.007257739785995 0 0,0 0.4703239918666476,0.16360309874224474 l -2.6955414997866103 7.53990931870476" fill="#ff5307" stroke="none" /><path d="M 107.40779381753099 80.34994680014964 l 3.374298559208658 -8.950727819086088 a30.565637420372948,30.565637420372948 0 0,0 0.48938167215691514,0.1893033439059938 l -3.5274524938590988 8.891484587042056" fill="#ff6909" stroke="none" /><path d="M 107.74402155503746 80.48000691201159 l 4.2761012635946365 -10.77856854034828 a32.59580017918131,32.59580017918131 0 0,0 0.518343907322165,0.2108059545870365 l -4.460499632107241 10.70357532918195" fill="#ff850c" stroke="none" /><path d="M 110.02825361518725 81.54914285379988 l 6.4512148897965895 -11.869508781749472 a34.50938237945618,34.50938237945618 0 0,0 0.5180611122984298,0.2873597660427744 l -6.65402019025112 11.757016100273551" fill="#ff9f0e" stroke="none" /><line stroke="#e1ed5e" stroke-width="0.3" x1="143.13028292997686" x2="145.6673583964461" y1="26.7553504044142" y2="22.446841604673864" /><path d="M 143.63769802327073 25.89364864446614 a86.0,86.0 0 0,1 29.32050498858742,28.57503671076993" fill="none" id="id74" stroke="none" /><text fill="#e1ed5e" style="font-size:6.75px; font-family:Arial;" text-anchor="middle"><textPath startOffset="20.669276256404974" xlink:href="#id74">February</textPath></text><path d="M 111.8722381534696 82.67804972795209 l 7.354670572110354 -10.730684161701939 a34.00917990506961,34.00917990506961 0 0,0 0.4787276440520604,0.33418907541082016 l -7.537793307336175 10.602850270485993" fill="#ff980e" stroke="none" /><path d="M 112.7482090630111 83.31218511350987 l 4.542956415495469 -5.9468757787436575 a28.48356763321475,28.48356763321475 0 0,0 0.38600667093918434,0.3001611220627859 l -4.644373031069879 5.868013605060081" fill="#ff4c07" stroke="none" /><path d="M 113.31354834802062 83.75963576809568 l 5.053836291641681 -6.164858533516361 a28.97162103972486,28.97162103972486 0 0,0 0.3819089659395787,0.3186020424498558 l -5.158919591743152 6.0771943071546355" fill="#ff5307" stroke="none" /><path d="M 113.59037401385872 83.9905735841838 l 8.199741509187534 -9.659274879866164 a33.670333540294294,33.670333540294294 0 0,0 0.4374265672867193,0.37783865050668036 l -8.364347556237114 9.517092096894762" fill="#ff940d" stroke="none" /><path d="M 114.39649973595853 84.71141617570332 l 10.117112633850734 -10.744023019438446 a35.75770980498822,35.75770980498822 0 0,0 0.44327217641343514,0.42464471778177526 l -10.30005729612948 10.56876617135109" fill="#ffaf10" stroke="none" /><path d="M 114.65682725009322 84.96080404539774 l 6.687776409821474 -6.862247757421844 a30.582108201852332,30.582108201852332 0 0,0 0.37282222853018765,0.36963573290381857 l -6.804590558481624 6.746432014289366" fill="#ff6909" stroke="none" /><path d="M 115.16444852881244 85.47280134310134 l 8.634501141236425 -8.27165677298671 a32.9572118710053,32.9572118710053 0 0,0 0.38786584048747813,0.41190008152209595 l -8.775222815460165 8.12221523152012" fill="#ff8a0c" stroke="none" /><path d="M 116.1254893667686 86.54754324733833 l 1.7667464178152323 -1.4738826982552566 a23.300809230049104,23.300809230049104 0 0,0 0.25359400304007945,0.3093434499007778 l -1.7917872400939394 1.4433369666559837" fill="#ff0000" stroke="none" /><path d="M 117.42321728460499 88.27688183743584 l 13.970583971808107 -9.400032383585375 a37.8385814523016,37.8385814523016 0 0,0 0.3579810190704711,0.5420288893313716 l -14.129889429799302 9.158823615914944" fill="#ffcb12" stroke="none" /><path d="M 117.62189284568427 88.57770195909679 l 7.915236722141798 -5.130560814115244 a30.432583242933873,30.432583242933873 0 0,0 0.28038887883952884,0.4408178888906419 l -8.002143292607217 4.993929250545929" fill="#ff6709" stroke="none" /><line stroke="#e1ed5e" stroke-width="0.3" x1="172.87174338648825" x2="177.1583165268699" y1="56.24261187166439" y2="53.66864786411523" /><path d="M 173.72905801456457 55.72781907015455 a86.0,86.0 0 0,1 12.242430191666344,42.057860355516425" fill="none" id="id75" stroke="none" /><text fill="#e1ed5e" style="font-size:6.75px; font-family:Arial;" text-anchor="middle"><textPath startOffset="22.145653131862474" xlink:href="#id75">March</textPath></text><path d="M 118.00360718960297 89.18935116829356 l 8.389460348036618 -5.037629890221442 a30.785742682194908,30.785742682194908 0 0,0 0.2681676995120747,0.45540738083043053 l -8.47470175767846 4.892871341097455" fill="#ff6c09" stroke="none" /><path d="M 118.36410011445183 89.81374322990088 l 9.337399224703006 -5.179297949530286 a31.677647284467348,31.677647284467348 0 0,0 0.2596882996793338,0.47779722210720904 l -9.424932873997681 5.018245893948474" fill="#ff780b" stroke="none" /><path d="M 118.70294669586156 90.45014215332178 l 10.368140241312782 -5.294046283138382 a32.64153160505699,32.64153160505699 0 0,0 0.2505316617621388,0.5012311480311906 l -10.457491816286657 5.115283278943441" fill="#ff860c" stroke="none" /><path d="M 119.16976305983485 91.42560881287824 l 9.346298579084925 -4.180480474306124 a31.238638294493054,31.238638294493054 0 0,0 0.2147524257929511,0.4913955770106537 l -9.416684886894846 4.019422827519621" fill="#ff720a" stroke="none" /><path d="M 119.83427380445688 93.10060997987247 l 30.29684719546261 -10.538816154425229 a53.07749360411416,53.07749360411416 0 0,0 0.2919630617940353,0.86313691375778 l -30.47329567882901 10.017177566193288" fill="#7eff26" stroke="none" /><path d="M 120.51834098615036 95.52812308129327 l 14.661613558887176 -3.195430435103928 a36.00578847697557,36.00578847697557 0 0,0 0.1264356793269435,0.6050404958105825 l -14.714306949038486 2.943273488007941" fill="#ffb310" stroke="none" /><path d="M 120.7213421655516 96.59031103205396 l 12.964432907492123 -2.1332925013825137 a34.13877686504035,34.13877686504035 0 0,0 0.0901889714617691,0.5790778939872798 l -12.999143371092156 1.9104264254637924" fill="#ff9a0e" stroke="none" /><path d="M 120.86939407059847 97.66154086499901 l 14.089242567660229 -1.5787290170540615 a35.177416599636814,35.177416599636814 0 0,0 0.06209250819163155,0.6006886909713858 l -14.114267468333527 1.3366358037997443" fill="#ffa80f" stroke="none" /><path d="M 120.9064616781168 98.02013634271609 l 14.953888549160839 -1.416148793104837 a36.0207942581255,36.0207942581255 0 0,0 0.053012964669937074,0.6160910073490612 l -14.975995136528518 1.159236738380114" fill="#ffb310" stroke="none" /><path d="M 120.96210409425399 98.7389718711861 l 9.099132806411824 -0.5473812344937277 a30.115582485206076,30.115582485206076 0 0,0 0.02661415921499542,0.5163075787411374 l -9.107188555083392 0.39110186237585964" fill="#ff6309" stroke="none" /><line stroke="#e1ed5e" stroke-width="0.3" x1="184.99686870605535" x2="189.99668451229388" y1="99.2704041080226" y2="99.22748670261217" /><path d="M 185.99683186730306 99.26182062694052 a86.0,86.0 0 0,1 -10.086455211305974,41.156179273409016" fill="none" id="id76" stroke="none" /><text fill="#e1ed5e" style="font-size:6.75px; font-family:Arial;" text-anchor="middle"><textPath startOffset="21.40746469413373" xlink:href="#id76">April</textPath></text><path d="M 120.99922638620191 100.18025310272382 l 17.557845907850503 0.15071299027074775 a38.55849274081517,38.55849274081517 0 0,0 -0.011362946179942103,0.6618346487624293 l -17.55267153007189 -0.45209455500224804" fill="#ffd413" stroke="none" /><path d="M 120.99303781780057 100.54070618675476 l 15.030815183114118 0.38714048114493366 a36.03580003927543,36.03580003927543 0 0,0 -0.0212359192764338,0.6182606193129195 l -15.021954576840837 -0.6451073650219639" fill="#ffb310" stroke="none" /><path d="M 120.98066250479742 100.90099992219065 l 22.41534873749288 0.9626115220975114 a43.43600855691356,43.43600855691356 0 0,0 -0.03838587043652497,0.7446756316008843 l -22.395521277599784 -1.3472589470751266" fill="#edff1a" stroke="none" /><path d="M 120.93736805541906 101.62068470465957 l 11.922158542752499 0.9228504722093959 a32.95782243188882,32.95782243188882 0 0,0 -0.048505090244800854,0.5637026734221378 l -11.904559829809958 -1.127374193007191" fill="#ff8a0c" stroke="none" /><path d="M 120.82617615685814 102.69636545807757 l 9.091648692158671 1.1770959443479065 a30.167531336397534,30.167531336397534 0 0,0 -0.07090157587827361,0.5130084834746605 l -9.070102599725187 -1.3329927360226521" fill="#ff6309" stroke="none" /><path d="M 120.77682067341334 103.0534771498775 l 15.469858002761598 2.273536392588095 a36.63603128527279,36.63603128527279 0 0,0 -0.09678630236584207,0.621437490997299 l -15.428550208257487 -2.5387620655168446" fill="#ffbb11" stroke="none" /><path d="M 120.65975698304385 103.76489593502545 l 10.6925275059361 1.9485346984132623 a31.868621436783993,31.868621436783993 0 0,0 -0.10269846535635402,0.5373617669852161 l -10.657502748297587 -2.131799030431793" fill="#ff7b0b" stroke="none" /><path d="M 120.35273937422433 105.17358676015961 l 20.498899229835807 5.210740023902377 a42.15080805150624,42.15080805150624 0 0,0 -0.18428036055756872,0.6997425449140423 l -20.40642938847351 -5.561863073189223" fill="#fdff18" stroke="none" /><path d="M 120.26092885502905 105.52220625578681 l 14.922836864854874 4.067285546424143 a36.46718693916972,36.46718693916972 0 0,0 -0.16980078708143845,0.6025630907352189 l -14.850817585698858 -4.322856561062371" fill="#ffb911" stroke="none" /><path d="M 120.16314734710363 105.8691983318838 l 2.789745724295224 0.812054322152513 a23.90553152251874,23.90553152251874 0 0,0 -0.11807474770404178,0.393032433376301 l -2.7753946565875527 -0.8598243591195375" fill="#ff0901" stroke="none" /><path d="M 120.05942366710727 106.21446072829308 l 12.521730210116637 3.8792640273434382 a34.10886787059769,34.10886787059769 0 0,0 -0.1780731154051923,0.557811497737728 l -12.45329237893419 -4.093644558772549" fill="#ff990e" stroke="none" /><path d="M 119.58574465831526 107.57618678355244 l 8.752430067944521 3.38562797389355 a30.384429064779056,30.384429064779056 0 0,0 -0.1923498219175966,0.4848472034359085 l -8.6930215710608 -3.535376194543023" fill="#ff6609" stroke="none" /><path d="M 119.4528033332814 107.91128576633889 l 7.3000862044347965 2.9688815073446686 a28.880705298184445,28.880705298184445 0 0,0 -0.19071463887697027,0.45764570607823 l -7.248045721021341 -3.0937597228641764" fill="#ff5107" stroke="none" /><path d="M 119.31412917781788 108.2440532568976 l 9.218604087917159 3.9348739130484276 a31.02326763293049,31.02326763293049 0 0,0 -0.2132718435864235,0.4880077151739185 l -9.14969836231377 -4.092543697998191" fill="#ff6f0a" stroke="none" /><path d="M 118.5362547648365 109.86951160357373 l 9.201039557529116 4.899035313770162 a31.423995200727152,31.423995200727152 0 0,0 -0.2576089003557357,0.47397136155940894 l -9.11558530755804 -5.056261508804175" fill="#ff750a" stroke="none" /><line stroke="#e1ed5e" stroke-width="0.3" x1="174.33088141563837" x2="178.70328620479359" y1="141.23008692659167" y2="143.65538615756765" /><path d="M 175.20536237346943 141.71514677278685 a86.0,86.0 0 0,1 -30.301960400862466,31.631185727798858" fill="none" id="id77" stroke="none" /><text fill="#e1ed5e" style="font-size:6.75px; font-family:Arial;" text-anchor="middle"><textPath startOffset="22.145653131862474" xlink:href="#id77">May</textPath></text><path d="M 118.36410011445183 110.18625677009912 l 14.639843399898483 8.120474350281453 a37.74118031821921,37.74118031821921 0 0,0 -0.3191225899632177,0.5638590387290244 l -14.498287444913887 -8.3705901591096" fill="#ffc912" stroke="none" /><path d="M 118.18653347947321 110.5 l 11.933796947578392 6.889980880138716 a34.77996176027744,34.77996176027744 0 0,0 -0.3029604460302946,0.5144930708392957 l -11.813762791418332 -7.093825119271561" fill="#ffa20f" stroke="none" /><path d="M 117.62189284568427 111.42229804090321 l 9.61050536733451 6.229413468274452 a32.452833953842365,32.452833953842365 0 0,0 -0.3070278568758154,0.46487930753510054 l -9.502153071537967 -6.3934726541486135" fill="#ff830c" stroke="none" /><path d="M 117.01052211995028 112.31430620078461 l 14.197789587372121 10.278104758945675 a38.52759728551389,38.52759728551389 0 0,0 -0.39242739284090516,0.5324031262516981 l -14.019260174947387 -10.52031419446625" fill="#ffd413" stroke="none" /><path d="M 116.57777611688842 112.89097897827486 l 7.461131682751599 5.801821124759177 a30.451434512869543,30.451434512869543 0 0,0 -0.32442895884043055,0.4099053912369678 l -7.360436293269607 -5.929046459910827" fill="#ff6709" stroke="none" /><path d="M 116.1254893667686 113.45245675266167 l 5.246981483162907 4.377218568617628 a27.833070838364357,27.833070838364357 0 0,0 -0.3092193686134285,0.36425963870557576 l -5.1710675510423645 -4.46664498977276" fill="#ff4206" stroke="none" /><path d="M 115.6541949942343 113.99807769240083 l 8.422231097071757 7.53121098105571 a32.298367824321204,32.298367824321204 0 0,0 -0.37312658539214166,0.41013147950302753 l -8.291706810837736 -7.67468003611641" fill="#ff810b" stroke="none" /><path d="M 115.16444852881244 114.52719865689866 l 8.397423395740342 8.044541655717026 a32.6289023616975,32.6289023616975 0 0,0 -0.3909458332459377,0.4011448653584623 l -8.258090761343597 -8.187509213143226" fill="#ff850c" stroke="none" /><path d="M 113.86319453409587 115.77377054828091 l 9.545393926866511 10.860906064979066 a35.45938538705429,35.45938538705429 0 0,0 -0.46066895088502613,0.39791486788829483 l -9.35754549621863 -11.023165065332078" fill="#ffac0f" stroke="none" /><path d="M 113.59037401385872 116.0094264158162 l 13.195917638232379 15.544757797174805 a41.3904815364385,41.3904815364385 0 0,0 -0.5456165528897323,0.45517273394576985 l -12.927126751180753 -15.768992715032446" fill="#fff817" stroke="none" /><path d="M 111.5731344415666 117.5232005979908 l 34.719403324699805 52.56960179397238 a84.0,84.0 0 0,0 -1.2100574709719614,0.7843446331844213 l -33.81186022147083 -53.157860268860695" fill="#4dd2ff" stroke="none" /><line stroke="#e1ed5e" stroke-width="0.3" x1="143.1302829299769" x2="145.66735839644613" y1="173.24464959558577" y2="177.55315839532614" /><path d="M 143.63769802327073 174.10635135553383 a86.0,86.0 0 0,1 -40.68552437913181,11.842963189579606" fill="none" id="id78" stroke="none" /><text fill="#e1ed5e" style="font-size:6.75px; font-family:Arial;" text-anchor="middle"><textPath startOffset="21.407464694133747" xlink:href="#id78">June</textPath></text><path d="M 109.71004243097381 118.62028667847754 l 4.96428816215004 9.519677116852291 a31.73631265220905,31.73631265220905 0 0,0 -0.4852221940862452,0.24775790964544928 l -4.800138746350212 -9.603492978170577" fill="#ff790b" stroke="none" /><path d="M 109.3889696526874 118.78422872680471 l 6.429001935836652 12.862310489336798 a35.37953744092955,35.37953744092955 0 0,0 -0.545585742194948,0.2668733261577393 l -6.207255944379634 -12.97077756559176" fill="#ffaa0f" stroke="none" /><path d="M 109.06512990194946 118.94263497670748 l 4.4499943749219115 9.298776741679097 a31.308719553292192,31.308719553292192 0 0,0 -0.4867928708753217,0.2278436431826397 l -4.289712790175083 -9.37379661643227" fill="#ff730a" stroke="none" /><path d="M 108.07796709384702 119.3841803445677 l 3.8751441747790194 9.298935322766242 a31.074072687464266,31.074072687464266 0 0,0 -0.4941451403153647,0.20096452671138268 l -3.714944573273214 -9.364087106056916" fill="#ff700a" stroke="none" /><path d="M 107.74402155503746 119.51999308798841 l 3.3281525043877567 8.389118421185232 a30.025181825156317,30.025181825156317 0 0,0 -0.48072852158536716,0.1859561193740715 l -3.1836517203088603 -8.445014428697345" fill="#ff6109" stroke="none" /><path d="M 106.38641147887787 120.00534299687104 l 2.663707515526928 8.344025853596014 a29.75888721092773,29.75888721092773 0 0,0 -0.4879881698285612,0.15117998241614203 l -2.5200787128267423 -8.3885224238188" fill="#ff5e08" stroke="none" /><path d="M 104.64783097203109 120.47920084513623 l 3.2473790812999277 14.308551413859478 a35.67242701330371,35.67242701330371 0 0,0 -0.598341404023636,0.1304057241258413 l -3.0012752606571556 -14.362188596119038" fill="#ffae10" stroke="none" /><path d="M 102.875027216393 120.80226474461374 l 1.1488733011469432 8.312674896504442 a29.391690759141653,29.391690759141653 0 0,0 -0.5003895856438616,0.06478545001010841 l -1.0060058936123062 -8.331171942714946" fill="#ff5808" stroke="none" /><path d="M 102.51750503828377 120.84855314841334 l 1.2387298874838493 10.258460461052753 a31.332979375046115,31.332979375046115 0 0,0 -0.5345467431410309,0.05989707752676161 l -1.062447242742019 -10.278213299086485" fill="#ff740a" stroke="none" /><line stroke="#e1ed5e" stroke-width="0.3" x1="101.45913802915013" x2="101.54496967792366" y1="184.9874750549273" y2="189.98673829345242" /><path d="M 101.47630435890484 185.9873277026323 a86.0,86.0 0 0,1 -42.54439059252881,-10.42667462771756" fill="none" id="id79" stroke="none" /><text fill="#e1ed5e" style="font-size:6.75px; font-family:Arial;" text-anchor="middle"><textPath startOffset="22.145653131862474" xlink:href="#id79">July</textPath></text><path d="M 100.0 121.0 l 1.056956221417365e-15 8.630702518907974 a29.630702518907974,29.630702518907974 0 0,0 -0.5086504103032089,-0.004366152017826038 l 0.14815748545435567 -8.629430765084583" fill="#ff5c08" stroke="none" /><path d="M 99.63950707515114 120.99690560180557 l -0.3297755562211832 19.20777287560462 a40.21060360213321,40.21060360213321 0 0,0 -0.6900650557803713,-0.017773628007628633 l 0.6594539260722984 -19.199281530246942" fill="#ffe915" stroke="none" /><path d="M 99.27912038922189 120.98762331915562 l -0.23466220428986703 6.831934038975668 a27.83596292142055,27.83596292142055 0 0,0 -0.477418893960281,-0.020502421513725944 l 0.35190685885098677 -6.826899049036114" fill="#ff4206" stroke="none" /><path d="M 98.19965949673042 120.92268563240118 l -0.6332639293813545 7.3594867708206975 a28.38668184871532,28.38668184871532 0 0,0 -0.4851425004549805,-0.04594349919384287 l 0.7595059932213502 -7.347531516121671" fill="#ff4a06" stroke="none" /><path d="M 97.48249496171623 120.84855314841334 l -1.0607406139368103 8.78445394548975 a29.84826546677288,29.84826546677288 0 0,0 -0.5081627086886874,-0.06579183641160609 l 1.2113811445162919 -8.764950512877748" fill="#ff5f08" stroke="none" /><path d="M 96.41257539226777 120.69131181640829 l -2.034914573343878 11.736846501543097 a32.91194539618075,32.91194539618075 0 0,0 -0.5558439944423572,-0.10129329192506357 l 2.2360933013372923 -11.700185035686667" fill="#ff890c" stroke="none" /><path d="M 95.70440661134978 120.55596938700252 l -2.2074563989657263 10.563477977262819 a31.791660239715263,31.791660239715263 0 0,0 -0.5332484559287043,-0.11621901905291285 l 2.3884672715135666 -10.524027500076187" fill="#ff7a0b" stroke="none" /><path d="M 95.35216902796893 120.47920084513623 l -2.2145979122319033 9.757927022031406 a31.006077337306195,31.006077337306195 0 0,0 -0.5180493131578617,-0.1222582273301078 l 2.381779379129653 -9.718472651055071" fill="#ff6f0a" stroke="none" /><path d="M 95.00130118170881 120.39639698878247 l -2.146698776533453 8.759263571010235 a30.018481798151903,30.018481798151903 0 0,0 -0.4994427926516472,-0.12695640483620182 l 2.2967468624104788 -8.72112193433877" fill="#ff6109" stroke="none" /><path d="M 94.6519064749342 120.30758222061772 l -0.7214549963118325 2.7394821327283565 a23.832888926033142,23.832888926033142 0 0,0 -0.3947391446634222,-0.10758790920502073 l 0.7683755419099498 -2.7266937293791913" fill="#ff0801" stroke="none" /><path d="M 93.95794788825049 120.11202640906438 l -3.2658718669034528 10.871025277662445 a32.3509959756229,32.3509959756229 0 0,0 -0.5304937381018013,-0.16434831612061032 l 3.452006237876888 -10.813360373735186" fill="#ff820b" stroke="none" /><path d="M 92.93061703081489 119.77432235084164 l -3.342810737994822 9.350436576869178 a30.930007442500056,30.930007442500056 0 0,0 -0.4984309551409934,-0.1830307507158794 l 3.502830844789935 -9.29167497714458" fill="#ff6e0a" stroke="none" /><path d="M 92.59220618246901 119.65005319985036 l -3.73098759827239 9.896887872409755 a31.576798098551077,31.576798098551077 0 0,0 -0.5055712086844995,-0.19556580442571717 l 3.900331069450418 -9.831382179845997" fill="#ff770a" stroke="none" /><path d="M 91.59046798132341 119.24265499422711 l -4.154681255431899 9.506723778648464 a31.374930040137972,31.374930040137972 0 0,0 -0.4916699505976913,-0.21991771511304875 l 4.317264608885225 -9.43400231262556" fill="#ff740a" stroke="none" /><path d="M 90.6110303473126 118.78422872680471 l -4.8315200053045775 9.66627651755129 a31.80650208325626,31.80650208325626 0 0,0 -0.4862953329258961,-0.248305861983392 l 4.996742559944056 -9.581912703895062" fill="#ff7a0b" stroke="none" /><path d="M 90.28995756902619 118.62028667847754 l -3.7701732195981728 7.229804264552134 a29.153789046174268,29.153789046174268 0 0,0 -0.441764844604375,-0.23521489724800365 l 3.8937268799891096 -7.164018899581557" fill="#ff5507" stroke="none" /><path d="M 89.97174638481275 118.45085714620012 l -4.92712764079085 9.065359905103325 a31.317816484009597,31.317816484009597 0 0,0 -0.47014874575450655,-0.2607835839789736 l 5.082020574701459 -8.979443405691203" fill="#ff730a" stroke="none" /><line stroke="#e1ed5e" stroke-width="0.3" x1="58.13341422392154" x2="55.67067388415222" y1="173.97424548756322" y2="178.32567169271397" /><path d="M 57.64086615596768 174.84453072859336 a86.0,86.0 0 0,1 -31.369924170532247,-30.572349798747897" fill="none" id="id80" stroke="none" /><text fill="#e1ed5e" style="font-size:6.75px; font-family:Arial;" text-anchor="middle"><textPath startOffset="22.145653131862474" xlink:href="#id80">August</textPath></text><path d="M 89.03521579738668 117.91015095944536 l -4.388173399338641 7.167751463785845 a29.404327863027916,29.404327863027916 0 0,0 -0.4282332490162892,-0.26724921938031904 l 4.510570777144643 -7.091366447563979" fill="#ff5908" stroke="none" /><path d="M 88.1277618465304 117.32195027204791 l -6.213788300879812 9.066102832296835 a31.991150331695565,31.991150331695565 0 0,0 -0.4503210036689158,-0.3143590342525165 l 6.368504395722494 -8.95809898223919" fill="#ff7d0b" stroke="none" /><path d="M 87.2517909369889 116.68781488649013 l -5.668020878927306 7.419621276430391 a30.336875310810058,30.336875310810058 0 0,0 -0.4111225249665528,-0.31969136206635185 l 5.794553348529087 -7.321228862743245" fill="#ff6609" stroke="none" /><path d="M 86.13680546590413 115.77377054828092 l -8.25783765221805 9.395903377874482 a33.50899208476619,33.50899208476619 0 0,0 -0.4288113375750247,-0.3834457422415084 l 8.417914016616447 -9.252762105749591" fill="#ff910d" stroke="none" /><path d="M 85.86807049272751 115.53346607816431 l -5.161672278485235 5.6735820259498455 a28.670227748617645,28.670227748617645 0 0,0 -0.3612042243777339,-0.3343252376180737 l 5.258306274176936 -5.584139042199395" fill="#ff4e07" stroke="none" /><path d="M 85.60350026404147 115.28858382429668 l -5.6608126824665215 6.011586899374115 a29.25735897697928,29.25735897697928 0 0,0 -0.3626902634582449,-0.3474490680073193 l 5.7631754317900805 -5.9135257010612134" fill="#ff5708" stroke="none" /><path d="M 85.34317274990678 115.03919595460226 l -7.1427256324320325 7.3290657386592715 a31.233950071296555,31.233950071296555 0 0,0 -0.38076874211948813,-0.37751432798166923 l 7.2674862946814835 -7.205371400448943" fill="#ff720a" stroke="none" /><path d="M 85.08716467003676 114.78537596483092 l -5.331033215226866 5.285469102562999 a28.507069919482582,28.507069919482582 0 0,0 -0.34155976439326424,-0.3504704080404189 l 5.42097978077094 -5.193176002454843" fill="#ff4c07" stroke="none" /><path d="M 84.3458050057657 113.99807769240083 l -11.66950126427457 10.434939988229978 a36.65455947367625,36.65455947367625 0 0,0 -0.41539902905746207,-0.4726478413193819 l 11.846911357290624 -10.233079869099296" fill="#ffbb11" stroke="none" /><path d="M 84.1078160697243 113.72728997021213 l -19.745186116099397 17.055421490254584 a47.091373612166194,47.091373612166194 0 0,0 -0.5231749274112425,-0.6162987489857994 l 20.035055607017753 -16.713955958819234" fill="#c1ff1e" stroke="none" /><path d="M 83.64595745247003 113.17365903436017 l -7.985422731752162 6.432491294283714 a31.253970960355794,31.253970960355794 0 0,0 -0.33297916569454195,-0.42070829828392003 l 8.094668328088266 -6.294463052085113" fill="#ff720a" stroke="none" /><path d="M 83.20337586046588 112.60449989151573 l -6.401192888596291 4.803574480182486 a29.003099286131352,29.003099286131352 0 0,0 -0.2954144934815784,-0.40078649640397995 l 6.482709401661699 -4.6929816745096264" fill="#ff5307" stroke="none" /><path d="M 82.78059297857968 112.02048342749411 l -14.835040671406368 10.356010535961678 a39.09213602489298,39.09213602489298 0 0,0 -0.3793989776992644,-0.553554446939043 l 15.010629385920957 -10.099821353952583" fill="#ffdb14" stroke="none" /><line stroke="#e1ed5e" stroke-width="0.3" x1="26.387840678322732" x2="22.057713659400548" y1="142.50000000000003" y2="145.00000000000006" /><path d="M 25.521815274538298 143.00000000000003 a86.0,86.0 0 0,1 -11.493303480769221,-40.785679425670985" fill="none" id="id81" stroke="none" /><text fill="#e1ed5e" style="font-size:6.75px; font-family:Arial;" text-anchor="middle"><textPath startOffset="21.40746469413373" xlink:href="#id81">September</textPath></text><path d="M 81.81346652052679 110.50000000000001 l -8.66360911349857 5.0019370538321 a31.003874107664192,31.003874107664192 0 0,0 -0.26215493317136895,-0.4632026477132752 l 8.748197411691317 -4.852477636019704" fill="#ff6f0a" stroke="none" /><path d="M 81.4637452351635 109.86951160357371 l -12.990150576726014 6.916523508965598 a35.71673569294798,35.71673569294798 0 0,0 -0.28350912583661203,-0.543666130871158 l 13.106967771537576 -6.692511134989938" fill="#ffaf10" stroke="none" /><path d="M 81.29705330413844 109.54985784667822 l -16.339604102205012 8.343118278874515 a39.34639705315692,39.34639705315692 0 0,0 -0.30199312818253754,-0.6041885535416904 l 16.480417143599286 -8.06139786916907" fill="#ffde14" stroke="none" /><path d="M 80.9802524753101 108.90220220490708 l -13.82150917513211 6.4691641828726425 a36.26054393208916,36.26054393208916 0 0,0 -0.2590307096485288,-0.5660288481822446 l 13.930524349635697 -6.2309463524757085" fill="#ffb610" stroke="none" /><path d="M 80.68587082218212 108.24405325689762 l -6.670556413128046 2.8472638769614274 a28.25280872805654,28.25280872805654 0 0,0 -0.18656830427787863,-0.44769601246051616 l 6.71845056194241 -2.7323353550596297" fill="#ff4806" stroke="none" /><path d="M 80.41425534168474 107.57618678355246 l -17.386264241604565 6.7253805081478975 a39.641698615155036,39.641698615155036 0 0,0 -0.24005750977730891,-0.6367810652321729 l 17.499152435196308 -6.42593116272158" fill="#ffe215" stroke="none" /><path d="M 80.28708602549918 107.23885506374661 l -15.911369969601143 5.8428754482762635 a37.95024742632374,37.95024742632374 0 0,0 -0.21931597973566333,-0.6134658284729434 l 16.00932611938075 -5.568874663422398" fill="#ffcc13" stroke="none" /><path d="M 80.05021161711548 106.5578916946017 l -7.1276846948899415 2.3430115330175685 a28.502905580748145,28.502905580748145 0 0,0 -0.14880591211997105,-0.46613240029520764 l 7.166855322787167 -2.220310099030969" fill="#ff4c07" stroke="none" /><path d="M 79.94057633289273 106.21446072829308 l -9.555807097049556 2.960413465374625 a31.003874107664192,31.003874107664192 0 0,0 -0.15313504364719582,-0.5097367558277933 l 9.60521846070038 -2.7959391059561085" fill="#ff6f0a" stroke="none" /><path d="M 79.83685265289637 105.86919833188381 l -5.658950558549827 1.6472380331647272 a26.893820031356217,26.893820031356217 0 0,0 -0.1252246798352862,-0.4443782117552141 l 5.686393730459688 -1.5498518975065174" fill="#ff3505" stroke="none" /><path d="M 79.73907114497094 105.5222062557868 l -10.858274012681331 2.959470866756079 a32.254358371122215,32.254358371122215 0 0,0 -0.1410137803982357,-0.5354522927199761 l 10.907477273884298 -2.7726380696633" fill="#ff800b" stroke="none" /><path d="M 79.56144815229197 104.8234425847677 l -7.9440579045013475 1.8747760349140987 a29.162281615526297,29.162281615526297 0 0,0 -0.11080158691026416,-0.48821223619143767 l 7.975070352969278 -1.7381294647836347" fill="#ff5507" stroke="none" /><path d="M 79.407916724674 104.11899336999214 l -9.809552795280887 1.9621852916049922 a31.003874107664192,31.003874107664192 0 0,0 -0.09991176735632713,-0.5227805855025679 l 9.84179085491937 -1.7935021410691099" fill="#ff6f0a" stroke="none" /><path d="M 79.2786578344484 103.40968896794605 l -5.675898883831281 0.9339670014016013 a26.75222761190691,26.75222761190691 0 0,0 -0.07067493666123972,-0.45378379214385833 l 5.691095312630789 -0.836395027326293" fill="#ff3304" stroke="none" /><path d="M 79.17382384314188 102.69636545807758 l -14.881603172660451 1.9267214707758868 a36.00581116149628,36.00581116149628 0 0,0 -0.07409981147278429,-0.6136527372476935 l 14.912485070392897 -1.6709750566047938" fill="#ffb310" stroke="none" /><path d="M 79.13060592940153 102.33845913500099 l -2.997403504341965 0.3358653146469344 a24.016162011136732,24.016162011136732 0 0,0 -0.04239150797740656,-0.41009938520543293 l 3.0027274048010377 -0.2843614071585701" fill="#ff0b01" stroke="none" /><path d="M 79.0935383218832 101.97986365728391 l -9.95931479355173 0.9431574656098985 a31.003874107664192,31.003874107664192 0 0,0 -0.04562940147634354,-0.5302828109184599 l 9.974037817725815 -0.7720536073157767" fill="#ff6f0a" stroke="none" /><path d="M 79.03789590574601 101.26102812881392 l -9.985821447174718 0.6007222212798944 a31.003874107664192,31.003874107664192 0 0,0 -0.027399172577465176,-0.5315366282550452 l 9.994662209208757 -0.4292137996481184" fill="#ff6f0a" stroke="none" /><line stroke="#e1ed5e" stroke-width="0.3" x1="15.003131293944662" x2="10.003315487706104" y1="100.72959589197737" y2="100.7725132973878" /><path d="M 14.003168132696942 100.73817937305945 a86.0,86.0 0 0,1 10.791469493833604,-42.45332614584628" fill="none" id="id82" stroke="none" /><text fill="#e1ed5e" style="font-size:6.75px; font-family:Arial;" text-anchor="middle"><textPath startOffset="22.145653131862435" xlink:href="#id82">October</textPath></text><path d="M 79.00077361379809 99.81974689727619 l -11.003856135166398 -0.09445487056578013 a32.00426151843061,32.00426151843061 0 0,0 0.00943145531147564,-0.549334988878633 l 11.000613248256256 0.28333677541346547" fill="#ff7d0b" stroke="none" /><path d="M 79.00696218219943 99.45929381324524 l -11.597625879231284 -0.2987137030377856 a32.601472144128856,32.601472144128856 0 0,0 0.01921206772128834,-0.5593383895007795 l 11.590789124513146 0.49775835710270366" fill="#ff850c" stroke="none" /><path d="M 79.01933749520258 99.09900007780938 l -5.497064215064816 -0.2360675898064582 a26.502130759215305,26.502130759215305 0 0,0 0.023420829662151085,-0.4543578385207697 l 5.4922017959460945 0.3303972217039399" fill="#ff2f04" stroke="none" /><path d="M 79.03789590574601 98.7389718711861 l -10.69266446579213 -0.6432441420338586 a31.711994977793566,31.711994977793566 0 0,0 0.037353768538285946,-0.5431155965213561 l 10.68004673608878 0.8267031627095396" fill="#ff790b" stroke="none" /><path d="M 79.06263194458094 98.37931529534042 l -6.211087116188992 -0.48077742445332583 a27.229666933051305,27.229666933051305 0 0,0 0.04007477904988911,-0.4657296785391633 l 6.2019187144413594 0.5873281503681699" fill="#ff3a05" stroke="none" /><path d="M 79.0935383218832 98.0201363427161 l -7.4694860951637985 -0.7073680992074212 a28.502905580748145,28.502905580748145 0 0,0 0.05031116748568422,-0.4867149068120673 l 7.456242535196451 0.8354875283024013" fill="#ff4c07" stroke="none" /><path d="M 79.13060592940154 97.66154086499901 l -7.456242535196451 -0.8354875283024013 a28.502905580748145,28.502905580748145 0 0,0 0.05865886260655199,-0.48577953016209696 l 7.44080158633023 0.9633607353879344" fill="#ff4c07" stroke="none" /><path d="M 79.17382384314186 97.30363454192245 l -8.184881744963253 -1.0596968089267278 a29.253196138822958,29.253196138822958 0 0,0 0.06875264941604445,-0.4974599220804921 l 8.165484578992 1.2000450392072868" fill="#ff5608" stroke="none" /><path d="M 79.2786578344484 96.59031103205396 l -10.611463130641088 -1.7461122200116852 a31.754164665739005,31.754164665739005 0 0,0 0.09312314411053242,-0.5371095487170111 l 10.579925169038322 1.9280148016492888" fill="#ff790b" stroke="none" /><path d="M 79.407916724674 95.88100663000787 l -8.338119875988754 -1.6678574978642404 a29.503292991514563,29.503292991514563 0 0,0 0.103601922067319,-0.49577270141009416 l 8.308260243097068 1.8107466505597436" fill="#ff5a08" stroke="none" /><path d="M 79.64726062577567 94.8264132398404 l -9.210758586835627 -2.341338814382338 a30.503680402280978,30.503680402280978 0 0,0 0.13335993976667299,-0.5063894131722366 l 9.169209166264228 2.4991087319273593" fill="#ff6809" stroke="none" /><path d="M 79.83685265289637 94.1308016681162 l -10.00212831444833 -2.911473779755944 a31.41725733525362,31.41725733525362 0 0,0 0.15517683553359357,-0.5165332169607898 l 9.950675158911107 3.082744600307457" fill="#ff750a" stroke="none" /><path d="M 80.05021161711548 93.44210830539832 l -8.0780426542086 -2.655413070753241 a29.503292991514563,29.503292991514563 0 0,0 0.1622885929591335,-0.4797773882904965 l 8.031268639677103 2.793692133517899" fill="#ff5a08" stroke="none" /><path d="M 80.41425534168474 92.42381321644754 l -9.796666193332117 -3.7895609399404027 a31.5040678130474,31.5040678130474 0 0,0 0.19943773900111292,-0.5027133846564995 l 9.730169779364871 3.957175341810485" fill="#ff760a" stroke="none" /><path d="M 80.68587082218212 91.75594674310238 l -9.430786653043098 -4.025442032945461 a31.253970960355794,31.253970960355794 0 0,0 0.2148578313857471,-0.49163676563471886 l 9.360294939640372 4.186740868356047" fill="#ff720a" stroke="none" /><path d="M 80.9802524753101 91.09779779509293 l -7.927964991523143 -3.710687922452539 a29.75338984420617,29.75338984420617 0 0,0 0.22048783836969482,-0.4607347808818785 l 7.863097895193543 3.8462352053995046" fill="#ff5e08" stroke="none" /><path d="M 81.29705330413844 90.45014215332179 l -10.542442344738886 -5.383046179099402 a32.83724109573089,32.83724109573089 0 0,0 0.260652529894421,-0.4998355943968631 l 10.448481745869524 5.5632280166007515" fill="#ff880c" stroke="none" /><path d="M 81.63589988554816 89.8137432299009 l -6.779852994060774 -3.7606701679152605 a28.753002433439747,28.753002433439747 0 0,0 0.24312256607801355,-0.42957427870550824 l 6.714297062961392 3.8765012167198742" fill="#ff4f07" stroke="none" /><line stroke="#e1ed5e" stroke-width="0.3" x1="26.387840678322718" x2="22.05771365940052" y1="57.49999999999999" y2="54.99999999999999" /><path d="M 25.521815274538284 56.99999999999999 a86.0,86.0 0 0,1 29.574782752854787,-30.34633250058573" fill="none" id="id83" stroke="none" /><text fill="#e1ed5e" style="font-size:6.75px; font-family:Arial;" text-anchor="middle"><textPath startOffset="21.40746469413373" xlink:href="#id83">November</textPath></text><path d="M 82.37810715431573 88.57770195909679 l -9.034718875307401 -5.8561956205975205 a31.76666950837358,31.76666950837358 0 0,0 0.30053623277123287,-0.4550501612510372 l 8.932858203615439 6.010425660187619" fill="#ff7a0b" stroke="none" /><path d="M 82.78059297857968 87.97951657250589 l -10.663762574580616 -7.444134466594733 a34.005036339963446,34.005036339963446 0 0,0 0.3382446983503798,-0.47578352777388583 l 10.534402777700263 7.626095221078138" fill="#ff980e" stroke="none" /><path d="M 83.2033758604659 87.39550010848427 l -6.401192888596288 -4.80357448018249 a29.003099286131352,29.003099286131352 0 0,0 0.30225099663650307,-0.3956562569845176 l 6.317789914605478 4.912751650407892" fill="#ff5307" stroke="none" /><path d="M 83.42222388311158 87.10902102172516 l -6.339133799452118 -4.929348784361973 a29.030136783719634,29.030136783719634 0 0,0 0.3092864819802519,-0.39077336638982346 l 6.253580886830305 5.037442094666479" fill="#ff5307" stroke="none" /><path d="M 84.10781606972428 86.27271002978789 l -6.564747395425834 -5.670472445673596 a29.674685361607864,29.674685361607864 0 0,0 0.3362974665034564,-0.38264478360648324 l 6.466438864963785 5.782329507091379" fill="#ff5c08" stroke="none" /><path d="M 84.34580500576568 86.00192230759919 l -10.951599920545693 -9.792988179868242 a35.69149952560104,35.69149952560104 0 0,0 0.4123257069196317,-0.4532181807371181 l 10.781876512784194 9.979543936163019" fill="#ffaf10" stroke="none" /><path d="M 84.83555147118756 85.47280134310135 l -8.342388283787637 -7.991819263410925 a32.55268875268884,32.55268875268884 0 0,0 0.39003267372411105,-0.40020788324410844 l 8.203968808912723 8.133849838722764" fill="#ff840c" stroke="none" /><path d="M 85.86807049272753 84.46653392183569 l -7.544232133876869 -8.292432670079974 a32.210703728028406,32.210703728028406 0 0,0 0.41219726677863733,-0.36858933768793467 l 7.400769840274839 8.420717537651308" fill="#ff800b" stroke="none" /><path d="M 86.13680546590413 84.22622945171909 l -6.822304875020436 -7.762530594540844 a31.334443625029373,31.334443625029373 0 0,0 0.40707996243439076,-0.3516259760091387 l 6.688045432823196 7.878500703014693" fill="#ff740a" stroke="none" /><path d="M 87.54013794807813 83.09580414077388 l -5.7602766302099235 -7.81492154203844 a30.70843888402039,30.70843888402039 0 0,0 0.427021299804971,-0.3091304901151831 l 5.625274320030984 7.9126528035267025" fill="#ff6b09" stroke="none" /><path d="M 88.12776184653039 82.6780497279521 l -12.293410775230349 -17.936453714093123 a42.74498379687496,42.74498379687496 0 0,0 0.608818253279969,-0.4096400915021266 l 11.98369623385339 18.14484347965236" fill="#f5ff19" stroke="none" /><line stroke="#e1ed5e" stroke-width="0.3" x1="56.869717070023135" x2="54.33264160355391" y1="26.7553504044142" y2="22.446841604673864" /><path d="M 56.362301976729285 25.89364864446614 a86.0,86.0 0 0,1 42.16139366436587,-11.88097634709845" fill="none" id="id84" stroke="none" /><text fill="#e1ed5e" style="font-size:6.75px; font-family:Arial;" text-anchor="middle"><textPath startOffset="22.145653131862474" xlink:href="#id84">December</textPath></text><path d="M 90.28995756902619 81.37971332152246 l -14.986140025199951 -28.73789949495042 a53.41066584068849,53.41066584068849 0 0,0 0.8166052795998722,-0.41696447430667954 l 14.490607523886496 28.99092192092993" fill="#7aff26" stroke="none" /><path d="M 91.5904679813234 80.7573450057729 l -3.5316518411053806 -8.081110552548006 a29.819121979499194,29.819121979499194 0 0,0 0.47080833036268543,-0.20096008023798062 l 3.392408435572264 8.140545282445391" fill="#ff5e08" stroke="none" /><path d="M 91.92203290615298 80.6158196554323 l -3.463327107972842 -8.310724279170598 a30.003486696897774,30.003486696897774 0 0,0 0.47712050148385554,-0.19404075430916307 l 3.3201521452985454 8.368952290059053" fill="#ff6109" stroke="none" /><path d="M 95.00130118170881 79.60360301121753 l -2.3981433831143826 -9.785243371542824 a31.074824044433633,31.074824044433633 0 0,0 0.5191979326372292,-0.12252929839970925 l 2.2298132967372473 9.824968813588766" fill="#ff700a" stroke="none" /><path d="M 95.35216902796891 79.52079915486377 l -1.9945257771568048 -8.788248588856469 a30.011739362369546,30.011739362369546 0 0,0 0.5033934545741872,-0.10971226046286318 l 1.8433699059634994 8.821192307453046" fill="#ff6109" stroke="none" /><path d="M 96.41257539226777 79.30868818359171 l -1.5661658127624387 -9.033228215645057 a30.16799254738963,30.16799254738963 0 0,0 0.5110206493730347,-0.08408825338817001 l 1.4108676603363313 9.058782467528895" fill="#ff6309" stroke="none" /><path d="M 97.84075906011542 79.11130261209362 l -0.9453701464821271 -9.145598596551936 a30.194329687536356,30.194329687536356 0 0,0 0.516036100388266,-0.0488691552274798 l 0.7882344827088457 9.1604795072846" fill="#ff6409" stroke="none" /><path d="M 99.63950707515114 79.00309439819443 l -0.2573274913713195 -14.988036304286315 a35.99024515131157,35.99024515131157 0 0,0 0.6178204162201679,-0.005303245219689921 l 3.671551148597569e-15 14.99024515131157" fill="#ffb310" stroke="none" /></svg>