<?xml version="1.0" encoding="utf-8" ?>
<svg baseProfile="full" height="200mm" version="1.1" viewBox="0,0,200,200" width="200mm" xmlns="http://www.w3.org/2000/svg" xmlns:ev="http://www.w3.org/2001/xml-events" xmlns:xlink="http://www.w3.org/1999/xlink"><defs /><rect fill="#1a1a1a" height="200" width="200" x="0" y="0" /><text alignment-baseline="middle" fill="#e1ed5e" style="dominant-baseline: central; font-size:9.0px; font-family:Arial;" text-anchor="middle" x="100.0" y="100.0">2012</text><line stroke="#e1ed5e" stroke-width="0.3" x1="100.0" x2="100.0" y1="15.0" y2="10.0" /><path d="M 100.0 14.0 a86.0,86.0 0 0,1 42.35913384403234,11.155469271406648" fill="none" id="id25" stroke="none" /><text fill="#e1ed5e" style="font-size:6.75px; font-family:Arial;" text-anchor="middle"><textPath startOffset="22.145653131862478" xlink:href="#id25">January</textPath></text><path d="M 100.36049292484886 79.00309439819443 l 0.3599953711183956 -20.96792559140825 a41.97101571870232,41.97101571870232 0 0,0 0.7202759647594262,0.018551753857461658 l -0.7198846499485632 20.958656120200743" fill="#fff517" stroke="none" /><path d="M 101.08105385017728 79.02784411241856 l 1.3784458090516136 -26.74148044084308 a47.77698431520034,47.77698431520034 0 0,0 0.8187056020906477,0.04925129599641961 l -1.8372957632747238 26.713877167021966" fill="#c2ff1e" stroke="none" /><path d="M 102.15924093988457 79.11130261209362 l 3.592910276739675 -34.7581477020004 a55.94335181305276,55.94335181305276 0 0,0 0.9544044999396564,0.10694301491552267 l -4.189050678280128 34.69134892657791" fill="#65ff29" stroke="none" /><path d="M 102.51750503828377 79.15144685158666 l 2.9834505720065225 -24.7072505795442 a45.88672755739479,45.88672755739479 0 0,0 0.7812153706011247,0.1011439702009076 l -3.407143764498439 24.652395013142897" fill="#d8ff1c" stroke="none" /><path d="M 102.87502721639298 79.19773525538626 l 4.777635739609743 -34.56859223523454 a55.89718287177797,55.89718287177797 0 0,0 0.949386752267595,0.13952715865498547 l -5.37034759748502 34.48148400328067" fill="#65ff29" stroke="none" /><path d="M 103.94208987418118 79.37332000966035 l 7.864641032537337 -41.151125163207425 a62.89591484582516,62.89591484582516 0 0,0 1.0587584258926122,0.21178133743760627 l -8.569895943960907 41.01005442910696" fill="#32ff46" stroke="none" /><path d="M 104.29559338865022 79.4440306129975 l 5.003816997275648 -23.945075734107537 a45.4623146176802,45.4623146176802 0 0,0 0.7625493255158232,0.16619407633644914 l -5.414128739410606 23.85565019963737" fill="#deff1b" stroke="none" /><path d="M 104.64783097203109 79.52079915486377 l 7.036131975593019 -31.00249573793902 a52.790909001771084,52.790909001771084 0 0,0 0.8820301211221495,0.20815670694132046 l -7.5672942504550536 30.877142887351475" fill="#88ff25" stroke="none" /><path d="M 104.9986988182912 79.60360301121754 l 8.311774044018316 -33.91487449944207 a55.918538057480625,55.918538057480625 0 0,0 0.9303638670408603,0.23649485684218588 l -8.892743204284569 33.76719441076462" fill="#65ff29" stroke="none" /><path d="M 110.02825361518725 81.54914285379988 l 16.66595543087887 -30.663480867136226 a55.89990156595388,55.89990156595388 0 0,0 0.8391794690556607,0.46547870544821285 l -17.18987908809063 30.37286924625487" fill="#65ff29" stroke="none" /><line stroke="#e1ed5e" stroke-width="0.3" x1="143.13028292997686" x2="145.6673583964461" y1="26.7553504044142" y2="22.446841604673864" /><path d="M 143.63769802327073 25.89364864446614 a86.0,86.0 0 0,1 29.32050498858742,28.57503671076993" fill="none" id="id26" stroke="none" /><text fill="#e1ed5e" style="font-size:6.75px; font-family:Arial;" text-anchor="middle"><textPath startOffset="20.669276256404974" xlink:href="#id26">February</textPath></text><path d="M 111.5731344415666 82.4767994020092 l 19.20575661195903 -29.079963379565594 a55.84975404783632,55.84975404783632 0 0,0 0.7954699402179708,0.5352276764741336 l -19.702122840274 28.74598602903434" fill="#66ff29" stroke="none" /><path d="M 111.8722381534696 82.67804972795209 l 10.99592166837227 -16.043378331255465 a40.449942972070026,40.449942972070026 0 0,0 0.5693905573469208,0.3974788301273158 l -11.269707316892951 15.852254685323022" fill="#ffe115" stroke="none" /><path d="M 112.45986205192187 83.09580414077388 l 27.878826598602586 -37.822982564681745 a67.98730661150063,67.98730661150063 0 0,0 0.9335207930206428,0.7005314065855323 l -28.524000380533998 37.3388321308322" fill="#38ff83" stroke="none" /><path d="M 113.03279911837588 83.53348406188908 l 21.697828081940898 -27.414496969411967 a55.96212790376697,55.96212790376697 0 0,0 0.7481582999172862,0.6026633670661151 l -22.165237152213447 27.037985308552443" fill="#65ff29" stroke="none" /><path d="M 113.86319453409587 84.22622945171908 l 20.435791921781664 -23.252179860406162 a51.95618613025569,51.95618613025569 0 0,0 0.6648782993368556,0.5945382751100577 l -20.831935247941896 22.897946055412717" fill="#91ff24" stroke="none" /><path d="M 114.39649973595853 84.71141617570332 l 19.172268028553482 -20.36028425189335 a48.96635543249407,48.96635543249407 0 0,0 0.6070137898084168,0.5815054794290228 l -19.51895430422721 20.028166642158748" fill="#b4ff20" stroke="none" /><path d="M 114.65682725009322 84.96080404539774 l 21.93634806039683 -22.50862559675519 a52.429947382739584,52.429947382739584 0 0,0 0.6391661979591552,0.6337032718285184 l -22.31950617848595 22.128742314698012" fill="#8cff24" stroke="none" /><path d="M 114.91283532996326 85.21462403516908 l 17.36077275847032 -17.212390976935097 a45.44714367598231,45.44714367598231 0 0,0 0.5445286285177411,0.5587343432131265 l -17.653688188138872 16.91183394165423" fill="#deff1b" stroke="none" /><path d="M 115.41159269507618 85.73525988315684 l 5.640655522600898 -5.220906541622057 a28.686017163720102,28.686017163720102 0 0,0 0.33139493893370764,0.3642610897367544 l -5.7294481623764835 5.1233078763276305" fill="#ff3f05" stroke="none" /><path d="M 115.6541949942343 86.00192230759917 l 46.96258498270291 -41.99423307720248 a84.0,84.0 0 0,0 0.9519557441656392,1.0831508887548087 l -47.67655179082713 41.18186991063638" fill="#4dd2ff" stroke="none" /><path d="M 115.8921839302757 86.27271002978787 l 23.921939791831523 -20.6632018363967 a52.61055383152406,52.61055383152406 0 0,0 0.5844918202760139,0.6885298946013717 l -24.27312617561465 20.249505159345777" fill="#8aff24" stroke="none" /><line stroke="#e1ed5e" stroke-width="0.3" x1="172.87174338648825" x2="177.1583165268699" y1="56.24261187166439" y2="53.66864786411523" /><path d="M 173.72905801456457 55.72781907015455 a86.0,86.0 0 0,1 12.242430191666344,42.057860355516425" fill="none" id="id27" stroke="none" /><text fill="#e1ed5e" style="font-size:6.75px; font-family:Arial;" text-anchor="middle"><textPath startOffset="22.145653131862474" xlink:href="#id27">March</textPath></text><path d="M 118.00360718960297 89.18935116829356 l 31.45087885272975 -18.88534909391687 a57.6853402738504,57.6853402738504 0 0,0 0.502484060771302,0.8533277886981087 l -31.77043662363082 18.342670136925204" fill="#52ff2b" stroke="none" /><path d="M 118.36410011445183 89.81374322990088 l 18.37088453434399 -10.190019973448425 a42.007758224843435,42.007758224843435 0 0,0 0.34437290145910443,0.6336073511565065 l -18.543102785418437 9.873157788817315" fill="#fff517" stroke="none" /><path d="M 118.70294669586156 90.45014215332178 l 24.876461069065847 -12.702098273667795 a48.93173134402275,48.93173134402275 0 0,0 0.37556289070140747,0.7513773610095738 l -25.09084387297899 12.273189056494472" fill="#b4ff20" stroke="none" /><path d="M 119.0197475246899 91.09779779509293 l 41.38630381924003 -19.3708799043903 a66.69526378180515,66.69526378180515 0 0,0 0.47644408037433367,1.0411163000844599 l -41.71273236446941 18.657574622091154" fill="#37ff74" stroke="none" /><path d="M 119.16976305983485 91.42560881287824 l 4.927434037204408 -2.2039785704108366 a26.39788178175761,26.39788178175761 0 0,0 0.18147427218129947,0.4152486490517916 l -4.964542191402678 2.1190678515831958" fill="#ff1d02" stroke="none" /><path d="M 119.58574465831526 92.42381321644754 l 26.263398365257817 -10.159246689737808 a49.159836416342614,49.159836416342614 0 0,0 0.29769632289810716,0.7896748649380346 l -26.433925371970364 9.706903544605616" fill="#b1ff20" stroke="none" /><path d="M 119.94978838288452 93.4421083053983 l 20.088151871345723 -6.603374521506975 a42.14564732226323,42.14564732226323 0 0,0 0.2200309534727528,0.689243827885089 l -20.198547540595733 6.257561659930499" fill="#fff717" stroke="none" /><path d="M 120.05942366710727 93.78553927170692 l 30.75867726763445 -9.529116843341516 a53.20093624521727,53.20093624521727 0 0,0 0.26277128031458763,0.8746801304400407 l -30.917724867952664 8.999699109310752" fill="#83ff25" stroke="none" /><path d="M 120.26092885502905 94.47779374421319 l 30.34610338014093 -8.270965419385126 a52.453058028224625,52.453058028224625 0 0,0 0.22932107099766255,0.8707694587573332 l -30.483613931943324 7.748815456254994" fill="#8bff24" stroke="none" /><path d="M 120.35273937422433 94.82641323984039 l 4.921070871276584 -1.2509169717805597 a26.077571446116295,26.077571446116295 0 0,0 0.10656099563044648,0.4348052262011371 l -4.941819393423321 1.1662559209713277" fill="#ff1802" stroke="none" /><line stroke="#e1ed5e" stroke-width="0.3" x1="184.99686870605535" x2="189.99668451229388" y1="99.2704041080226" y2="99.22748670261217" /><path d="M 185.99683186730306 99.26182062694052 a86.0,86.0 0 0,1 -10.086455211305974,41.156179273409016" fill="none" id="id28" stroke="none" /><text fill="#e1ed5e" style="font-size:6.75px; font-family:Arial;" text-anchor="middle"><textPath startOffset="21.40746469413373" xlink:href="#id28">April</textPath></text><path d="M 120.99922638620191 99.81974689727618 l 34.92573204032878 -0.2997954043348418 a55.9270187081192,55.9270187081192 0 0,0 0.0,0.9600970141173331 l -34.92573204032878 -0.29979540433483753" fill="#65ff29" stroke="none" /><path d="M 120.99922638620191 100.18025310272382 l 34.94925363687866 0.2999973089517581 a55.95054117120727,55.95054117120727 0 0,0 -0.016488273863311347,0.9603592913505298 l -34.93895393141668 -0.8999035162713589" fill="#65ff29" stroke="none" /><path d="M 120.96210409425399 101.26102812881392 l 27.894773676743295 1.6780803155592314 a48.94520266561325,48.94520266561325 0 0,0 -0.057652877805729544,0.8382601902279125 l -27.8618568377725 -2.1566839299414875" fill="#b4ff20" stroke="none" /><path d="M 120.9064616781168 101.97986365728391 l 27.842315643870027 2.636696239020922 a48.96688590940644,48.96688590940644 0 0,0 -0.08643263372785306,0.836157325952419 l -27.79295061766051 -3.114258087256272" fill="#b4ff20" stroke="none" /><path d="M 120.86939407059847 102.33845913500097 l 34.67439537754796 3.885338325921868 a55.891396485457506,55.891396485457506 0 0,0 -0.11502426438740192,0.95256591465362 l -34.602589026900894 -4.479997917498896" fill="#65ff29" stroke="none" /><path d="M 120.77682067341334 103.0534771498775 l 24.211005994297103 3.558184129380936 a45.47107446669371,45.47107446669371 0 0,0 -0.12012701725151854,0.7713016240624458 l -24.146357484907316 -3.9732739353748325" fill="#deff1b" stroke="none" /><path d="M 120.7213421655516 103.40968896794604 l 27.560060349370794 4.534997442656005 a48.93068435011675,48.93068435011675 0 0,0 -0.14349548218722924,0.8276438088154772 l -27.47815004969133 -5.00743428439207" fill="#b4ff20" stroke="none" /><path d="M 120.65975698304385 103.76489593502545 l 31.068051251674927 5.661633869294435 a52.57970719697448,52.57970719697448 0 0,0 -0.16944113032084282,0.8865875928451445 l -30.966283829071926 -6.194124027172895" fill="#8aff24" stroke="none" /><path d="M 120.51834098615036 104.47187691870673 l 23.892241235708795 5.207202774837256 a45.45310107130743,45.45310107130743 0 0,0 -0.1726982749529541,0.7609404644129228 l -23.799332099198175 -5.616577573189196" fill="#deff1b" stroke="none" /><path d="M 120.43855184770803 104.8234425847677 l 27.19644316396213 6.418286534619628 a48.94353096534334,48.94353096534334 0 0,0 -0.19999835491249418,0.8160615376489565 l -27.08225728253334 -6.884203896876684" fill="#b4ff20" stroke="none" /><path d="M 120.35273937422433 105.17358676015961 l 16.9299145573664 4.30351807656665 a38.468322036047496,38.468322036047496 0 0,0 -0.16818079136668362,0.6386098583729265 l -16.85354428519498 -4.59350843931238" fill="#ffc712" stroke="none" /><path d="M 120.16314734710363 105.8691983318838 l 21.829199840260895 6.354161931332673 a43.73520045030709,43.73520045030709 0 0,0 -0.2160179017183221,0.7190533388053855 l -21.716905618538945 -6.727952873728781" fill="#f3ff19" stroke="none" /><path d="M 119.71291397450082 107.23885506374661 l 26.215869520970763 9.626830415730305 a48.927543368398766,48.927543368398766 0 0,0 -0.2962896301332653,0.7859434452541348 l -26.046749207023055 -10.075442141178598" fill="#b4ff20" stroke="none" /><path d="M 119.58574465831526 107.57618678355244 l 16.28641168347142 6.299933911138003 a38.462427460356736,38.462427460356736 0 0,0 -0.24348790812376886,0.613748586545839 l -16.17586510038153 -6.578583514897406" fill="#ffc712" stroke="none" /><path d="M 119.0197475246899 108.90220220490707 l 15.86465892200346 7.425461429087004 a38.516417446109315,38.516417446109315 0 0,0 -0.2854263554137773,0.5964313056531564 l -15.734853308629772 -7.696705236805264" fill="#ffc812" stroke="none" /><path d="M 118.70294669586154 109.54985784667822 l 24.907400425585152 12.717896129558202 a48.96647060182373,48.96647060182373 0 0,0 -0.3886816923856846,0.7453483947517081 l -24.68541066422452 -13.143590767414413" fill="#b4ff20" stroke="none" /><path d="M 118.5362547648365 109.86951160357373 l 19.021564711080355 10.127911814757145 a42.54981488981552,42.54981488981552 0 0,0 -0.348816595537535,0.6417832477571153 l -18.84490276592748 -10.452949895988864" fill="#fffc17" stroke="none" /><line stroke="#e1ed5e" stroke-width="0.3" x1="174.33088141563837" x2="178.70328620479359" y1="141.23008692659167" y2="143.65538615756765" /><path d="M 175.20536237346943 141.71514677278685 a86.0,86.0 0 0,1 -30.301960400862466,31.631185727798858" fill="none" id="id29" stroke="none" /><text fill="#e1ed5e" style="font-size:6.75px; font-family:Arial;" text-anchor="middle"><textPath startOffset="22.145653131862474" xlink:href="#id29">May</textPath></text><path d="M 118.36410011445183 110.18625677009912 l 5.073238430468791 2.8140398378694154 a26.801428132925682,26.801428132925682 0 0,0 -0.22662092410404652,0.400417458494302 l -5.024184141343366 -2.90071406646284" fill="#ff2303" stroke="none" /><path d="M 117.62189284568427 111.42229804090321 l 17.58597388903658 11.399015807164705 a41.95719539914316,41.95719539914316 0 0,0 -0.3969461589160701,0.601027077358192 l -17.387703291199784 -11.69922276286196" fill="#fff417" stroke="none" /><path d="M 117.21940702142032 112.02048342749411 l 17.181335166891152 11.993906316223525 a41.953569310248724,41.953569310248724 0 0,0 -0.4173079615089415,0.5869959087701105 l -16.972912106852252 -12.28707945170314" fill="#fff417" stroke="none" /><path d="M 114.91283532996324 114.78537596483092 l 14.87190031103426 14.74479081575625 a41.94235600551549,41.94235600551549 0 0,0 -0.5113134298189266,0.5069432558240843 l -14.616594961085369 -14.997914081808997" fill="#fff417" stroke="none" /><path d="M 113.86319453409587 115.77377054828091 l 5.274980370431408 6.001959346760146 a28.990552791177727,28.990552791177727 0 0,0 -0.37662941402150035,0.3253235175396375 l -5.171171476647053 -6.091626996764502" fill="#ff4306" stroke="none" /><path d="M 111.5731344415666 117.5232005979908 l 6.238755435152841 9.446270889184454 a32.32051690920087,32.32051690920087 0 0,0 -0.4655914637101681,0.3017907616604529 l -6.0756783391856635 -9.551975492548802" fill="#ff730a" stroke="none" /><line stroke="#e1ed5e" stroke-width="0.3" x1="143.1302829299769" x2="145.66735839644613" y1="173.24464959558577" y2="177.55315839532614" /><path d="M 143.63769802327073 174.10635135553383 a86.0,86.0 0 0,1 -40.68552437913181,11.842963189579606" fill="none" id="id30" stroke="none" /><text fill="#e1ed5e" style="font-size:6.75px; font-family:Arial;" text-anchor="middle"><textPath startOffset="21.407464694133747" xlink:href="#id30">June</textPath></text><path d="M 109.71004243097381 118.62028667847754 l 7.4628502878339456 14.3109994406163 a37.13997643765143,37.13997643765143 0 0,0 -0.5678397819204206,0.2899430386671987 l -7.216083284199943 -14.437000430956335" fill="#ffb510" stroke="none" /><path d="M 108.07796709384702 119.3841803445677 l 3.1205122577713484 7.488093436051254 a29.112283282648303,29.112283282648303 0 0,0 -0.462948434609548,0.18827709808844292 l -2.9915093619713593 -7.540557790718989" fill="#ff4506" stroke="none" /><path d="M 106.72888874123015 119.89276391827305 l 6.7597082821429755 19.9838764147083 a42.096183840164244,42.096183840164244 0 0,0 -0.6865231331931971,0.22567378996270945 l -6.415662411302044 -20.09697112607303" fill="#fff617" stroke="none" /><path d="M 105.3480935250658 120.30758222061773 l 5.323378745874076 20.21373617844436 a41.90295413485315,41.90295413485315 0 0,0 -0.6971747796636495,0.1772191027097284 l -4.975598672985029 -20.30214051298936" fill="#fff417" stroke="none" /><path d="M 104.9986988182912 120.39639698878246 l 4.987771378748735 20.351809306451305 a41.954092807201725,41.954092807201725 0 0,0 -0.7009686754790523,0.1654266987743081 l -4.637670549529804 -20.43443214887184" fill="#fff417" stroke="none" /><line stroke="#e1ed5e" stroke-width="0.3" x1="101.45913802915013" x2="101.54496967792366" y1="184.9874750549273" y2="189.98673829345242" /><path d="M 101.47630435890484 185.9873277026323 a86.0,86.0 0 0,1 -42.54439059252881,-10.42667462771756" fill="none" id="id31" stroke="none" /><text fill="#e1ed5e" style="font-size:6.75px; font-family:Arial;" text-anchor="middle"><textPath startOffset="22.145653131862474" xlink:href="#id31">July</textPath></text><path d="M 100.36049292484886 120.99690560180557 l 0.2999228125846856 17.46900022048705 a38.471574697115464,38.471574697115464 0 0,0 -0.6604157374335358,0.0056688748228486616 l -2.139650802888634e-15 -17.471574697115464" fill="#ffc712" stroke="none" /><path d="M 98.91894614982273 120.97215588758144 l -0.8999537090501102 17.458861531006196 a38.48204114619575,38.48204114619575 0 0,0 -0.6594276118061966,-0.03966952762304621 l 1.1995256729887531 -17.440840025558458" fill="#ffc712" stroke="none" /><path d="M 97.84075906011543 120.88869738790638 l -3.6787491565475423 35.588560997387084 a56.77818985389759,56.77818985389759 0 0,0 -0.9686469998450126,-0.10853891673693057 l 4.289132057993354 -35.52016632014318" fill="#5cff2a" stroke="none" /><path d="M 97.12497278360702 120.80226474461374 l -3.008148807595719 21.765466264110305 a42.97235720041806,42.97235720041806 0 0,0 -0.7298648079165692,-0.10726499248871223 l 3.381338721119973 -21.71062019832271" fill="#fdff18" stroke="none" /><path d="M 96.76829788921471 120.74984581791261 l -3.227079506375142 20.720165381566808 a41.96996174483745,41.96996174483745 0 0,0 -0.7109361708876657,-0.11698427637662173 l 3.5822931803158715 -20.66171510669452" fill="#fff517" stroke="none" /><path d="M 95.35216902796893 120.47920084513623 l -4.052457557150622 17.855875725405546 a39.30996204730185,39.30996204730185 0 0,0 -0.656790558100169,-0.15500078336366818 l 4.358380268990679 -17.783678798395652" fill="#ffd213" stroke="none" /><path d="M 94.6519064749342 120.30758222061772 l -4.4507133756651225 16.90008362664345 a38.47631757950932,38.47631757950932 0 0,0 -0.6372751846522235,-0.17369218541383116 l 4.740169961252041 -16.821190947085476" fill="#ffc712" stroke="none" /><path d="M 92.93061703081489 119.77432235084164 l -7.053937120475083 19.73111756299726 a41.95411723705953,41.95411723705953 0 0,0 -0.6760823050378986,-0.24826678712562056 l 7.3916085771671005 -19.607119926862918" fill="#fff417" stroke="none" /><path d="M 92.59220618246901 119.65005319985036 l -7.407967402294913 19.650513654059786 a42.00049208713582,42.00049208713582 0 0,0 -0.6724633537436261,-0.2601232713862012 l 7.744203018532067 -19.52045049453554" fill="#fff517" stroke="none" /><path d="M 91.92203290615298 119.3841803445677 l -8.061728535792428 19.345213716676167 a41.95778520571021,41.95778520571021 0 0,0 -0.6624633284641191,-0.2827662024168389 l 8.392626939426977 -19.203972864599926" fill="#fff417" stroke="none" /><path d="M 91.59046798132341 119.24265499422711 l -8.392290123611888 19.203202164100542 a41.95694412060569,41.95694412060569 0 0,0 -0.6574984746298282,-0.2940907046589511 l 8.72070200109735 -19.056307708531737" fill="#fff417" stroke="none" /><path d="M 90.93487009805054 118.94263497670748 l -10.565350042874861 22.07751807508902 a45.475363651728614,45.475363651728614 0 0,0 -0.7012728776044068,-0.34302770566835566 l 10.942783169741338 -21.892896619323444" fill="#deff1b" stroke="none" /><path d="M 90.28995756902619 118.62028667847754 l -10.730024784891215 20.576237331828665 a44.205925420463615,44.205925420463615 0 0,0 -0.6698485655855551,-0.3566566318038078 l 11.081662166263332 -20.389010232302283" fill="#edff1a" stroke="none" /><path d="M 89.97174638481275 118.45085714620012 l -5.107065062536929 9.396424494341924 a31.694620462216236,31.694620462216236 0 0,0 -0.47580539547143724,-0.26392123222288727 l 5.267614646164469 -9.307370346685888" fill="#ff6a09" stroke="none" /><line stroke="#e1ed5e" stroke-width="0.3" x1="58.13341422392154" x2="55.67067388415222" y1="173.97424548756322" y2="178.32567169271397" /><path d="M 57.64086615596768 174.84453072859336 a86.0,86.0 0 0,1 -31.369924170532247,-30.572349798747897" fill="none" id="id32" stroke="none" /><text fill="#e1ed5e" style="font-size:6.75px; font-family:Arial;" text-anchor="middle"><textPath startOffset="22.145653131862474" xlink:href="#id32">August</textPath></text><path d="M 87.83215693770417 117.11559508785305 l -12.14742927772133 17.08688054336073 a41.96476865506321,41.96476865506321 0 0,0 -0.5835480639305871,-0.42244379634229173 l 12.43895835202587 -16.875835975645376" fill="#fff517" stroke="none" /><path d="M 87.54013794807813 116.9041958592261 l -5.899535022627702 8.00385229670181 a30.943146638294625,30.943146638294625 0 0,0 -0.42487446889752967,-0.3188337223384009 l 6.036062480435998 -7.901399547099395" fill="#ff5f08" stroke="none" /><path d="M 87.2517909369889 116.68781488649013 l -3.0027309836035516 3.93067124649655 a25.94636935619728,25.94636935619728 0 0,0 -0.3516227948378571,-0.2734240120373779 l 3.0697637230766373 -3.878546182838379" fill="#ff1602" stroke="none" /><path d="M 86.96720088162412 116.46651593811092 l -9.117047318119582 11.519091456006105 a35.69047377631723,35.69047377631723 0 0,0 -0.47714633420746627,-0.38435531142074664 l 9.31344442268231 -11.360887850791949" fill="#ffa20e" stroke="none" /><path d="M 86.40962598614128 116.0094264158162 l -21.962184821929004 25.871398497104142 a54.93621697167395,54.93621697167395 0 0,0 -0.7137012997177308,-0.616478184265051 l 22.403065601409597 -25.49057618037437" fill="#70ff27" stroke="none" /><path d="M 86.13680546590413 115.77377054828092 l -6.43391998605273 7.320619885726317 a30.746117272956464,30.746117272956464 0 0,0 -0.3934550952682594,-0.35182997235339003 l 6.55864010814436 -7.2090943834895445" fill="#ff5d08" stroke="none" /><path d="M 85.86807049272751 115.53346607816431 l -11.573460130657171 12.72126005539689 a38.19812306017571,38.19812306017571 0 0,0 -0.481242197781329,-0.44543059373755445 l 11.790132099752467 -12.520711715526957" fill="#ffc312" stroke="none" /><path d="M 85.60350026404147 115.28858382429668 l -9.003795862677618 9.561719189253838 a34.133728099474105,34.133728099474105 0 0,0 -0.4231404087754933,-0.4053589397836345 l 9.166608757318427 -9.40574811916462" fill="#ff8c0c" stroke="none" /><path d="M 85.34317274990678 115.03919595460226 l -3.530452300832436 3.6225550765263863 a26.058359292391174,26.058359292391174 0 0,0 -0.31767383461945775,-0.31495868995488785 l 3.5921180555818566 -3.561416376342839" fill="#ff1802" stroke="none" /><path d="M 85.08716467003676 114.78537596483092 l -3.7926092184719353 3.7601939498469164 a26.340687523578183,26.340687523578183 0 0,0 -0.3156030784616414,-0.3238365616153502 l 3.856599098084386 -3.694534696163829" fill="#ff1c02" stroke="none" /><path d="M 84.83555147118756 114.52719865689866 l -15.126696348454006 14.491032922104154 a41.947720104293886,41.947720104293886 0 0,0 -0.49367306246860626,-0.5242636846300063 l 15.373225244658865 -14.229227777529657" fill="#fff417" stroke="none" /><path d="M 84.1078160697243 113.72728997021213 l -23.288302455781245 20.11588099704092 a51.77326273827751,51.77326273827751 0 0,0 -0.5751896981816571,-0.6775720181640669 l 23.630186717470018 -19.713142196427302" fill="#93ff23" stroke="none" /><path d="M 83.8745106332314 113.45245675266167 l -6.233929539851604 5.200565739531347 a29.1183595337372,29.1183595337372 0 0,0 -0.3169092233328001,-0.3865777237470857 l 6.322285582423034 -5.0927857340857665" fill="#ff4506" stroke="none" /><path d="M 83.64595745247003 113.17365903436017 l -24.27992775776178 19.558191115747107 a52.17751965186166,52.17751965186166 0 0,0 -0.555898224380051,-0.7023592467419576 l 24.61209241278339 -19.13851192509047" fill="#8eff24" stroke="none" /><path d="M 83.4222238831116 112.89097897827486 l -4.100697114861015 3.188726879360687 a26.19458332679213,26.19458332679213 0 0,0 -0.27298251262364803,-0.3573428718807302 l 4.154831604838958 -3.117863094239086" fill="#ff1a02" stroke="none" /><path d="M 82.98947788004972 112.3143062007846 l -16.98209410644203 12.293726511310519 a41.96490476427098,41.96490476427098 0 0,0 -0.417420714137349,-0.5871545094623642 l 17.19062991910934 -12.00039477513865" fill="#fff517" stroke="none" /><path d="M 82.78059297857968 112.02048342749411 l -8.827035623476403 6.161956407320365 a31.765048288969165,31.765048288969165 0 0,0 -0.3082877548499388,-0.44980104761723516 l 8.931513115141668 -6.009520624633079" fill="#ff6b09" stroke="none" /><line stroke="#e1ed5e" stroke-width="0.3" x1="26.387840678322732" x2="22.057713659400548" y1="142.50000000000003" y2="145.00000000000006" /><path d="M 25.521815274538298 143.00000000000003 a86.0,86.0 0 0,1 -11.493303480769221,-40.785679425670985" fill="none" id="id33" stroke="none" /><text fill="#e1ed5e" style="font-size:6.75px; font-family:Arial;" text-anchor="middle"><textPath startOffset="21.40746469413373" xlink:href="#id33">September</textPath></text><path d="M 79.22317932658666 103.0534771498775 l -9.908412064963965 1.4561953586408598 a31.014845708829,31.014845708829 0 0,0 -0.07289298590117843,-0.5274173343806304 l 9.931949567420356 -1.2858897160601437" fill="#ff6008" stroke="none" /><path d="M 79.00696218219943 100.54070618675478 l -17.462115549927354 0.4497621541779128 a38.46790672846479,38.46790672846479 0 0,0 -0.011336251049773318,-0.6602797912614273 l 17.467263232575792 -0.1499354469474331" fill="#ffc712" stroke="none" /><line stroke="#e1ed5e" stroke-width="0.3" x1="15.003131293944662" x2="10.003315487706104" y1="100.72959589197737" y2="100.7725132973878" /><path d="M 14.003168132696942 100.73817937305945 a86.0,86.0 0 0,1 10.791469493833604,-42.45332614584628" fill="none" id="id34" stroke="none" /><text fill="#e1ed5e" style="font-size:6.75px; font-family:Arial;" text-anchor="middle"><textPath startOffset="22.145653131862435" xlink:href="#id34">October</textPath></text><path d="M 79.06263194458094 98.37931529534042 l -20.928787433543793 -1.6200205102587948 a41.99139371009271,41.99139371009271 0 0,0 0.06180008845008292,-0.7182107053345966 l 20.897893722395967 1.979052262969072" fill="#fff517" stroke="none" /><path d="M 79.0935383218832 98.0201363427161 l -13.899958559229946 -1.3163405272914959 a34.96214884364509,34.96214884364509 0 0,0 0.061712533873042395,-0.5970127841239438 l 13.87531363287524 1.5547578336983525" fill="#ff980e" stroke="none" /><path d="M 79.34024301695615 96.23510406497455 l -3.4350373746459337 -0.6259782367759283 a24.491608586043334,24.491608586043334 0 0,0 0.07892561719007885,-0.4129721799298093 l 3.4237854651736956 0.6848529817390522" fill="#ff0000" stroke="none" /><path d="M 79.64726062577567 94.8264132398404 l -20.30749961691913 -5.162086990761311 a41.95332152169097,41.95332152169097 0 0,0 0.18341696337489174,-0.6964640851799193 l 20.215893172739516 5.5099315803140145" fill="#fff417" stroke="none" /><path d="M 80.05021161711548 93.44210830539832 l -19.90208575254451 -6.542210892514289 a41.94978617226839,41.94978617226839 0 0,0 0.23075294594376267,-0.6821800825712678 l 19.786847385028384 6.882892649559719" fill="#fff417" stroke="none" /><path d="M 80.16572619554312 93.10060997987247 l -19.80866525201457 -6.890482036256152 a41.97288634781437,41.97288634781437 0 0,0 0.24256296904455465,-0.6784917949942586 l 19.687462112926074 7.229508787631333" fill="#fff517" stroke="none" /><path d="M 80.41425534168474 92.42381321644754 l -32.55925024510031 -12.59461744716346 a55.91030170542012,55.91030170542012 0 0,0 0.353942361512472,-0.8921659632746651 l 32.338249208621704 13.151684427651707" fill="#65ff29" stroke="none" /><path d="M 80.5471966667186 92.08871423366112 l -26.98751713056356 -10.975588273108745 a50.133994213174134,50.133994213174134 0 0,0 0.33106139559642833,-0.7944268307621027 l 26.795129890430655 11.437247613312111" fill="#a6ff21" stroke="none" /><path d="M 80.68587082218212 91.75594674310238 l -29.049029948658717 -12.399303522987665 a52.58463026241158,52.58463026241158 0 0,0 0.3614970922169969,-0.8271760915469694 l 28.831898974424742 12.896141684310502" fill="#8aff24" stroke="none" /><path d="M 80.83023694016515 91.42560881287825 l -5.432946572661538 -2.4300878976609366 a26.95165822706184,26.95165822706184 0 0,0 0.1925317824750745,-0.4207166911626413 l 5.390430325331416 2.522993571038249" fill="#ff2503" stroke="none" /><path d="M 80.9802524753101 91.09779779509293 l -18.968304161997363 -8.878124113639304 a41.943200580599665,41.943200580599665 0 0,0 0.31082057132806973,-0.6494954501041613 l 18.813104332709386 9.202432065808553" fill="#fff417" stroke="none" /><path d="M 81.1358732173502 90.77261029715801 l -9.911204795377909 -4.8480669222252635 a32.03339174407837,32.03339174407837 0 0,0 0.2458640410206074,-0.4918927798329409 l 9.826520841145557 5.017491558221974" fill="#ff6f0a" stroke="none" /><path d="M 81.29705330413844 90.45014215332179 l -15.564547763339162 -7.947368989754546 a38.47615006048467,38.47615006048467 0 0,0 0.30541255961867486,-0.5856688532242601 l 15.425827134745548 8.213384086083293" fill="#ffc712" stroke="none" /><path d="M 81.46374523516351 90.13048839642627 l -24.64546849829312 -13.122323813807396 a48.921219525206546,48.921219525206546 0 0,0 0.4010483544644103,-0.7378838011969636 l 24.416574794213357 13.54346244847898" fill="#b4ff20" stroke="none" /><path d="M 81.63589988554816 89.8137432299009 l -24.42447011326914 -13.547841848867936 a48.93024810265592,48.93024810265592 0 0,0 0.4137323573456265,-0.7310254323609237 l 24.188304390902147 13.965124051327965" fill="#b4ff20" stroke="none" /><line stroke="#e1ed5e" stroke-width="0.3" x1="26.387840678322718" x2="22.05771365940052" y1="57.49999999999999" y2="54.99999999999999" /><path d="M 25.521815274538284 56.99999999999999 a86.0,86.0 0 0,1 29.574782752854787,-30.34633250058573" fill="none" id="id35" stroke="none" /><text fill="#e1ed5e" style="font-size:6.75px; font-family:Arial;" text-anchor="middle"><textPath startOffset="21.40746469413373" xlink:href="#id35">November</textPath></text><path d="M 81.81346652052679 89.5 l -3.9778453726856835 -2.296610096714787 a25.593220193429573,25.593220193429573 0 0,0 0.22293680075312775,-0.37859542631877324 l 3.9378348618027763 2.364556691327133" fill="#ff1101" stroke="none" /><path d="M 82.98947788004972 87.6856937992154 l -16.971184827988537 -12.285829035009744 a41.95143693266017,41.95143693266017 0 0,0 0.4273013159739432,-0.5797163007125319 l 16.757781492430773 12.575351644991139" fill="#fff417" stroke="none" /><path d="M 84.58840730492382 85.73525988315684 l -20.240909874621707 -18.73468400071132 a48.58047891460674,48.58047891460674 0 0,0 0.5717324741925295,-0.6071600748154355 l 19.916321566692904 19.079385535471268" fill="#b8ff1f" stroke="none" /><path d="M 85.34317274990677 84.96080404539775 l -6.78870705857109 -6.9658114945437895 a30.7267195551538,30.7267195551538 0 0,0 0.38090526282415477,-0.36489862535990647 l 6.6681293098816345 7.081322250209264" fill="#ff5c08" stroke="none" /><path d="M 86.13680546590413 84.22622945171909 l -13.858872384882291 -15.768852735881842 a41.993452798107825,41.993452798107825 0 0,0 0.5455559828063828,-0.4712382642828725 l 13.58613692231306 16.004435132629425" fill="#fff517" stroke="none" /><path d="M 86.68645165197937 83.75963576809568 l -4.104254796956776 -5.006523509792061 a27.47380761935689,27.47380761935689 0 0,0 0.3672976345020301,-0.2958689747194989 l 4.017706392099501 5.076240778304959" fill="#ff2d04" stroke="none" /><path d="M 87.25179093698888 83.31218511350988 l -12.74099092942938 -16.678366117926412 a41.988109639207565,41.988109639207565 0 0,0 0.5765307578930062,-0.432639428908453 l 12.45280718262562 16.894624574098867" fill="#fff517" stroke="none" /><line stroke="#e1ed5e" stroke-width="0.3" x1="56.869717070023135" x2="54.33264160355391" y1="26.7553504044142" y2="22.446841604673864" /><path d="M 56.362301976729285 25.89364864446614 a86.0,86.0 0 0,1 42.16139366436587,-11.88097634709845" fill="none" id="id36" stroke="none" /><text fill="#e1ed5e" style="font-size:6.75px; font-family:Arial;" text-anchor="middle"><textPath startOffset="22.145653131862474" xlink:href="#id36">December</textPath></text><path d="M 89.65649057296885 81.72400993836675 l -5.171112673456915 -9.136860607552064 a31.498696492585324,31.498696492585324 0 0,0 0.472864149275929,-0.2622897725387897 l 5.013504336024884 9.224283295524" fill="#ff6709" stroke="none" /><path d="M 89.97174638481275 81.54914285379989 l -8.338167478391327 -15.341289012864403 a38.46081857972119,38.46081857972119 0 0,0 0.5827934583843468,-0.3103046906175734 l 8.073585204220418 15.48216417120455" fill="#ffc712" stroke="none" /><path d="M 90.61103034731259 81.2157712731953 l -2.4981331606152 -4.99793975429242 a26.58749237813367,26.58749237813367 0 0,0 0.41000413830866056,-0.20055356961614554 l 2.4119687730444865 5.04008707400578" fill="#ff2003" stroke="none" /><path d="M 90.93487009805054 81.0573650232925 l -2.1962789464745134 -4.58937829243325 a26.087831986395063,26.087831986395063 0 0,0 0.4056176940086421,-0.18984956163406777 l 2.1171725385943487 4.626404085637861" fill="#ff1802" stroke="none" /><path d="M 91.5904679813234 80.7573450057729 l -8.392527711531255 -19.203745811755713 a41.95753741715245,41.95753741715245 0 0,0 0.6624594161786654,-0.28276453249481764 l 8.061633220182157 19.344984993909932" fill="#fff417" stroke="none" /><path d="M 92.25597844496254 80.48000691201159 l -3.8672328823150006 -9.74795312692864 a31.48704345041329,31.48704345041329 0 0,0 0.5041341609571616,-0.19500992349348234 l 3.6993264588643098 9.812902938560164" fill="#ff6709" stroke="none" /><path d="M 93.61358852112211 79.99465700312896 l -6.913059870481717 -21.655061582594882 a43.73174188043762,43.73174188043762 0 0,0 0.7171159503509208,-0.22216435452210773 l 6.540303287259181 21.770542524923634" fill="#f3ff19" stroke="none" /><path d="M 94.30408787586887 79.78721728523814 l -6.829176021874227 -24.234336493044484 a46.1781792510072,46.1781792510072 0 0,0 0.7648395054510791,-0.20846040830089632 l 6.412155115488471 24.34799739548952" fill="#d5ff1c" stroke="none" /><path d="M 94.6519064749342 79.69241777938228 l -2.159199080426712 -8.198830602145852 a29.478382151778657,29.478382151778657 0 0,0 0.49045669943385484,-0.12467217508008296 l 2.018137087767479 8.234688009061198" fill="#ff4a06" stroke="none" /><path d="M 95.00130118170881 79.60360301121753 l -1.9429808269033042 -7.928024817598459 a29.162643689526753,29.162643689526753 0 0,0 0.48724923726641783,-0.11498949328398514 l 1.8065994358969804 7.960210454528676" fill="#ff4606" stroke="none" /><path d="M 95.70440661134978 79.44403061299748 l -3.5767436381840185 -17.116013104482803 a38.48573703468392,38.48573703468392 0 0,0 0.6478496808900672,-0.1295880802665132 l 3.2823974717629745 17.174890581412182" fill="#ffc712" stroke="none" /><path d="M 96.76829788921471 79.25015418208739 l -1.8124562159986541 -11.63726907507285 a32.77756464896538,32.77756464896538 0 0,0 0.5567111623622385,-0.0818173694654849 l 1.6124199480287307 11.666667517837219" fill="#ff790b" stroke="none" /><path d="M 97.48249496171623 79.15144685158666 l -2.5170213876213947 -20.844547827118404 a41.995965583482224,41.995965583482224 0 0,0 0.716459368865244,-0.08028076667258666 l 2.1588261171553516 20.88468435429796" fill="#fff517" stroke="none" /><path d="M 97.84075906011542 79.11130261209362 l -1.7969392178350045 -17.383756880704134 a38.47638388912368,38.47638388912368 0 0,0 0.6575805227224877,-0.06227355918571174 l 1.4982591317275011 17.41204219539503" fill="#ffc712" stroke="none" /><path d="M 98.5590905019552 79.04949213459386 l -0.9600472633135356 -13.95887650716726 a34.99185206075814,34.99185206075814 0 0,0 0.5996197901623049,-0.03607163758887222 l 0.7202831210187469 13.973300122580826" fill="#ff980e" stroke="none" /><path d="M 99.27912038922189 79.0123766808444 l -0.9607009916856427 -27.969761156198977 a48.98625529666738,48.98625529666738 0 0,0 0.8406663905928774,-0.02165258417269128 l 0.4804212870220214 27.982131457721714" fill="#b3ff20" stroke="none" /><path d="M 99.63950707515114 79.00309439819443 l -0.3001032020226665 -17.47950700089721 a38.482083025951994,38.482083025951994 0 0,0 0.6605961268715144,-0.005670423249219056 l 4.2818754040320765e-15 17.482083025951994" fill="#ffc712" stroke="none" /></svg>