<?xml version="1.0" encoding="utf-8" ?>
<svg baseProfile="full" height="200mm" version="1.1" viewBox="0,0,200,200" width="200mm" xmlns="http://www.w3.org/2000/svg" xmlns:ev="http://www.w3.org/2001/xml-events" xmlns:xlink="http://www.w3.org/1999/xlink"><defs /><rect fill="#1a1a1a" height="200" width="200" x="0" y="0" /><text alignment-baseline="middle" fill="#e1ed5e" style="dominant-baseline: central; font-size:9.0px; font-family:Arial;" text-anchor="middle" x="100.0" y="100.0">2023</text><line stroke="#e1ed5e" stroke-width="0.3" x1="100.0" x2="100.0" y1="15.0" y2="10.0" /><path d="M 100.0 14.0 a86.0,86.0 0 0,1 42.46469731375804,11.215312516191453" fill="none" id="id157" stroke="none" /><text fill="#e1ed5e" style="font-size:6.75px; font-family:Arial;" text-anchor="middle"><textPath startOffset="22.20632615414155" xlink:href="#id157">January</textPath></text><path d="M 100.0 79.0 l 0.0 -16.062148008359188 a37.06214800835919,37.06214800835919 0 0,0 0.6379639535681458,0.005491157160769308 l -0.2764834742956174 16.059768227806977" fill="#ffc212" stroke="none" /><path d="M 101.44485096284872 79.0497635885617 l 0.5052883094318364 -7.326644623374458 a28.344047774413667,28.344047774413667 0 0,0 0.486451090051485,0.03775796690508847 l -0.6313295888456626 7.316861394280905" fill="#ff4c07" stroke="none" /><path d="M 102.52436894288641 79.15227682838746 l 0.8010707107274827 -6.615712994407954 a27.664035767308253,27.664035767308253 0 0,0 0.4722452082196264,0.06131098155513449 l -0.9148306474549552 6.600943689688683" fill="#ff4206" stroke="none" /><path d="M 104.66035177308747 79.52364482259891 l 2.4938504789835587 -10.957320531443214 a32.23753369028603,32.23753369028603 0 0,0 0.5400190829995358,0.12780506962918 l -2.682093248945618 10.912769549673166" fill="#ff820b" stroke="none" /><path d="M 105.01212808612495 79.60689891045804 l 2.0046485933879183 -8.15641593979583 a29.399150966968485,29.399150966968485 0 0,0 0.49039339352076716,0.1250121950728294 l -2.1447508755937106 8.120700748554132" fill="#ff5a08" stroke="none" /><path d="M 106.0581310904928 79.89281104454417 l 5.950500472347363 -19.749958459100462 a41.626907548335986,41.626907548335986 0 0,0 0.6842960654525808,0.21261411851868114 l -6.289581910510662 19.64460420569926" fill="#fffc17" stroke="none" /><line stroke="#e1ed5e" stroke-width="0.3" x1="143.23703022742887" x2="145.7803849466894" y1="26.81831364943548" y2="22.513508569990506" /><path d="M 143.74570117128098 25.957352633546492 a86.0,86.0 0 0,1 28.547481713284135,27.462654790039103" fill="none" id="id158" stroke="none" /><text fill="#e1ed5e" style="font-size:6.75px; font-family:Arial;" text-anchor="middle"><textPath startOffset="19.985693538727396" xlink:href="#id158">February</textPath></text><path d="M 111.60114157652 82.49532879139004 l 4.066974028658213 -6.136554986080348 a28.361900899018405,28.361900899018405 0 0,0 0.40462344605013306,0.27320355697319343 l -4.172002169114888 6.065639516808485" fill="#ff4c07" stroke="none" /><path d="M 111.90073688211348 82.69761687909136 l 6.6415658339926 -9.65611774470802 a32.719684578815375,32.719684578815375 0 0,0 0.46129903459201227,0.3231694534109249 l -6.806796008168264 9.540363448533158" fill="#ff880c" stroke="none" /><path d="M 112.77801427241765 83.33499621200491 l 3.810327258450125 -4.96940423150412 a27.262074115864415,27.262074115864415 0 0,0 0.36994302865962453,0.2887464018079244 l -3.8953028422691793 4.903079440472971" fill="#ff3c05" stroke="none" /><path d="M 113.6212207817346 84.01681056812373 l 5.554900267286383 -6.518139942807091 a29.564056590980442,29.564056590980442 0 0,0 0.3844822472454649,0.3334192160602888 l -5.666276313178613 6.421555733327131" fill="#ff5d08" stroke="none" /><path d="M 115.68641384162765 86.03803664274999 l 23.2015905819543 -20.650976112558702 a52.06085349654933,52.06085349654933 0 0,0 0.5900431772028748,0.6745213508194497 l -23.55362562273502 20.248539205536307" fill="#88ff25" stroke="none" /><path d="M 116.38621287248628 86.86637796730983 l 5.856154660316497 -4.693733840277153 a28.505043955161725,28.505043955161725 0 0,0 0.3035731791934101,0.3855071092366141 l -5.936081920103871 4.5922343370875005" fill="#ff4e07" stroke="none" /><path d="M 116.82858285166822 87.43820079747576 l 7.865492834102824 -5.871245516142706 a30.81516690811464,30.81516690811464 0 0,0 0.31363586999509413,0.42779897420222834 l -7.965391316611544 5.734984098268985" fill="#ff6e0a" stroke="none" /><path d="M 117.04232023915458 87.72973835380427 l 9.11481106528523 -6.562552226294626 a32.23151247511619,32.23151247511619 0 0,0 0.320300471342403,0.4530423017561673 l -9.226424156431515 6.404683424206666" fill="#ff820b" stroke="none" /><path d="M 117.2510076193507 88.02491185347247 l 11.807252707545322 -8.196210624971185 a35.37320719633328,35.37320719633328 0 0,0 0.34291045504781686,0.5031787798549601 l -11.946587628261872 7.991753821845819" fill="#ffac0f" stroke="none" /><line stroke="#e1ed5e" stroke-width="0.3" x1="172.23445277983987" x2="176.4835382374775" y1="55.19839476539836" y2="52.563006222186495" /><path d="M 173.08426987136738 54.67131705675599 a86.0,86.0 0 0,1 12.851231095245387,41.99856678651699" fill="none" id="id159" stroke="none" /><text fill="#e1ed5e" style="font-size:6.75px; font-family:Arial;" text-anchor="middle"><textPath startOffset="22.20632615414155" xlink:href="#id159">March</textPath></text><path d="M 117.84615892207809 88.93136811851018 l 8.397868358336048 -5.208566944488977 a30.881971593723847,30.881971593723847 0 0,0 0.2762968847730626,0.4541594311926377 l -8.486281041395335 5.063239740089258" fill="#ff6f0a" stroke="none" /><path d="M 118.3937258080291 89.86733742301442 l 25.616334732624416 -14.111424678924891 a50.24600676336567,50.24600676336567 0 0,0 0.41080154323257734,0.761152869668215 l -25.855444375075457 13.668390825924218" fill="#9cff22" stroke="none" /><path d="M 118.56541770881063 90.18545643968196 l 8.612703246611556 -4.553075643746292 a30.742132981635436,30.742132981635436 0 0,0 0.24328821457547978,0.46995539347642346 l -8.689800894347153 4.404147528009523" fill="#ff6d0a" stroke="none" /><path d="M 119.04729006885535 91.15688171328212 l 5.5501368882222275 -2.5767716474417584 a27.119131605143398,27.119131605143398 0 0,0 0.19293025846545203,0.4250962506537538 l -5.593669463651026 2.480853387945942" fill="#ff3a05" stroke="none" /><path d="M 119.47837535516314 92.15188598940014 l 7.004606084832538 -2.822255252337333 a28.55179654870407,28.55179654870407 0 0,0 0.17974912696209916,0.4574419219440282 l -7.052148761676338 2.7012643254975206" fill="#ff4e07" stroke="none" /><path d="M 119.61058180528143 92.48833698450437 l 29.510191604157164 -11.303622557156254 a52.60100143078886,52.60100143078886 0 0,0 0.3165964390986265,0.848321054937863 l -29.700392631757417 10.793978365189057" fill="#82ff25" stroke="none" /><path d="M 120.37134235888165 94.90015583598534 l 30.113763544017495 -7.538801251333234 a52.04307135404132,52.04307135404132 0 0,0 0.21007359164325937,0.870890660172068 l -30.239069935921574 7.019325359501759" fill="#88ff25" stroke="none" /><path d="M 120.45610955862082 95.25157060432595 l 5.768693116128848 -1.33907338972502 a26.9220720876347,26.9220720876347 0 0,0 0.1009008660396487,0.45231879778414763 l -5.790888369170534 1.2395764223909085" fill="#ff3705" stroke="none" /><path d="M 120.78858239683441 97.02765380044208 l 22.394884009089402 -3.2020147936635355 a43.62263752349421,43.62263752349421 0 0,0 0.0998833782752079,0.7442471854966519 l -22.446683386422446 2.8160492661022194" fill="#e9ff1a" stroke="none" /><path d="M 120.83666639777658 97.38593545837742 l 16.71072973426532 -2.096445046873828 a37.84172111413263,37.84172111413263 0 0,0 0.07552062731571117,0.6470146151711406 l -16.74434071458462 1.808486693377835" fill="#ffcc13" stroke="none" /><line stroke="#e1ed5e" stroke-width="0.3" x1="184.98032266829074" x2="189.97916517819016" y1="98.17113171792111" y2="98.06355123074" /><path d="M 185.9800911702706 98.14961562048488 a86.0,86.0 0 0,1 -9.607161424134198,41.387399972396054" fill="none" id="id160" stroke="none" /><text fill="#e1ed5e" style="font-size:6.75px; font-family:Arial;" text-anchor="middle"><textPath startOffset="21.466115282336823" xlink:href="#id160">April</textPath></text><path d="M 120.99513854157772 99.54816195383933 l 15.146232106128954 -0.3259632656377318 a36.14973924076836,36.14973924076836 0 0,0 0.008033836939671656,0.6222295245765076 l -15.149598950186341 0.06519748300076152" fill="#ffb610" stroke="none" /><path d="M 120.99824983174949 100.27111621757518 l 10.585604784405913 0.13667468255161735 a31.586487076480466,31.586487076480466 0 0,0 -0.011698938880080343,0.5436037196597124 l -10.581683782840825 -0.3188682180014447" fill="#ff790b" stroke="none" /><path d="M 120.9764740272857 100.99374915477107 l 27.95318049044211 1.3242668643646351 a48.984531124521055,48.984531124521055 0 0,0 -0.04715029162333183,0.8419001307089248 l -27.926243847931254 -1.8052387114089832" fill="#aaff21" stroke="none" /><path d="M 120.89721153311464 102.0752229133903 l 9.627173188356148 0.9560380991499542 a30.674526988211348,30.674526988211348 0 0,0 -0.05670069239172548,0.5249779916193995 l -9.60929019446337 -1.1216124126541451" fill="#ff6c0a" stroke="none" /><path d="M 120.8583938346157 102.4346265915055 l 14.405280844440256 1.6814084574324242 a35.50307728062988,35.50307728062988 0 0,0 -0.07607547117718381,0.6063963566059283 l -14.374203864016224 -1.9291225683257476" fill="#ffae10" stroke="none" /><path d="M 120.41448212921028 104.9243191809786 l 60.42648171426386 14.575891813529587 a83.15960355829165,83.15960355829165 0 0,0 -0.3476415381012478,1.3886551359353396 l -60.16662886186755 -15.613874788862324" fill="#4cdaff" stroke="none" /><path d="M 119.79798401119884 107.00284435728193 l 9.62206495808764 3.4034689218371557 a31.206259587114637,31.206259587114637 0 0,0 -0.1834864744657956,0.5048759734247971 l -9.562054222616617 -3.568592692268084" fill="#ff740a" stroke="none" /><path d="M 119.67450827220406 107.3425965602758 l 5.288571505895954 1.973713721873569 a26.644867972670983,26.644867972670983 0 0,0 -0.16406351658772003,0.428318071067432 l -5.253813709714727 -2.064455359774145" fill="#ff3304" stroke="none" /><path d="M 119.54520255179757 107.68017299344265 l 9.328994794462531 3.6657739251624535 a31.023374798215915,31.023374798215915 0 0,0 -0.19957984915009833,0.495340818166244 l -9.26451233105504 -3.8258141111715114" fill="#ff710a" stroke="none" /><path d="M 118.64920377521936 109.65438752849418 l 19.26929190044132 9.975397000794823 a42.69825236436981,42.69825236436981 0 0,0 -0.3435125066733718,0.6497962065578835 l -19.094726885543057 -10.305608222438842" fill="#f5ff19" stroke="none" /><line stroke="#e1ed5e" stroke-width="0.3" x1="174.80103733775053" x2="179.2010983576182" y1="140.37084112569926" y2="142.7455964860345" /><path d="M 175.68104954172406 140.8457921977663 a86.0,86.0 0 0,1 -30.038265399797805,32.042727171017184" fill="none" id="id161" stroke="none" /><text fill="#e1ed5e" style="font-size:6.75px; font-family:Arial;" text-anchor="middle"><textPath startOffset="22.206326154141568" xlink:href="#id161">May</textPath></text><path d="M 118.48025628344425 109.97397251340804 l 14.150157510463103 7.636976452333581 a37.079501450741965,37.079501450741965 0 0,0 -0.30797808470411303,0.5590696820198221 l -14.01660301630748 -7.879416652751209" fill="#ffc212" stroke="none" /><path d="M 118.30583269289576 110.29060199501025 l 13.852375144002762 7.787096150388534 a36.89110328408891,36.89110328408891 0 0,0 -0.3159424421609422,0.5508722787753056 l -13.71628070568944 -8.024388275022154" fill="#ffc011" stroke="none" /><path d="M 117.75023020441432 111.22182372390056 l 7.275242599458118 4.599460911747921 a29.607217643330923,29.607217643330923 0 0,0 -0.2760452011191135,0.42842828229679675 l -7.194992534961954 -4.724010793966171" fill="#ff5d08" stroke="none" /><path d="M 117.35343817320211 111.8261652097733 l 6.507920732982674 4.43507188559398 a28.875461567246195,28.875461567246195 0 0,0 -0.2834457834641301,0.40832479146555506 l -6.4306140423564075 -4.546437939246555" fill="#ff5307" stroke="none" /><path d="M 116.0416608686014 113.55231037782055 l 6.753362405310355 5.70537328773802 a29.840768525976337,29.840768525976337 0 0,0 -0.3348666963481369,0.38952562055190515 l -6.65415319939144 -5.820776007451453" fill="#ff6108" stroke="none" /><path d="M 115.80600337817218 113.82643327865902 l 10.86573163989828 9.504889373257944 a35.43630998794908,35.43630998794908 0 0,0 -0.4055620717486553,0.4556532869436179 l -10.700510718501288 -9.690516829942428" fill="#ffad10" stroke="none" /><path d="M 114.0293411484842 115.62618273729858 l 5.774880858046223 6.432186844619411 a29.644204794469164,29.644204794469164 0 0,0 -0.3826327810259078,0.3376289413047613 l -5.6633057241137275 -6.530638927696461" fill="#ff5e08" stroke="none" /><path d="M 112.34349029814194 116.9893568818739 l 5.42856145197721 7.471773836668172 a30.235620374626272,30.235620374626272 0 0,0 -0.4236912762756182,0.30229247592155345 l -5.299142847852707 -7.564110574433944" fill="#ff6609" stroke="none" /><path d="M 112.04921762599082 117.19931262002967 l 9.8959788289932 14.125733208927176 a38.24722399905764,38.24722399905764 0 0,0 -0.5424605881145595,0.37310933892492265 l -9.651361356255759 -14.293983337217194" fill="#ffd113" stroke="none" /><path d="M 111.7513745106137 117.40417183066458 l 4.933169593173435 7.3061862841537755 a29.81569737761952,29.81569737761952 0 0,0 -0.4278201902185364,0.28353589375490507 l -4.8066747042149345 -7.390020198999999" fill="#ff6008" stroke="none" /><line stroke="#e1ed5e" stroke-width="0.3" x1="143.8653032363475" x2="146.44561519142675" y1="172.8068346515853" y2="177.08958963109032" /><path d="M 144.38136562736335 173.6633856474863 a86.0,86.0 0 0,1 -40.68145358897372,12.25698825130547" fill="none" id="id162" stroke="none" /><text fill="#e1ed5e" style="font-size:6.75px; font-family:Arial;" text-anchor="middle"><textPath startOffset="21.466115282336833" xlink:href="#id162">June</textPath></text><path d="M 110.21172684928248 118.3499491758327 l 7.343511956761938 13.195914184501465 a36.101632991959264,36.101632991959264 0 0,0 -0.5456111793303835,0.2975107179045922 l -7.115277965562905 -13.320365554165827" fill="#ffb610" stroke="none" /><path d="M 109.89434966115114 118.52300852407294 l 3.385216633414474 6.33739444268584 a28.184863253906187,28.184863253906187 0 0,0 -0.4298984814891823,0.22490256725813143 l -3.275627249398796 -6.3947264288886885" fill="#ff4906" stroke="none" /><path d="M 107.93186726928326 119.44442032107085 l 6.837311216464875 16.761192370649518 a39.102110218334104,39.102110218334104 0 0,0 -0.6254083192679241,0.248862877193431 l -6.547781821155085 -16.876402092249016" fill="#ffdc14" stroke="none" /><path d="M 107.59598834532513 119.57807347666477 l 5.138669467183907 13.244523796924572 a35.206453973468165,35.206453973468165 0 0,0 -0.5668738338029684,0.21434317847848872 l -4.909925412620663 -13.331015225509692" fill="#ffaa0f" stroke="none" /><path d="M 105.53697534728816 120.25689768951611 l 1.7507969452418584 6.405250587263622 a27.640220254563037,27.640220254563037 0 0,0 -0.46002481627452413,0.12149673507859346 l -1.640281686155837 -6.4344386716457995" fill="#ff4206" stroke="none" /><path d="M 105.18746579009965 120.34920634021253 l 2.211309369509637 8.674445762722307 a29.95186563896555,29.95186563896555 0 0,0 -0.5006906689700733,0.12305758468939004 l -2.0616654157963525 -8.711224605725727" fill="#ff6209" stroke="none" /><path d="M 103.7750983002368 120.6578951692458 l 1.3967905274598893 7.643443956903559 a28.770023120939037,28.770023120939037 0 0,0 -0.4879273012045401,0.08483241560152682 l -1.2650142547832992 -7.666354951026092" fill="#ff5207" stroke="none" /><path d="M 103.41894727170886 120.7198165907248 l 2.726485590084073 16.523297048556135 a37.74673308522471,37.74673308522471 0 0,0 -0.6419894916182903,0.10026555541003995 l -2.4416602348572654 -16.56778091131328" fill="#ffcb12" stroke="none" /><line stroke="#e1ed5e" stroke-width="0.3" x1="102.19456741930631" x2="102.32365962044197" y1="184.97166512339345" y2="189.96999836594603" /><path d="M 102.22038585953345 185.97133177190398 a86.0,86.0 0 0,1 -42.740103519485714,-10.115201625700543" fill="none" id="id163" stroke="none" /><text fill="#e1ed5e" style="font-size:6.75px; font-family:Arial;" text-anchor="middle"><textPath startOffset="22.20632615414155" xlink:href="#id163">July</textPath></text><path d="M 100.54218724476979 120.99299961872073 l 0.4820970618407825 18.666362097299118 a39.67258663186546,39.67258663186546 0 0,0 -0.6828224769038784,0.011755408176728073 l -0.16071489504423617 -18.671894982755003" fill="#ffe415" stroke="none" /><path d="M 100.18074693466247 120.99922214144158 l 0.12632675031710816 14.676672095542335 a35.67721575258457,35.67721575258457 0 0,0 -0.6141473699591171,0.0 l 0.12632675031709806 -14.676672095542335" fill="#ffb010" stroke="none" /><path d="M 98.01472825383883 120.90594882070398 l -1.3858050806939715 14.593251603202752 a35.658903372219115,35.658903372219115 0 0,0 -0.61056091873528,-0.06328713565988617 l 1.6367985960348448 -14.567235099087105" fill="#ffb010" stroke="none" /><path d="M 95.51606077576429 120.51570834832081 l -1.8363675811164388 8.402072336499568 a29.600410771628688,29.600410771628688 0 0,0 -0.4968356365092181,-0.1130781733115371 l 1.9807233670185196 -8.369217429610345" fill="#ff5d08" stroke="none" /><path d="M 95.16358092515715 120.4354850818985 l -2.0477550917357563 8.652448843033206 a29.891466239998685,29.891466239998685 0 0,0 -0.49968100179813113,-0.12280943306360671 l 2.196389378277098 -8.615918151655569" fill="#ff6109" stroke="none" /><path d="M 94.11515582081647 120.15858648285463 l -3.344631188287988 11.457064114093592 a32.9352786268323,32.9352786268323 0 0,0 -0.5428440074538073,-0.1635544464285377 l 3.541350170182041 -11.39779429855933" fill="#ff8b0c" stroke="none" /><path d="M 93.08242187328487 119.8279376855182 l -2.5585287175050175 7.333541746551697 a28.767039574169452,28.767039574169452 0 0,0 -0.46613623169906776,-0.1671398683545362 l 2.6843845098338117 -7.288414337157203" fill="#ff5207" stroke="none" /><path d="M 92.7421414339146 119.70592522655815 l -3.0350462661549447 8.240501552271514 a29.78164971236557,29.78164971236557 0 0,0 -0.47952679250651203,-0.1813160014493915 l 3.1764432794217394 -8.18703730071549" fill="#ff6008" stroke="none" /><path d="M 90.7491055286396 118.85261126421891 l -6.675723474373381 13.604610879457434 a36.1542311282279,36.1542311282279 0 0,0 -0.5563380242771975,-0.2789594347605183 l 6.908915406333339 -13.487683603787614" fill="#ffb610" stroke="none" /><path d="M 90.42595943632237 118.69057910512821 l -10.173308851070185 19.860479238327855 a43.3144538036519,43.3144538036519 0 0,0 -0.6606673145431209,-0.34562991390334147 l 10.513667068139801 -19.682419905479797" fill="#edff1a" stroke="none" /><line stroke="#e1ed5e" stroke-width="0.3" x1="58.666819895761336" x2="56.23545636021788" y1="174.27360380694188" y2="178.64263932499728" /><path d="M 58.180547188652646 175.14741091055294 a86.0,86.0 0 0,1 -31.652253787137756,-30.449443065178592" fill="none" id="id164" stroke="none" /><text fill="#e1ed5e" style="font-size:6.75px; font-family:Arial;" text-anchor="middle"><textPath startOffset="22.20632615414155" xlink:href="#id164">August</textPath></text><path d="M 88.54995079064634 117.60387380957326 l -10.344727879607458 15.904497950822655 a39.97278181951318,39.97278181951318 0 0,0 -0.5735624059031709,-0.3801258872305596 l 10.616964984250592 -15.724074042500778" fill="#ffe715" stroke="none" /><path d="M 88.24862548938628 117.40417183066458 l -10.435560024068135 15.455407335036153 a39.64860662108079,39.64860662108079 0 0,0 -0.5623364055421048,-0.38678010738896357 l 10.70005331423313 -15.273486438282088" fill="#ffe315" stroke="none" /><path d="M 86.79598089348748 116.32954008644616 l -6.70384001060665 8.290704769756774 a31.661953689032714,31.661953689032714 0 0,0 -0.4208474792020818,-0.34632882423279565 l 6.84555761835342 -8.174080826666797" fill="#ff7a0b" stroke="none" /><path d="M 86.51685102203217 116.09983520530335 l -13.188016375405157 15.747425966724451 a41.5403310707355,41.5403310707355 0 0,0 -0.5442466281894334,-0.4638187837214848 l 13.457128480171647 -15.518082792780016" fill="#fffb17" stroke="none" /><path d="M 85.70375840098266 115.38237550388516 l -5.3218970759580015 5.726219625516217 a28.817427945733648,28.817427945733648 0 0,0 -0.3604431269699468,-0.3408214742757192 l 5.419676037318765 -5.633763514494567" fill="#ff5207" stroke="none" /><path d="M 84.67929136418377 114.36230785411682 l -4.7189557603213395 4.423757215854277 a27.468243298817132,27.468243298817132 0 0,0 -0.3204021362901192,-0.3477332387524725 l 4.794404304607188 -4.341872722300461" fill="#ff3f05" stroke="none" /><path d="M 84.43433777217949 114.09645910891817 l -8.752767768892278 7.926616364803577 a32.80856429084126,32.80856429084126 0 0,0 -0.3754880039546304,-0.42186475296403086 l 8.887914622495247 -7.7747774420986815" fill="#ff8a0c" stroke="none" /><path d="M 83.28015986056508 112.70617746262583 l -8.948586223702078 6.800443284729287 a32.239360492120994,32.239360492120994 0 0,0 -0.33197135597032207,-0.44472988130590047 l 9.064318846367486 -6.645400523914078" fill="#ff820c" stroke="none" /><path d="M 83.06392112726016 112.41649034213515 l -7.004472836316313 5.135248245912291 a29.68524117465015,29.68524117465015 0 0,0 -0.298577276394751,-0.4146977226057397 l 7.091829905086671 -5.013916917855413" fill="#ff5e08" stroke="none" /><path d="M 82.85270091963577 112.12312394758628 l -10.926149733179289 7.72477734624115 a34.38106621465025,34.38106621465025 0 0,0 -0.3374896095374576,-0.48617895370320396 l 11.05750024987888 -7.535557130350933" fill="#ff9f0e" stroke="none" /><line stroke="#e1ed5e" stroke-width="0.3" x1="26.63291911575756" x2="22.317208475507996" y1="142.92168965132927" y2="145.44649492493687" /><path d="M 25.769776987707644 143.4266507060508 a86.0,86.0 0 0,1 -11.730757126820373,-40.83630448921669" fill="none" id="id165" stroke="none" /><text fill="#e1ed5e" style="font-size:6.75px; font-family:Arial;" text-anchor="middle"><textPath startOffset="21.46611528233685" xlink:href="#id165">September</textPath></text><path d="M 81.69416730710424 110.29060199501025 l -9.964149616989754 5.601334812098911 a32.43062680989053,32.43062680989053 0 0,0 -0.26936506532947696,-0.4889758359452056 l 10.059091091770748 -5.428988457755883" fill="#ff840c" stroke="none" /><path d="M 80.58989483394504 108.01547362559985 l -6.764541987394078 2.7934422521338798 a28.318630193910895,28.318630193910895 0 0,0 -0.1821796622385317,-0.45215498123067344 l 6.811624263889997 -2.676587903060401" fill="#ff4b07" stroke="none" /><path d="M 80.45479744820244 107.68017299344265 l -9.442257087506752 3.7102796805726816 a31.14506748201519,31.14506748201519 0 0,0 -0.19177311370813085,-0.5006590853009185 l 9.504724480808392 -3.5471970284386054" fill="#ff730a" stroke="none" /><path d="M 79.76711848015287 105.62410040840567 l -7.131200339028199 1.9822478918689486 a28.40157584438441,28.40157584438441 0 0,0 -0.12687649832793718,-0.4721546494941522 l 7.164264913697911 -1.8592023091992576" fill="#ff4c07" stroke="none" /><path d="M 79.67330655649465 105.27499134158121 l -9.742326764341385 2.5282365511925264 a31.06503407058259,31.06503407058259 0 0,0 -0.1298646910683654,-0.5187448865107063 l 9.784402769704808 -2.3601638252844284" fill="#ff720a" stroke="none" /><path d="M 79.23777060512086 103.15116336523772 l -12.631363321734737 1.917110566280287 a33.7760186399758,33.7760186399758 0 0,0 -0.08229438317120966,-0.5755667242280825 l 12.662491755922547 -1.699398370071804" fill="#ff970d" stroke="none" /><path d="M 79.18660465613746 102.79330883721812 l -19.525171929291293 2.6204198977258804 a40.70022688470319,40.70022688470319 0 0,0 -0.08721184681535714,-0.6951642276198727 l 19.5673852853535 -2.283937915818599" fill="#fff116" stroke="none" /><path d="M 79.10278846688536 102.07522291339032 l -14.785643174339455 1.4683062118589314 a35.858370274383205,35.858370274383205 0 0,0 -0.055709228907041566,-0.6147466988140387 l 14.808726999523572 -1.2135781244963266" fill="#ffb210" stroke="none" /><path d="M 79.0235259727143 100.99374915477108 l -31.695462634967722 1.5015554645936435 a52.73101039138032,52.73101039138032 0 0,0 -0.035148651337166124,-0.9070305114908545 l 31.716613419156086 -0.9557477060887923" fill="#81ff25" stroke="none" /><line stroke="#e1ed5e" stroke-width="0.3" x1="15.007084014347285" x2="10.007500721073583" y1="101.09737516637583" y2="101.16192664675087" /><path d="M 14.007167355692545 101.11028546245083 a86.0,86.0 0 0,1 10.666146001902534,-42.60595125391555" fill="none" id="id166" stroke="none" /><text fill="#e1ed5e" style="font-size:6.75px; font-family:Arial;" text-anchor="middle"><textPath startOffset="22.20632615414155" xlink:href="#id166">October</textPath></text><path d="M 79.00175016825051 100.2711162175752 l -12.627670486490294 0.16304055273724927 a33.628722981252494,33.628722981252494 0 0,0 -0.0024912521663088957,-0.5788792675160485 l 12.628606035946106 0.05434819298247455" fill="#ff950d" stroke="none" /><path d="M 79.01574976396665 99.18683210126434 l -9.67707847738208 -0.37499979664940836 a30.68434162475171,30.68434162475171 0 0,0 0.024995160425245834,-0.527608331489673 l 9.669189708723335 0.5415192347620905" fill="#ff6c0a" stroke="none" /><path d="M 79.05617556472873 98.46500227214037 l -8.774761641669729 -0.6431126857513901 a29.798297323612836,29.798297323612836 0 0,0 0.04189571951332227,-0.5112338960286862 l 8.762391438336909 0.7940604989878547" fill="#ff6008" stroke="none" /><path d="M 79.46518482838121 95.60439243477599 l -12.457530829095333 -2.6666135681642005 a33.73973713542701,33.73973713542701 0 0,0 0.12645269969685236,-0.566862657858313 l 12.409783742396444 2.880654395572473" fill="#ff960d" stroke="none" /><path d="M 79.54389044137918 95.25157060432595 l -11.391017365507393 -2.6441705129709727 a32.69388362875893,32.69388362875893 0 0,0 0.13196995065755648,-0.5471006448359504 l 11.343814614589023 2.8398563894663202" fill="#ff880c" stroke="none" /><path d="M 80.14247586403 93.16781622104843 l -9.908005640516983 -3.4089504288342187 a31.478049379477334,31.478049379477334 0 0,0 0.18069437499107993,-0.5108473306660104 l 9.847858184716092 3.57899538592684" fill="#ff770b" stroke="none" /><path d="M 80.2630227832202 92.82701384747504 l -14.027544461851798 -5.098013797839693 a35.92520513467714,35.92520513467714 0 0,0 0.21622767076956947,-0.5793826560280881 l 13.937712202580602 5.338719590897123" fill="#ffb310" stroke="none" /><path d="M 80.52162464483688 92.15188598940014 l -8.482166829864939 -3.4175854568929926 a30.144782363994647,30.144782363994647 0 0,0 0.19806315332221988,-0.4796256359981504 l 8.42208198965652 3.563085663344454" fill="#ff6509" stroke="none" /><path d="M 81.10775173730289 90.83032412892265 l -13.137088297412259 -6.3763105323387315 a35.60275401897943,35.60275401897943 0 0,0 0.2723440925919851,-0.5490290720036453 l 13.025384191866861 6.601499192841338" fill="#ffaf10" stroke="none" /><path d="M 81.26839172434947 90.50648371742162 l -12.892657385031608 -6.534230857774612 a35.453954038618775,35.453954038618775 0 0,0 0.2805767961139676,-0.5419850642916652 l 12.778271155757526 6.755188644326613" fill="#ffad10" stroke="none" /><path d="M 81.6062741919709 89.86733742301443 l -6.427663635051392 -3.540845799925235 a28.338422772245426,28.338422772245426 0 0,0 0.2390445262822786,-0.42523353895115 l 6.365761467476682 3.6509628488111696" fill="#ff4b07" stroke="none" /><line stroke="#e1ed5e" stroke-width="0.3" x1="26.266209847984243" x2="21.928928074336255" y1="57.711370442889674" y2="55.22380399835377" /><path d="M 25.398753493254645 57.213857153982495 a86.0,86.0 0 0,1 29.58750427330803,-30.492523968695096" fill="none" id="id167" stroke="none" /><text fill="#e1ed5e" style="font-size:6.75px; font-family:Arial;" text-anchor="middle"><textPath startOffset="21.46611528233685" xlink:href="#id167">November</textPath></text><path d="M 82.34701348167596 88.62581576622439 l -21.936453491681483 -14.134110576192944 a47.09561406774621,47.09561406774621 0 0,0 0.4449489662345577,-0.677687801769151 l 21.689907890089007 14.509616441939762" fill="#c0ff1e" stroke="none" /><path d="M 82.54541684631803 88.32363383020206 l -13.063301914350642 -8.738787698084018 a36.71675116993527,36.71675116993527 0 0,0 0.3559348684917845,-0.522290499455778 l 12.910942580190119 8.96235622081021" fill="#ffbe11" stroke="none" /><path d="M 82.95767976084542 87.72973835380427 l -6.0988719916815946 -4.391113066438915 a28.515192182051553,28.515192182051553 0 0,0 0.2902267943173031,-0.3958690212853732 l 6.022382584850658 4.495444531395789" fill="#ff4e07" stroke="none" /><path d="M 83.84228863543731 86.58626213691792 l -15.682049336423466 -13.018854849459547 a41.38178728623464,41.38178728623464 0 0,0 0.4597110366100953,-0.5441528670212062 l 15.455627686326247 13.28686666610987" fill="#fff917" stroke="none" /><path d="M 84.07557802195018 86.31012108654704 l -7.947506174158214 -6.832298047496855 a31.4806083314907,31.4806083314907 0 0,0 0.35679242487685303,-0.40787541944126865 l 7.8287218857035175 6.968089023141067" fill="#ff770b" stroke="none" /><path d="M 85.57189188830299 84.74124197986013 l -10.580180794507593 -11.18929920006914 a36.39937148825027,36.39937148825027 0 0,0 0.45896507642433165,-0.42655801871541066 l 10.386007834288405 11.369761804859198" fill="#ffba11" stroke="none" /><path d="M 85.83668400450813 84.49514656593479 l -14.884866087226333 -16.294748146662187 a43.069844938236685,43.069844938236685 0 0,0 0.5516816692538541,-0.4953052497494105 l 14.602173430376507 16.548552405180878" fill="#f0ff19" stroke="none" /><path d="M 87.51073957382395 83.11751280151077 l -4.56676582753402 -6.173173029545604 a28.678763922418877,28.678763922418877 0 0,0 0.399392325252171,-0.2901755096546525 l 4.4598281859280675 6.250867774016925" fill="#ff5007" stroke="none" /><path d="M 87.80319425747018 82.90503203632743 l -18.052493365121638 -25.302263744765984 a52.082102041326934,52.082102041326934 0 0,0 0.734280409498247,-0.514410351623153 l 17.61428181603973 25.60925893915308" fill="#88ff25" stroke="none" /><line stroke="#e1ed5e" stroke-width="0.3" x1="56.762969772571076" x2="54.21961505331055" y1="26.818313649435495" y2="22.513508569990535" /><path d="M 56.25429882871897 25.957352633546506 a86.0,86.0 0 0,1 42.265352541879196,-11.944610805530505" fill="none" id="id168" stroke="none" /><text fill="#e1ed5e" style="font-size:6.75px; font-family:Arial;" text-anchor="middle"><textPath startOffset="22.20632615414155" xlink:href="#id168">December</textPath></text><path d="M 89.63071344664047 81.73862282372117 l -5.70578848195963 -10.048478747399848 a32.55542934458991,32.55542934458991 0 0,0 0.4896893285653808,-0.2725115811712494 l 5.531975064322204 10.145205726131282" fill="#ff860c" stroke="none" /><path d="M 89.94658935756843 81.56283822128135 l -14.93519422163342 -27.389967629357535 a52.197281182423026,52.197281182423026 0 0,0 0.792541031560498,-0.42334797162555043 l 14.461508143544616 27.642994327484836" fill="#86ff25" stroke="none" /><path d="M 91.23893434514133 80.91482961587045 l -0.8968203399667027 -1.9536400783305865 a23.149650268726877,23.149650268726877 0 0,0 0.3635794576126936,-0.16312750454400718 l 0.8630587638872348 1.9687879133911228" fill="#ff0000" stroke="none" /><path d="M 91.90106846888425 80.62456947434976 l -3.0044736961643124 -7.1877347206262225 a28.790403879455734,28.790403879455734 0 0,0 0.45888631331043345,-0.18719124914846635 l 2.8803035132654986 7.238386855958265" fill="#ff5207" stroke="none" /><path d="M 92.23578459929587 80.48803036053334 l -23.29264620211241 -58.53590891839998 a84.0,84.0 0 0,0 1.3480673400012946,-0.5230291844377941 l 22.28159569711144 58.92818080672833" fill="#4dd2ff" stroke="none" /><path d="M 94.28887869178378 79.79150937346287 l -6.274631681796222 -22.202441286640415 a44.072048063163265,44.072048063163265 0 0,0 0.7318102945646945,-0.20003139779856352 l 5.891523498007805 22.307159225265277" fill="#e4ff1a" stroke="none" /><path d="M 96.75951476605007 79.25152402106235 l -1.3640352134807958 -8.733769734489327 a29.839645119499842,29.839645119499842 0 0,0 0.5081706051301915,-0.07489113754651736 l 1.2134956279219555 8.755955356196814" fill="#ff6108" stroke="none" /><path d="M 97.11714578562143 79.19881850522333 l -1.3000074100915415 -9.380179527287636 a30.46983564960021,30.46983564960021 0 0,0 0.5201422526270422,-0.0675293925735981 l 1.1383504289566417 9.401167243025371" fill="#ff6909" stroke="none" /></svg>