<?xml version="1.0" encoding="utf-8" ?>
<svg baseProfile="full" height="200mm" version="1.1" viewBox="0,0,200,200" width="200mm" xmlns="http://www.w3.org/2000/svg" xmlns:ev="http://www.w3.org/2001/xml-events" xmlns:xlink="http://www.w3.org/1999/xlink"><defs /><rect fill="#1a1a1a" height="200" width="200" x="0" y="0" /><text alignment-baseline="middle" fill="#e1ed5e" style="dominant-baseline: central; font-size:9.0px; font-family:Arial;" text-anchor="middle" x="100.0" y="100.0">2014</text><line stroke="#e1ed5e" stroke-width="0.3" x1="100.0" x2="100.0" y1="15.0" y2="10.0" /><path d="M 100.0 14.0 a86.0,86.0 0 0,1 42.46469731375804,11.215312516191453" fill="none" id="id49" stroke="none" /><text fill="#e1ed5e" style="font-size:6.75px; font-family:Arial;" text-anchor="middle"><textPath startOffset="22.20632615414155" xlink:href="#id49">January</textPath></text><path d="M 100.36148047927253 79.00311137660856 l 1.084441437817585 -62.990665870174325 a84.0,84.0 0 0,0 1.4454934592205289,0.03733283143056143 l -2.1685615322329816 62.9626662466014" fill="#4dd2ff" stroke="none" /><path d="M 103.59715602781102 79.31037775812273 l 5.5472808429073694 -31.90607919757028 a53.3847219304368,53.3847219304368 0 0,0 0.9039936941442043,0.16519906942257656 l -6.095669658154475 31.805864646796966" fill="#7dff26" stroke="none" /><path d="M 106.0581310904928 79.89281104454417 l 9.88131281521162 -32.79648804814249 a55.25273669714609,55.25273669714609 0 0,0 0.9082882336008623,0.2822095755003569 l -10.4443864215232 32.62153833775961" fill="#69ff28" stroke="none" /><path d="M 110.05341064243156 81.56283822128135 l 9.866798485762976 -18.09492980941534 a41.610196436868875,41.610196436868875 0 0,0 0.6258885096851198,0.3483062780046578 l -10.17681108452013 17.922408133850503" fill="#fff617" stroke="none" /><line stroke="#e1ed5e" stroke-width="0.3" x1="143.23703022742887" x2="145.7803849466894" y1="26.81831364943548" y2="22.513508569990506" /><path d="M 143.74570117128098 25.957352633546492 a86.0,86.0 0 0,1 28.547481713284135,27.462654790039103" fill="none" id="id50" stroke="none" /><text fill="#e1ed5e" style="font-size:6.75px; font-family:Arial;" text-anchor="middle"><textPath startOffset="19.985693538727396" xlink:href="#id50">February</textPath></text><path d="M 114.94478906791727 85.2469230424477 l 6.7987273373569295 -6.711513101028979 a30.55338167943729,30.55338167943729 0 0,0 0.36625609683014687,0.37745910260329585 l -6.913247697890185 6.5934898028755695" fill="#ff6209" stroke="none" /><line stroke="#e1ed5e" stroke-width="0.3" x1="172.23445277983987" x2="176.4835382374775" y1="55.19839476539836" y2="52.563006222186495" /><path d="M 173.08426987136738 54.67131705675599 a86.0,86.0 0 0,1 12.851231095245387,41.99856678651699" fill="none" id="id51" stroke="none" /><text fill="#e1ed5e" style="font-size:6.75px; font-family:Arial;" text-anchor="middle"><textPath startOffset="22.20632615414155" xlink:href="#id51">March</textPath></text><path d="M 117.84615892207809 88.93136811851018 l 24.64539901957844 -15.285689795279422 a50.000827666667504,50.000827666667504 0 0,0 0.4473507424371387,0.7353269976088521 l -24.904865560301804 14.859195024463489" fill="#a3ff21" stroke="none" /><path d="M 118.03404312379186 89.2402003453031 l 8.027018866908948 -4.789226367018486 a30.34717717197322,30.34717717197322 0 0,0 0.2637896952323164,0.4509020978380732 l -8.108268236611593 4.650344856826518" fill="#ff5f08" stroke="none" /><path d="M 118.3937258080291 89.86733742301442 l 12.248856824828046 -6.747601571053782 a34.984442086719945,34.984442086719945 0 0,0 0.2860259695071659,0.5299626816804711 l -12.363190893553677 6.535757906040852" fill="#ff9f0e" stroke="none" /><path d="M 118.73160827565052 90.50648371742162 l 12.157445789031494 -6.1616123855615035 a34.62970855532665,34.62970855532665 0 0,0 0.26490075875023456,0.5340237651770676 l -12.261706560735137 5.951429031885485" fill="#ff9a0e" stroke="none" /><path d="M 119.04729006885535 91.15688171328212 l 18.63462459318913 -8.651529372968515 a41.54502845508923,41.54502845508923 0 0,0 0.2955586187086739,0.6512242385450292 l -18.780785528861152 8.329483125581422" fill="#fff517" stroke="none" /><path d="M 119.34039704204932 91.81776055985345 l 7.717333915441017 -3.2649316246411018 a29.37955973043917,29.37955973043917 0 0,0 0.1930353376967715,0.46745038165837266 l -7.772390940023986 3.131606672529426" fill="#ff5107" stroke="none" /><path d="M 119.97218684219823 93.5106431181261 l 57.13577943447847 -18.564540097881086 a81.07611372776378,81.07611372776378 0 0,0 0.4198372745371224,1.3309988911637751 l -57.4468721927838 17.57829104029089" fill="#49eeff" stroke="none" /><path d="M 120.87857604477298 97.74499172005257 l 9.312588415608433 -1.005813995164528 a30.36674782362551,30.36674782362551 0 0,0 0.05165654837823,0.52017439262314 l -9.32852208966889 0.8453640718369531" fill="#ff5f08" stroke="none" /><path d="M 120.94382443527127 98.46500227214037 l 26.117186341305544 -1.9141595564788934 a47.18723790692971,47.18723790692971 0 0,0 0.05239897619636391,0.8105889694219272 l -26.146265908506322 1.464311522803931" fill="#c4ff1e" stroke="none" /><path d="M 120.96714384426684 98.82574320788733 l 29.210761947987923 -1.6359374397858284 a50.25653610543996,50.25653610543996 0 0,0 0.04093847597367073,0.8641465241559321 l -29.23459403219509 1.1328798090068966" fill="#a0ff22" stroke="none" /><line stroke="#e1ed5e" stroke-width="0.3" x1="184.98032266829074" x2="189.97916517819016" y1="98.17113171792111" y2="98.06355123074" /><path d="M 185.9800911702706 98.14961562048488 a86.0,86.0 0 0,1 -9.607161424134198,41.387399972396054" fill="none" id="id52" stroke="none" /><text fill="#e1ed5e" style="font-size:6.75px; font-family:Arial;" text-anchor="middle"><textPath startOffset="21.466115282336823" xlink:href="#id52">April</textPath></text><path d="M 120.99513854157772 99.54816195383933 l 14.681941106140057 -0.31597122210491496 a35.68534073344448,35.68534073344448 0 0,0 0.00793063005737527,0.6142360378046777 l -14.685204743315147 0.0631989262397745" fill="#ffa80f" stroke="none" /><path d="M 120.99824983174949 100.27111621757518 l 52.91275516094269 0.6831762721017892 a73.9171653486903,73.9171653486903 0 0,0 -0.02737728945638344,1.2721150640448906 l -52.893155808801296 -1.5938811519367946" fill="#40ffc7" stroke="none" /><path d="M 120.9764740272857 100.99374915477107 l 17.11827867515974 0.8109692287868617 a38.13747752414187,38.13747752414187 0 0,0 -0.036709408986082936,0.6554711574326141 l -17.101782915286126 -1.105512102554899" fill="#ffc912" stroke="none" /><path d="M 120.92983693683757 101.71520430193887 l 16.808206892583218 1.3774358996221283 a37.864553021098715,37.864553021098715 0 0,0 -0.05882601567149678,0.6491401810421422 l -16.782006280634644 -1.666557469212841" fill="#ffc512" stroke="none" /><path d="M 120.76222939487914 103.15116336523771 l 40.432802047673206 6.136641790402368 a61.895841523192054,61.895841523192054 0 0,0 -0.16894100230671835,1.0519957826307151 l -40.3211792910052 -6.831716802726287" fill="#31ff3c" stroke="none" /><path d="M 120.49622156327973 104.57218783832717 l 15.805203902143951 3.5257406269031453 a37.19368140221802,37.19368140221802 0 0,0 -0.14477097470364872,0.6236695700148924 l -15.742172361509748 -3.7972788542666027" fill="#ffbd11" stroke="none" /><path d="M 120.41448212921028 104.9243191809786 l 13.55472435817731 3.2696293115534676 a34.94349411952165,34.94349411952165 0 0,0 -0.14607825822338455,0.5835100277093832 l -13.496434785658865 -3.502467178660247" fill="#ff9e0e" stroke="none" /><path d="M 120.13307415673323 105.97154293290107 l 27.821873535015992 8.252068759828672 a50.019877425919006,50.019877425919006 0 0,0 -0.25194113686605185,0.8233582124948781 l -27.675705625643808 -8.729753944875608" fill="#a3ff21" stroke="none" /><path d="M 120.02730092923936 106.31721596034902 l 25.927352679299773 8.178270588431767 a48.186609328388144,48.186609328388144 0 0,0 -0.2563246504397026,0.7888861568304799 l -25.782735777843826 -8.623355645240043" fill="#b8ff1f" stroke="none" /><path d="M 119.12269723197855 108.67885076344098 l 25.44906623183217 11.550078172321951 a48.94743776912167,48.94743776912167 0 0,0 -0.3548115461482408,0.7642325048863446 l -25.246480068844097 -11.986430744487127" fill="#b0ff20" stroke="none" /><path d="M 118.64920377521936 109.65438752849418 l 17.50931494194647 9.064285738173105 a40.71642426200852,40.71642426200852 0 0,0 -0.32756846443416426,0.6196360873105022 l -17.350693969287413 -9.364336840569742" fill="#ffea16" stroke="none" /><line stroke="#e1ed5e" stroke-width="0.3" x1="174.80103733775053" x2="179.2010983576182" y1="140.37084112569926" y2="142.7455964860345" /><path d="M 175.68104954172406 140.8457921977663 a86.0,86.0 0 0,1 -30.038265399797805,32.042727171017184" fill="none" id="id53" stroke="none" /><text fill="#e1ed5e" style="font-size:6.75px; font-family:Arial;" text-anchor="middle"><textPath startOffset="22.206326154141568" xlink:href="#id53">May</textPath></text><path d="M 117.94076556474637 110.91462005526583 l 14.405868154355424 8.764095205614256 a37.86233679101869,37.86233679101869 0 0,0 -0.34352923730903295,0.5538785126325961 l -14.252874277378428 -9.010770049612125" fill="#ffc512" stroke="none" /><path d="M 117.55443506779139 111.5257021239791 l 14.164381824071304 9.299897435838673 a37.9445508873856,37.9445508873856 0 0,0 -0.36317794737854164,0.5429017546999365 l -14.002200771282041 -9.542336104744418" fill="#ffc612" stroke="none" /><path d="M 117.14729908036423 112.12312394758627 l 18.39301415237684 13.003843304646926 a43.52560565892392,43.52560565892392 0 0,0 -0.4377851173455023,0.608045238224493 l -18.166449242655734 -13.31852214832255" fill="#f0ff19" stroke="none" /><line stroke="#e1ed5e" stroke-width="0.3" x1="143.8653032363475" x2="146.44561519142675" y1="172.8068346515853" y2="177.08958963109032" /><path d="M 144.38136562736335 173.6633856474863 a86.0,86.0 0 0,1 -40.68145358897372,12.25698825130547" fill="none" id="id54" stroke="none" /><text fill="#e1ed5e" style="font-size:6.75px; font-family:Arial;" text-anchor="middle"><textPath startOffset="21.466115282336833" xlink:href="#id54">June</textPath></text><path d="M 107.59598834532513 119.57807347666477 l 4.477052418531622 11.53925693722745 a33.377336103606126,33.377336103606126 0 0,0 -0.5374224423010691,0.20320718226786522 l -4.277759755470279 -11.614612369601947" fill="#ff890c" stroke="none" /><path d="M 105.53697534728816 120.25689768951611 l 3.7945845471351967 13.882400791830037 a35.39166160074508,35.39166160074508 0 0,0 -0.5890344749638925,0.15556935848899703 l -3.555059629359807 -13.945661499622618" fill="#ffa50f" stroke="none" /><path d="M 103.7750983002368 120.6578951692458 l 4.26309845507207 23.328304053838327 a44.714632159617565,44.714632159617565 0 0,0 -0.758341058756988,0.13184731353494528 l -3.860908424843032 -23.39822994589428" fill="#e2ff1b" stroke="none" /><path d="M 102.34483914955558 120.86867818915974 l 1.8401620782236643 16.377136245624026 a37.480193812023714,37.480193812023714 0 0,0 -0.6417455222718155,0.06651954732260475 l -1.5579839593462461 -16.40638516140239" fill="#ffc011" stroke="none" /><path d="M 101.62511606390274 120.93702456842531 l 4.244534707431927 54.684049604198115 a75.84853102861547,75.84853102861547 0 0,0 -1.302562134720644,0.08983231108045614 l -3.3026098119323524 -54.74901025979486" fill="#43ffdc" stroke="none" /><line stroke="#e1ed5e" stroke-width="0.3" x1="102.19456741930631" x2="102.32365962044197" y1="184.97166512339345" y2="189.96999836594603" /><path d="M 102.22038585953345 185.97133177190398 a86.0,86.0 0 0,1 -42.740103519485714,-10.115201625700543" fill="none" id="id55" stroke="none" /><text fill="#e1ed5e" style="font-size:6.75px; font-family:Arial;" text-anchor="middle"><textPath startOffset="22.20632615414155" xlink:href="#id55">July</textPath></text><path d="M 98.73552117531835 120.96189622390904 l -1.1869475472515079 19.676621563807966 a40.712389014151455,40.712389014151455 0 0,0 -0.6991620750551333,-0.04821831016566437 l 1.5254723830855712 -19.653274909126015" fill="#ffea16" stroke="none" /><path d="M 98.37488393609728 120.93702456842531 l -1.8793167578047332 24.211994456271952 a45.28482050637207,45.28482050637207 0 0,0 -0.7766469250202027,-0.06701236465057278 l 2.2958080005664776 -24.176057839342715" fill="#dbff1b" stroke="none" /><path d="M 97.65516085044442 120.86867818915974 l -4.1896462922543565 37.28715473555339 a58.52179425783504,58.52179425783504 0 0,0 -1.0000889101412223,-0.12109683940562631 l 4.830862625446968 -37.20951236742242" fill="#47ff2c" stroke="none" /><path d="M 96.58105272829116 120.7198165907248 l -9.360989000671932 56.73032070622467 a78.4974556176341,78.4974556176341 0 0,0 -1.3312833121451189,-0.23146066830133966 l 10.3361212842891 -56.56078145940232" fill="#46fff7" stroke="none" /><path d="M 94.11515582081647 120.15858648285463 l -7.400665589734807 25.35104631131519 a47.40919158644453,47.40919158644453 0 0,0 -0.7814051261726378,-0.2354309545518242 l 7.83594569034769 -25.21989998765764" fill="#c2ff1e" stroke="none" /><path d="M 93.42475214034765 119.94407469862007 l -15.697616850718493 47.61408995426063 a71.13498515971042,71.13498515971042 0 0,0 -1.1596027841538166,-0.39340022397595775 l 16.514889367809538 -47.33682674338655" fill="#3dffa9" stroke="none" /><path d="M 92.7421414339146 119.70592522655815 l -10.092520800103555 27.40236096135348 a50.20185546085783,50.20185546085783 0 0,0 -0.8083210621144782,-0.30563786040783547 l 10.562712082978317 -27.224574850839012" fill="#a1ff22" stroke="none" /><line stroke="#e1ed5e" stroke-width="0.3" x1="58.666819895761336" x2="56.23545636021788" y1="174.27360380694188" y2="178.64263932499728" /><path d="M 58.180547188652646 175.14741091055294 a86.0,86.0 0 0,1 -31.652253787137756,-30.449443065178592" fill="none" id="id56" stroke="none" /><text fill="#e1ed5e" style="font-size:6.75px; font-family:Arial;" text-anchor="middle"><textPath startOffset="22.20632615414155" xlink:href="#id56">August</textPath></text><path d="M 89.1626897886671 117.98757091392108 l -13.416013832214258 22.267656409497516 a46.996883450090706,46.996883450090706 0 0,0 -0.6893341733802371,-0.42344535104188974 l 13.797327205526804 -22.033422591627247" fill="#c6ff1e" stroke="none" /><path d="M 88.24862548938628 117.40417183066458 l -16.675200253195538 24.696519565029174 a50.798999683043746,50.798999683043746 0 0,0 -0.7204824916018361,-0.49555442743384853 l 17.097839629420267 -24.405824348230226" fill="#9aff22" stroke="none" /><path d="M 87.95078237400918 117.19931262002967 l -25.08476775184639 35.806537482915395 a64.71903132137648,64.71903132137648 0 0,0 -0.9069067755225256,-0.6470539044669853 l 25.6974018552178 -35.369439316604186" fill="#34ff5f" stroke="none" /><path d="M 86.79598089348748 116.32954008644616 l -27.570723365136264 34.09698431754412 a64.84916334923302,64.84916334923302 0 0,0 -0.8619685061740902,-0.7093413980641354 l 28.153561999855043 -33.6173478006228" fill="#34ff60" stroke="none" /><path d="M 86.51685102203217 116.09983520530335 l -21.074889074850304 25.164910780825398 a53.82413264846684,53.82413264846684 0 0,0 -0.7051846230899625,-0.6009736344509528 l 21.50493917451732 -24.798412756151492" fill="#79ff26" stroke="none" /><path d="M 85.97065885151581 115.62618273729859 l -20.11264219874041 22.401894643596815 a51.10586753171822,51.10586753171822 0 0,0 -0.6495323366239447,-0.593332389242912 l 20.49527408483121 -22.05236948776733" fill="#97ff23" stroke="none" /><path d="M 85.70375840098266 115.38237550388516 l -17.249907943622723 18.560441886663057 a46.33869229245374,46.33869229245374 0 0,0 -0.579595902210383,-0.5480441020920862 l 17.56683968022392 -18.26076314782504" fill="#ceff1d" stroke="none" /><path d="M 85.44109423537348 115.13401014063109 l -34.034383408327805 35.378806069562664 a70.09174241043786,70.09174241043786 0 0,0 -0.8622954757047707,-0.8439376121169986 l 34.63832883640837 -34.78771835452309" fill="#3bff9d" stroke="none" /><path d="M 83.50135304334701 112.99209946851258 l -44.35654113906633 34.92920335055334 a77.45840936942867,77.45840936942867 0 0,0 -0.8158701000785579,-1.0546220847478032 l 44.95121805636296 -34.160503271692285" fill="#45ffec" stroke="none" /><path d="M 83.06392112726016 112.41649034213515 l -41.9878436518814 30.78290194017771 a73.06309697274484,73.06309697274484 0 0,0 -0.7348763101078234,-1.020678920641334 l 42.51149975436483 -30.055589414085237" fill="#3fffbe" stroke="none" /><path d="M 82.05923443525364 110.91462005526583 l -52.00159569404772 31.6362006526282 a81.8688355931059,81.8688355931059 0 0,0 -0.7220797160076429,-1.2102471379764768 l 52.5384562857536 -30.73639142076561" fill="#4ae6ff" stroke="none" /><line stroke="#e1ed5e" stroke-width="0.3" x1="26.63291911575756" x2="22.317208475507996" y1="142.92168965132927" y2="145.44649492493687" /><path d="M 25.769776987707644 143.4266507060508 a86.0,86.0 0 0,1 -11.730757126820373,-40.83630448921669" fill="none" id="id57" stroke="none" /><text fill="#e1ed5e" style="font-size:6.75px; font-family:Arial;" text-anchor="middle"><textPath startOffset="21.46611528233685" xlink:href="#id57">September</textPath></text><path d="M 81.35079622478065 109.6543875284942 l -29.880131414448265 15.46845493000271 a54.64662466379389,54.64662466379389 0 0,0 -0.4252582902022763,-0.8390749508335484 l 30.141968374436807 -14.951825767466477" fill="#70ff27" stroke="none" /><path d="M 81.02952815118164 109.00673069616217 l -44.422521473276014 21.09076099650097 a70.1749998826151,70.1749998826151 0 0,0 -0.5086864878760096,-1.0956654400104835 l 44.77898257799185 -20.322975489211657" fill="#3bff9e" stroke="none" /><path d="M 80.73074385275274 108.34839909993369 l -54.84520778972009 23.761668839136018 a80.77134533803252,80.77134533803252 0 0,0 -0.5417411780304401,-1.2805161171069985 l 55.24609994894284 -22.81407819636286" fill="#49f1ff" stroke="none" /><path d="M 80.58989483394504 108.01547362559985 l -2.6508631569687524 1.0946835958888297 a23.86799714994322,23.86799714994322 0 0,0 -0.15354781037473564,-0.3810930729858134 l 2.669313581600876 -1.048891155060211" fill="#ff0000" stroke="none" /><path d="M 79.97269907076064 106.31721596034903 l -27.285488871471316 8.606667787826115 a49.61070836881164,49.61070836881164 0 0,0 -0.24988022582982553,-0.81662303598498 l 27.429595869807272 -8.135717779289088" fill="#a8ff21" stroke="none" /><path d="M 79.0095281055655 100.63252640178507 l -3.4631245267308737 0.1043577155789206 a24.464696526457374,24.464696526457374 0 0,0 -0.009061184572052444,-0.4210376418221693 l 3.4644077739879338 -0.04473025796662248" fill="#ff0901" stroke="none" /><line stroke="#e1ed5e" stroke-width="0.3" x1="15.007084014347285" x2="10.007500721073583" y1="101.09737516637583" y2="101.16192664675087" /><path d="M 14.007167355692545 101.11028546245083 a86.0,86.0 0 0,1 10.666146001902534,-42.60595125391555" fill="none" id="id58" stroke="none" /><text fill="#e1ed5e" style="font-size:6.75px; font-family:Arial;" text-anchor="middle"><textPath startOffset="22.20632615414155" xlink:href="#id58">October</textPath></text><path d="M 79.00486145842228 99.54816195383935 l -10.703958645234 -0.230360745220568 a31.706437164239944,31.706437164239944 0 0,0 0.016439494074625485,-0.5455467745825475 l 10.698407456703729 0.41457766722810985" fill="#ff720a" stroke="none" /><path d="M 79.91906864156998 93.8553929516997 l -33.62366166656439 -10.28857600169543 a56.1625570743974,56.1625570743974 0 0,0 0.29082714759028505,-0.9220015335459762 l 33.4415790352059 10.865827701667822" fill="#5fff29" stroke="none" /><path d="M 80.65960295795068 91.81776055985345 l -31.236586878533863 -13.215097527595622 a54.91700403166615,54.91700403166615 0 0,0 0.37581350795035157,-0.8674293911449923 l 31.004482660740834 13.750826063327215" fill="#6dff28" stroke="none" /><line stroke="#e1ed5e" stroke-width="0.3" x1="26.266209847984243" x2="21.928928074336255" y1="57.711370442889674" y2="55.22380399835377" /><path d="M 25.398753493254645 57.213857153982495 a86.0,86.0 0 0,1 29.58750427330803,-30.492523968695096" fill="none" id="id59" stroke="none" /><text fill="#e1ed5e" style="font-size:6.75px; font-family:Arial;" text-anchor="middle"><textPath startOffset="21.46611528233685" xlink:href="#id59">November</textPath></text><path d="M 84.80347519578584 85.50635884689758 l -11.627234485986836 -11.08944093561034 a37.06761594190351,37.06761594190351 0 0,0 0.44434493294786226,-0.45793651242508565 l 11.434625289335855 11.287941643585548" fill="#ffbb11" stroke="none" /><path d="M 86.10567301691215 84.25364557470407 l -11.669797278734515 -13.225308735426786 a38.6378275213847,38.6378275213847 0 0,0 0.5024871572812631,-0.4357519112036377 l 11.44041632280648 13.424225640050103" fill="#ffd013" stroke="none" /><path d="M 86.93701828274178 83.55741782278169 l -16.59582880905939 -20.88943281850357 a47.67939162234363,47.67939162234363 0 0,0 0.6470035429605882,-0.5049965278808808 l 16.233792710939376 21.17200773560767" fill="#beff1e" stroke="none" /><path d="M 89.00827224532344 82.1063720568725 l -9.470142138720032 -15.416611817618326 a39.09296858071361,39.09296858071361 0 0,0 0.5764126674643105,-0.3472821826218949 l 9.203367405038072 15.57734060969884" fill="#ffd513" stroke="none" /><line stroke="#e1ed5e" stroke-width="0.3" x1="56.762969772571076" x2="54.21961505331055" y1="26.818313649435495" y2="22.513508569990535" /><path d="M 56.25429882871897 25.957352633546506 a86.0,86.0 0 0,1 42.265352541879196,-11.944610805530505" fill="none" id="id60" stroke="none" /><text fill="#e1ed5e" style="font-size:6.75px; font-family:Arial;" text-anchor="middle"><textPath startOffset="22.20632615414155" xlink:href="#id60">December</textPath></text><path d="M 90.58718382345135 81.22770947309562 l -12.31206693795324 -24.554362181403857 a48.46823063868871,48.46823063868871 0 0,0 0.7490158799723856,-0.3675388393621965 l 11.88757979097043 24.762656180900883" fill="#b5ff20" stroke="none" /><path d="M 90.91171255644093 81.06846463323043 l -7.3573397997178835 -15.325850936021306 a38.000357520995195,38.000357520995195 0 0,0 0.5921211885368773,-0.27800883749638167 l 7.092440399881397 15.450224756157695" fill="#ffc712" stroke="none" /><path d="M 91.90106846888425 80.62456947434976 l -7.901294567292748 -18.902614914462372 a41.48754027314126,41.48754027314126 0 0,0 0.6612642352629556,-0.26974628491989855 l 7.574746462441412 19.035822085565847" fill="#fff417" stroke="none" /><path d="M 92.57280143429618 80.3572730644239 l -9.966207872914287 -26.357649940155234 a49.17891072653278,49.17891072653278 0 0,0 0.7943978913187089,-0.29258344757226695 l 9.511027655823009 26.525296655533822" fill="#adff20" stroke="none" /><path d="M 93.25333710446033 80.11325718540243 l -8.08949950580664 -23.84494359087471 a46.17978032283925,46.17978032283925 0 0,0 0.7549672309477472,-0.24890082615566136 l 7.677849452616482 23.980658141289606" fill="#d0ff1d" stroke="none" /><path d="M 93.94186890950719 79.89281104454417 l -7.0081994819756455 -23.260505445772544 a45.2933318746519,45.2933318746519 0 0,0 0.7484394872573227,-0.21849000989248574 l 6.606769776994901 23.377693784583727" fill="#dbff1b" stroke="none" /><path d="M 94.63758080256005 79.69619591428918 l -5.4944439067821635 -20.803691120696254 a42.51702763139258,42.51702763139258 0 0,0 0.7092065170862426,-0.18079253234709586 l 5.1355285010109215 20.895186649212214" fill="#fdff18" stroke="none" /><path d="M 95.692805502759 79.44645832069477 l -3.4597675913491654 -16.509697306461245 a37.86831636344077,37.86831636344077 0 0,0 0.6391334921966049,-0.1282041658789175 l 3.1750676896854237 16.56680542841737" fill="#ffc512" stroke="none" /><path d="M 96.40284397218896 79.31037775812273 l -4.162581131054368 -23.94175578897221 a45.30092080418753,45.30092080418753 0 0,0 0.7694054945651921,-0.12695849912392543 l 3.74984643035029 24.009860551035764" fill="#dbff1b" stroke="none" /><path d="M 97.83486435360386 79.11191278185805 l -2.034529421886641 -19.628067222014838 a40.73322915390321,40.73322915390321 0 0,0 0.6980412221411999,-0.06628742507014358 l 1.696363072655205 19.660180191600162" fill="#ffeb16" stroke="none" /><path d="M 98.55514903715128 79.0497635885617 l -1.3116861172227159 -19.019355601381022 a40.06453272340811,40.06453272340811 0 0,0 0.6884192334339267,-0.04152732815211061 l 0.9841048349491662 19.03911619891344" fill="#ffe215" stroke="none" /><path d="M 99.27714615592234 79.0124445844662 l -0.5828400475388533 -16.92235283291904 a37.93238695290236,37.93238695290236 0 0,0 0.6527502051552475,-0.016858611998470614 l 0.29146320718872687 16.92987823705987" fill="#ffc612" stroke="none" /></svg>