<?xml version="1.0" encoding="utf-8" ?>
<svg baseProfile="full" height="200mm" version="1.1" viewBox="0,0,200,200" width="200mm" xmlns="http://www.w3.org/2000/svg" xmlns:ev="http://www.w3.org/2001/xml-events" xmlns:xlink="http://www.w3.org/1999/xlink"><defs /><rect fill="#1a1a1a" height="200" width="200" x="0" y="0" /><text alignment-baseline="middle" fill="#e1ed5e" style="dominant-baseline: central; font-size:9.0px; font-family:Arial;" text-anchor="middle" x="100.0" y="100.0">2020</text><line stroke="#e1ed5e" stroke-width="0.3" x1="100.0" x2="100.0" y1="15.0" y2="10.0" /><path d="M 100.0 14.0 a86.0,86.0 0 0,1 42.35913384403234,11.155469271406648" fill="none" id="id121" stroke="none" /><text fill="#e1ed5e" style="font-size:6.75px; font-family:Arial;" text-anchor="middle"><textPath startOffset="22.145653131862478" xlink:href="#id121">January</textPath></text><path d="M 100.0 79.0 l 0.0 -11.783670379914845 a32.783670379914845,32.783670379914845 0 0,0 0.5627752963112509,0.004830749068121799 l -0.2022823714623961 11.781934029041158" fill="#ff910d" stroke="none" /><path d="M 101.44090949804482 79.04949213459386 l 0.5411521603411827 -7.868233644787076 a28.886821054747042,28.886821054747042 0 0,0 0.4944199585455085,0.03827123172177916 l -0.6761411136619248 7.857784646070243" fill="#ff5c08" stroke="none" /><path d="M 103.58742460773223 79.30868818359171 l 2.9020656637492577 -16.73834355456644 a37.988058454909094,37.988058454909094 0 0,0 0.6415735654184992,0.11691607555918036 l -3.1889739627188103 16.686059305075894" fill="#ffd513" stroke="none" /><path d="M 103.94208987418118 79.37332000966035 l 2.918459014823801 -15.270610788952764 a36.546991891966975,36.546991891966975 0 0,0 0.6152138131943784,0.12305999270659904 l -3.1801693135491367 15.218261399583307" fill="#ffc212" stroke="none" /><path d="M 104.9986988182912 79.60360301121754 l 2.9698677059455574 -12.118073710097548 a33.476691253460416,33.476691253460416 0 0,0 0.5569799392517526,0.14158212250468616 l -3.1774529384227046 12.065306355757594" fill="#ff9a0e" stroke="none" /><path d="M 107.06938296918511 80.22567764915836 l 3.4692824089181777 -9.704200349462786 a31.305698659253665,31.305698659253665 0 0,0 0.5044851448256363,0.18525393302734505 l -3.635356705397939 9.643215567426719" fill="#ff7d0b" stroke="none" /><path d="M 107.40779381753099 80.34994680014964 l 2.6828310471451564 -7.116528092055262 a28.60542927864941,28.60542927864941 0 0,0 0.4579970841315116,0.17716311104002755 l -2.8046003937701935 7.0694250928771964" fill="#ff5808" stroke="none" /><path d="M 107.74402155503746 80.48000691201159 l 5.419102994266468 -13.659679565634546 a35.695357195328114,35.695357195328114 0 0,0 0.5676335853139791,0.2308516375275982 l -5.652791040770887 13.564640671527654" fill="#ffb711" stroke="none" /><path d="M 108.4095320186766 80.7573450057729 l 1.181748875067346 -2.7040726930147896 a23.95102347209086,23.95102347209086 0 0,0 0.375331467264537,0.16788099128389777 l -1.2279937451875145 2.6833879508210394" fill="#ff1502" stroke="none" /><path d="M 110.02825361518725 81.54914285379988 l 6.142518060677523 -11.301541385418872 a33.86294545631307,33.86294545631307 0 0,0 0.5083566838693178,0.2819768831805648 l -6.335618932702942 11.19443158680516" fill="#ff9f0e" stroke="none" /><line stroke="#e1ed5e" stroke-width="0.3" x1="143.13028292997686" x2="145.6673583964461" y1="26.7553504044142" y2="22.446841604673864" /><path d="M 143.63769802327073 25.89364864446614 a86.0,86.0 0 0,1 29.32050498858742,28.57503671076993" fill="none" id="id122" stroke="none" /><text fill="#e1ed5e" style="font-size:6.75px; font-family:Arial;" text-anchor="middle"><textPath startOffset="20.669276256404974" xlink:href="#id122">February</textPath></text><path d="M 110.65571695917076 81.90426304109057 l 5.420066493442298 -9.204457845581063 a31.681721070333875,31.681721070333875 0 0,0 0.4662753427963974,0.27998494617048003 l -5.57727459279613 9.110058898874662" fill="#ff820c" stroke="none" /><path d="M 110.96478420261332 82.08984904055464 l 6.243706366821668 -10.198625117453188 a32.95808611281239,32.95808611281239 0 0,0 0.4799888085588406,0.2995485163595079 l -6.4178593041702205 10.089940804252135" fill="#ff930d" stroke="none" /><path d="M 116.35404254752997 86.82634096563983 l 10.048761678273499 -8.094571093500901 a33.90347598341154,33.90347598341154 0 0,0 0.36120693787746827,0.4563731663084825 l -10.186235046792525 7.920877983277741" fill="#ffa00e" stroke="none" /><path d="M 117.01052211995028 87.68569379921539 l 9.361307248782147 -6.77686452468896 a32.5568147078721,32.5568147078721 0 0,0 0.323839382496771,0.45552064699865663 l -9.47626172980888 6.615166650980799" fill="#ff8e0d" stroke="none" /><line stroke="#e1ed5e" stroke-width="0.3" x1="172.87174338648825" x2="177.1583165268699" y1="56.24261187166439" y2="53.66864786411523" /><path d="M 173.72905801456457 55.72781907015455 a86.0,86.0 0 0,1 12.242430191666344,42.057860355516425" fill="none" id="id123" stroke="none" /><text fill="#e1ed5e" style="font-size:6.75px; font-family:Arial;" text-anchor="middle"><textPath startOffset="22.145653131862474" xlink:href="#id123">March</textPath></text><path d="M 118.00360718960297 89.18935116829356 l 12.96465912407657 -7.784905299095313 a36.12240512350414,36.12240512350414 0 0,0 0.3146541690681944,0.5343515690496862 l -13.096387003274533 7.56120256175207" fill="#ffbd11" stroke="none" /><path d="M 118.70294669586156 90.45014215332178 l 6.63615584345015 -3.388468458148093 a28.45119338565455,28.45119338565455 0 0,0 0.21836980091092642,0.4368858819522954 l -6.693345557572814 3.2740507200320472" fill="#ff5607" stroke="none" /><path d="M 119.0197475246899 91.09779779509293 l 9.883725268269293 -4.6260824840952885 a31.91277528075595,31.91277528075595 0 0,0 0.22797200293824244,0.4981599688161274 l -9.961681736062586 4.455733533064477" fill="#ff850c" stroke="none" /><path d="M 119.16976305983485 91.42560881287824 l 6.588678120661751 -2.94703191876962 a28.21773347443183,28.21773347443183 0 0,0 0.1939849828563577,0.44387560340764487 l -6.638296985535078 2.8334942455861256" fill="#ff5207" stroke="none" /><path d="M 119.94978838288452 93.4421083053983 l 10.320085210197169 -3.392416991530425 a31.86336282143585,31.86336282143585 0 0,0 0.16634994472478554,0.5210888325527451 l -10.37679987069921 3.214759125286293" fill="#ff840c" stroke="none" /><path d="M 120.592083275326 95.88100663000786 l 10.899955027340257 -2.1802962765124208 a32.11587654894629,32.11587654894629 0 0,0 0.1034952591750344,0.5415309289375527 l -10.935776578797448 1.9928627825415537" fill="#ff880c" stroke="none" /><line stroke="#e1ed5e" stroke-width="0.3" x1="184.99686870605535" x2="189.99668451229388" y1="99.2704041080226" y2="99.22748670261217" /><path d="M 185.99683186730306 99.26182062694052 a86.0,86.0 0 0,1 -10.086455211305974,41.156179273409016" fill="none" id="id124" stroke="none" /><text fill="#e1ed5e" style="font-size:6.75px; font-family:Arial;" text-anchor="middle"><textPath startOffset="21.40746469413373" xlink:href="#id124">April</textPath></text><path d="M 120.7213421655516 103.40968896794604 l 8.706621518447069 1.4326712576024039 a29.823706998639835,29.823706998639835 0 0,0 -0.08746183040806489,0.5044565957167566 l -8.68074487054677 -1.5819208862397485" fill="#ff6909" stroke="none" /><path d="M 120.65975698304385 103.76489593502545 l 11.366952919057644 2.0714374749765643 a32.554153879744305,32.554153879744305 0 0,0 -0.10490763307902037,0.5489210660156301 l -11.329718993696465 -2.266261106025509" fill="#ff8e0d" stroke="none" /><path d="M 120.43855184770803 104.8234425847677 l 6.796753454286614 1.6040153086114772 a27.98346064846198,27.98346064846198 0 0,0 -0.11434904642278199,0.466583131112734 l -6.768216881347536 -1.7204542643323109" fill="#ff4f07" stroke="none" /><path d="M 120.16314734710363 105.8691983318838 l 13.54436709967622 3.942567864994577 a35.10651344240949,35.10651344240949 0 0,0 -0.17339889362327404,0.5771885219381323 l -13.474691886049317 -4.174493990523433" fill="#ffaf10" stroke="none" /><path d="M 119.83427380445688 106.89939002012753 l 6.433553104913406 2.237923733614379 a27.81167440437485,27.81167440437485 0 0,0 -0.16072476554800705,0.4495757745143199 l -6.394188169321455 -2.3480344645096203" fill="#ff4d07" stroke="none" /><path d="M 119.58574465831526 107.57618678355244 l 4.892748747020824 1.892620323561929 a26.24604631990926,26.24604631990926 0 0,0 -0.1661516273652005,0.4188106392365367 l -4.859538444689499 -1.97633198001203" fill="#ff3705" stroke="none" /><path d="M 119.31412917781788 108.2440532568976 l 6.5054077735646745 2.776771743076957 a28.07324477262779,28.07324477262779 0 0,0 -0.19299168414341836,0.4416027415650453 l -6.456782207404291 -2.888036554417847" fill="#ff5007" stroke="none" /><path d="M 119.0197475246899 108.90220220490707 l 7.292561127650389 3.413286830738168 a29.051830524135994,29.051830524135994 0 0,0 -0.21528892494232965,0.4498710513605922 l -7.232892944748147 -3.5379703841638634" fill="#ff5e08" stroke="none" /><path d="M 118.8641267826498 109.22738970284198 l 7.239839066542552 3.5413680804081085 a29.059563114112894,29.059563114112894 0 0,0 -0.22303918594104086,0.44622777990954593 l -7.177979967389779 -3.6651277164814005" fill="#ff5e08" stroke="none" /><path d="M 118.70294669586154 109.54985784667822 l 6.494923447528427 3.3163541904697995 a28.29261514862132,28.29261514862132 0 0,0 -0.22457860251772815,0.4306590821264409 l -6.437036776035749 -3.4273595157007435" fill="#ff5307" stroke="none" /><line stroke="#e1ed5e" stroke-width="0.3" x1="174.33088141563837" x2="178.70328620479359" y1="141.23008692659167" y2="143.65538615756765" /><path d="M 175.20536237346943 141.71514677278685 a86.0,86.0 0 0,1 -30.301960400862466,31.631185727798858" fill="none" id="id125" stroke="none" /><text fill="#e1ed5e" style="font-size:6.75px; font-family:Arial;" text-anchor="middle"><textPath startOffset="22.145653131862474" xlink:href="#id125">May</textPath></text><path d="M 118.36410011445183 110.18625677009912 l 26.03128000430134 14.43911220945091 a50.767692219240864,50.767692219240864 0 0,0 -0.42926896538099785,0.7584771300703935 l -25.779577673898963 -14.883846109620425" fill="#92ff23" stroke="none" /><path d="M 118.18653347947321 110.5 l 11.794455742894074 6.8095321981050185 a34.61906439621004,34.61906439621004 0 0,0 -0.301558905179878,0.5121129480691917 l -11.675823127584431 -7.010996314467759" fill="#ffa90f" stroke="none" /><path d="M 118.00360718960297 110.81064883170644 l 10.049534431767716 6.034456679699374 a32.72210773344339,32.72210773344339 0 0,0 -0.2933023307607425,0.4790873147717828 l -9.944464136551568 -6.206081110595713" fill="#ff900d" stroke="none" /><path d="M 117.62189284568427 111.42229804090321 l 6.8813116731775335 4.460383088904662 a29.200455331455448,29.200455331455448 0 0,0 -0.2762579450831985,0.4182897393030115 l -6.803729289173608 -4.577852706546735" fill="#ff6008" stroke="none" /><path d="M 117.423217284605 111.72311816256416 l 4.828566679813683 3.248875154262831 a26.819814941163788,26.819814941163788 0 0,0 -0.2602930257963331,0.3797753035881696 l -4.772083917202029 -3.3312851929210443" fill="#ff3f05" stroke="none" /><path d="M 117.21940702142032 112.02048342749411 l 4.826234097482553 3.369086224271784 a26.885854020469854,26.885854020469854 0 0,0 -0.26743090323827173,0.37617505669418494 l -4.767688095714321 -3.4514385076754728" fill="#ff4006" stroke="none" /><path d="M 116.79662413953412 112.60449989151573 l 5.832377216082476 4.376724595173888 a28.2919367915992,28.2919367915992 0 0,0 -0.29483973445992806,0.3859546768906744 l -5.756385504268243 -4.47620018530544" fill="#ff5307" stroke="none" /><path d="M 116.57777611688842 112.89097897827486 l 6.729520598564138 5.232915920584925 a29.52466166592025,29.52466166592025 0 0,0 -0.31455513993412354,0.39743014360106416 l -6.638699027988452 -5.3476660081006715" fill="#ff6409" stroke="none" /><path d="M 116.1254893667686 113.45245675266167 l 5.426016144152038 4.526575650403131 a28.06622518148276,28.06622518148276 0 0,0 -0.3118096626987357,0.3673109986248658 l -5.347511917946187 -4.619053431477553" fill="#ff5007" stroke="none" /><path d="M 115.89218393027572 113.72728997021213 l 5.481476860325991 4.734769158023289 a28.2432470308597,28.2432470308597 0 0,0 -0.32007525291567324,0.3641868824142598 l -5.399390543451732 -4.828168318248842" fill="#ff5307" stroke="none" /><path d="M 115.6541949942343 113.99807769240083 l 1.105374457079352 0.9884326555975033 a22.482852590453618,22.482852590453618 0 0,0 -0.2597329395274831,0.28549199905475436 l -1.088243816709989 -1.0072622302099294" fill="#ff0000" stroke="none" /><path d="M 115.41159269507618 114.26474011684316 l 5.446007465205101 5.040743205623271 a28.4207876520021,28.4207876520021 0 0,0 -0.33447770803870747,0.3552037349700921 l -5.358673923430133 -5.1334884005378605" fill="#ff5507" stroke="none" /><path d="M 115.16444852881244 114.52719865689866 l 8.73064328151561 8.363758768550968 a33.090351229289695,33.090351229289695 0 0,0 -0.39647472018309055,0.4068179904243358 l -8.585781760181712 -8.51239945104304" fill="#ff950d" stroke="none" /><path d="M 114.91283532996324 114.78537596483092 l 5.370198771741812 5.324299912743125 a28.5622221872181,28.5622221872181 0 0,0 -0.3481980789986201,0.34522204492411374 l -5.278008772613227 -5.415701967895901" fill="#ff5708" stroke="none" /><path d="M 114.39649973595853 115.28858382429668 l 4.975553688488208 5.28386559468622 a28.2577799725355,28.2577799725355 0 0,0 -0.3560079671187292,0.32951565947475225 l -4.884115950055512 -5.368499000293352" fill="#ff5307" stroke="none" /><path d="M 113.86319453409587 115.77377054828091 l 4.682401683941889 5.327713579704194 a28.092913189737086,28.092913189737086 0 0,0 -0.3649677710190956,0.3152504680628985 l -4.590254433159938 -5.40730818023181" fill="#ff5107" stroke="none" /><path d="M 113.31354834802062 116.24036423190432 l 9.307887626587382 11.354109463078537 a35.681708816372435,35.681708816372435 0 0,0 -0.4770291553621312,0.3842609204375991 l -9.11160770087 -11.512218677309539" fill="#ffb711" stroke="none" /><path d="M 113.03279911837588 116.46651593811092 l 9.421402362699578 11.903634112338063 a36.1808869161291,36.1808869161291 0 0,0 -0.4903200290765542,0.381275820284113 l -9.215672388987793 -12.06361098424297" fill="#ffbd11" stroke="none" /><path d="M 111.27062007382361 117.71928675628689 l 6.445526904806729 10.133438867919041 a33.00963781179265,33.00963781179265 0 0,0 -0.4807395875478845,0.3000170579760439 l -6.27062318846913 -10.242591722736634" fill="#ff940d" stroke="none" /><path d="M 110.96478420261333 117.91015095944535 l 6.140304613647644 10.029726124586851 a32.76004876191432,32.76004876191432 0 0,0 -0.4821456174232772,0.2895145900938931 l -5.967226239666931 -10.133654715216666" fill="#ff900d" stroke="none" /><line stroke="#e1ed5e" stroke-width="0.3" x1="143.1302829299769" x2="145.66735839644613" y1="173.24464959558577" y2="177.55315839532614" /><path d="M 143.63769802327073 174.10635135553383 a86.0,86.0 0 0,1 -40.68552437913181,11.842963189579606" fill="none" id="id126" stroke="none" /><text fill="#e1ed5e" style="font-size:6.75px; font-family:Arial;" text-anchor="middle"><textPath startOffset="21.407464694133747" xlink:href="#id126">June</textPath></text><path d="M 110.02825361518725 118.45085714620011 l 3.3882454456318962 6.233989993924771 a28.09526873657365,28.09526873657365 0 0,0 -0.4257251778790532,0.22667467815459133 l -3.2807314519662896 -6.29123513980193" fill="#ff5107" stroke="none" /><path d="M 109.71004243097381 118.62028667847754 l 4.1511859970453955 7.960446503725004 a29.977808959915187,29.977808959915187 0 0,0 -0.4583361147475921,0.23402968596423324 l -4.013922660584221 -8.030534141362073" fill="#ff6b09" stroke="none" /><path d="M 109.06512990194946 118.94263497670748 l 4.60034876251124 9.612959584292149 a31.657025884644035,31.657025884644035 0 0,0 -0.4922083922189592,0.23037838061716498 l -4.434651656420775 -9.690514196479848" fill="#ff820b" stroke="none" /><path d="M 108.73861861582097 119.09545874513695 l 4.62377745422579 10.103788196456042 a32.111518971997086,32.111518971997086 0 0,0 -0.5032128813157856,0.22508072120310246 l -4.449651170054377 -10.181672668568995" fill="#ff880c" stroke="none" /><path d="M 108.4095320186766 119.2426549942271 l 2.740200272697029 6.2701144778914655 a27.84273579062885,27.84273579062885 0 0,0 -0.43960355235568577,0.18764061605759058 l -2.6321616451709122 -6.31622974360846" fill="#ff4d07" stroke="none" /><path d="M 108.07796709384702 119.3841803445677 l 2.498603901341196 5.995739778406601 a27.49553053615828,27.49553053615828 0 0,0 -0.4372385599881935,0.17782111590112026 l -2.3953108801625618 -6.037748150887013" fill="#ff4806" stroke="none" /><path d="M 107.74402155503746 119.51999308798841 l 2.5453704528757277 6.4159963002922895 a27.902457480328085,27.902457480328085 0 0,0 -0.4467419118800576,0.1728093686245256 l -2.434856278502141 -6.458745557054856" fill="#ff4e07" stroke="none" /><path d="M 107.407793817531 119.65005319985036 l 2.537438941197521 6.730858257407844 a28.19326415903246,28.19326415903246 0 0,0 -0.45432887817607,0.16683585717694258 l -2.4215209113673244 -6.773424963593508" fill="#ff5207" stroke="none" /><path d="M 106.72888874123015 119.89276391827305 l 3.6162481717121757 10.690795154476822 a32.28584741498824,32.28584741498824 0 0,0 -0.5265318397813404,0.17308147398735121 l -3.4321935942831012 -10.751297549866193" fill="#ff8a0c" stroke="none" /><path d="M 106.38641147887787 120.00534299687104 l 2.5545867197034746 8.002206514870398 a29.400072762489597,29.400072762489597 0 0,0 -0.4821043071437673,0.1493571467159679 l -2.4168417796880832 -8.04488024939301" fill="#ff6309" stroke="none" /><path d="M 106.0420521117495 120.11202640906438 l 2.6531587212122765 8.831502489807237 a30.22142545528706,30.22142545528706 0 0,0 -0.49813542061444077,0.1449999610374552 l -2.501163288216229 -8.875746145147211" fill="#ff6e0a" stroke="none" /><path d="M 105.69591212413111 120.21278271476187 l 2.4475291313695595 8.685417443649456 a30.023684115667663,30.023684115667663 0 0,0 -0.4972759879947987,0.13553478181607934 l -2.2980717424400656 -8.726152719609678" fill="#ff6b09" stroke="none" /><path d="M 105.3480935250658 120.30758222061773 l 1.9628027532172296 7.453081758386657 a28.70720587147074,28.70720587147074 0 0,0 -0.47762598941812723,0.12141065876818331 l -1.834571470573705 -7.48567764899011" fill="#ff5908" stroke="none" /><path d="M 104.9986988182912 120.39639698878246 l 2.3852084182136393 9.732464300680164 a31.02048305034897,31.02048305034897 0 0,0 -0.5182900037059299,0.1223150296440859 l -2.2177862607678303 -9.771975473970475" fill="#ff790b" stroke="none" /><path d="M 103.94208987418118 120.62667999033965 l 1.8428085539234653 9.642353050901786 a30.816868936919168,30.816868936919168 0 0,0 -0.520460620601647,0.09484526252909156 l -1.6770131997707611 -9.672566487362241" fill="#ff760a" stroke="none" /><path d="M 103.58742460773223 120.69131181640829 l 1.5038747719709062 8.673950045559407 a29.803354401739746,29.803354401739746 0 0,0 -0.5048439831038606,0.08307188530407113 l -1.3547532858139735 -8.698487929359148" fill="#ff6809" stroke="none" /><path d="M 103.2317021107853 120.74984581791261 l 1.0941391724806109 7.025158369808499 a28.109851661578247,28.109851661578247 0 0,0 -0.4774323034655737,0.07016610732512184 l -0.9733817634073517 -7.042905550432503" fill="#ff5107" stroke="none" /><path d="M 102.51750503828377 120.84855314841334 l 1.1944806216881843 9.892013063454652 a30.96387005149837,30.96387005149837 0 0,0 -0.5282496660452417,0.05919147690373253 l -1.0244950540421431 -9.911060300865357" fill="#ff780b" stroke="none" /><path d="M 101.80034050326958 120.92268563240118 l 0.8981200851952043 10.437516774498118 a31.476085915329286,31.476085915329286 0 0,0 -0.5387372000518023,0.041701666496190545 l -0.7188138903681662 -10.451396207989362" fill="#ff7f0b" stroke="none" /><path d="M 101.08105385017728 120.97215588758144 l 0.3559006551581045 6.904377630442846 a27.91354436885318,27.91354436885318 0 0,0 -0.4787495053326996,0.02055956369132234 l -0.23732538922457533 -6.909469762559999" fill="#ff4e07" stroke="none" /><path d="M 100.72087961077811 120.9876233191556 l 0.23806471427696413 6.930994404785908 a27.935081704447132,27.935081704447132 0 0,0 -0.4794015007918428,0.012347682106202958 l -0.1190498994143775 -6.934059804242156" fill="#ff4e07" stroke="none" /><line stroke="#e1ed5e" stroke-width="0.3" x1="101.45913802915013" x2="101.54496967792366" y1="184.9874750549273" y2="189.98673829345242" /><path d="M 101.47630435890484 185.9873277026323 a86.0,86.0 0 0,1 -42.54439059252881,-10.42667462771756" fill="none" id="id127" stroke="none" /><text fill="#e1ed5e" style="font-size:6.75px; font-family:Arial;" text-anchor="middle"><textPath startOffset="22.145653131862474" xlink:href="#id127">July</textPath></text><path d="M 100.36049292484886 120.99690560180557 l 0.11844607414180709 6.898890009291364 a27.899906726382596,27.899906726382596 0 0,0 -0.4789389989906585,0.004111115285667654 l -8.449948686879739e-16 -6.899906726382596" fill="#ff4e07" stroke="none" /><path d="M 100.0 121.0 l 8.230384446613006e-16 6.720618918322671 a27.72061891832267,27.72061891832267 0 0,0 -0.47586128535650307,-0.004084696815689329 l 0.11536836050765008 -6.719628619701417" fill="#ff4b07" stroke="none" /><path d="M 99.27912038922189 120.98762331915562 l -0.3334560456386166 9.70820893630829 a30.71393399634716,30.71393399634716 0 0,0 -0.5267794198138276,-0.022622174879148412 l 0.500061226053283 -9.701054193003314" fill="#ff750a" stroke="none" /><path d="M 98.91894614982273 120.97215588758144 l -0.4610739513057066 8.944711478434503 a29.956587107878235,29.956587107878235 0 0,0 -0.5133355743622061,-0.03088099342894769 l 0.614553877800359 -8.935478507180864" fill="#ff6a09" stroke="none" /><path d="M 98.19965949673042 120.92268563240118 l -0.5298801252830894 6.158010256404996 a27.180765588918508,27.180765588918508 0 0,0 -0.4645327922567812,-0.04399173839964056 l 0.6355124809248858 -6.148006762500172" fill="#ff4406" stroke="none" /><path d="M 97.84075906011543 120.88869738790638 l -0.6104297492859644 5.905354087113467 a26.936819971415762,26.936819971415762 0 0,0 -0.4595474057524215,-0.051493245338720225 l 0.7117130566391852 -5.894005081267776" fill="#ff4006" stroke="none" /><path d="M 96.76829788921471 120.74984581791261 l -1.3654121733485243 8.766925633501 a29.87261717118829,29.87261717118829 0 0,0 -0.506017236689287,-0.08326494373507896 l 1.515706913090875 -8.742194691270253" fill="#ff6909" stroke="none" /><path d="M 96.41257539226777 120.69131181640829 l -1.288282788488779 7.430472776174637 a28.541326025347853,28.541326025347853 0 0,0 -0.4820293809326735,-0.08784181044945051 l 1.4156469029725098 -7.407262791793821" fill="#ff5708" stroke="none" /><path d="M 96.05791012581884 120.62667999033965 l -1.4021436622355952 7.336608130331871 a28.46939259294885,28.46939259294885 0 0,0 -0.4792395398288728,-0.09586132985187026 l 1.527879687595426 -7.311457403817139" fill="#ff5607" stroke="none" /><path d="M 95.35216902796893 120.47920084513623 l -1.673138993204217 7.372159118920106 a28.559637832942613,28.559637832942613 0 0,0 -0.47717421982920905,-0.11261181660165463 l 1.7994453667733141 -7.342351158672224" fill="#ff5708" stroke="none" /><path d="M 95.00130118170881 120.39639698878247 l -1.4098811272782348 5.752796122409603 a26.9230421253834,26.9230421253834 0 0,0 -0.4479413528037672,-0.1138649402216845 l 1.5084277733073805 -5.727745950352656" fill="#ff4006" stroke="none" /><path d="M 94.30408787586889 120.21278271476187 l -2.814116701882631 9.986307406000034 a31.37523919815567,31.37523919815567 0 0,0 -0.5171535670273204,-0.15053586628481225 l 2.9851302812915583 -9.936527845412705" fill="#ff7e0b" stroke="none" /><path d="M 93.95794788825049 120.11202640906438 l -4.409703119248939 14.67846750576737 a36.326542007830156,36.326542007830156 0 0,0 -0.5956850007513527,-0.18454473593240114 l 4.661028752871926 -14.60060618202832" fill="#ffbf11" stroke="none" /><path d="M 92.93061703081489 119.77432235084164 l -2.5184147340962486 7.04445423061708 a28.48109271297796,28.48109271297796 0 0,0 -0.4589671784198365,-0.1685391052736055 l 2.638971064170204 -7.000184276334755" fill="#ff5608" stroke="none" /><path d="M 92.25597844496254 119.51999308798841 l -3.099668176244043 7.813188657252989 a29.405585035953585,29.405585035953585 0 0,0 -0.4676125685162776,-0.19017396074399026 l 3.233335205950761 -7.758827439929708" fill="#ff6309" stroke="none" /><path d="M 91.59046798132341 119.24265499422711 l -2.9423858142024515 6.7327545643278235 a28.347626712285876,28.347626712285876 0 0,0 -0.44422971485070756,-0.19869830107886102 l 3.057528931908794 -6.681252512339107" fill="#ff5407" stroke="none" /><line stroke="#e1ed5e" stroke-width="0.3" x1="58.13341422392154" x2="55.67067388415222" y1="173.97424548756322" y2="178.32567169271397" /><path d="M 57.64086615596768 174.84453072859336 a86.0,86.0 0 0,1 -31.369924170532247,-30.572349798747897" fill="none" id="id128" stroke="none" /><text fill="#e1ed5e" style="font-size:6.75px; font-family:Arial;" text-anchor="middle"><textPath startOffset="22.145653131862474" xlink:href="#id128">August</textPath></text><path d="M 89.65649057296885 118.27599006163327 l -4.745510296813342 8.384861988454954 a30.634613564777688,30.634613564777688 0 0,0 -0.4554455761480745,-0.262951625990317 l 4.888748340821817 -8.302163465188466" fill="#ff740a" stroke="none" /><path d="M 89.34428304082925 118.09573695890944 l -4.975985179153262 8.450310688469779 a30.806537576271225,30.806537576271225 0 0,0 -0.4533948404146754,-0.27225057457714624 l 5.120312776125364 -8.363646113356713" fill="#ff760a" stroke="none" /><path d="M 87.54013794807813 116.9041958592261 l -5.41463737750206 7.3459955137997035 a30.12589436814868,30.12589436814868 0 0,0 -0.41365293321169755,-0.31041287275816887 l 5.539943299624524 -7.251963613777519" fill="#ff6d0a" stroke="none" /><path d="M 87.2517909369889 116.68781488649013 l -5.380817941624597 7.043663412163001 a29.863768723559573,29.863768723559573 0 0,0 -0.4047110283065979,-0.31470574348398006 l 5.500938914566424 -6.950256617058228" fill="#ff6909" stroke="none" /><path d="M 85.60350026404147 115.28858382429668 l -8.90650330550724 9.458397865108342 a33.99180862334792,33.99180862334792 0 0,0 -0.42138109713610156,-0.40367355903033664 l 9.067556888508655 -9.304112175772422" fill="#ffa10e" stroke="none" /><path d="M 85.34317274990678 115.03919595460226 l -6.207125105501573 6.369057176120825 a29.893440919466666,29.893440919466666 0 0,0 -0.36442678145243185,-0.3613120413528192 l 6.315543807083968 -6.261565124539347" fill="#ff6a09" stroke="none" /><path d="M 84.58840730492382 114.26474011684316 l -6.017688073540645 5.56988224200273 a29.199765724714986,29.199765724714986 0 0,0 -0.3373300142711585,-0.37078477720478226 l 6.112415788653684 -5.465759889240273" fill="#ff6008" stroke="none" /><path d="M 83.8745106332314 113.45245675266167 l -15.266288875417189 12.735681144251929 a40.88107517806169,40.88107517806169 0 0,0 -0.44492856023289024,-0.5427404991121849 l 15.482664254888709 -12.471738363441249" fill="#fff917" stroke="none" /><path d="M 83.64595745247003 113.17365903436017 l -7.03508898327937 5.666969697110369 a30.033660528856835,30.033660528856835 0 0,0 -0.31997800338194204,-0.404281754416414 l 7.131333417302874 -5.545367998779275" fill="#ff6b09" stroke="none" /><path d="M 83.20337586046588 112.60449989151573 l -4.914759661587188 3.688127275259719 a27.14468431489196,27.14468431489196 0 0,0 -0.2764853882852317,-0.3751055297652215 l 4.9773470694562505 -3.6032154362256184" fill="#ff4306" stroke="none" /><path d="M 82.78059297857968 112.02048342749411 l -5.052373569878228 3.526949138880457 a27.16164336178699,27.16164336178699 0 0,0 -0.2636105562901946,-0.3846156797243132 l 5.112173862983749 -3.439698724086093" fill="#ff4306" stroke="none" /><path d="M 82.37810715431573 111.42229804090323 l -8.398209346263615 5.443617833961304 a31.0081414531316,31.0081414531316 0 0,0 -0.2856917517496588,-0.4491548858891451 l 8.490418789639165 -5.298649273393488" fill="#ff790b" stroke="none" /><path d="M 82.18462484594161 111.11811171558189 l -18.475500540485246 11.530078779374746 a42.77812748791912,42.77812748791912 0 0,0 -0.38343876256367726,-0.6263184021060463 l 18.67070726750433 -11.211223261144143" fill="#eeff19" stroke="none" /><path d="M 81.99639281039703 110.81064883170644 l -9.81821622435668 5.895556742460983 a32.45229056266902,32.45229056266902 0 0,0 -0.282684624305701,-0.48006029283290946 l 9.917974558792151 -5.7261452813345155" fill="#ff8c0c" stroke="none" /><line stroke="#e1ed5e" stroke-width="0.3" x1="26.387840678322732" x2="22.057713659400548" y1="142.50000000000003" y2="145.00000000000006" /><path d="M 25.521815274538298 143.00000000000003 a86.0,86.0 0 0,1 -11.493303480769221,-40.785679425670985" fill="none" id="id129" stroke="none" /><text fill="#e1ed5e" style="font-size:6.75px; font-family:Arial;" text-anchor="middle"><textPath startOffset="21.40746469413373" xlink:href="#id129">September</textPath></text><path d="M 81.63589988554817 110.18625677009913 l -7.039287202390899 3.9045739499970504 a29.04967465483791,29.04967465483791 0 0,0 -0.23814459923771622,-0.43815923981217636 l 7.1052771512439445 -3.783159876710287" fill="#ff5e08" stroke="none" /><path d="M 81.4637452351635 109.86951160357371 l -6.434124723841689 3.425809011929397 a28.289316041177496,28.289316041177496 0 0,0 -0.2245524151562772,-0.4306088644079257 l 6.491985207972916 -3.3148539044169687" fill="#ff5307" stroke="none" /><path d="M 81.1358732173502 109.22738970284198 l -8.705009281745662 4.258056253279733 a30.690625864791848,30.690625864791848 0 0,0 -0.2274332367025536,-0.4752479921441735 l 8.776821776408127 -4.107995759070454" fill="#ff740a" stroke="none" /><path d="M 80.68587082218212 108.24405325689762 l -7.103427245324245 3.032030695135222 a28.723463521365073,28.723463521365073 0 0,0 -0.189676287895827,-0.45515404172188345 l 7.154429377756558 -2.909644143972057" fill="#ff5908" stroke="none" /><path d="M 80.41425534168474 107.57618678355246 l -10.1895902976032 3.9415524244435973 a31.925364339354843,31.925364339354843 0 0,0 -0.1933298453338451,-0.512830383715385 l 10.25575082675148 -3.7660537605340676" fill="#ff850c" stroke="none" /><path d="M 80.16572619554312 106.89939002012753 l -9.837607597388827 3.422030589499255 a31.415796493579883,31.415796493579883 0 0,0 -0.1728086899011515,-0.5108781856008587 l 9.894901708862346 -3.252650729424235" fill="#ff7e0b" stroke="none" /><path d="M 80.05021161711548 106.5578916946017 l -9.881129896531366 3.248123661168091 a31.401299695247992,31.401299695247992 0 0,0 -0.16393763890724355,-0.5135323189373917 l 9.935432251215865 -3.0780223085393077" fill="#ff7e0b" stroke="none" /><path d="M 79.94057633289273 106.21446072829308 l -6.770103604827513 2.0973954026239094 a28.087550373369236,28.087550373369236 0 0,0 -0.13873067080044205,-0.46178928338932057 l 6.805110595631585 -1.9808685156438652" fill="#ff5107" stroke="none" /><path d="M 79.73907114497094 105.5222062557868 l -7.565323991269352 2.0619626953219305 a28.841289259412314,28.841289259412314 0 0,0 -0.12609208291273968,-0.47879217689782977 l 7.599605554986824 -1.931790014051298" fill="#ff5b08" stroke="none" /><path d="M 79.48165901384964 104.47187691870673 l -14.762983027970678 3.2175234390832474 a36.10953754968035,36.10953754968035 0 0,0 -0.12679999809461492,-0.6067838929987607 l 14.81604073688966 -2.9636230947990776" fill="#ffbd11" stroke="none" /><path d="M 79.407916724674 104.11899336999214 l -14.791524085000216 2.958719077792307 a36.08453523773383,36.08453523773383 0 0,0 -0.11628449003869566,-0.6084495890307869 l 14.84013486732107 -2.7043669237282058" fill="#ffbc11" stroke="none" /><path d="M 79.34024301695615 103.76489593502545 l -6.4876072101636035 1.1822581472586213 a27.59445082172323,27.59445082172323 0 0,0 -0.08092425190749475,-0.4667495802193413 l 6.506946279563333 -1.0707155341186874" fill="#ff4a06" stroke="none" /><path d="M 79.17382384314188 102.69636545807758 l -9.393224713973801 1.2161409981341764 a30.471624435890128,30.471624435890128 0 0,0 -0.06271047792372837,-0.5193327171438349 l 9.41271727815719 -1.0547146040669424" fill="#ff710a" stroke="none" /><path d="M 79.0935383218832 101.97986365728391 l -10.020530619910803 0.9489546680119573 a31.06536382186514,31.06536382186514 0 0,0 -0.04571989787192938,-0.5313345162110249 l 10.035344140480472 -0.7767991044252703" fill="#ff7a0b" stroke="none" /><path d="M 79.06263194458094 101.62068470465958 l -16.611146853739744 1.285807822714477 a37.66083736051287,37.66083736051287 0 0,0 -0.04436094930979888,-0.6449984670743922 l 16.630771764214607 -1.0004659314857414" fill="#ffd013" stroke="none" /><path d="M 79.03789590574601 101.26102812881392 l -13.827065143513408 0.8318019034020733 a34.85206211686429,34.85206211686429 0 0,0 -0.030799946526180875,-0.597510734336068 l 13.839306679496161 -0.5943193756892744" fill="#ffac0f" stroke="none" /><path d="M 79.01933749520258 100.90099992219065 l -12.006937845310057 0.5156295737514784 a33.01800442163615,33.01800442163615 0 0,0 -0.01945753045034284,-0.566484769033795 l 12.014020062757247 -0.3094385401535636" fill="#ff940d" stroke="none" /><line stroke="#e1ed5e" stroke-width="0.3" x1="15.003131293944662" x2="10.003315487706104" y1="100.72959589197737" y2="100.7725132973878" /><path d="M 14.003168132696942 100.73817937305945 a86.0,86.0 0 0,1 10.791469493833604,-42.45332614584628" fill="none" id="id130" stroke="none" /><text fill="#e1ed5e" style="font-size:6.75px; font-family:Arial;" text-anchor="middle"><textPath startOffset="22.145653131862435" xlink:href="#id130">October</textPath></text><path d="M 79.00077361379809 100.18025310272382 l -12.835171226146922 0.11017450809638854 a33.835644075259495,33.835644075259495 0 0,0 0.0,-0.5808552216404075 l 12.835171226146922 0.11017450809638382" fill="#ff9f0e" stroke="none" /><path d="M 79.00696218219943 99.45929381324524 l -20.95195636507847 -0.5396480742585851 a41.958904922924845,41.958904922924845 0 0,0 0.024726408651932708,-0.7198824090227975 l 20.939605269429688 0.8992367478455212" fill="#f8ff18" stroke="none" /><path d="M 79.01933749520258 99.09900007780938 l -4.236788446393283 -0.18194592566681847 a25.24069341727958,25.24069341727958 0 0,0 0.022306054801843667,-0.4327315040453047 l 4.233040802134869 0.25464922308883514" fill="#ff2803" stroke="none" /><path d="M 79.06263194458094 98.37931529534042 l -12.193843900240749 -0.9438806371372847 a33.23032050768095,33.23032050768095 0 0,0 0.0489061344516815,-0.5683634150152039 l 12.175844143091325 1.1530650995281693" fill="#ff970d" stroke="none" /><path d="M 79.0935383218832 98.0201363427161 l -11.705681138282854 -1.1085401741461742 a32.75805393034268,32.75805393034268 0 0,0 0.05782203267402073,-0.5593757142015877 l 11.68492671312717 1.3093204106306748" fill="#ff900d" stroke="none" /><path d="M 79.13060592940154 97.66154086499901 l -12.435934061499493 -1.3934723504672188 a33.51376127203488,33.51376127203488 0 0,0 0.06897118303661294,-0.5711803366352259 l 12.410180792203212 1.606746364025881" fill="#ff9a0e" stroke="none" /><path d="M 79.17382384314186 97.30363454192245 l -7.612956950596845 -0.9856496939627133 a28.676497824584438,28.676497824584438 0 0,0 0.06739725779218546,-0.4876529834778308 l 7.594915176249452 1.1161909856406111" fill="#ff5908" stroke="none" /><path d="M 79.2786578344484 96.59031103205396 l -17.9941513015188 -2.960930749087278 a39.236134238452,39.236134238452 0 0,0 0.11506497561782192,-0.6636642020362394 l 17.940671508408748 3.2693879840441102" fill="#ffe415" stroke="none" /><path d="M 79.83685265289637 94.1308016681162 l -9.703732500981417 -2.8246151073229075 a31.106476881441914,31.106476881441914 0 0,0 0.15364182161262727,-0.511423654854114 l 9.65381435936516 2.9907763657677453" fill="#ff7a0b" stroke="none" /><path d="M 79.94057633289273 93.78553927170692 l -10.85811554278313 -3.363871950844797 a32.36724714441051,32.36724714441051 0 0,0 0.16898058762786702,-0.5293292839787831 l 10.798770239378007 3.549770268514972" fill="#ff8b0c" stroke="none" /><path d="M 80.05021161711548 93.44210830539832 l -9.78054983170417 -3.215060996085451 a31.295424819743886,31.295424819743886 0 0,0 0.1721465621317362,-0.5089207225029666 l 9.723917848000069 3.382483393062579" fill="#ff7d0b" stroke="none" /><path d="M 80.16572619554312 93.10060997987247 l -10.430539344627936 -3.6282830300901967 a32.04357681035777,32.04357681035777 0 0,0 0.18518109680423156,-0.517984485697114 l 10.366718077779762 3.8068024721682323" fill="#ff870c" stroke="none" /><path d="M 80.28708602549916 92.7611449362534 l -9.24322435119459 -3.3942400137565225 a30.846728475869664,30.846728475869664 0 0,0 0.18679796984943386,-0.49550380795949317 l 9.18359569753072 3.5524121019101607" fill="#ff770a" stroke="none" /><path d="M 80.5471966667186 92.08871423366112 l -11.735615132724659 -4.772772508315608 a33.66901811347546,33.66901811347546 0 0,0 0.22233441200820075,-0.5335216508189458 l 11.65195487617998 4.9735266685758175" fill="#ff9d0e" stroke="none" /><path d="M 80.68587082218212 91.75594674310238 l -15.822873066670509 -6.753843625969793 a38.20400290072109,38.20400290072109 0 0,0 0.26263636143758295,-0.600963392595285 l 15.704602823215948 7.024469088340945" fill="#ffd714" stroke="none" /><line stroke="#e1ed5e" stroke-width="0.3" x1="26.387840678322718" x2="22.05771365940052" y1="57.49999999999999" y2="54.99999999999999" /><path d="M 25.521815274538284 56.99999999999999 a86.0,86.0 0 0,1 29.574782752854787,-30.34633250058573" fill="none" id="id131" stroke="none" /><text fill="#e1ed5e" style="font-size:6.75px; font-family:Arial;" text-anchor="middle"><textPath startOffset="21.40746469413373" xlink:href="#id131">November</textPath></text><path d="M 82.18462484594161 88.88188828441811 l -8.711936491610642 -5.436892702802087 a31.269257017702873,31.269257017702873 0 0,0 0.2880975251870711,-0.4529371613211041 l 8.61732127479768 5.585643538801863" fill="#ff7c0b" stroke="none" /><path d="M 82.576782715395 88.27688183743585 l -8.392046264370425 -5.646543251793577 a31.11483520368519,31.11483520368519 0 0,0 0.30197727389577295,-0.44059386731409794 l 8.29387925365934 5.78977185417771" fill="#ff7a0b" stroke="none" /><path d="M 82.98947788004972 87.6856937992154 l -11.299014418252353 -8.179615083669528 a34.94897235429437,34.94897235429437 0 0,0 0.3559768859145008,-0.4829510130834831 l 11.156935512754034 8.372372406021874" fill="#ffad10" stroke="none" /><path d="M 83.2033758604659 87.39550010848427 l -9.04359465201045 -6.786482025389882 a32.30676534252002,32.30676534252002 0 0,0 0.3366796053947105,-0.44072441102219934 l 8.925763069261432 6.940727349652965" fill="#ff8a0c" stroke="none" /><path d="M 84.58840730492382 85.73525988315684 l -4.685348023905472 -4.336688182742416 a27.384305013034123,27.384305013034123 0 0,0 0.3222795824360931,-0.34224974829310195 l 4.610212607733107 4.4164793909800295" fill="#ff4706" stroke="none" /><path d="M 84.83555147118756 85.47280134310135 l -9.156554289235949 -8.771771879450268 a33.680160423150795,33.680160423150795 0 0,0 0.40354156675348163,-0.41406919756076405 l 9.004625921331664 8.927663769078762" fill="#ff9d0e" stroke="none" /><path d="M 86.40962598614128 83.9905735841838 l -5.672562216424507 -6.6822640274932645 a29.765307446538166,29.765307446538166 0 0,0 0.3923714787030198,-0.3273302427092821 l 5.557016403559579 6.7786564541144285" fill="#ff6809" stroke="none" /><path d="M 86.68645165197937 83.75963576809568 l -8.871923059175037 -10.82230357768256 a34.99404421514533,34.99404421514533 0 0,0 0.4678357597884061,-0.37685537172973116 l 8.684836529031385 10.97300724320569" fill="#ffae10" stroke="none" /><path d="M 89.03521579738668 82.08984904055464 l -5.56442158471004 -9.089064476107092 a31.657104701710445,31.657104701710445 0 0,0 0.4659130516919207,-0.27976740077170725 l 5.407575776460685 9.183245877414723" fill="#ff820b" stroke="none" /><line stroke="#e1ed5e" stroke-width="0.3" x1="56.869717070023135" x2="54.33264160355391" y1="26.7553504044142" y2="22.446841604673864" /><path d="M 56.362301976729285 25.89364864446614 a86.0,86.0 0 0,1 42.16139366436587,-11.88097634709845" fill="none" id="id132" stroke="none" /><text fill="#e1ed5e" style="font-size:6.75px; font-family:Arial;" text-anchor="middle"><textPath startOffset="22.145653131862474" xlink:href="#id132">December</textPath></text><path d="M 89.34428304082924 81.90426304109057 l -4.460547591166799 -7.574984978648776 a29.79072705979537,29.79072705979537 0 0,0 0.4428994940944344,-0.2557081421393694 l 4.329855629211965 7.6504400180643195" fill="#ff6809" stroke="none" /><path d="M 89.97174638481275 81.54914285379989 l -5.3256597743716085 -9.798614143282215 a32.15237603209693,32.15237603209693 0 0,0 0.48720217392615855,-0.259407715844098 l 5.156668784658888 9.888592326848888" fill="#ff880c" stroke="none" /><path d="M 90.61103034731259 81.2157712731953 l -3.0725735658127453 -6.147205367059688 a27.87232436240743,27.87232436240743 0 0,0 0.42981745590520126,-0.21024525611061987 l 2.9665958606454907 6.199044373267522" fill="#ff4d07" stroke="none" /><path d="M 90.93487009805054 81.0573650232925 l -9.11577210498864 -19.04845770368036 a42.11731616373133,42.11731616373133 0 0,0 0.6548466223285537,-0.3065012843941099 l 8.787436768788563 19.20213521964501" fill="#f6ff19" stroke="none" /><path d="M 93.27111125876988 80.10723608172694 l -20.186666223690388 -59.67829175481917 a84.0,84.0 0 0,0 1.3699090494089559,-0.4503163143918858 l 19.15923443663367 60.01602899061309" fill="#4dd2ff" stroke="none" /><path d="M 95.35216902796891 79.52079915486377 l -0.9330695893328391 -4.111276773493683 a25.215829167175347,25.215829167175347 0 0,0 0.4229506061329044,-0.0921801160530197 l 0.8623565665808163 4.126688347680417" fill="#ff2803" stroke="none" /><path d="M 96.05791012581881 79.37332000966035 l -1.189438452209243 -6.223644590807548 a27.33628564888626,27.33628564888626 0 0,0 0.4616776682565318,-0.08413305044864006 l 1.0824260504016725 6.24314581518755" fill="#ff4606" stroke="none" /><path d="M 96.41257539226777 79.30868818359171 l -1.2338166846238028 -7.116326762885315 a28.222493351150547,28.222493351150547 0 0,0 0.4780655145209201,-0.07866549848915408 l 1.1114736670498098 7.136458259870137" fill="#ff5207" stroke="none" /><path d="M 97.84075906011542 79.11130261209362 l -0.8713714637137043 -8.429728466960984 a29.474645140326935,29.474645140326935 0 0,0 0.5037363338064317,-0.047704354544161 l 0.726535566522257 8.443444577010329" fill="#ff6409" stroke="none" /><path d="M 98.1996594967304 79.07731436759882 l -1.0487588207026626 -12.188167221655721 a33.233205437948165,33.233205437948165 0 0,0 0.5688116398763537,-0.044029618342659234 l 0.8393781860510916 12.204374606993433" fill="#ff970d" stroke="none" /><path d="M 98.9189461498227 79.02784411241856 l -0.30749933951776676 -5.965405037535651 a26.973325129746378,26.973325129746378 0 0,0 0.46262366012729467,-0.019867050512963346 l 0.20504991878965204 5.969804656474443" fill="#ff4106" stroke="none" /></svg>