<?xml version="1.0" encoding="utf-8" ?>
<svg baseProfile="full" height="200mm" version="1.1" viewBox="0,0,200,200" width="200mm" xmlns="http://www.w3.org/2000/svg" xmlns:ev="http://www.w3.org/2001/xml-events" xmlns:xlink="http://www.w3.org/1999/xlink"><defs /><rect fill="#1a1a1a" height="200" width="200" x="0" y="0" /><text alignment-baseline="middle" fill="#e1ed5e" style="dominant-baseline: central; font-size:9.0px; font-family:Arial;" text-anchor="middle" x="100.0" y="100.0">2013</text><line stroke="#e1ed5e" stroke-width="0.3" x1="100.0" x2="100.0" y1="15.0" y2="10.0" /><path d="M 100.0 14.0 a86.0,86.0 0 0,1 42.46469731375804,11.215312516191453" fill="none" id="id37" stroke="none" /><text fill="#e1ed5e" style="font-size:6.75px; font-family:Arial;" text-anchor="middle"><textPath startOffset="22.20632615414155" xlink:href="#id37">January</textPath></text><path d="M 100.36148047927253 79.00311137660856 l 0.045648690705998904 -2.6515414511080215 a23.651934363800734,23.651934363800734 0 0,0 0.4070085288188955,0.010511829507267572 l -0.09128385471976219 2.6503628294583943" fill="#ff0400" stroke="none" /><path d="M 101.80526077348638 79.07773832637324 l 1.1190984058884168 -12.969909960054164 a34.01810069149775,34.01810069149775 0 0,0 0.5829647458563824,0.055359527036179766 l -1.3421882788350434 12.948724888502806" fill="#ff970e" stroke="none" /><path d="M 103.95276090670814 79.375362276772 l 3.8955030195580123 -20.325878651495515 a41.69580360195532,41.69580360195532 0 0,0 0.7037330181330758,0.14116222306098622 l -4.2448024471582135 20.25581247235732" fill="#fffb17" stroke="none" /><path d="M 106.0581310904928 79.89281104454417 l 3.13117849597106 -10.392511606517377 a31.8539659233494,31.8539659233494 0 0,0 0.5236407130435498,0.16269771849501155 l -3.309604581725328 10.337073753139846" fill="#ff7a0b" stroke="none" /><path d="M 106.74666289553966 80.11325718540242 l 5.136365719633121 -15.14016420408224 a36.987708557901456,36.987708557901456 0 0,0 0.6011700266321252,0.20973641800904502 l -5.396217750328519 15.049506932900988" fill="#ffbf11" stroke="none" /><path d="M 107.08798089147638 80.2323363322302 l 3.6657925840757195 -10.223525710256215 a31.86087073938984,31.86087073938984 0 0,0 0.5146557367179235,0.18955205119164065 l -3.8412306465662196 10.15891039125825" fill="#ff7a0b" stroke="none" /><path d="M 107.4271985657038 80.35727306442388 l 4.77095501778002 -12.617754299570043 a34.48961583389233,34.48961583389233 0 0,0 0.5535038651769411,0.2147509004901688 l -4.987442047956629 12.533760695189327" fill="#ff9e0e" stroke="none" /><path d="M 107.76421540070413 80.48803036053334 l 1.728176447896814 -4.343017889476108 a25.674227018810143,25.674227018810143 0 0,0 0.40921799614501914,0.16693029547952104 l -1.8026783136302205 4.312626707813007" fill="#ff2203" stroke="none" /><path d="M 108.76106565485865 80.91482961587045 l 0.990430635660093 -2.1575614405710772 a23.374031215863262,23.374031215863262 0 0,0 0.36421391921875285,0.17100331864867932 l -1.0274227661784439 2.140193139282395" fill="#ff0000" stroke="none" /><path d="M 109.41281617654863 81.2277094730956 l 4.861425636013173 -9.695301884418868 a31.845844266100364,31.845844266100364 0 0,0 0.48790792411902645,0.2499253891803517 l -5.027594047720956 9.610183969926016" fill="#ff7a0b" stroke="none" /><line stroke="#e1ed5e" stroke-width="0.3" x1="143.23703022742887" x2="145.7803849466894" y1="26.81831364943548" y2="22.513508569990506" /><path d="M 143.74570117128098 25.957352633546492 a86.0,86.0 0 0,1 28.547481713284135,27.462654790039103" fill="none" id="id38" stroke="none" /><text fill="#e1ed5e" style="font-size:6.75px; font-family:Arial;" text-anchor="middle"><textPath startOffset="19.985693538727396" xlink:href="#id38">February</textPath></text><path d="M 114.68862486808459 84.99185889309783 l 9.10858425488024 -9.306719928451429 a34.02234014894739,34.02234014894739 0 0,0 0.41501454955668027,0.4132323451896943 l -9.267434604604244 9.148551732611617" fill="#ff970e" stroke="none" /><path d="M 114.94478906791727 85.2469230424477 l 11.32452906021067 -11.179257731511685 a36.91291179712625,36.91291179712625 0 0,0 0.4424904300053223,0.45602528412738685 l -11.515283753919102 10.982668251834184" fill="#ffbe11" stroke="none" /><path d="M 115.68641384162765 86.03803664274999 l 6.782322039743159 -6.036722781383501 a30.079752980674108,30.079752980674108 0 0,0 0.34091552147471,0.3897253742523542 l -6.885229424795717 5.919081850928198" fill="#ff6109" stroke="none" /><path d="M 117.04232023915458 87.72973835380427 l 5.283025092540966 -3.803713300725467 a27.509883946932796,27.509883946932796 0 0,0 0.27337931478022015,0.386675653337256 l -5.34771702712507 3.712211147056418" fill="#ff3d05" stroke="none" /><line stroke="#e1ed5e" stroke-width="0.3" x1="172.23445277983987" x2="176.4835382374775" y1="55.19839476539836" y2="52.563006222186495" /><path d="M 173.08426987136738 54.67131705675599 a86.0,86.0 0 0,1 12.851231095245387,41.99856678651699" fill="none" id="id39" stroke="none" /><text fill="#e1ed5e" style="font-size:6.75px; font-family:Arial;" text-anchor="middle"><textPath startOffset="22.20632615414155" xlink:href="#id39">March</textPath></text><path d="M 118.73160827565052 90.50648371742162 l 8.41843939970558 -4.26661663744561 a30.43790969746177,30.43790969746177 0 0,0 0.23283549616788535,0.4693821524598964 l -8.490634908826873 4.121074896486764" fill="#ff6609" stroke="none" /><path d="M 119.196687751892 91.48605970444005 l 22.34465379276361 -9.910097553042526 a45.44368193683768,45.44368193683768 0 0,0 0.3109847272989492,0.7177956272182574 l -22.51192922990524 9.524002781237666" fill="#d5ff1c" stroke="none" /><path d="M 119.47837535516314 92.15188598940014 l 7.823834695620706 -3.1523340921265373 a29.435022203455162,29.435022203455162 0 0,0 0.18530951403200643,0.47159250053653196 l -7.876937759534413 3.017192586694221" fill="#ff5808" stroke="none" /><path d="M 119.7369772167798 92.82701384747503 l 10.550817064856831 -3.8344708955584403 a32.225992507790075,32.225992507790075 0 0,0 0.18498781498382158,0.522985463686333 l -10.615257960650464 3.6522878054454924" fill="#ff7f0b" stroke="none" /><path d="M 120.28053869075195 94.5502522615342 l 8.39134287355394 -2.2549056780575136 a29.689029568282095,29.689029568282095 0 0,0 0.12837489466719323,0.4946808365679893 l -8.428914100091436 2.110128415940674" fill="#ff5c08" stroke="none" /><path d="M 120.45610955862082 95.25157060432595 l 12.094713037493891 -2.807517761620273 a33.41628927824807,33.41628927824807 0 0,0 0.12524045389341684,0.5614283976190191 l -12.141247878389347 2.59891119445129" fill="#ff8f0d" stroke="none" /><line stroke="#e1ed5e" stroke-width="0.3" x1="184.98032266829074" x2="189.97916517819016" y1="98.17113171792111" y2="98.06355123074" /><path d="M 185.9800911702706 98.14961562048488 a86.0,86.0 0 0,1 -9.607161424134198,41.387399972396054" fill="none" id="id40" stroke="none" /><text fill="#e1ed5e" style="font-size:6.75px; font-family:Arial;" text-anchor="middle"><textPath startOffset="21.466115282336823" xlink:href="#id40">April</textPath></text><path d="M 118.81262510543309 109.33194174019688 l 8.812131053180078 4.3712290620997365 a30.836732039237724,30.836732039237724 0 0,0 -0.23997046520460025,0.4734844938526091 l -8.735581918189208 -4.52226776765504" fill="#ff6c09" stroke="none" /><line stroke="#e1ed5e" stroke-width="0.3" x1="174.80103733775053" x2="179.2010983576182" y1="140.37084112569926" y2="142.7455964860345" /><path d="M 175.68104954172406 140.8457921977663 a86.0,86.0 0 0,1 -30.038265399797805,32.042727171017184" fill="none" id="id41" stroke="none" /><text fill="#e1ed5e" style="font-size:6.75px; font-family:Arial;" text-anchor="middle"><textPath startOffset="22.206326154141568" xlink:href="#id41">May</textPath></text><path d="M 118.12598468904814 110.60418214915192 l 14.959169976672314 8.751511487737455 a38.33106227878069,38.33106227878069 0 0,0 -0.33807837089678455,0.5666387958545722 l -14.806310730077302 -9.007712377478132" fill="#ffd013" stroke="none" /><path d="M 117.94076556474637 110.91462005526583 l 11.114380557159933 6.76165353664769 a34.00958929863026,34.00958929863026 0 0,0 -0.3085728262742433,0.497517647680931 l -10.996343091217728 -6.9519675156938945" fill="#ff970e" stroke="none" /><path d="M 117.75023020441432 111.22182372390056 l 10.998231786891996 6.953161562738956 a34.01182378284274,34.01182378284274 0 0,0 -0.31711188973130394,0.49216469499446325 l -10.876915033783641 -7.141447857654872" fill="#ff970e" stroke="none" /><path d="M 117.55443506779139 111.5257021239791 l 10.953826127124925 7.191945315901628 a34.10383089978667,34.10383089978667 0 0,0 -0.3264173383073817,0.48794963188348844 l -10.828405683406823 -7.379431861990923" fill="#ff990e" stroke="none" /><path d="M 116.71984013943494 112.70617746262583 l 17.846749380000343 13.562567755564412 a43.41538997110731,43.41538997110731 0 0,0 -0.45729468044895133,0.5911150184235416 l -17.610647882333325 -13.867760768101206" fill="#eeff19" stroke="none" /><path d="M 116.27256486870786 113.27417163493432 l 4.4324463735386965 3.6157209634566296 a26.72014151397289,26.72014151397289 0 0,0 -0.2937994075708063,0.3539003128780273 l -4.369550966074347 -3.6914825334484274" fill="#ff3104" stroke="none" /><path d="M 112.63410532772338 116.77436683061366 l 5.057719307452353 6.715160020339245 a29.406776950278797,29.406776950278797 0 0,0 -0.40695482634761687,0.3010554516161246 l -4.941379510686171 -6.801225420695138" fill="#ff5808" stroke="none" /><path d="M 112.04921762599082 117.19931262002967 l 6.8187606346026675 9.733245715697603 a32.88408889036735,32.88408889036735 0 0,0 -0.466395213402145,0.3207908805966063 l -6.650208536577639 -9.849177385659303" fill="#ff880c" stroke="none" /><path d="M 111.45004920935366 117.60387380957326 l 7.086850505508124 10.895675618962489 a33.99766122350765,33.99766122350765 0 0,0 -0.4933193363164857,0.31485974103373954 l -6.898249367144708 -11.016049788820037" fill="#ff970d" stroke="none" /><line stroke="#e1ed5e" stroke-width="0.3" x1="143.8653032363475" x2="146.44561519142675" y1="172.8068346515853" y2="177.08958963109032" /><path d="M 144.38136562736335 173.6633856474863 a86.0,86.0 0 0,1 -40.68145358897372,12.25698825130547" fill="none" id="id42" stroke="none" /><text fill="#e1ed5e" style="font-size:6.75px; font-family:Arial;" text-anchor="middle"><textPath startOffset="21.466115282336833" xlink:href="#id42">June</textPath></text><path d="M 107.93186726928326 119.44442032107085 l 23.79560180784979 58.33326096321254 a84.0,84.0 0 0,0 -1.343515695832535,0.5346126223757244 l -22.787965035975386 -58.73422042999433" fill="#4dd2ff" stroke="none" /><path d="M 103.7750983002368 120.6578951692458 l 1.9470082367828596 10.654316484049005 a31.830757167270377,31.830757167270377 0 0,0 -0.5398360430450839,0.09385741574047869 l -1.7633232222657258 -10.68625247831049" fill="#ff7a0b" stroke="none" /><path d="M 103.41894727170886 120.7198165907248 l 0.9388132858503407 5.689482039315635 a26.76641797491166,26.76641797491166 0 0,0 -0.4552383123953708,0.07109886194740124 l -0.8407391098464527 -5.704799208610142" fill="#ff3204" stroke="none" /><path d="M 102.34483914955558 120.86867818915974 l 1.1386476530179237 10.133774611438334 a31.197544133425232,31.197544133425232 0 0,0 -0.5341723779208488,0.055369151070576564 l -0.9640426784914723 -10.151873130964669" fill="#ff710a" stroke="none" /><path d="M 101.62511606390274 120.93702456842531 l 1.0059672325667315 12.960280887692399 a33.999263469938704,33.999263469938704 0 0,0 -0.5838762149213552,0.04026752227258888 l -0.782728256866446 -12.975676754481274" fill="#ff970d" stroke="none" /><path d="M 100.90346689309514 120.98055641714683 l 0.9319095770283322 21.64106023801293 a42.66111593812889,42.66111593812889 0 0,0 -0.7339329982520996,0.025278136427900996 l -0.5592562271015804 -21.653895172866925" fill="#f7ff18" stroke="none" /><line stroke="#e1ed5e" stroke-width="0.3" x1="102.19456741930631" x2="102.32365962044197" y1="184.97166512339345" y2="189.96999836594603" /><path d="M 102.22038585953345 185.97133177190398 a86.0,86.0 0 0,1 -42.740103519485714,-10.115201625700543" fill="none" id="id43" stroke="none" /><text fill="#e1ed5e" style="font-size:6.75px; font-family:Arial;" text-anchor="middle"><textPath startOffset="22.20632615414155" xlink:href="#id43">July</textPath></text><path d="M 100.18074693466247 120.99922214144158 l 0.13069583502206164 15.184273402559947 a36.18483586229965,36.18483586229965 0 0,0 -0.6228855393690237,0.0 l 0.13069583502205118 -15.184273402559947" fill="#ffb410" stroke="none" /><path d="M 99.45781275523022 120.99299961872073 l -0.33565257105363167 12.996163897480654 a34.00049763273062,34.00049763273062 0 0,0 -0.5849375156019072,-0.020146430745580392 l 0.5593104383301819 -12.988460668308981" fill="#ff970d" stroke="none" /><path d="M 97.65516085044442 120.86867818915974 l -1.6951634675604539 15.086672742240768 a36.18160971745823,36.18160971745823 0 0,0 -0.6183136913072917,-0.07486917714942556 l 1.954604581919135 -15.055258036365995" fill="#ffb410" stroke="none" /><path d="M 96.93821686468263 120.77559828337769 l -2.21322027114884 15.01771132502188 a36.179920863111064,36.179920863111064 0 0,0 -0.6153414376088218,-0.09610367741867129 l 2.471397572366179 -14.977389340256103" fill="#ffb410" stroke="none" /><path d="M 96.22490169976321 120.6578951692458 l -2.742648541416649 15.008177681390755 a36.256720431925416,36.256720431925416 0 0,0 -0.6129671401311259,-0.11747661128021639 l 3.00058329611947 -14.95874387176207" fill="#ffb510" stroke="none" /><path d="M 95.51606077576429 120.51570834832081 l -2.7760584585765127 12.701511516082684 a34.00134205990348,34.00134205990348 0 0,0 -0.5707041890341407,-0.12989041537084964 l 2.9942827970035157 -12.651844367134148" fill="#ff970d" stroke="none" /><path d="M 94.46302465271185 120.25689768951611 l -0.9341559673557114 3.4175882444633934 a24.542958760702792,24.542958760702792 0 0,0 -0.40655859025439584,-0.1148975186098857 l 0.9928457257147212 -3.4010019325149865" fill="#ff1101" stroke="none" /><path d="M 94.11515582081647 120.15858648285463 l -3.6455779908538726 12.487960083730746 a34.009203893407566,34.009203893407566 0 0,0 -0.560544598422504,-0.16888748928724423 l 3.8599975637166226 -12.423357225337776" fill="#ff970e" stroke="none" /><path d="M 93.76903079525671 120.05430185196036 l -3.8559938653760906 12.41047136883505 a33.99571038021749,33.99571038021749 0 0,0 -0.5573332115418682,-0.17844049433297324 l 4.069048422008899 -12.342258027842371" fill="#ff970d" stroke="none" /><path d="M 93.08242187328487 119.8279376855182 l -6.433538948871389 18.440530347309707 a40.53058071068793,40.53058071068793 0 0,0 -0.656750657722153,-0.23548741978997567 l 6.7500091672232685 -18.327055386479774" fill="#ffec16" stroke="none" /><path d="M 92.7421414339146 119.70592522655815 l -3.7453368292483895 10.16902256132704 a31.836815390939478,31.836815390939478 0 0,0 -0.5126178742778091,-0.19382821708398498 l 3.9198249242864818 -10.103046094136422" fill="#ff7a0b" stroke="none" /><path d="M 92.06813273071674 119.44442032107085 l -4.913116458699865 12.044162902131351 a34.00771207206804,34.00771207206804 0 0,0 -0.5401210749155898,-0.22577065311983352 l 5.119708993112917 -11.957807205991543" fill="#ff970e" stroke="none" /><path d="M 91.7346041902142 119.30500536409082 l -5.96550809318421 13.93329108354376 a36.15664498589996,36.15664498589996 0 0,0 -0.570034172789107,-0.249886229590595 l 6.2044629406310605 -13.828540300658712" fill="#ffb410" stroke="none" /><path d="M 90.7491055286396 118.85261126421891 l -2.8806874912502316 5.870619496781731 a27.539306820928296,27.539306820928296 0 0,0 -0.4237723516337371,-0.21248825447886646 l 2.9813137505667293 -5.820163401393562" fill="#ff3d05" stroke="none" /><line stroke="#e1ed5e" stroke-width="0.3" x1="58.666819895761336" x2="56.23545636021788" y1="174.27360380694188" y2="178.64263932499728" /><path d="M 58.180547188652646 175.14741091055294 a86.0,86.0 0 0,1 -31.652253787137756,-30.449443065178592" fill="none" id="id44" stroke="none" /><text fill="#e1ed5e" style="font-size:6.75px; font-family:Arial;" text-anchor="middle"><textPath startOffset="22.20632615414155" xlink:href="#id44">August</textPath></text><path d="M 88.24862548938628 117.40417183066458 l -7.2760559962741045 10.776078040429882 a34.0024939451765,34.0024939451765 0 0,0 -0.48225755843917517,-0.3317011461536564 l 7.46047043933617 -10.649236104911125" fill="#ff970d" stroke="none" /><path d="M 87.95078237400918 117.19931262002967 l -2.058480761398746 2.938319751254589 a24.587626792973538,24.587626792973538 0 0,0 -0.3445460303915536,-0.2458244444198862 l 2.108754119639187 -2.902451044990484" fill="#ff1202" stroke="none" /><path d="M 87.65650970185807 116.9893568818739 l -7.644453378589429 10.521687422175273 a34.00552089181316,34.00552089181316 0 0,0 -0.4705959742812577,-0.3481356514124689 l 7.824434323289251 -10.388541822023036" fill="#ff970e" stroke="none" /><path d="M 85.70375840098266 115.38237550388516 l -1.90714672988973 2.052039127695417 a23.801441277435966,23.801441277435966 0 0,0 -0.2977040815920803,-0.28149779089718 l 1.9421866458726271 -2.018906700052306" fill="#ff0601" stroke="none" /><path d="M 85.44109423537348 115.13401014063109 l -13.516602816637466 14.050534250375497 a40.496565451989404,40.496565451989404 0 0,0 -0.4982042672922966,-0.48759773364404485 l 13.756457036305557 -13.815786413808882" fill="#ffec16" stroke="none" /><path d="M 84.67929136418377 114.36230785411682 l -2.8067296720397814 2.631152159560148 a24.847166897688034,24.847166897688034 0 0,0 -0.2898287039389668,-0.31455181626152107 l 2.8516047839744774 -2.582449088497283" fill="#ff1602" stroke="none" /><path d="M 84.43433777217949 114.09645910891817 l -12.849814357571047 11.636953185643712 a38.335985938760516,38.335985938760516 0 0,0 -0.4387483314469919,-0.49293840151982693 l 13.048221538666377 -11.414040614383023" fill="#ffd013" stroke="none" /><path d="M 84.19399662182784 113.82643327865904 l -14.670280327739448 12.832950068252494 a40.49106801457326,40.49106801457326 0 0,0 -0.4543820701482497,-0.5285490010572665 l 14.889004907458476 -12.578523968033696" fill="#ffec16" stroke="none" /><path d="M 82.6465618267979 111.8261652097733 l -7.244671983808561 4.93715924855984 a29.767029918884766,29.767029918884766 0 0,0 -0.2849085988019865,-0.4258996983026557 l 7.328583688021278 -4.811722636051362" fill="#ff5d08" stroke="none" /><path d="M 82.44556493220864 111.52570212397912 l -5.995442776914098 3.936423318735041 a28.172221596934413,28.172221596934413 0 0,0 -0.26266590364494846,-0.4076633155016596 l 6.062313543936092 -3.8326384033119334" fill="#ff4606" stroke="none" /><line stroke="#e1ed5e" stroke-width="0.3" x1="26.63291911575756" x2="22.317208475507996" y1="142.92168965132927" y2="145.44649492493687" /><path d="M 25.769776987707644 143.4266507060508 a86.0,86.0 0 0,1 -11.730757126820373,-40.83630448921669" fill="none" id="id45" stroke="none" /><text fill="#e1ed5e" style="font-size:6.75px; font-family:Arial;" text-anchor="middle"><textPath startOffset="21.46611528233685" xlink:href="#id45">September</textPath></text><path d="M 81.51974371655577 109.97397251340807 l -11.462203816867731 6.186261925108587 a34.02505097669354,34.02505097669354 0 0,0 -0.27373557238251256,-0.5178045430038283 l 11.56699189747513 -5.9880423670186325" fill="#ff980e" stroke="none" /><path d="M 81.18737489456691 109.33194174019688 l -13.589996415027406 6.741273696986302 a36.17012767309943,36.17012767309943 0 0,0 -0.27187318385850373,-0.5601392849256005 l 13.704022855500629 -6.506345456095417" fill="#ffb410" stroke="none" /><path d="M 81.02952815118164 109.00673069616217 l -13.7245465766099 6.51608963274993 a36.1928470944575,36.1928470944575 0 0,0 -0.26235571507673133,-0.565090870015163 l 13.834676908526458 -6.27887869545594" fill="#ffb410" stroke="none" /><path d="M 80.45479744820244 107.68017299344265 l -7.2282581238671915 2.840301740820365 a28.766275135749392,28.766275135749392 0 0,0 -0.1771259014209239,-0.462419835991538 l 7.276078304881624 -2.7154583379956687" fill="#ff4f07" stroke="none" /><path d="M 80.0844068197444 106.66101706037122 l -8.260056932612942 2.7626784524961994 a29.709818181907927,29.709818181907927 0 0,0 -0.15803890056273537,-0.4863937224952096 l 8.306388084191926 -2.620085830023186" fill="#ff5c08" stroke="none" /><path d="M 79.97269907076064 106.31721596034903 l -14.721956897376476 4.643750119313226 a36.43698254384037,36.43698254384037 0 0,0 -0.18352653541903735,-0.5997753365236899 l 14.799710205301643 -4.389647810237488" fill="#ffb811" stroke="none" /><path d="M 79.86692584326677 105.97154293290107 l -13.176146849895646 3.908093021057445 a34.74350889952245,34.74350889952245 0 0,0 -0.16512657183740534,-0.574827259137077 l 13.241466058619157 -3.680708286415772" fill="#ffa10e" stroke="none" /><path d="M 79.76711848015287 105.62410040840567 l -9.587044272507146 2.6648947435154113 a30.950531738406152,30.950531738406152 0 0,0 -0.13826328193451576,-0.5145291072817065 l 9.631495630783437 -2.499474703058166" fill="#ff6d0a" stroke="none" /><path d="M 79.58551787078972 104.9243191809786 l -14.532929842184966 3.5055890580387783 a35.949755999403855,35.949755999403855 0 0,0 -0.13992917668218574,-0.6028112308600585 l 14.591119584797706 -3.2549091698301456" fill="#ffb110" stroke="none" /><path d="M 79.23777060512086 103.15116336523772 l -21.41232778113112 3.2498312962963523 a42.65754336163238,42.65754336163238 0 0,0 -0.10393398511421417,-0.7269140498167881 l 21.46509581726193 -2.880771774499163" fill="#f7ff18" stroke="none" /><path d="M 79.18660465613746 102.79330883721812 l -16.65493284611764 2.2352129642342717 a37.80425437513278,37.80425437513278 0 0,0 -0.08100639956805779,-0.6457007074648897 l 16.690940754932544 -1.9481945024819736" fill="#ffca12" stroke="none" /><path d="M 79.10278846688536 102.07522291339032 l -19.0792886544735 1.8946918790676555 a40.173135186435374,40.173135186435374 0 0,0 -0.06241260734633735,-0.6887179213081525 l 19.109075858096915 -1.5659925692109369" fill="#ffe815" stroke="none" /><path d="M 79.04373962182676 101.35467743843564 l -18.590996930738175 1.2017794990907926 a39.62979980684578,39.62979980684578 0 0,0 -0.038145850842521305,-0.6811197917264311 l 18.608929132468226 -0.8815879910289239" fill="#ffe115" stroke="none" /><path d="M 79.0095281055655 100.63252640178507 l -10.928836978430176 0.3293293244872212 a31.93379785367692,31.93379785367692 0 0,0 -0.01182757513978774,-0.5495809411818173 l 10.932886616254972 -0.14115856751527497" fill="#ff7b0b" stroke="none" /><line stroke="#e1ed5e" stroke-width="0.3" x1="15.007084014347285" x2="10.007500721073583" y1="101.09737516637583" y2="101.16192664675087" /><path d="M 14.007167355692545 101.11028546245083 a86.0,86.0 0 0,1 10.666146001902534,-42.60595125391555" fill="none" id="id46" stroke="none" /><text fill="#e1ed5e" style="font-size:6.75px; font-family:Arial;" text-anchor="middle"><textPath startOffset="22.20632615414155" xlink:href="#id46">October</textPath></text><path d="M 79.00019446554 99.90962569577889 l -21.686161323983175 -0.09332808999901747 a42.68636214541772,42.68636214541772 0 0,0 0.009486521347775277,-0.7347415328985004 l 21.681341795517685 0.46660588095798977" fill="#f7ff19" stroke="none" /><path d="M 79.03285615573316 98.82574320788736 l -15.14024030028184 -0.847923309863914 a36.16396551993208,36.16396551993208 0 0,0 0.04015820489817122,-0.6212296553324816 l 15.123401504379256 1.1084120294494075" fill="#ffb410" stroke="none" /><path d="M 79.05617556472873 98.46500227214037 l -21.492699453951367 -1.575225428829757 a42.55034721227278,42.55034721227278 0 0,0 0.059824807861998924,-0.7300141865980327 l 21.46240016226987 1.944953532635568" fill="#f8ff18" stroke="none" /><path d="M 79.46518482838121 95.60439243477599 l -13.893331026266674 -2.973955716417826 a35.208063189915734,35.208063189915734 0 0,0 0.13195581884920543,-0.5915320619650843 l 13.84008082041543 3.21266594793287" fill="#ffa70f" stroke="none" /><path d="M 79.91906864156998 93.8553929516997 l -41.55949691538798 -12.716879168201741 a64.46160143895743,64.46160143895743 0 0,0 0.3338021744764895,-1.0582441127603512 l 41.33443925714329 13.430373447388506" fill="#34ff5e" stroke="none" /><path d="M 80.14247586403 93.16781622104843 l -18.54763052508007 -6.3815015176991 a40.61474342721,40.61474342721 0 0,0 0.23314200923096204,-0.6591238553365413 l 18.4350354350393 6.699822999462252" fill="#ffee16" stroke="none" /><path d="M 80.2630227832202 92.82701384747504 l -9.921581802991268 -3.605788672821466 a31.556490772339785,31.556490772339785 0 0,0 0.18993312555307043,-0.5089263476732654 l 9.85804408893657 3.7760381575240727" fill="#ff760a" stroke="none" /><path d="M 80.52162464483688 92.15188598940014 l -20.378008471211878 -8.210588967249167 a42.969911252481126,42.969911252481126 0 0,0 0.2823293271079548,-0.6836828597532547 l 20.233657457217724 8.560146397455732" fill="#f3ff19" stroke="none" /><path d="M 81.10775173730289 90.83032412892265 l -16.279067732640666 -7.901323998921348 a39.09527471965632,39.09527471965632 0 0,0 0.299060210692779,-0.6028871358552214 l 16.140647508994476 8.18037072327553" fill="#ffda14" stroke="none" /><path d="M 81.43458229118936 90.18545643968196 l -14.691427201013335 -7.766571939782335 a37.61799244489204,37.61799244489204 0 0,0 0.3075573631642229,-0.569857084075025 l 14.55556173863064 8.018310007189834" fill="#ffc712" stroke="none" /><line stroke="#e1ed5e" stroke-width="0.3" x1="26.266209847984243" x2="21.928928074336255" y1="57.711370442889674" y2="55.22380399835377" /><path d="M 25.398753493254645 57.213857153982495 a86.0,86.0 0 0,1 29.58750427330803,-30.492523968695096" fill="none" id="id47" stroke="none" /><text fill="#e1ed5e" style="font-size:6.75px; font-family:Arial;" text-anchor="middle"><textPath startOffset="21.46611528233685" xlink:href="#id47">November</textPath></text><path d="M 81.96595687620814 89.24020034530311 l -37.13204450148292 -22.154397483842722 a64.23894143861763,64.23894143861763 0 0,0 0.5747372491015778,-0.9447169205385059 l 36.74519145409513 22.790282177588303" fill="#34ff5b" stroke="none" /><path d="M 82.54541684631803 88.32363383020206 l -13.596323799817565 -9.095356437447752 a37.358041740798555,37.358041740798555 0 0,0 0.3621515861405984,-0.5314127655027459 l 13.437747748008226 9.328047226220914" fill="#ffc412" stroke="none" /><path d="M 82.95767976084542 87.72973835380427 l -11.501365067092161 -8.280841850243107 a35.17228775305051,35.17228775305051 0 0,0 0.35798251886932114,-0.4882877534289119 l 11.357119935709205 8.477592047343519" fill="#ffa70f" stroke="none" /><path d="M 83.39014120810768 87.1503855733568 l -23.401267815553563 -18.103541534697218 a50.586442021199005,50.586442021199005 0 0,0 0.5387357778719443,-0.6841397284225562 l 23.08617795708765 18.50367365707282" fill="#9aff23" stroke="none" /><path d="M 84.5562425177563 85.77008943001954 l -15.697193816820127 -14.463427340776207 a42.34461581206672,42.34461581206672 0 0,0 0.49852251273092535,-0.5317890581043474 l 15.445903982118745 14.731485815758605" fill="#fbff18" stroke="none" /><path d="M 85.05521093208273 85.24692304244772 l -18.61118758989303 -18.37244283190132 a47.151920753888625,47.151920753888625 0 0,0 0.5751730500235304,-0.572703074157336 l 18.292178739702187 18.690081756708768" fill="#c1ff1e" stroke="none" /><path d="M 85.57189188830299 84.74124197986013 l -14.134887417115337 -14.948656128021943 a41.57321954212256,41.57321954212256 0 0,0 0.5242028942866511,-0.4871894605442002 l 13.87547663903383 15.18975017464079" fill="#fffa17" stroke="none" /><path d="M 86.65592168130627 83.78471172551755 l -9.798489000484308 -11.906803902268459 a36.42019344430177,36.42019344430177 0 0,0 0.48750440956269947,-0.3941946622071686 l 9.592081192357108 12.073704661739763" fill="#ffb711" stroke="none" /><path d="M 86.93701828274178 83.55741782278169 l -12.812655361823461 -16.12749242516562 a41.597576297822954,41.597576297822954 0 0,0 0.5644740490072117,-0.4405809487891292 l 12.533148757656823 16.345651763177973" fill="#fffa17" stroke="none" /><path d="M 88.09926311788651 82.69761687909137 l -4.833662205974876 -7.027621582873015 a29.529463959331355,29.529463959331355 0 0,0 0.42128041804318833,-0.28445041881802946 l 4.711977093525148 7.109783913989709" fill="#ff5908" stroke="none" /><line stroke="#e1ed5e" stroke-width="0.3" x1="56.762969772571076" x2="54.21961505331055" y1="26.818313649435495" y2="22.513508569990535" /><path d="M 56.25429882871897 25.957352633546506 a86.0,86.0 0 0,1 42.265352541879196,-11.944610805530505" fill="none" id="id48" stroke="none" /><text fill="#e1ed5e" style="font-size:6.75px; font-family:Arial;" text-anchor="middle"><textPath startOffset="22.20632615414155" xlink:href="#id48">December</textPath></text><path d="M 89.3179101791058 81.91981866633112 l -16.58382141143883 -28.06927327436523 a53.602258123594616,53.602258123594616 0 0,0 0.7984267375379873,-0.4625003012619483 l 16.098197941435522 28.350577733017225" fill="#78ff26" stroke="none" /><path d="M 91.23893434514133 80.91482961587045 l -13.467285128006498 -29.337233780130155 a53.28066069009485,53.28066069009485 0 0,0 0.8368054588332234,-0.3754502170848193 l 12.960297550706501 29.5647043277315" fill="#7cff26" stroke="none" /><path d="M 98.55514903715128 79.0497635885617 l -3.05501394277671 -44.29748533732601 a65.40270619456851,65.40270619456851 0 0,0 1.1237989763615333,-0.06779062321600655 l 2.2920529175755533 44.34350922992232" fill="#35ff69" stroke="none" /><path d="M 98.91598698831166 79.02799685794201 l -1.1095913207880697 -21.46685733017574 a42.49551480037843,42.49551480037843 0 0,0 0.7308402263091348,-0.0314715175081292 l 0.7399102620896106 21.48277657420806" fill="#f9ff18" stroke="none" /></svg>